<?xml version="1.0" encoding="UTF-8"?>
<svg viewBox="0 0 470.46 204.09" xmlns="http://www.w3.org/2000/svg">
<defs>
<style>.cls-1{fill:#7fdbff;}.cls-2{fill:#ffdc00;}.cls-3{fill:#f012be;}</style>
</defs>
<title>Asset 1</title>
<g data-name="Layer 2">
<g data-name="Layer 1">
<polygon class="cls-1" points="464.8 28.35 459.13 28.35 459.13 34.02 464.8 34.02 464.8 39.68 470.46 39.68 470.46 34.02 470.46 28.35"/>
<polygon class="cls-1" points="300.41 28.35 294.74 28.35 289.08 28.35 289.08 34.02 289.08 39.68 289.08 45.35 294.74 45.35 294.74 39.68 294.74 34.02 300.41 34.02 306.07 34.02 306.07 28.35"/>
<polygon points="297.61 121.92 297.61 36.85 461.96 36.85 461.96 110.58 456.3 110.58 456.3 116.25 450.63 116.25 450.63 121.92"/>
<path class="cls-1" d="M459.13,39.68v68.07h-5.67v5.66H447.8v5.67H300.44V39.68H459.13M464.8,34h-170v90.74h158.7v-5.67h5.66v-5.66h5.67V34Z"/>
<path class="cls-1" d="M319.32,66.76V60.44h2.36a1.9,1.9,0,0,1,0,3.8h-1.35v2.52Zm1-3.36h1.2c.63,0,.94-.29.94-.87v-.39c0-.58-.31-.86-.94-.86h-1.2Z"/>
<path class="cls-1" d="M324.67,66h1.55V60.85h-1.55v-.79h2.54V66h1.55v.8h-4.09Z"/>
<path class="cls-1" d="M333.9,66.76A.81.81,0,0,1,333,66H333a1.33,1.33,0,0,1-1.4.9A1.39,1.39,0,0,1,330,65.46c0-.91.66-1.4,2-1.4h.9V63.7c0-.63-.34-1-1-1a1.33,1.33,0,0,0-1.21.64l-.59-.48A2,2,0,0,1,332,62c1.18,0,1.9.59,1.9,1.66V66h.59v.78Zm-1-1.39v-.68h-.88c-.73,0-1.07.22-1.07.64v.18c0,.42.32.64.85.64S332.93,65.83,332.93,65.37Z"/>
<path class="cls-1" d="M335.58,66.76v-.87l2.84-3h-2.74v-.79h3.85V63l-2.85,3h2.94v.8Z"/>
<path class="cls-1" d="M344.78,66.76a.82.82,0,0,1-.9-.79h0a1.35,1.35,0,0,1-1.41.9,1.39,1.39,0,0,1-1.57-1.41c0-.91.66-1.4,2.05-1.4h.9V63.7c0-.63-.34-1-1-1a1.3,1.3,0,0,0-1.2.64l-.59-.48a2,2,0,0,1,1.88-.93c1.18,0,1.91.59,1.91,1.66V66h.59v.78Zm-1-1.39v-.68h-.88c-.73,0-1.07.22-1.07.64v.18c0,.42.33.64.85.64S343.81,65.83,343.81,65.37Z"/>
<path class="cls-1" d="M352,66.76V60.44h4v.85H353v1.84h2.83V64H353v1.93h2.94v.85Z"/>
<path class="cls-1" d="M358.76,66.76l-1.68-4.67h1l.65,2,.6,1.88h.06l.61-1.88.64-2h1L360,66.76Z"/>
<path class="cls-1" d="M362.63,64.43a2.18,2.18,0,0,1,2.2-2.45A2.11,2.11,0,0,1,367,64.3v.37h-3.35v.15a1.19,1.19,0,0,0,1.29,1.25,1.46,1.46,0,0,0,1.3-.71l.61.54a2.11,2.11,0,0,1-1.93,1A2.18,2.18,0,0,1,362.63,64.43Zm1-.46V64H366v-.09a1.11,1.11,0,0,0-1.14-1.21A1.17,1.17,0,0,0,363.63,64Z"/>
<path class="cls-1" d="M368.29,66.76V62.09h1v.79h0a1.34,1.34,0,0,1,1.35-.9,1.56,1.56,0,0,1,1.58,1.77v3h-1V63.9c0-.74-.34-1.12-1-1.12s-1,.27-1,.81v3.17Z"/>
<path class="cls-1" d="M376,66.76a1.08,1.08,0,0,1-1.2-1.18v-2.7h-1.44v-.79h1c.35,0,.48-.12.48-.48V60.44h.93v1.65h2v.79h-2V66h2v.8Z"/>
<path class="cls-1" d="M384.38,63.6c0-2.09.77-3.27,2.37-3.27a2,2,0,0,1,2.08,1.57l-.92.3c-.19-.58-.45-1-1.17-1-.9,0-1.29.73-1.29,1.89v1.07c0,1.16.39,1.9,1.29,1.9.72,0,1-.45,1.17-1l.92.3a2,2,0,0,1-2.08,1.57C385.15,66.87,384.38,65.69,384.38,63.6Z"/>
<path class="cls-1" d="M389.84,64.43A2.18,2.18,0,0,1,392,62a2.11,2.11,0,0,1,2.15,2.32v.37h-3.36v.15a1.19,1.19,0,0,0,1.3,1.25,1.44,1.44,0,0,0,1.29-.71l.62.54a2.12,2.12,0,0,1-1.93,1A2.18,2.18,0,0,1,389.84,64.43Zm1-.46V64h2.35v-.09A1.11,1.11,0,0,0,392,62.73,1.18,1.18,0,0,0,390.83,64Z"/>
<path class="cls-1" d="M395.5,66.76V62.09h1v.79h0a1.34,1.34,0,0,1,1.35-.9,1.56,1.56,0,0,1,1.58,1.77v3h-1V63.9c0-.74-.34-1.12-1-1.12s-1,.27-1,.81v3.17Z"/>
<path class="cls-1" d="M403.17,66.76A1.08,1.08,0,0,1,402,65.58v-2.7h-1.44v-.79h1c.35,0,.48-.12.48-.48V60.44H403v1.65h2v.79h-2V66h2v.8Z"/>
<path class="cls-1" d="M410.08,66.76a.81.81,0,0,1-.9-.79h-.05a1.33,1.33,0,0,1-1.4.9,1.39,1.39,0,0,1-1.57-1.41c0-.91.66-1.4,2-1.4h.9V63.7c0-.63-.34-1-1-1a1.3,1.3,0,0,0-1.2.64l-.59-.48a2,2,0,0,1,1.88-.93c1.18,0,1.9.59,1.9,1.66V66h.59v.78Zm-1-1.39v-.68h-.88c-.73,0-1.07.22-1.07.64v.18c0,.42.32.64.85.64S409.11,65.83,409.11,65.37Z"/>
<path class="cls-1" d="M411.75,66H413V62.88h-1.24v-.79H414v1h0a1.46,1.46,0,0,1,1.44-1h.66V63h-1c-.73,0-1.18.3-1.18.78V66h1.69v.8h-3.92Z"/>
<path class="cls-1" d="M318.91,80.55l.65-.62a2.1,2.1,0,0,0,1.69.84c.8,0,1.25-.38,1.25-1s-.28-.83-1.05-1l-.68-.11a1.69,1.69,0,0,1-1.63-1.76c0-1.19.84-1.83,2.18-1.83a2.54,2.54,0,0,1,2.14.91l-.64.64a1.79,1.79,0,0,0-1.5-.71c-.74,0-1.15.33-1.15.94s.27.81,1.05.94l.67.11a1.71,1.71,0,0,1,1.63,1.76c0,1.17-.82,2-2.3,2A2.7,2.7,0,0,1,318.91,80.55Z"/>
<path class="cls-1" d="M324.67,80.71h1.55V75.59h-1.55V74.8h2.54v5.91h1.55v.79h-4.09Z"/>
<path class="cls-1" d="M333.9,81.5a.81.81,0,0,1-.9-.79H333a1.33,1.33,0,0,1-1.4.9A1.39,1.39,0,0,1,330,80.2c0-.91.66-1.4,2-1.4h.9v-.36c0-.63-.34-1-1-1a1.33,1.33,0,0,0-1.21.64l-.59-.48a2,2,0,0,1,1.89-.93c1.18,0,1.9.59,1.9,1.66v2.34h.59v.78Zm-1-1.39v-.68h-.88c-.73,0-1.07.22-1.07.64v.18c0,.42.32.64.85.64S332.93,80.57,332.93,80.11Z"/>
<path class="cls-1" d="M337,81.5l-1.68-4.67h1l.64,2,.61,1.88h.05l.61-1.88.64-2h1L338.2,81.5Z"/>
<path class="cls-1" d="M340.82,79.16A2.23,2.23,0,1,1,343,81.61,2.17,2.17,0,0,1,340.82,79.16Zm3.41.36v-.71A1.15,1.15,0,0,0,343,77.5c-.72,0-1.19.44-1.19,1.31v.71c0,.87.47,1.31,1.19,1.31A1.15,1.15,0,0,0,344.23,79.52Z"/>
<path class="cls-1" d="M346.52,81.5V76.83h1v.79h.05a1.33,1.33,0,0,1,1.35-.9,1.55,1.55,0,0,1,1.57,1.77v3h-1V78.64c0-.75-.34-1.12-1-1.12s-1,.27-1,.81V81.5Z"/>
<path class="cls-1" d="M351.74,80.71l.6-.54a2.07,2.07,0,0,0,1.61.69c.63,0,1.07-.21,1.07-.67s-.32-.51-.72-.56l-.74-.12c-.74-.11-1.56-.37-1.56-1.33s.8-1.46,2-1.46a2.48,2.48,0,0,1,1.92.73l-.55.58a1.75,1.75,0,0,0-1.4-.56c-.65,0-1,.22-1,.62s.33.51.72.57l.74.11c.74.11,1.56.37,1.56,1.33s-.78,1.51-2.06,1.51A2.69,2.69,0,0,1,351.74,80.71Z"/>
<path class="cls-1" d="M357.44,74.8h1v4h0l.74-.76,1.31-1.26h1.17l-1.89,1.84,2.1,2.83h-1.19l-1.63-2.27-.65.6V81.5h-1Z"/>
<path class="cls-1" d="M366.54,81.5a.81.81,0,0,1-.89-.79h0a1.33,1.33,0,0,1-1.4.9,1.39,1.39,0,0,1-1.57-1.41c0-.91.66-1.4,2.05-1.4h.89v-.36c0-.63-.33-1-1-1a1.33,1.33,0,0,0-1.21.64l-.59-.48a2,2,0,0,1,1.89-.93c1.18,0,1.9.59,1.9,1.66v2.34h.59v.78Zm-1-1.39v-.68h-.87c-.73,0-1.07.22-1.07.64v.18c0,.42.32.64.85.64S365.57,80.57,365.57,80.11Z"/>
<path class="cls-1" d="M377.43,81.5a.82.82,0,0,1-.9-.79h0a1.33,1.33,0,0,1-1.4.9,1.39,1.39,0,0,1-1.57-1.41c0-.91.66-1.4,2.05-1.4h.9v-.36c0-.63-.34-1-1-1a1.3,1.3,0,0,0-1.2.64l-.59-.48a2,2,0,0,1,1.88-.93c1.18,0,1.91.59,1.91,1.66v2.34H378v.78Zm-1-1.39v-.68h-.88c-.73,0-1.07.22-1.07.64v.18c0,.42.32.64.85.64S376.46,80.57,376.46,80.11Z"/>
<path class="cls-1" d="M380.52,81.5l-1.68-4.67h1l.64,2,.61,1.88h.05l.61-1.88.64-2h1l-1.67,4.67Z"/>
<path class="cls-1" d="M384.39,79.17a2.19,2.19,0,0,1,2.21-2.45A2.11,2.11,0,0,1,388.75,79v.37h-3.36v.15a1.19,1.19,0,0,0,1.3,1.25A1.44,1.44,0,0,0,388,80.1l.62.54a2.12,2.12,0,0,1-1.93,1A2.19,2.19,0,0,1,384.39,79.17Zm1-.46v.06h2.35v-.09a1.11,1.11,0,0,0-1.14-1.21A1.18,1.18,0,0,0,385.39,78.71Z"/>
<path class="cls-1" d="M390.05,81.5V76.83h1v.79h0a1.34,1.34,0,0,1,1.35-.9A1.55,1.55,0,0,1,394,78.49v3h-1V78.64c0-.75-.34-1.12-1-1.12s-1,.27-1,.81V81.5Z"/>
<path class="cls-1" d="M395.65,80.71h1.59V77.62h-1.59v-.79h2.58v3.88h1.5v.79h-4.08Zm1.41-5.27v-.19c0-.3.18-.54.67-.54s.68.24.68.54v.19c0,.3-.18.53-.67.53S397.06,75.74,397.06,75.44Z"/>
<path class="cls-1" d="M401.06,82.52h2.07v-4.9H401v-.79h3.11v5.3a1.09,1.09,0,0,1-1.21,1.19h-1.85ZM403,75.44v-.19c0-.3.18-.54.67-.54s.68.24.68.54v.19c0,.3-.18.53-.67.53S403,75.74,403,75.44Z"/>
<path class="cls-1" d="M410.08,81.5a.81.81,0,0,1-.9-.79h-.05a1.33,1.33,0,0,1-1.4.9,1.39,1.39,0,0,1-1.57-1.41c0-.91.66-1.4,2-1.4h.9v-.36c0-.63-.34-1-1-1a1.3,1.3,0,0,0-1.2.64l-.59-.48a2,2,0,0,1,1.88-.93c1.18,0,1.9.59,1.9,1.66v2.34h.59v.78Zm-1-1.39v-.68h-.88c-.73,0-1.07.22-1.07.64v.18c0,.42.32.64.85.64S409.11,80.57,409.11,80.11Z"/>
<path class="cls-1" d="M417,79.15a4.94,4.94,0,0,1,2.3-4h1.36c-1.46,1-2.29,1.86-2.61,3.23l.07,0a1.58,1.58,0,0,1,1.5-.92,1.83,1.83,0,0,1,1.89,2,2.08,2.08,0,0,1-2.25,2.14A2.19,2.19,0,0,1,417,79.15Zm3.46.45v-.09a1.21,1.21,0,0,0-2.42,0v.09a1.21,1.21,0,0,0,2.42,0Z"/>
<path class="cls-1" d="M323.56,96.24H319v-.9l3.33-4.57h-3.2v-.85h4.31v.89l-3.33,4.58h3.46Z"/>
<path class="cls-1" d="M328.45,96.24a.81.81,0,0,1-.89-.79h-.05a1.33,1.33,0,0,1-1.4.9,1.39,1.39,0,0,1-1.57-1.41c0-.91.66-1.4,2-1.4h.89v-.36c0-.63-.33-1-1-1a1.33,1.33,0,0,0-1.21.64l-.59-.48a2,2,0,0,1,1.89-.93c1.18,0,1.9.59,1.9,1.66v2.34h.59v.78Zm-1-1.39v-.68h-.87c-.73,0-1.07.22-1.07.64V95c0,.42.32.64.85.64S327.48,95.31,327.48,94.85Z"/>
<path class="cls-1" d="M332.15,98.16c-1.62,0-2.18-.42-2.18-1.12,0-.51.3-.77.82-.91V96a.69.69,0,0,1-.52-.68c0-.46.35-.67.84-.79v0a1.5,1.5,0,0,1-.89-1.43,1.67,1.67,0,0,1,1.9-1.64,2.39,2.39,0,0,1,.88.15v-.15a.58.58,0,0,1,.62-.64h.86v.78h-1.09v.22A1.47,1.47,0,0,1,334,93.1c0,1-.75,1.63-1.9,1.63a2.65,2.65,0,0,1-.58-.06c-.22.06-.49.2-.49.46s.32.32.73.32h1.05c1.26,0,1.77.53,1.77,1.3C334.6,97.71,333.8,98.16,332.15,98.16Zm.65-1.86h-1.62a.55.55,0,0,0-.35.52c0,.36.27.65,1,.65h.74c.74,0,1.15-.23,1.15-.66S333.46,96.3,332.8,96.3Zm.25-3.09V93c0-.5-.3-.83-.93-.83s-.93.33-.93.83v.24c0,.5.3.84.93.84S333.05,93.71,333.05,93.21Z"/>
<path class="cls-1" d="M335.57,95.44h1.24V92.36h-1.24v-.79h2.23v1h.05a1.46,1.46,0,0,1,1.44-1H340v.94h-1c-.72,0-1.17.3-1.17.78v2.15h1.69v.8h-3.92Z"/>
<path class="cls-1" d="M340.86,93.91a2.19,2.19,0,0,1,2.21-2.45,2.1,2.1,0,0,1,2.14,2.32v.37h-3.35v.15a1.19,1.19,0,0,0,1.3,1.25,1.45,1.45,0,0,0,1.29-.71l.62.54a2.14,2.14,0,0,1-1.93,1A2.19,2.19,0,0,1,340.86,93.91Zm1-.46v.06h2.35v-.09a1.11,1.11,0,0,0-1.14-1.21A1.18,1.18,0,0,0,341.86,93.45Z"/>
<path class="cls-1" d="M346.48,89.54h1v2.82h.06a1.47,1.47,0,0,1,1.41-.9c1.1,0,1.81.84,1.81,2.44s-.71,2.45-1.81,2.45a1.46,1.46,0,0,1-1.41-.91h-.06v.8h-1Zm3.21,4.74v-.76a1.12,1.12,0,0,0-1.16-1.26c-.58,0-1.07.29-1.07.86v1.56c0,.57.49.86,1.07.86A1.12,1.12,0,0,0,349.69,94.28Z"/>
<path class="cls-1" d="M353.41,94.86h1.41l-1.13,2.7h-.77Z"/>
<path class="cls-1" d="M362.61,93.08c0-2.09.77-3.27,2.38-3.27a2,2,0,0,1,2.07,1.56l-.91.31c-.2-.58-.46-1-1.17-1-.9,0-1.29.73-1.29,1.89v1.07c0,1.16.39,1.9,1.29,1.9.71,0,1-.46,1.17-1l.91.31A2,2,0,0,1,365,96.35C363.38,96.35,362.61,95.17,362.61,93.08Z"/>
<path class="cls-1" d="M368.21,95.44h1.25V92.36h-1.25v-.79h2.24v1h.05a1.45,1.45,0,0,1,1.44-1h.66v.94h-1c-.72,0-1.17.3-1.17.78v2.15h1.69v.8h-3.93Z"/>
<path class="cls-1" d="M373.47,93.9a2.23,2.23,0,1,1,2.22,2.45A2.17,2.17,0,0,1,373.47,93.9Zm3.4.36v-.71c0-.87-.47-1.31-1.18-1.31s-1.19.44-1.19,1.31v.71c0,.87.47,1.31,1.19,1.31S376.87,95.13,376.87,94.26Z"/>
<path class="cls-1" d="M382.87,96.24a.83.83,0,0,1-.9-.79h0a1.35,1.35,0,0,1-1.41.9A1.39,1.39,0,0,1,379,94.94c0-.91.66-1.4,2.05-1.4h.9v-.36c0-.63-.34-1-1-1a1.3,1.3,0,0,0-1.2.64l-.59-.48a2,2,0,0,1,1.88-.93c1.18,0,1.91.59,1.91,1.66v2.34h.59v.78Zm-1-1.39v-.68H381c-.73,0-1.07.22-1.07.64V95c0,.42.33.64.85.64S381.9,95.31,381.9,94.85Z"/>
<path class="cls-1" d="M386.85,96.24a1.09,1.09,0,0,1-1.2-1.19V92.36h-1.44v-.79h1c.34,0,.48-.12.48-.49V89.92h.92v1.65h2v.79h-2v3.08h2v.8Z"/>
<path class="cls-1" d="M390.21,95.44h1.59V92.36h-1.59v-.79h2.58v3.87h1.5v.8h-4.08Zm1.41-5.26V90c0-.3.18-.54.67-.54s.68.24.68.54v.19c0,.3-.18.53-.67.53S391.62,90.48,391.62,90.18Z"/>
<path class="cls-1" d="M399.19,96.24a.81.81,0,0,1-.89-.79h-.05a1.33,1.33,0,0,1-1.4.9,1.39,1.39,0,0,1-1.57-1.41c0-.91.66-1.4,2.05-1.4h.89v-.36c0-.63-.33-1-1-1a1.33,1.33,0,0,0-1.21.64l-.59-.48a2,2,0,0,1,1.89-.93c1.18,0,1.9.59,1.9,1.66v2.34h.59v.78Zm-1-1.39v-.68h-.88c-.72,0-1.07.22-1.07.64V95c0,.42.33.64.86.64S398.22,95.31,398.22,94.85Z"/>
<rect class="cls-2" y="147.4" width="5.67" height="5.67"/>
<polygon class="cls-2" points="0 5.67 0 11.33 5.67 11.33 5.67 5.67 5.67 0 0 0"/>
<rect class="cls-2" x="5.67" width="5.67" height="5.67"/>
<polygon points="14.17 144.56 14.17 138.89 8.51 138.89 8.51 19.86 14.16 19.86 14.16 14.2 19.83 14.2 19.83 8.54 257.92 8.54 257.92 14.2 263.59 14.2 263.59 144.56"/>
<path class="cls-2" d="M255.09,11.37V17h5.66V141.73H17v-5.67H11.34V22.7H17V17h5.66V11.37H255.09m5.67-5.67H17v5.67H11.33V17H5.67v124.7h5.66v5.66H266.42v-136h-5.66V5.7Z"/>
<polygon class="cls-2" points="289.08 102.04 289.08 96.38 283.42 96.38 283.42 90.71 277.75 90.71 277.75 85.05 272.09 85.05 272.09 79.38 266.42 79.38 266.42 85.05 266.42 90.71 266.42 96.38 266.42 96.38 266.42 102.04 266.42 102.04 266.42 107.7 272.09 107.7 277.75 107.7 277.75 107.7 283.42 107.7 289.08 107.7 289.08 107.7 294.74 107.7 294.74 102.04"/>
<path class="cls-2" d="m36.89 35.4v11h-2v-11h-4v-1.71h10v1.71z"/>
<path class="cls-2" d="M42.41,41.72c0-3,1.75-4.93,4.42-4.93s4.31,1.89,4.31,4.65v.75H44.41v.31A2.4,2.4,0,0,0,47,45a2.91,2.91,0,0,0,2.6-1.44l1.24,1.09a4.29,4.29,0,0,1-3.87,2C44.1,46.61,42.41,44.7,42.41,41.72Zm2-.93v.13h4.71v-.19a2.22,2.22,0,0,0-2.29-2.43A2.36,2.36,0,0,0,44.41,40.79Z"/>
<path class="cls-2" d="M53.58,41.7c0-3,1.67-4.91,4.43-4.91A3.67,3.67,0,0,1,61.66,39l-1.54.84A2.09,2.09,0,0,0,58,38.42a2.26,2.26,0,0,0-2.36,2.5v1.56A2.27,2.27,0,0,0,58.05,45a2.4,2.4,0,0,0,2.31-1.49l1.45.89A3.86,3.86,0,0,1,58,46.61C55.23,46.61,53.58,44.7,53.58,41.7Z"/>
<path class="cls-2" d="M64.67,32.93h2V38.6h.09a2.69,2.69,0,0,1,2.71-1.81c1.89,0,3.16,1.29,3.16,3.56v6h-2V40.64c0-1.49-.68-2.24-1.95-2.24-1,0-2,.53-2,1.62v6.37h-2Z"/>
<path class="cls-2" d="M75.58,46.39V37h2v1.6h.09a2.69,2.69,0,0,1,2.7-1.81c1.9,0,3.17,1.29,3.17,3.56v6h-2V40.64c0-1.49-.68-2.24-2-2.24-1,0-2,.53-2,1.62v6.37Z"/>
<path class="cls-2" d="M86,41.7c0-3,1.69-4.91,4.45-4.91s4.45,1.91,4.45,4.91-1.69,4.91-4.45,4.91S86,44.7,86,41.7Zm6.83.71V41c0-1.75-1-2.64-2.38-2.64S88,39.24,88,41v1.42C88,44.15,89,45,90.41,45S92.79,44.15,92.79,42.41Z"/>
<path class="cls-2" d="M97.23,44.79h3.11V34.53H97.23v-1.6h5.09V44.79h3.1v1.6H97.23Z"/>
<path class="cls-2" d="m107.77 41.7c0-3 1.69-4.91 4.46-4.91s4.45 1.91 4.45 4.91-1.69 4.91-4.45 4.91-4.46-1.91-4.46-4.91zm6.84 0.71v-1.41c0-1.75-1-2.64-2.38-2.64s-2.39 0.89-2.39 2.64v1.42c0 1.74 1 2.63 2.39 2.63s2.38-0.9 2.38-2.64z"/>
<path class="cls-2" d="M123.12,50.25c-3.24,0-4.37-.86-4.37-2.26,0-1,.6-1.55,1.64-1.82V46a1.39,1.39,0,0,1-1-1.36c0-.93.71-1.35,1.69-1.59V43a3,3,0,0,1-1.79-2.87c0-2,1.5-3.29,3.81-3.29a4.77,4.77,0,0,1,1.76.31v-.31a1.18,1.18,0,0,1,1.26-1.28h1.71v1.57h-2.18v.43a3,3,0,0,1,1.27,2.57c0,2-1.51,3.27-3.82,3.27a5.32,5.32,0,0,1-1.16-.11c-.44.11-1,.4-1,.91s.63.66,1.45.66h2.11c2.52,0,3.56,1,3.56,2.6C128,49.34,126.42,50.25,123.12,50.25Zm1.3-3.75h-3.25a1.1,1.1,0,0,0-.69,1c0,.71.55,1.3,1.93,1.3h1.47c1.49,0,2.31-.46,2.31-1.31C126.19,46.9,125.75,46.5,124.42,46.5Zm.51-6.19v-.49c0-1-.6-1.67-1.87-1.67s-1.87.67-1.87,1.67v.49c0,1,.6,1.68,1.87,1.68S124.93,41.31,124.93,40.31Z"/>
<path class="cls-2" d="M136.79,37h2l-4.55,11.21A2.5,2.5,0,0,1,131.59,50H130v-1.6h2.21l.86-2.17L129.3,37h2.07l1.49,3.93L134,44.15h.11l1.17-3.22Z"/>
<path class="cls-2" d="m151.41 41.7c0-3 1.69-4.91 4.45-4.91s4.45 1.91 4.45 4.91-1.69 4.91-4.45 4.91-4.45-1.91-4.45-4.91zm6.83 0.71v-1.41c0-1.75-1-2.64-2.38-2.64s-2.38 0.89-2.38 2.64v1.42c0 1.74 0.94 2.63 2.38 2.63s2.38-0.9 2.38-2.64z"/>
<path class="cls-2" d="M162.7,44.79h2.49V38.6H162.7V37h4.47v2h.11a2.92,2.92,0,0,1,2.89-2h1.32v1.9h-2c-1.45,0-2.36.6-2.36,1.56v4.33h3.4v1.6H162.7Z"/>
<path class="cls-2" d="M174.06,44.79h3.2V38.6h-3.2V37h5.18v7.79h3v1.6h-8.18Zm2.83-10.57v-.38c0-.6.37-1.07,1.35-1.07s1.36.47,1.36,1.07v.38c0,.6-.36,1.07-1.34,1.07S176.89,34.82,176.89,34.22Z"/>
<path class="cls-2" d="m184.22 41.72c0-3 1.75-4.93 4.42-4.93s4.36 1.89 4.36 4.65v0.75h-6.73v0.31a2.4 2.4 0 0 0 2.6 2.51 2.91 2.91 0 0 0 2.6 -1.44l1.23 1.09a4.26 4.26 0 0 1 -3.87 2c-2.92-0.05-4.61-1.96-4.61-4.94zm2-0.93v0.13h4.71v-0.19a2.22 2.22 0 0 0 -2.29 -2.43 2.36 2.36 0 0 0 -2.42 2.49z"/>
<path class="cls-2" d="M195.57,46.39V37h2v1.6h.09a2.69,2.69,0,0,1,2.71-1.81c1.89,0,3.16,1.29,3.16,3.56v6h-2V40.64c0-1.49-.68-2.24-1.95-2.24-1,0-2,.53-2,1.62v6.37Z"/>
<path class="cls-2" d="M211,46.39a2.18,2.18,0,0,1-2.4-2.38V38.6h-2.89V37h2.06c.69,0,1-.23,1-1V33.69h1.85V37h4v1.6h-4v6.19h4v1.6Z"/>
<path class="cls-2" d="M217,41.72c0-3,1.74-4.93,4.41-4.93s4.31,1.89,4.31,4.65v.75H219v.31A2.4,2.4,0,0,0,221.54,45a2.9,2.9,0,0,0,2.6-1.44l1.24,1.09a4.29,4.29,0,0,1-3.87,2C218.64,46.61,217,44.7,217,41.72Zm2-.93v.13h4.7v-.19a2.22,2.22,0,0,0-2.29-2.43A2.35,2.35,0,0,0,219,40.79Z"/>
<path class="cls-2" d="m234.25 44.79h-0.11a3 3 0 0 1 -2.83 1.82c-2.2 0-3.62-1.69-3.62-4.91s1.42-4.91 3.62-4.91a3 3 0 0 1 2.83 1.81h0.11v-5.67h2v13.46h-2zm0-1.53v-3.13c0-1.14-1-1.73-2.12-1.73a2.27 2.27 0 0 0 -2.35 2.53v1.53a2.26 2.26 0 0 0 2.35 2.54c1.14 0 2.12-0.59 2.12-1.74z"/>
<path class="cls-2" d="M31.76,65.79c0-3,1.67-4.92,4.44-4.92a3.67,3.67,0,0,1,3.65,2.22l-1.55.84a2.07,2.07,0,0,0-2.1-1.42A2.26,2.26,0,0,0,33.83,65v1.57a2.27,2.27,0,0,0,2.4,2.49,2.4,2.4,0,0,0,2.31-1.49l1.45.89a3.85,3.85,0,0,1-3.78,2.24C33.41,70.7,31.76,68.79,31.76,65.79Z"/>
<path class="cls-2" d="m42.32 65.79c0-3 1.69-4.92 4.46-4.92s4.45 1.91 4.45 4.92-1.69 4.91-4.45 4.91-4.46-1.91-4.46-4.91zm6.84 0.7v-1.41c0-1.75-0.95-2.64-2.38-2.64s-2.38 0.89-2.38 2.64v1.41c0 1.75 0.94 2.64 2.38 2.64s2.38-0.89 2.38-2.64z"/>
<path class="cls-2" d="M53.76,70.48V61.09h2v1.6h.09a2.7,2.7,0,0,1,2.71-1.82c1.89,0,3.16,1.3,3.16,3.57v6h-2V64.73c0-1.49-.67-2.24-1.94-2.24-1,0-2,.53-2,1.62v6.37Z"/>
<path class="cls-2" d="M64.56,68.88h3V62.69H64.38v-1.6h3.18V59.4A2.17,2.17,0,0,1,70,57h3.17v1.6H69.54v2.47h3.58v1.6H69.54v6.19H72.7v1.6H64.56Z"/>
<path class="cls-2" d="M75.14,65.8c0-3,1.74-4.93,4.41-4.93s4.31,1.9,4.31,4.66v.75H77.14v.3a2.4,2.4,0,0,0,2.6,2.52,2.91,2.91,0,0,0,2.6-1.44l1.23,1.09a4.26,4.26,0,0,1-3.87,2C76.83,70.7,75.14,68.79,75.14,65.8Zm2-.92V65h4.7v-.18a2.23,2.23,0,0,0-2.29-2.44A2.36,2.36,0,0,0,77.14,64.88Z"/>
<path class="cls-2" d="M86.34,68.88h2.49V62.69H86.34v-1.6h4.47v2h.11a2.92,2.92,0,0,1,2.89-2h1.32V63h-2c-1.45,0-2.36.6-2.36,1.57v4.33h3.4v1.6H86.34Z"/>
<path class="cls-2" d="M97,65.8c0-3,1.74-4.93,4.41-4.93s4.31,1.9,4.31,4.66v.75H99v.3a2.41,2.41,0,0,0,2.6,2.52,2.91,2.91,0,0,0,2.6-1.44l1.24,1.09a4.29,4.29,0,0,1-3.87,2C98.65,70.7,97,68.79,97,65.8Zm2-.92V65h4.71v-.18a2.23,2.23,0,0,0-2.29-2.44A2.36,2.36,0,0,0,99,64.88Z"/>
<path class="cls-2" d="M108.3,70.48V61.09h2v1.6h.09a2.71,2.71,0,0,1,2.71-1.82c1.89,0,3.16,1.3,3.16,3.57v6h-2V64.73c0-1.49-.67-2.24-1.94-2.24-1,0-2,.53-2,1.62v6.37Z"/>
<path class="cls-2" d="M119,65.79c0-3,1.67-4.92,4.43-4.92a3.66,3.66,0,0,1,3.65,2.22l-1.54.84a2.09,2.09,0,0,0-2.11-1.42A2.26,2.26,0,0,0,121.1,65v1.57a2.27,2.27,0,0,0,2.4,2.49,2.4,2.4,0,0,0,2.31-1.49l1.45.89a3.86,3.86,0,0,1-3.78,2.24C120.68,70.7,119,68.79,119,65.79Z"/>
<path class="cls-2" d="M129.68,65.8c0-3,1.74-4.93,4.42-4.93s4.3,1.9,4.3,4.66v.75h-6.72v.3a2.4,2.4,0,0,0,2.6,2.52,2.91,2.91,0,0,0,2.6-1.44l1.23,1.09a4.26,4.26,0,0,1-3.87,2C131.37,70.7,129.68,68.79,129.68,65.8Zm2-.92V65h4.71v-.18a2.23,2.23,0,0,0-2.29-2.44A2.36,2.36,0,0,0,131.68,64.88Z"/>
<path class="cls-2" d="M151.82,68.88h3V62.69h-3.18v-1.6h3.18V59.4a2.18,2.18,0,0,1,2.4-2.38h3.16v1.6H156.8v2.47h3.58v1.6H156.8v6.19H160v1.6h-8.15Z"/>
<path class="cls-2" d="m162.31 65.79c0-3 1.69-4.92 4.46-4.92s4.45 1.91 4.45 4.92-1.69 4.91-4.45 4.91-4.46-1.91-4.46-4.91zm6.84 0.7v-1.41c0-1.75-1-2.64-2.38-2.64s-2.38 0.89-2.38 2.64v1.41c0 1.75 0.94 2.64 2.38 2.64s2.38-0.89 2.38-2.64z"/>
<path class="cls-2" d="M173.6,68.88h2.49V62.69H173.6v-1.6h4.48v2h.1a2.94,2.94,0,0,1,2.89-2h1.33V63h-2c-1.46,0-2.36.6-2.36,1.57v4.33h3.39v1.6H173.6Z"/>
<path class="cls-2" d="M37.9,93h-.11A3,3,0,0,1,35,94.78c-2.2,0-3.62-1.69-3.62-4.91S32.76,85,35,85a3,3,0,0,1,2.83,1.82h.11V81.11h2V94.57h-2Zm0-1.52V88.31c0-1.15-1-1.73-2.12-1.73a2.26,2.26,0,0,0-2.35,2.53v1.53a2.27,2.27,0,0,0,2.35,2.53C36.92,93.17,37.9,92.58,37.9,91.44Z"/>
<path class="cls-2" d="M42.41,89.89c0-3,1.75-4.93,4.42-4.93s4.31,1.89,4.31,4.66v.74H44.41v.31A2.4,2.4,0,0,0,47,93.18a2.9,2.9,0,0,0,2.6-1.43l1.24,1.09A4.28,4.28,0,0,1,47,94.78C44.1,94.78,42.41,92.87,42.41,89.89Zm2-.93v.13h4.71v-.18a2.23,2.23,0,0,0-2.29-2.44A2.36,2.36,0,0,0,44.41,89Z"/>
<path class="cls-2" d="M56.47,94.57,53.1,85.18h2.06l1.29,4,1.22,3.76h.11L59,89.15l1.29-4h2L58.9,94.57Z"/>
<path class="cls-2" d="M64.23,89.89c0-3,1.75-4.93,4.42-4.93S73,86.85,73,89.62v.74H66.23v.31a2.4,2.4,0,0,0,2.6,2.51,2.9,2.9,0,0,0,2.6-1.43l1.23,1.09a4.26,4.26,0,0,1-3.87,1.94C65.92,94.78,64.23,92.87,64.23,89.89Zm2-.93v.13h4.71v-.18a2.23,2.23,0,0,0-2.29-2.44A2.36,2.36,0,0,0,66.23,89Z"/>
<path class="cls-2" d="M75.41,93h3.11V82.71H75.41v-1.6H80.5V93h3.11v1.61h-8.2Z"/>
<path class="cls-2" d="M86,89.87c0-3,1.69-4.91,4.45-4.91s4.45,1.91,4.45,4.91-1.69,4.91-4.45,4.91S86,92.87,86,89.87Zm6.83.71V89.16c0-1.74-1-2.63-2.38-2.63S88,87.42,88,89.16v1.42c0,1.75.94,2.64,2.38,2.64S92.79,92.33,92.79,90.58Z"/>
<path class="cls-2" d="M97.3,85.18h2v1.6h.11A3,3,0,0,1,102.23,85c2.19,0,3.61,1.69,3.61,4.91s-1.42,4.91-3.61,4.91A3,3,0,0,1,99.39,93h-.11V98.2h-2Zm6.45,5.46V89.11a2.26,2.26,0,0,0-2.34-2.53c-1.15,0-2.13.58-2.13,1.73v3.13c0,1.14,1,1.73,2.13,1.73A2.26,2.26,0,0,0,103.75,90.64Z"/>
<path class="cls-2" d="m107.86 89.89c0-3 1.75-4.93 4.42-4.93s4.31 1.89 4.31 4.66v0.74h-6.73v0.31a2.4 2.4 0 0 0 2.6 2.51 2.9 2.9 0 0 0 2.6 -1.43l1.24 1.09a4.28 4.28 0 0 1 -3.87 1.94c-2.88 0-4.57-1.91-4.57-4.89zm2-0.93v0.13h4.71v-0.18a2.23 2.23 0 0 0 -2.29 -2.44 2.36 2.36 0 0 0 -2.42 2.53z"/>
<path class="cls-2" d="M119.06,93h2.49V86.78h-2.49v-1.6h4.47v2h.11a2.91,2.91,0,0,1,2.89-2h1.33v1.89h-2c-1.46,0-2.37.6-2.37,1.57V93h3.4v1.61h-7.87Z"/>
<path class="cls-2" d="M129.66,93l1.22-1.09a4.1,4.1,0,0,0,3.22,1.38c1.27,0,2.14-.41,2.14-1.34s-.64-1-1.43-1.13l-1.49-.24c-1.48-.21-3.13-.74-3.13-2.67s1.6-2.93,4-2.93A5,5,0,0,1,138,86.44l-1.11,1.16a3.53,3.53,0,0,0-2.81-1.13c-1.3,0-2,.44-2,1.26s.66,1,1.44,1.12l1.49.24c1.49.22,3.13.73,3.13,2.66s-1.57,3-4.13,3A5.47,5.47,0,0,1,129.66,93Z"/>
<path class="cls-2" d="M150.77,91.2A3.93,3.93,0,0,1,153,87.6a4.57,4.57,0,0,1-1.18-2.82,3.18,3.18,0,0,1,3.4-3.13,3.32,3.32,0,0,1,3.2,2.08l-1.47.76a1.87,1.87,0,0,0-1.77-1.27,1.46,1.46,0,0,0-1.54,1.52v.13c0,.73.36,1.27,1.38,2.57l1.38,1.71,1.14,1.5h.1a21.41,21.41,0,0,0,.21-3.18h2.86V89h-1.33a11.38,11.38,0,0,1-.69,2.82L161,94.57h-2.2l-1.52-1.82h-.11a2.7,2.7,0,0,1-2.89,2A3.37,3.37,0,0,1,150.77,91.2Zm5.94,1-2.81-3.48A2.7,2.7,0,0,0,152.7,91v.16a1.9,1.9,0,0,0,2.09,2A2.12,2.12,0,0,0,156.71,92.15Z"/>
<path class="cls-2" d="m37.9 117.05h-0.11a3 3 0 0 1 -2.79 1.82c-2.2 0-3.62-1.69-3.62-4.91s1.42-4.91 3.62-4.91a3 3 0 0 1 2.83 1.82h0.11v-5.68h2v13.46h-2zm0-1.52v-3.13c0-1.15-1-1.73-2.12-1.73a2.26 2.26 0 0 0 -2.35 2.53v1.52a2.26 2.26 0 0 0 2.35 2.53c1.14 0 2.12-0.58 2.12-1.72z"/>
<path class="cls-2" d="M42.41,114c0-3,1.75-4.93,4.42-4.93s4.31,1.89,4.31,4.66v.74H44.41v.31a2.4,2.4,0,0,0,2.6,2.51,2.89,2.89,0,0,0,2.6-1.44l1.24,1.1A4.28,4.28,0,0,1,47,118.87C44.1,118.87,42.41,117,42.41,114Zm2-.93v.13h4.71V113a2.23,2.23,0,0,0-2.29-2.44A2.36,2.36,0,0,0,44.41,113.05Z"/>
<path class="cls-2" d="M53.3,117.07,54.52,116a4.1,4.1,0,0,0,3.22,1.38c1.27,0,2.14-.42,2.14-1.34s-.63-1-1.43-1.13L57,114.65c-1.47-.22-3.13-.74-3.13-2.67s1.6-2.93,4-2.93a5,5,0,0,1,3.85,1.47l-1.11,1.17a3.49,3.49,0,0,0-2.81-1.13c-1.29,0-2,.44-2,1.25s.65,1,1.43,1.13l1.49.24c1.49.22,3.13.73,3.13,2.65s-1.57,3-4.13,3A5.49,5.49,0,0,1,53.3,117.07Z"/>
<path class="cls-2" d="M65,117.05h3.19v-6.18H65v-1.6h5.18v7.78h3v1.6H65Zm2.83-10.56v-.39c0-.6.36-1.07,1.35-1.07s1.36.47,1.36,1.07v.39c0,.6-.36,1.07-1.35,1.07S67.81,107.09,67.81,106.49Z"/>
<path class="cls-2" d="M79.48,122.51c-3.23,0-4.36-.86-4.36-2.26,0-1,.6-1.54,1.64-1.81v-.19a1.37,1.37,0,0,1-1-1.36c0-.93.71-1.35,1.69-1.58v-.09a3,3,0,0,1-1.8-2.88c0-2,1.51-3.29,3.82-3.29a4.84,4.84,0,0,1,1.76.31v-.31a1.17,1.17,0,0,1,1.25-1.27h1.71v1.56H82v.44a2.94,2.94,0,0,1,1.27,2.56c0,2-1.5,3.28-3.81,3.28a6.2,6.2,0,0,1-1.17-.11c-.43.11-1,.4-1,.91s.64.65,1.46.65h2.11c2.52,0,3.56,1.06,3.56,2.6C84.41,121.6,82.79,122.51,79.48,122.51Zm1.31-3.75H77.54a1.1,1.1,0,0,0-.69,1.06c0,.71.54,1.29,1.92,1.29h1.48c1.49,0,2.3-.46,2.3-1.31C82.55,119.16,82.12,118.76,80.79,118.76Zm.51-6.18v-.49c0-1-.6-1.68-1.87-1.68s-1.87.68-1.87,1.68v.49c0,1,.6,1.67,1.87,1.67S81.3,113.58,81.3,112.58Z"/>
<path class="cls-2" d="M86.48,118.65v-9.38h2v1.6h.1a2.68,2.68,0,0,1,2.7-1.82c1.89,0,3.17,1.29,3.17,3.57v6h-2v-5.74c0-1.5-.67-2.24-1.94-2.24-1,0-2,.53-2,1.62v6.36Z"/>
<path class="cls-2" d="M97,114c0-3,1.74-4.93,4.41-4.93s4.31,1.89,4.31,4.66v.74H99v.31a2.41,2.41,0,0,0,2.6,2.51,2.89,2.89,0,0,0,2.6-1.44l1.24,1.1a4.28,4.28,0,0,1-3.87,1.94C98.65,118.87,97,117,97,114Zm2-.93v.13h4.71V113a2.23,2.23,0,0,0-2.29-2.44A2.36,2.36,0,0,0,99,113.05Z"/>
<path class="cls-2" d="M108.16,117.05h2.48v-6.18h-2.48v-1.6h4.46v2h.11a2.93,2.93,0,0,1,2.89-2H117v1.89h-2c-1.46,0-2.37.6-2.37,1.56v4.33H116v1.6h-7.86Z"/>
<path class="cls-2" d="M118.75,117.07,120,116a4.1,4.1,0,0,0,3.22,1.38c1.27,0,2.14-.42,2.14-1.34s-.63-1-1.43-1.13l-1.49-.24c-1.48-.22-3.13-.74-3.13-2.67s1.6-2.93,4-2.93a5,5,0,0,1,3.85,1.47L126,111.69a3.49,3.49,0,0,0-2.81-1.13c-1.29,0-2,.44-2,1.25s.65,1,1.43,1.13l1.49.24c1.49.22,3.13.73,3.13,2.65s-1.57,3-4.13,3A5.47,5.47,0,0,1,118.75,117.07Z"/>
<path d="M294,155.76l1-5.93h1.25l-.81,4.89H298l-.17,1Z"/>
<path d="M299.06,154a2.43,2.43,0,0,1,2.48-2.69,1.73,1.73,0,0,1,1.88,1.88,2.43,2.43,0,0,1-2.47,2.7A1.74,1.74,0,0,1,299.06,154Zm3,0,.11-.66a2,2,0,0,0,0-.35.68.68,0,0,0-.74-.77,1,1,0,0,0-1,1l-.11.66a2.27,2.27,0,0,0,0,.35.69.69,0,0,0,.75.77A1,1,0,0,0,302,154Z"/>
<path d="M305,155.76l.56-3.41h-1l.16-1H307l-.23,1.32h.06a1.84,1.84,0,0,1,1.74-1.32h.29l-.22,1.24h-.77a1,1,0,0,0-.92.38,1.81,1.81,0,0,0-.34.75l-.34,2Z"/>
<path d="M309.35,154a2.5,2.5,0,0,1,2.58-2.71c.88,0,1.61.39,1.61,1.2s-.46,1.46-3,1.55a.92.92,0,0,0,0,.15c0,.46.25.73.84.73s.75-.17,1.2-.75l.78.5a2.41,2.41,0,0,1-2.14,1.2A1.7,1.7,0,0,1,309.35,154Zm1.35-.79,0,.12c1.57-.08,1.67-.45,1.67-.73s-.17-.44-.54-.44C311.27,152.15,310.86,152.45,310.7,153.2Z"/>
<path d="M313.86,155.76l.73-4.38h1l-.13.76h.06c.19-.51.5-.86,1-.86s.72.28.66.86h.05c.21-.49.51-.86,1.05-.86s.75.28.75.81a4.91,4.91,0,0,1-.06.65l-.5,3h-1l.49-2.9c0-.1,0-.24,0-.35s-.09-.33-.24-.33a.43.43,0,0,0-.4.28,1.81,1.81,0,0,0-.22.65l-.44,2.65h-1l.49-2.9c0-.1,0-.24,0-.35s-.08-.33-.25-.33-.25.06-.39.28a1.76,1.76,0,0,0-.2.55l-.46,2.75Z"/>
<path d="M325.62,154.84a3,3,0,0,1,.08-.68l.34-1.81h-1.32l.16-1h2.58l-.66,3.48.15,0,1.18-1.21.68.6-.51.59a2.22,2.22,0,0,1-1.63,1A.94.94,0,0,1,325.62,154.84Zm.7-4.56a2.83,2.83,0,0,1,0-.34c.06-.35.29-.56.8-.56s.69.23.69.52a1.51,1.51,0,0,1,0,.34c-.06.36-.29.56-.8.56S326.32,150.58,326.32,150.28Z"/>
<path d="M330.13,151.38h1.24l-.17,1h.05c.33-.67.72-1.14,1.46-1.14.93,0,1.28.67,1.28,1.69,0,1.74-.79,2.89-2,2.89a1,1,0,0,1-1.14-.92h-.06l-.43,2.51h-1.23Zm2.49,2.48.08-.51a1.92,1.92,0,0,0,0-.38c0-.41-.15-.73-.58-.73a1,1,0,0,0-.74.41,1.74,1.74,0,0,0-.39.82l-.12.71c-.08.46.14.72.67.72S332.51,154.53,332.62,153.86Z"/>
<path d="M334.66,155.14l.7-.68a1.45,1.45,0,0,0,1.23.52c.51,0,.83-.17.83-.48s-.19-.32-.45-.38l-.63-.14c-.66-.14-1.18-.42-1.18-1.19,0-1,.85-1.51,2-1.51a2.22,2.22,0,0,1,1.74.62l-.68.69a1.44,1.44,0,0,0-1.1-.44c-.44,0-.73.16-.73.47s.17.31.44.37l.65.14c.73.17,1.18.47,1.18,1.18,0,1-.84,1.55-2.15,1.55A2.13,2.13,0,0,1,334.66,155.14Z"/>
<path d="M342.47,154.71h0c-.33.71-.73,1.15-1.42,1.15a1.14,1.14,0,0,1-1.2-1.27,4.88,4.88,0,0,1,.09-.88l.39-2.33h1.24l-.41,2.48a2.58,2.58,0,0,0-.06.53.48.48,0,0,0,.51.52.84.84,0,0,0,.68-.4,2,2,0,0,0,.4-.85l.38-2.28h1.24l-.73,4.38H342.3Z"/>
<path d="M344.39,155.76l.73-4.38h1l-.13.76H346c.2-.51.51-.86,1-.86s.72.28.66.86h0c.22-.49.52-.86,1.06-.86s.74.28.74.81a3.66,3.66,0,0,1-.06.65l-.5,3h-1l.49-2.9c0-.1,0-.24,0-.35s-.09-.33-.25-.33-.27.06-.4.28a1.65,1.65,0,0,0-.21.65l-.44,2.65h-1l.48-2.9a2,2,0,0,0,0-.35c0-.22-.09-.33-.25-.33s-.25.06-.39.28a1.37,1.37,0,0,0-.2.55l-.46,2.75Z"/>
<polygon class="cls-3" points="408.11 124.75 402.44 124.75 402.44 130.41 402.44 136.08 408.11 136.08 408.11 130.41 413.77 130.41 413.77 124.75"/>
<polygon class="cls-3" points="192.72 198.42 187.05 198.42 181.38 198.42 181.38 204.09 187.05 204.09 192.72 204.09 198.38 204.09 198.38 198.42"/>
<polygon class="cls-3" points="181.38 187.09 181.38 181.43 175.72 181.43 175.72 187.09 175.72 192.76 175.72 198.42 181.38 198.42 181.38 192.76"/>
<polygon class="cls-3" points="175.72 147.4 170.05 147.4 170.05 153.06 175.72 153.06 175.72 158.73 181.38 158.73 181.38 153.06 181.38 147.4"/>
<polygon points="184.22 195.59 184.22 127.56 189.89 127.56 189.89 121.89 201.22 121.89 201.22 110.54 399.61 110.54 399.61 195.59"/>
<path class="cls-3" d="M396.77,113.37v79.39H187.05V130.39h5.67v-5.66h11.34V113.37H396.77m5.67-5.67h-204v11.36H187.06v5.66h-5.68v73.7H402.44V107.7Z"/>
<path class="cls-3" d="m254.54 142.05c0-4.15 1.43-6.57 4.65-6.57s4.65 2.42 4.65 6.57-1.44 6.57-4.65 6.57-4.65-2.42-4.65-6.57zm7.14 1v-2.05c0-2.33-0.67-3.81-2.49-3.81s-2.49 1.48-2.49 3.81v2.14c0 2.33 0.67 3.8 2.49 3.8s2.49-1.49 2.49-3.84z"/>
<path class="cls-3" d="M266,143.7c0-3,1.67-4.91,4.43-4.91a3.68,3.68,0,0,1,3.66,2.22l-1.55.84a2.09,2.09,0,0,0-2.11-1.42,2.26,2.26,0,0,0-2.36,2.49v1.57a2.27,2.27,0,0,0,2.4,2.49,2.4,2.4,0,0,0,2.31-1.49l1.45.89a3.86,3.86,0,0,1-3.78,2.24C267.64,148.62,266,146.71,266,143.7Z"/>
<path class="cls-3" d="M281.57,148.4a2.18,2.18,0,0,1-2.4-2.39v-5.4h-2.89V139h2.05c.69,0,1-.24,1-1V135.7h1.85V139h4v1.6h-4v6.19h4v1.6Z"/>
<path class="cls-3" d="m287.46 143.7c0-3 1.69-4.91 4.45-4.91s4.46 1.91 4.46 4.91-1.7 4.92-4.46 4.92-4.45-1.91-4.45-4.92zm6.83 0.71v-1.41c0-1.74-0.94-2.63-2.38-2.63s-2.38 0.89-2.38 2.63v1.42c0 1.75 1 2.64 2.38 2.64s2.38-0.9 2.38-2.65z"/>
<path class="cls-3" d="M298.8,134.94h2v5.67h.1a3,3,0,0,1,2.84-1.82c2.2,0,3.62,1.69,3.62,4.91s-1.42,4.92-3.62,4.92a3,3,0,0,1-2.84-1.82h-.1v1.6h-2Zm6.46,9.53v-1.53a2.26,2.26,0,0,0-2.35-2.53c-1.14,0-2.12.58-2.12,1.73v3.13c0,1.14,1,1.73,2.12,1.73A2.26,2.26,0,0,0,305.26,144.47Z"/>
<path class="cls-3" d="m309.37 143.72c0-3 1.74-4.93 4.41-4.93s4.31 1.89 4.31 4.66v0.75h-6.72v0.3a2.4 2.4 0 0 0 2.63 2.5 2.89 2.89 0 0 0 2.59 -1.43l1.24 1.09a4.27 4.27 0 0 1 -3.87 2c-2.9-0.04-4.59-1.95-4.59-4.94zm2-0.93v0.13h4.7v-0.18a2.23 2.23 0 0 0 -2.29 -2.44 2.36 2.36 0 0 0 -2.41 2.49z"/>
<path class="cls-3" d="M320.57,146.8h2.49v-6.19h-2.49V139H325v2h.11a2.92,2.92,0,0,1,2.89-2h1.32v1.89h-2c-1.45,0-2.36.6-2.36,1.57v4.33h3.4v1.6h-7.87Z"/>
<path class="cls-3" d="M219.39,159.29h-5.76l-.33,4.51h.15a2.85,2.85,0,0,1,2.74-1.64,3.7,3.7,0,0,1,3.85,4c0,2.51-1.67,4.32-4.58,4.32a4.75,4.75,0,0,1-4.27-2.28l1.49-1.16a3.11,3.11,0,0,0,2.82,1.73,2.21,2.21,0,0,0,2.42-2.41v-.14a2.18,2.18,0,0,0-2.42-2.35,2.74,2.74,0,0,0-2.2,1l-1.69-.23.47-7.08h7.31Z"/>
<path class="cls-3" d="M227,170.22a2.18,2.18,0,0,1-2.4-2.39v-5.4h-2.89v-1.6h2c.69,0,1-.24,1-1v-2.35h1.86v3.31h4v1.6h-4v6.19h4v1.6Z"/>
<path class="cls-3" d="M233.45,156.76h2v5.67h.09a2.7,2.7,0,0,1,2.71-1.82c1.89,0,3.16,1.29,3.16,3.57v6h-2v-5.75c0-1.49-.68-2.24-1.95-2.24-1,0-2,.53-2,1.62v6.37h-2Z"/>
<path class="cls-3" d="M254.1,166.85a3.93,3.93,0,0,1,2.27-3.6,4.57,4.57,0,0,1-1.18-2.82,3.18,3.18,0,0,1,3.4-3.13,3.32,3.32,0,0,1,3.2,2.08l-1.48.76a1.84,1.84,0,0,0-1.76-1.27,1.45,1.45,0,0,0-1.54,1.52v.13c0,.73.36,1.28,1.38,2.57l1.38,1.71,1.14,1.51h.1a23,23,0,0,0,.21-3.19h2.86v1.55h-1.33a11.84,11.84,0,0,1-.69,2.82l2.27,2.73h-2.2l-1.52-1.82h-.11a2.71,2.71,0,0,1-2.89,2A3.38,3.38,0,0,1,254.1,166.85Zm5.94,1-2.81-3.48a2.7,2.7,0,0,0-1.2,2.35v.16a1.9,1.9,0,0,0,2.09,2A2.12,2.12,0,0,0,260,167.8Z"/>
<path class="cls-3" d="m276.52 165.49a10 10 0 0 1 4.61 -8h2.73c-2.93 2.07-4.6 3.75-5.24 6.49h0.13a3.21 3.21 0 0 1 3 -1.85 3.67 3.67 0 0 1 3.78 3.94 4.18 4.18 0 0 1 -4.51 4.3c-2.81 0.07-4.5-1.84-4.5-4.88zm6.94 0.91v-0.19a2.43 2.43 0 0 0 -4.85 0v0.19a2.43 2.43 0 0 0 4.85 0z"/>
<path class="cls-3" d="M292.48,170.22a2.18,2.18,0,0,1-2.4-2.39v-5.4h-2.89v-1.6h2.05c.69,0,1-.24,1-1v-2.35h1.86v3.31h4v1.6h-4v6.19h4v1.6Z"/>
<path class="cls-3" d="M298.9,156.76h2v5.67H301a2.69,2.69,0,0,1,2.7-1.82c1.9,0,3.17,1.29,3.17,3.57v6h-2v-5.75c0-1.49-.68-2.24-1.95-2.24-1,0-2,.53-2,1.62v6.37h-2Z"/>
<path class="cls-3" d="m312.71 167.45h2.82l-2.25 5.4h-1.55z"/>
<path class="cls-3" d="M340,170.22h-8.76v-1.95l4.14-3.62c1.29-1.15,2.06-2.16,2.06-3.31v-.2a1.9,1.9,0,0,0-2.13-2.07,2.41,2.41,0,0,0-2.45,2l-1.78-.68a4.24,4.24,0,0,1,4.37-3.09c2.64,0,4.13,1.57,4.13,3.73s-1.29,3.4-3.07,4.88l-3.07,2.58H340Z"/>
<path class="cls-3" d="M341.8,163.87c0-4.15,1.44-6.57,4.65-6.57s4.66,2.42,4.66,6.57-1.44,6.57-4.66,6.57S341.8,168,341.8,163.87ZM349,165v-2.18c0-2.33-.71-3.8-2.57-3.8s-2.56,1.47-2.56,3.8V165c0,2.33.71,3.8,2.56,3.8S349,167.29,349,165Zm-3.69-.89v-.4c0-.49.29-.87,1.12-.87s1.13.38,1.13.87v.4c0,.49-.29.87-1.13.87S345.33,164.56,345.33,164.07Z"/>
<path class="cls-3" d="M353.38,170.22v-1.69h3.47v-9.19l-3.38,1.93-.78-1.51,4-2.24h2.18v11H362v1.69Z"/>
<path class="cls-3" d="m363.67 166.74a3.1 3.1 0 0 1 2.57 -3.11v-0.14a3 3 0 0 1 -2.19 -2.93c0-1.95 1.55-3.26 4.22-3.26s4.22 1.31 4.22 3.26a3 3 0 0 1 -2.18 2.93v0.14a3.1 3.1 0 0 1 2.56 3.11c0 2.11-1.6 3.7-4.6 3.7s-4.6-1.59-4.6-3.7zm7.09 0.06v-0.38c0-1.28-0.91-2-2.49-2s-2.49 0.74-2.49 2v0.38c0 1.27 0.91 2 2.49 2s2.49-0.73 2.49-2zm-0.25-5.8v-0.24c0-1.15-0.79-1.84-2.24-1.84s-2.23 0.69-2.23 1.84v0.24c0 1.14 0.78 1.83 2.23 1.83s2.24-0.69 2.24-1.83z"/>
</g>
</g>
</svg>