<svg xmlns="http://www.w3.org/2000/svg" width="1439" height="555" viewBox="0 0 1439 555">
    <g fill="none" fill-rule="evenodd">
        <g fill="#7FDBFF">
            <path d="M62.012 421.957h6.61v-6.607h-6.61z"/>
            <path d="M62.012 415.35h6.61v-6.607h-6.61zM62.012 408.743h6.61v-6.608h-6.61zM55.402 408.743h6.61v-6.608h-6.61zM48.792 408.743h6.61v-6.608h-6.61z"/>
        </g>
        <g fill="#01FF70">
            <path d="M277.747 55.043h6.61v-6.608h-6.61zM277.747 61.65h6.61v-6.607h-6.61z"/>
            <path d="M277.747 68.256h6.61v-6.608h-6.61zM284.357 68.256h6.61v-6.608h-6.61z"/>
            <path d="M290.967 68.256h6.61v-6.608h-6.61z"/>
        </g>
        <g fill="#F012BE">
            <path d="M58.707 200.57h6.662v-6.658h-6.662z"/>
            <path d="M58.707 193.913h6.662v-6.659h-6.662zM52.045 193.913h6.662v-6.659h-6.662z"/>
        </g>
        <g fill="#F012BE">
            <path d="M227.816 554.138h6.603v-6.6h-6.603zM221.212 554.138h6.604v-6.6h-6.604z"/>
        </g>
        <g fill="#FFDC00">
            <path d="M263.514 376.934h6.606v-6.604h-6.606z"/>
            <path d="M263.514 370.331h6.606v-6.603h-6.606z"/>
        </g>
        <path fill="#01FF70" d="M354.015 417.09h6.637v-6.633h-6.637z"/>
        <path fill="#F012BE" d="M6.426 306.29h6.583v-6.578H6.426z"/>
        <path fill="#FFDC00" d="M93.634 322.866h6.583v-6.579h-6.583z"/>
        <path fill="#F012BE" d="M125.706 55.085h6.583v-6.579h-6.583z"/>
        <g fill="#01FF70">
            <path d="M0 530.97h6.608v-6.604H0zM0 537.576h6.608v-6.606H0z"/>
            <path d="M0 544.18h6.608v-6.604H0zM6.608 537.575h6.608v-6.606H6.608z"/>
            <path d="M6.608 544.18h6.608v-6.605H6.608zM13.217 544.18h6.608v-6.605h-6.608z"/>
        </g>
        <g fill="#FFDC00">
            <path d="M191.856 464.694h6.608v-6.604h-6.608zM191.856 458.09h6.608v-6.605h-6.608z"/>
            <path d="M191.856 451.485h6.608v-6.605h-6.608zM185.247 458.09h6.608v-6.605h-6.608z"/>
            <path d="M185.247 451.485h6.608v-6.605h-6.608zM178.639 451.485h6.608v-6.605h-6.608z"/>
        </g>
        <g fill="#7FDBFF">
            <path d="M372.486 7.941h6.61V1.334h-6.61z"/>
            <path d="M372.486 14.55h6.61V7.94h-6.61z"/>
            <path d="M372.486 21.155h6.61v-6.607h-6.61zM379.096 21.155h6.61v-6.607h-6.61zM385.706 21.155h6.61v-6.607h-6.61z"/>
        </g>
        <g fill="#7FDBFF">
            <path d="M456.504 391.164h6.61v-6.608h-6.61z"/>
            <path d="M456.504 384.558h6.61v-6.607h-6.61zM456.504 377.95h6.61v-6.606h-6.61zM449.893 377.95h6.61v-6.606h-6.61z"/>
            <path d="M443.284 377.95h6.61v-6.606h-6.61z"/>
        </g>
        <g fill="#FFDC00">
            <path d="M737.458 112.076h6.634v-6.63h-6.634zM730.824 112.076h6.634v-6.63h-6.634z"/>
            <path d="M724.19 112.076h6.634v-6.63h-6.635zM724.19 118.707h6.634v-6.63h-6.635z"/>
        </g>
        <g fill="#01FF70">
            <path d="M459.86 534.487h6.661v-6.658h-6.662z"/>
            <path d="M459.86 527.83h6.661v-6.659h-6.662zM453.198 527.83h6.661v-6.659h-6.66z"/>
        </g>
        <g fill="#FFDC00">
            <path d="M93.308 530.968h6.603v-6.6h-6.603z"/>
            <path d="M99.911 530.968h6.605v-6.6H99.91z"/>
        </g>
        <g fill="#F012BE">
            <path d="M560.843 550.837h6.605v-6.6h-6.605zM567.448 550.837h6.603v-6.6h-6.603z"/>
        </g>
        <g fill="#F012BE">
            <path d="M208.005 11.245h6.604V4.644h-6.604z"/>
            <path d="M214.608 11.245h6.604V4.644h-6.604z"/>
        </g>
        <g fill="#F012BE">
            <path d="M360.652 200.541h6.603v-6.6h-6.603zM367.256 200.541h6.604v-6.6h-6.604z"/>
        </g>
        <path fill="#7FDBFF" d="M800.257 266.428h6.606v-6.603h-6.606zM800.257 273.033h6.606v-6.605h-6.606z"/>
        <g fill="#F012BE">
            <path d="M543.59 26.978h6.608v-6.605h-6.608zM543.59 33.582h6.608v-6.604h-6.608z"/>
        </g>
        <path fill="#01FF70" d="M809.776 58.886h6.637v-6.634h-6.637z"/>
        <path fill="#F012BE" d="M343.558 544.167h6.583v-6.579h-6.583z"/>
        <path fill="#FFDC00" d="M727.546 445.11h6.583v-6.58h-6.583zM478.77 195.234h6.582v-6.58h-6.582z"/>
        <g fill="#01FF70">
            <path d="M744.054 19.815h6.608V13.21h-6.608zM744.054 13.21h6.608V6.604h-6.608z"/>
            <path d="M744.053 6.605h6.608V0h-6.608z"/>
            <path d="M737.445 13.21h6.61V6.604h-6.61z"/>
            <path d="M737.445 6.605h6.61V0h-6.61zM730.837 6.605h6.607V0h-6.607z"/>
        </g>
        <g fill="#01FF70">
            <path d="M187.806 175.377h6.608v-6.606h-6.608zM187.806 168.77h6.608v-6.604h-6.608zM187.806 162.166h6.608v-6.606h-6.608zM181.197 168.77h6.608v-6.604h-6.608zM181.197 162.166h6.608v-6.606h-6.608zM174.59 162.166h6.607v-6.606h-6.608z"/>
        </g>
        <g fill="#F012BE">
            <path d="M475.453 84.768h6.608v-6.605h-6.608zM475.453 78.163h6.608v-6.606h-6.608z"/>
            <path d="M475.453 71.558h6.608v-6.605h-6.608z"/>
            <path d="M468.845 78.163h6.608v-6.606h-6.608z"/>
            <path d="M468.845 71.558h6.608v-6.605h-6.608z"/>
            <path d="M462.236 71.558h6.61v-6.605h-6.61z"/>
        </g>
        <g fill="#7FDBFF">
            <path d="M654.012 421.957h6.61v-6.607h-6.61z"/>
            <path d="M654.012 415.35h6.61v-6.607h-6.61zM654.012 408.743h6.61v-6.608h-6.61z"/>
            <path d="M647.402 408.743h6.61v-6.608h-6.61zM640.792 408.743h6.61v-6.608h-6.61z"/>
        </g>
        <g fill="#01FF70">
            <path d="M869.747 55.043h6.61v-6.608h-6.61zM869.747 61.65h6.61v-6.607h-6.61z"/>
            <path d="M869.747 68.256h6.61v-6.608h-6.61zM876.357 68.256h6.61v-6.608h-6.61zM882.967 68.256h6.61v-6.608h-6.61z"/>
        </g>
        <g fill="#FFDC00">
            <path d="M604.98 27.303h6.633v-6.63h-6.634zM604.98 33.934h6.633v-6.63h-6.634zM604.98 40.565h6.633v-6.63h-6.634zM611.613 40.565h6.634v-6.63h-6.634z"/>
        </g>
        <g fill="#F012BE">
            <path d="M650.707 200.57h6.662v-6.658h-6.662z"/>
            <path d="M650.707 193.913h6.662v-6.659h-6.662zM644.045 193.913h6.662v-6.659h-6.662z"/>
        </g>
        <g fill="#F012BE">
            <path d="M1197.336 188.692h6.661v-6.659h-6.661z"/>
            <path d="M1197.336 182.035h6.661v-6.658h-6.661z"/>
            <path d="M1190.675 182.035h6.662v-6.658h-6.662z"/>
        </g>
        <g fill="#F012BE">
            <path d="M819.816 554.138h6.603v-6.6h-6.603zM813.212 554.138h6.604v-6.6h-6.604z"/>
        </g>
        <path fill="#01FF70" d="M946.015 417.09h6.637v-6.633h-6.637z"/>
        <path fill="#F012BE" d="M598.426 306.29h6.583v-6.578h-6.583z"/>
        <path fill="#FFDC00" d="M1212.733 97.896h6.582v-6.579h-6.582z"/>
        <g fill="#7FDBFF">
            <path d="M1342.6 188.641h6.61v-6.608h-6.61zM1342.6 195.248h6.61v-6.607h-6.61z"/>
            <path d="M1342.6 201.854h6.61v-6.607h-6.61zM1349.21 201.854h6.61v-6.607h-6.61zM1355.82 201.854h6.612v-6.607h-6.612z"/>
        </g>
        <g fill="#7FDBFF">
            <path d="M964.486 7.941h6.61V1.334h-6.61z"/>
            <path d="M964.486 14.55h6.61V7.94h-6.61z"/>
            <path d="M964.486 21.155h6.61v-6.607h-6.61zM971.096 21.155h6.61v-6.607h-6.61zM977.706 21.155h6.61v-6.607h-6.61z"/>
        </g>
        <g fill="#7FDBFF">
            <path d="M1048.504 391.164h6.61v-6.608h-6.61z"/>
            <path d="M1048.504 384.558h6.61v-6.607h-6.61zM1048.504 377.95h6.61v-6.606h-6.61zM1041.893 377.95h6.61v-6.606h-6.61z"/>
            <path d="M1035.284 377.95h6.61v-6.606h-6.61z"/>
        </g>
        <g fill="#FFDC00">
            <path d="M1368.349 516.87h6.634v-6.63h-6.634zM1368.349 510.239h6.634v-6.63h-6.634zM1368.349 503.608h6.634v-6.632h-6.634zM1361.715 503.608h6.634v-6.632h-6.634z"/>
        </g>
        <g fill="#FFDC00">
            <path d="M1329.458 112.076h6.634v-6.63h-6.634zM1322.824 112.076h6.634v-6.63h-6.634zM1316.19 112.076h6.634v-6.63h-6.635zM1316.19 118.707h6.634v-6.63h-6.635z"/>
        </g>
        <g fill="#01FF70">
            <path d="M1396.7 385.887h6.66v-6.66h-6.66z"/>
            <path d="M1396.7 379.229h6.66v-6.658h-6.66z"/>
            <path d="M1390.039 379.229h6.662v-6.658h-6.662z"/>
        </g>
        <g fill="#01FF70">
            <path d="M1051.86 534.487h6.661v-6.658h-6.662z"/>
            <path d="M1051.86 527.83h6.661v-6.659h-6.662z"/>
            <path d="M1045.198 527.83h6.661v-6.659h-6.66z"/>
        </g>
        <g fill="#7FDBFF">
            <path d="M1264.449 547.536h6.662v-6.66h-6.662z"/>
            <path d="M1264.449 540.878h6.662v-6.658h-6.662zM1257.789 540.878h6.66v-6.658h-6.66z"/>
        </g>
        <g fill="#7FDBFF">
            <path d="M1177.352 386.918h6.662v-6.658h-6.662zM1177.352 393.576h6.662v-6.658h-6.662z"/>
            <path d="M1184.014 393.576h6.661v-6.658h-6.661z"/>
        </g>
        <g fill="#F012BE">
            <path d="M1425.34 471.42h6.604v-6.602h-6.604zM1431.944 471.42h6.604v-6.601h-6.604z"/>
        </g>
        <g fill="#01FF70">
            <path d="M1279.532 319.447h6.603v-6.602h-6.603zM1286.135 319.447h6.605v-6.602h-6.605z"/>
        </g>
        <g fill="#FFDC00">
            <path d="M685.308 530.968h6.603v-6.6h-6.603zM691.911 530.968h6.605v-6.6h-6.605z"/>
        </g>
        <g fill="#F012BE">
            <path d="M1152.843 550.837h6.605v-6.6h-6.605zM1159.448 550.837h6.603v-6.6h-6.603z"/>
        </g>
        <g fill="#F012BE">
            <path d="M800.005 11.245h6.604V4.644h-6.604z"/>
            <path d="M806.608 11.245h6.604V4.644h-6.604z"/>
        </g>
        <g fill="#F012BE">
            <path d="M952.652 200.541h6.603v-6.6h-6.603zM959.256 200.541h6.604v-6.6h-6.604z"/>
        </g>
        <g fill="#7FDBFF">
            <path d="M1392.257 266.428h6.606v-6.603h-6.606zM1392.257 273.033h6.606v-6.605h-6.606z"/>
        </g>
        <g fill="#F012BE">
            <path d="M1135.59 26.978h6.608v-6.605h-6.608zM1135.59 33.582h6.608v-6.604h-6.608z"/>
        </g>
        <path fill="#01FF70" d="M1401.776 58.886h6.637v-6.634h-6.637z"/>
        <path fill="#F012BE" d="M935.558 544.167h6.583v-6.579h-6.583z"/>
        <path fill="#FFDC00" d="M1319.546 445.11h6.583v-6.58h-6.583zM1070.77 195.234h6.582v-6.58h-6.582z"/>
        <g fill="#01FF70">
            <path d="M1336.054 19.815h6.608V13.21h-6.608zM1336.054 13.21h6.608V6.604h-6.608z"/>
            <path d="M1336.053 6.605h6.608V0h-6.608z"/>
            <path d="M1329.445 13.21h6.61V6.604h-6.61z"/>
            <path d="M1329.445 6.605h6.61V0h-6.61zM1322.837 6.605h6.607V0h-6.607z"/>
        </g>
        <g fill="#F012BE">
            <path d="M1067.453 84.768h6.608v-6.605h-6.608zM1067.453 78.163h6.608v-6.606h-6.608z"/>
            <path d="M1067.453 71.558h6.608v-6.605h-6.608zM1060.845 78.163h6.608v-6.606h-6.608z"/>
            <path d="M1060.845 71.558h6.608v-6.605h-6.608z"/>
            <path d="M1054.236 71.558h6.61v-6.605h-6.61z"/>
        </g>
    </g>
</svg>
