<svg xmlns="http://www.w3.org/2000/svg" viewBox="0 0 324 324"><defs><style>.cls-1{fill:#e4e4e4;}.cls-2{fill:#fff;}.cls-3{fill:#ec2024;}</style></defs><title>Asset 1</title><g id="Layer_2" data-name="Layer 2"><g id="Layer_1-2" data-name="Layer 1"><rect class="cls-1" width="324" height="324"/><rect class="cls-2" x="9" y="9" width="306" height="306"/><polygon class="cls-1" points="108 63 108 45 45 45 45 108 45 153 53.65 153 62.65 153 72 153 72 144 81 144 81 135 81 126 90 126 90 117 107.65 99 126 99 126 63 108 63"/><rect x="135" y="45" width="9" height="9"/><rect x="126" y="36" width="9" height="9"/><polygon points="116.65 27 108 27 108 63 117 63 117 36 126 36 126 27 116.65 27"/><polygon points="36 36 108 36 108 27 27 27 27 72 27 171 35.65 171 63 171 63 162 36 162 36 36"/><polygon points="134.65 54 108 54 108 63 135 63 135 90 144 90 144 63 144 54 134.65 54"/><polygon points="135 162 98.65 162 81 162 81 171 98.65 171 134.65 171 144 171 144 162 144 108 135 108 135 162"/><rect class="cls-1" x="63" y="90" width="9" height="9"/><polygon class="cls-1" points="117 117 117 126 108 126 108 135 99 135 99 144 90 144 90 153 116.65 153 126 153 126 126 126 117 117 117"/><polygon class="cls-3" points="108 90 108 81 98.65 81 90 81 90 90 81 90 81 81 71.65 81 63 81 63 90 72 90 72 99 63 99 63 90 54 90 54 99 54 108 63 108 63 117 72 117 72 126 81 126 81 135 90 135 90 126 99 126 99 117 108 117 108 108 117 108 117 99 117 90 108 90"/><path class="cls-3" d="M27,291.45l9.09-14v-.05H28a.3.3,0,0,1-.29-.34v-.35a.29.29,0,0,1,.29-.29h9.23a.28.28,0,0,1,.29.29v.35l-9.11,14v0h8.35a.28.28,0,0,1,.29.29v.4a.28.28,0,0,1-.29.29H27.34a.28.28,0,0,1-.31-.26Z"/><path class="cls-3" d="M40.22,291.86l6.9-15.59a.31.31,0,0,1,.27-.16h.07a.28.28,0,0,1,.29.16l6.83,15.59c0,.13,0,.26-.2.26h-.59a.37.37,0,0,1-.31-.2l-1.81-4.12H43.11l-1.79,4.12a.38.38,0,0,1-.32.2h-.62C40.22,292.12,40.15,292,40.22,291.86Zm11.07-4.93-3.83-9h-.05l-3.9,9Z"/><path class="cls-3" d="M65.78,276.22a7.67,7.67,0,0,1,5.42,2.08.3.3,0,0,1,0,.41,4.35,4.35,0,0,1-.36.38c-.13.16-.24.13-.38,0a6.85,6.85,0,0,0-4.72-1.88,7.06,7.06,0,0,0,0,14.11,8.44,8.44,0,0,0,4.66-1.23v-4.22H66.58c-.24,0-.29-.08-.29-.29v-.44c0-.18,0-.27.29-.27h4.6a.29.29,0,0,1,.29.27v5.19a.63.63,0,0,1-.32.59,10.44,10.44,0,0,1-5.37,1.43,8.07,8.07,0,1,1,0-16.13Z"/><path class="cls-3" d="M77.23,276.74a.28.28,0,0,1,.29-.29h5.55a4.8,4.8,0,0,1,1.3,9.47l3.27,5.8c.11.18.07.4-.16.4h-.69a.3.3,0,0,1-.31-.2l-3.25-5.87a7.68,7.68,0,0,1-.83,0H78.28v5.75c0,.16-.14.29-.36.29h-.4a.29.29,0,0,1-.29-.29Zm5.8,8.4a3.91,3.91,0,0,0,4-3.9,3.86,3.86,0,0,0-4-3.76H78.3v7.66Z"/><path class="cls-3" d="M93.58,276.74a.29.29,0,0,1,.29-.29h9a.29.29,0,0,1,.29.29v.38a.3.3,0,0,1-.29.29h-8.2v6.18h7.1a.29.29,0,0,1,.29.29v.38a.29.29,0,0,1-.29.29h-7.1v6.63h8.2a.3.3,0,0,1,.29.3v.35a.29.29,0,0,1-.29.29h-9a.29.29,0,0,1-.29-.29Z"/><path class="cls-3" d="M108.77,276.74a.29.29,0,0,1,.29-.29h4.77c2.75,0,4.63,1.59,4.63,4.05a3.84,3.84,0,0,1-2.46,3.63,3.69,3.69,0,0,1,3,3.74c0,2.51-2,4.25-4.93,4.25h-5a.29.29,0,0,1-.29-.29Zm5.35,14.44a3.38,3.38,0,0,0,3.69-3.33c0-2-1.7-3.18-3.83-3.18H109.8v6.51ZM114,283.7a3,3,0,0,0,3.34-3.16c0-1.94-1.34-3.11-3.49-3.11h-4v6.27Z"/><path class="cls-3" d="M130,291.12c1.66-1.88,4-4.73,5.65-6.7a5.48,5.48,0,0,0,1.7-3.27,2.46,2.46,0,0,0-2.75-2.44,4.15,4.15,0,0,0-2.85,1.5.4.4,0,0,1-.6,0l-.76-.76a.45.45,0,0,1,0-.59,6,6,0,0,1,4.35-2.19c3.2,0,4.9,2,4.9,4.39,0,1.72-.94,2.91-2.15,4.37s-2.75,3.27-4.07,4.77h5.71a.44.44,0,0,1,.42.42v1.08a.44.44,0,0,1-.42.42h-8.67a.42.42,0,0,1-.43-.42Z"/><path class="cls-3" d="M144.16,284.51c0-4.91,2-7.84,5.55-7.84s5.54,2.93,5.54,7.84-2,7.84-5.54,7.84S144.16,289.42,144.16,284.51Zm8.82,0c0-3.67-1.18-5.78-3.27-5.78s-3.29,2.11-3.29,5.78,1.19,5.8,3.29,5.8S153,288.23,153,284.51Z"/><path class="cls-3" d="M161.83,280.32l-1.79.85c-.2.09-.43.05-.49-.16l-.27-.78a.43.43,0,0,1,.06-.45l3.19-2.89h1.09a.42.42,0,0,1,.41.43V291.7a.42.42,0,0,1-.41.42h-1.36a.42.42,0,0,1-.43-.42Z"/><path class="cls-3" d="M172,284.31v-.07a4.12,4.12,0,0,1-2.31-3.47c0-2.47,2.06-4.1,4.75-4.1s4.79,1.63,4.79,4.1a4.14,4.14,0,0,1-2.3,3.45v.09a4.49,4.49,0,0,1,2.71,3.74c0,2.44-2,4.3-5.22,4.3s-5.13-1.86-5.13-4.3C169.27,286.1,171.15,284.69,172,284.31Zm2.44,6.22a2.58,2.58,0,0,0,2.87-2.44,2.85,2.85,0,0,0-5.69,0A2.61,2.61,0,0,0,174.42,290.53Zm2.53-9.67a2.39,2.39,0,0,0-2.57-2.35,2.36,2.36,0,0,0-2.45,2.35c0,1.21.77,2.13,2.51,2.39C176.17,283,177,282,177,280.86Z"/><path class="cls-3" d="M185.19,289.24a1.56,1.56,0,1,1-1.54,1.56A1.55,1.55,0,0,1,185.19,289.24Z"/><path d="M25.71,182.61a1,1,0,0,1,1-1.32h5.06a1.12,1.12,0,0,1,1,.77L38.47,204h.22l8.75-22.66a.88.88,0,0,1,.93-.6h1a.87.87,0,0,1,.93.6L59.09,204h.22l5.61-21.94a1.12,1.12,0,0,1,1-.77H71a1,1,0,0,1,1,1.32L61.57,219.56a1.06,1.06,0,0,1-1,.77H59.7a.93.93,0,0,1-.94-.6l-9.84-24.91h-.27l-9.74,24.91a.92.92,0,0,1-.93.6H37.1a1.06,1.06,0,0,1-1-.77Z"/><path d="M81.7,182.33a1,1,0,0,1,1-1h22.38a1,1,0,0,1,1,1v4.51a1,1,0,0,1-1,1H88.85v9h13.58a1.08,1.08,0,0,1,1,1v4.57a1,1,0,0,1-1,1H88.85v9.63h16.28a1,1,0,0,1,1,1v4.51a1,1,0,0,1-1,1H82.75a1,1,0,0,1-1-1Z"/><path d="M117.34,182.33a1,1,0,0,1,1-1H131c6.54,0,11.6,4.4,11.6,10.17,0,4.24-3.46,7.54-6.05,8.75,2.92.93,7.15,3.9,7.15,9,0,6.16-5.28,10.61-12,10.61H118.39a1,1,0,0,1-1-1Zm13,15.13a4.72,4.72,0,0,0,4.73-5,4.5,4.5,0,0,0-4.73-4.68h-5.88v9.63Zm.77,15.83a4.9,4.9,0,0,0,4.95-5c0-2.75-2.75-4.78-5.61-4.78h-6v9.78Z"/><path d="M46.17,226.9A18.59,18.59,0,0,1,59.48,232a1,1,0,0,1,.05,1.54L56.18,237a.89.89,0,0,1-1.38,0,13,13,0,0,0-8.46-3.24c-7,0-12.27,5.88-12.27,12.81a12.45,12.45,0,0,0,12.32,12.7,13.16,13.16,0,0,0,8.41-3.13,1,1,0,0,1,1.38,0l3.41,3.52a1,1,0,0,1-.06,1.48,18.88,18.88,0,0,1-13.36,5.34,19.8,19.8,0,1,1,0-39.6Z"/><path d="M66.14,264.52l17.1-37a1,1,0,0,1,.94-.61h.55a.93.93,0,0,1,.93.61l16.94,37a1,1,0,0,1-.94,1.43H96.88a1.59,1.59,0,0,1-1.6-1.1l-2.69-5.94H76.15l-2.7,5.94a1.65,1.65,0,0,1-1.59,1.1H67.07A1,1,0,0,1,66.14,264.52ZM89.9,252.8l-5.5-12.09h-.17L78.84,252.8Z"/><path d="M114.92,227.73a.94.94,0,0,1,1-.83h.88a1,1,0,0,1,.94.55l12.09,26H130l12.1-26a.94.94,0,0,1,.93-.55h.88a.92.92,0,0,1,1,.83l6.49,37a1,1,0,0,1-1,1.27h-5a1.19,1.19,0,0,1-1-.83l-3.24-20.84h-.17l-9.62,21.61a.94.94,0,0,1-.94.61h-1a1,1,0,0,1-.93-.61l-9.73-21.61h-.17l-3.19,20.84a1.05,1.05,0,0,1-1,.83h-5a1,1,0,0,1-1-1.27Z"/><path d="M162.22,228.5a1,1,0,0,1,1.05-1.05h12.92a12.27,12.27,0,1,1,.05,24.53h-6.87V264.9a1.08,1.08,0,0,1-1,1.05h-5.06a1,1,0,0,1-1.05-1.05Zm13.53,16.77a5.67,5.67,0,0,0,5.66-5.72,5.48,5.48,0,0,0-5.66-5.33h-6.38v11.05Z"/></g></g></svg>