<svg xmlns="http://www.w3.org/2000/svg" viewBox="0 0 960 560"><path fill="#E34C25" d="M253.848 24.89l41.07 460.815L479.3 536.89l184.86-51.263L705.31 24.89H253.848z"/><path fill="#EC662B" d="M478.38 37.767h211.115l-38.413 437.836-172.438 48.63-.264-.076"/><path fill="#FFF" fill-rule="evenodd" d="M648.932 476.185c-23.196-30.303-89.98-52.02-170.2-52.016-79.335 0-146.678 21.45-170.597 51.23l.29.34 170.942 47.46 169.565-47.02zM327.047 111.97L321.65 93.3l-19.017 4.01 13.47-14.01-12.983-14.46 18.87 4.66 6.034-18.474 5.397 18.67 19.02-4.01-13.47 14.01 12.98 14.46-18.87-4.658m294.85-35.744c-5.35 0-10.44 1.904-14.41 4.925 1.52-.43 3.1-.66 4.74-.66 10.15 0 18.38 8.76 18.38 19.58s-8.23 19.58-18.37 19.58c-1.98 0-3.9-.34-5.69-.96 4.12 3.43 9.62 5.69 15.37 5.69 13.14 0 23.79-10.78 23.79-24.09 0-13.3-10.65-24.09-23.79-24.09z" clip-rule="evenodd"/><path fill="#FFF" fill-rule="evenodd" d="M612.534 393.525V260.7H494.89l-1.17 2.74c16.172 5.395 28.912 17.735 36.933 32.61 9.704-8.408 22.19-14.182 32.18-14.182h5.405l.235 111.657h44.06zM457.427 260.7H340.873v132.825h47.797l.234-111.657h5.405c8.87 0 19.81 4.66 28.98 11.684 7.98-13.728 20.07-24.975 35.22-30.074l-1.1-2.778zm9.177 23.24c6.16-2.322 12.32-2.753 18.478-.316 4.793 1.934 9.424 4.986 13.215 8.38 7.758 6.94 12.905 15.93 15.91 25.843l.99 3.266c-.1.86-.158 1.718-.16 2.576l-.203 69.83H442.31l-.204-69.84c-.01-3.23-.746-6.49-2.052-9.69l.387-1.02c3.27-8.59 8.24-16.43 15.31-22.37 3.16-2.66 6.94-5.08 10.86-6.68zm-126.137 115l-26.396 58.685h.26c15.74-13.976 41.05-22.73 60.36-27.75 4.59-1.193 9.24-2.284 13.92-3.28l.06-27.655h-48.2zm101.917 20.258c11.67-.833 23.32-1.213 34.774-1.213 12.367 0 24.978.438 37.602 1.416l.058-20.46h-72.493l.06 20.26zm126.16 8.037c3.91.875 7.79 1.82 11.63 2.836 19.22 5.1 44.413 14.03 59.758 28.34l-26.99-59.47h-44.458l.06 28.3zM394.01 180.515c0-3.21-2.055-5.942-4.92-6.95v-21.817c0-.99-.804-1.79-1.793-1.79-.99 0-1.79.8-1.79 1.79v21.49c-3.526.548-6.224 3.597-6.224 7.277 0 4.067 3.296 7.364 7.364 7.364 4.066 0 7.364-3.3 7.364-7.37zm90.738-35.63c0-3.45-2.37-6.345-5.573-7.145v-23.504c0-.99-.802-1.79-1.79-1.79-.99 0-1.792.8-1.792 1.79v23.504c-3.202.8-5.574 3.695-5.574 7.144 0 4.067 3.29 7.365 7.36 7.365s7.36-3.3 7.36-7.37zm89.506 36.108c0-3.512-2.46-6.45-5.748-7.185v-22.06c0-.99-.803-1.79-1.792-1.79-.988 0-1.79.8-1.79 1.79v22.147c-3.114.86-5.398 3.712-5.398 7.098 0 4.068 3.297 7.363 7.364 7.363 4.068 0 7.364-3.295 7.364-7.363zm18.808 26.247l-7.11.025v16.812H564.61v-16.74l-24.07.083 1.424-63.133v-1.492l-9.852-6.866.5-23.39h14.427v14.53h12.14v-14.53h13.83v14.52h14.42v-14.52h16.32v23.38l-11.94 8.35 1.24 62.96zm-71.4.243l-.73.003v16.59h-21.345V207.56l-43.676.147v16.37h-21.34V207.78l-1.43.004 4.46-104.395-9.55-11.35V64.88h13.44v16.717h14.33V64.88h14.63v16.717h13.73V64.88h14.63v16.717h14.03V64.88h13.74v27.164l-9.55 11.345 4.66 104.09zm-108.486.37l-22.286.076v16.14h-21.343V208l-8.917.032 1.438-63.745v-1.492l-9.85-6.866.497-23.39h14.43v14.53h12.14v-14.53h13.83v14.52h14.43v-14.52h16.318v23.38l-11.94 8.35 1.253 63.57z" clip-rule="evenodd"/><path fill="#FFF" fill-rule="evenodd" d="M332.62 213.547v27.165l9.173 14.573H456.22l-1.572-4.167h45.33l-1.57 4.167h115.407l11.063-15.268v-27.465l-32.51.11v16.83h-32.175v-16.72l-32.845.112v16.608h-32.176v-16.5l-32.846.113v16.387H430.15v-16.278l-32.844.11v16.168H365.13v-16.057m28.89 212.055l.29-138.207c16.633 0 42.38 19.725 42.38 36.42l.28 95.914c-14.43 1.205-28.853 3.117-42.95 5.874zm169.104.58l-.29-138.787c-16.4 0-42.38 19.257-42.38 36.42l-.28 96.15c14.45 1.298 28.882 3.322 42.95 6.218zM460.51 268.524c-13.623 4.51-25.213 14.77-32.988 28.547 3.592 3.26 6.762 6.87 9.22 10.66 8.087-18.43 20.956-25.99 27.864-28.82l-4.095-10.38zm66.06 31.394c-7.84-15.267-20.285-26.706-34.982-31.48l-4.36 10.215c7.213 2.955 22.633 11.62 30.717 33.34 2.038-4.245 5.032-8.344 8.625-12.075zm-65.092-43.384l7.687 20.387c1.594-.56 4.177-.46 7.09-.46 2.98 0 5.608-.09 7.195.5l7.7-20.42h-29.672z" clip-rule="evenodd"/><path fill="#E54E27" d="M682.984 399.797l8.842-74.494H265.603l8.822 74.494"/><path fill="#FFF" d="M301.982 350.31v6.272h18.8v11.185h-18.8v17.16H291.05v-44.975l.845-.946h31.424v11.304h-21.34zm46.074 34.842l-6-11.955h-5.823l.044 11.955h-9.512v-38.65h17.29c.83 0 1.675.176 2.534.523.86.35 1.69.816 2.49 1.395.79.582 1.54 1.238 2.22 1.968.68.73 1.26 1.477 1.73 2.24.59.965 1.04 2.085 1.35 3.36.31 1.28.46 2.502.46 3.664 0 1.924-.4 3.72-1.2 5.377-.8 1.66-1.91 3.05-3.34 4.18l8.09 15.93h-10.35zm-6.71-30.032h-5.38v8.318h5.38c.532 0 1.036-.11 1.51-.322.474-.213.89-.513 1.245-.892.36-.38.64-.817.85-1.31.21-.497.31-1.042.31-1.637 0-.594-.1-1.137-.31-1.632-.2-.498-.49-.933-.84-1.312-.35-.38-.77-.676-1.24-.892-.47-.21-.98-.32-1.51-.32zm77.918 29.983l-11.957-20.62v20.62h-9.2V346.5h9.155l12.002 20.82V346.5h9.245v38.603h-9.25zm42.51-29.038h-9.467v29.087h-9.38v-29.087h-9.467l-.622-.696v-8.87h29.56v8.87l-.624.69zm30.626 29.087V365.28l-7.378 13.647c-.09.2-.24.333-.445.396-.208.07-.386.102-.534.102-.177 0-.37-.033-.578-.102-.207-.063-.355-.197-.443-.396l-7.38-13.647v19.872h-9.023v-38.65h8.44c.29 0 .55.152.75.45l8.18 15.29 8.22-15.29c.21-.298.44-.45.71-.45h8.49v38.65h-9.02zm36.58 0l-1.777-5.33H516.58l-1.778 5.33h-9.734l12.756-38.65h8.135l12.75 38.65h-9.74zm-7.067-24.555l-2.756 10.212h5.468l-2.712-10.22zm41.712 24.506l-11.958-20.62v20.62h-9.2V346.5h9.156l12.002 20.82V346.5h9.245v38.603h-9.245zm27.64-.175v-2.072l15.95-32.075H590.05v-11.77h34.064v2.07l-15.95 32.08h16.32v11.78h-33.218zm67.772 0v-1.302c-3.17 1.814-6.514 2.722-10.034 2.722-3.063 0-5.906-.633-8.53-1.894-2.622-1.26-4.902-2.988-6.84-5.18-1.935-2.186-3.45-4.752-4.54-7.69-1.093-2.94-1.637-6.105-1.637-9.5 0-3.312.553-6.45 1.663-9.407 1.1-2.96 2.64-5.552 4.59-7.783 1.95-2.23 4.24-3.984 6.86-5.267 2.62-1.282 5.44-1.922 8.47-1.922 3.24 0 6.31.778 9.21 2.337 2.9 1.558 5.43 3.76 7.58 6.598l-8.98 6.686c-1.09-1.222-2.3-2.16-3.62-2.81-1.32-.65-2.72-.977-4.2-.977-1.55 0-2.99.34-4.31 1.03-1.32.69-2.47 1.61-3.43 2.75-.97 1.14-1.73 2.47-2.27 3.99-.55 1.52-.82 3.13-.82 4.82 0 1.7.27 3.31.82 4.85.54 1.54 1.31 2.88 2.29 4.02.984 1.14 2.14 2.06 3.46 2.75 1.32.69 2.753 1.03 4.302 1.03 1.654 0 3.23-.42 4.726-1.25 1.5-.83 2.757-1.99 3.78-3.496h-7.237V359h18.01v25.92h-9.346zm-282.8 1.42c-2.55 0-4.934-.533-7.156-1.596-2.22-1.06-4.16-2.515-5.82-4.357-1.66-1.843-2.97-4.008-3.93-6.498s-1.44-5.15-1.44-7.97c0-2.823.48-5.48 1.45-7.97.97-2.488 2.28-4.655 3.94-6.5 1.66-1.842 3.6-3.303 5.82-4.382 2.23-1.08 4.61-1.618 7.16-1.618 2.52 0 4.9.54 7.14 1.618 2.24 1.08 4.19 2.54 5.85 4.383 1.66 1.844 2.97 4.01 3.93 6.5s1.45 5.146 1.45 7.97c0 2.82-.48 5.478-1.443 7.97-.962 2.49-2.273 4.654-3.932 6.497-1.66 1.842-3.61 3.298-5.842 4.357-2.236 1.063-4.614 1.596-7.133 1.596zm0-31.03c-1.305 0-2.51.29-3.623.872-1.112.582-2.067 1.352-2.867 2.315-.8.966-1.43 2.086-1.89 3.362-.46 1.28-.688 2.635-.688 4.06 0 1.393.22 2.74.68 4.035.46 1.293 1.09 2.424 1.89 3.386.8.963 1.75 1.736 2.86 2.317 1.11.58 2.32.87 3.62.87 1.3 0 2.51-.29 3.62-.87 1.11-.58 2.06-1.354 2.86-2.317.8-.962 1.43-2.093 1.89-3.386.46-1.296.69-2.642.69-4.035 0-1.425-.23-2.78-.69-4.06-.46-1.276-1.09-2.396-1.89-3.362-.8-.963-1.76-1.733-2.87-2.315-1.12-.583-2.32-.872-3.63-.872z"/></svg>
