<svg xmlns="http://www.w3.org/2000/svg" viewBox="0 0 140 140"><path fill="#fff" d="M140 70c0 38.663-31.337 70-70 70S0 108.663 0 70 31.337 0 70 0s70 31.337 70 70z"/><path fill="#fff215" fill-rule="evenodd" d="M70 10c33.14 0 60 26.86 60 60s-26.86 60-60 60-60-26.86-60-60 26.86-60 60-60"/><path fill="#232323" fill-rule="evenodd" d="M100.064 28.096c2.162 1.943 3.93 4.873 2.905 7.87-.76 3.08-3.83 4.556-6.657 5.22 2.162.348 4.55.84 6.563-.376 3.295-1.704 4.516-6.317 2.435-9.404-1.102-1.92-3.275-2.656-5.247-3.31zM38.53 30.25c-.536.946-1.08 1.874-1.626 2.81-1.074 0-2.14-.004-3.218 0 .533.95 1.055 1.896 1.598 2.85-.548.92-1.094 1.84-1.626 2.776 1.083.005 2.167.05 3.246.064.547.928 1.114 1.826 1.66 2.75.532-.94 1.055-1.846 1.592-2.78h3.253c-.545-.95-1.077-1.9-1.628-2.846.55-.933 1.103-1.88 1.655-2.813-1.09 0-2.193.007-3.282 0-.546-.935-1.078-1.873-1.626-2.81zm22.315 4.78c-1.148 0-2.29.024-3.437.034.61 1.875 1.224 3.755 1.84 5.625 3.56.003 7.13 0 10.688 0 3.566 0 7.13.003 10.69 0 .614-1.87 1.234-3.75 1.845-5.627-1.15-.01-2.29-.035-3.435-.035-.592 1.138-1.193 2.294-1.783 3.436-1.386-.004-2.773-.024-4.154-.028-.586-1.138-1.162-2.275-1.754-3.41H68.53c-.59 1.135-1.166 2.272-1.747 3.41-1.388.004-2.774.024-4.156.028-.59-1.142-1.192-2.298-1.782-3.437zm1.655 6.718c-.586 9.277-1.084 18.536-1.655 27.812 1.694-.067 3.394-.073 5.093-.093.722 1.002 1.46 2.003 2.187 3.004h3.623c.732-1 1.464-2 2.187-3.002 1.705.02 3.404.026 5.1.093-.573-9.275-1.076-18.534-1.662-27.812H62.5zm7.436 2.72c.787.034 1.406.673 1.406 1.47 0 .634-.376 1.167-.937 1.377v6.655h-.902v-6.655c-.563-.21-.973-.743-.973-1.377 0-.797.62-1.436 1.406-1.47zm-22.62 1.626c-.43.015-1.27.044-1.69.064-.396.804-.767 1.63-1.16 2.436-.98-.01-1.98-.03-2.968-.03-.42-.82-.83-1.625-1.25-2.442-.478 0-1.424-.003-1.903 0 .37 1.25.75 2.505 1.122 3.75 4.698.01 9.395.01 14.098 0 .37-1.25.746-2.495 1.123-3.75-.66.01-1.315-.003-1.968 0-.4.817-.82 1.626-1.22 2.443-.973.004-1.935.024-2.906.03-.42-.836-.855-1.676-1.28-2.5zm45.248 0c-.43.825-.865 1.665-1.285 2.5-.973-.005-1.935-.025-2.908-.03-.4-.816-.814-1.625-1.214-2.442-.66-.003-1.315.01-1.975 0 .376 1.255.752 2.5 1.13 3.75 4.696.01 9.397.01 14.09 0l1.13-3.75c-.48-.003-1.432 0-1.91 0-.42.817-.83 1.622-1.25 2.443-.982 0-1.984.02-2.97.03-.385-.807-.76-1.633-1.157-2.437-.42-.02-1.26-.05-1.684-.064zM46.5 50.874c-1.623 0-3.252.025-4.873.035-.27 6.39-.685 12.765-1.002 19.153.576.8 1.143 1.61 1.72 2.407h3.778c.723-.99 1.46-1.986 2.187-2.968 1.353 0 2.705-.01 4.063 0-.342-6.206-.674-12.432-1.03-18.628h-4.845zm42.03 0c-.35 6.196-.69 12.422-1.03 18.628 1.357-.01 2.71 0 4.063 0 .727.982 1.464 1.978 2.187 2.97h3.78c.58-.797 1.142-1.608 1.718-2.408-.313-6.388-.728-12.764-.996-19.155-3.247-.017-6.48-.04-9.722-.037zM46.59 52.5c.818 0 1.506.654 1.506 1.47 0 .635-.41 1.196-.972 1.406v4.283h-1.03v-4.285c-.56-.21-.966-.77-.966-1.406 0-.817.648-1.47 1.463-1.47zm46.69 0c.816 0 1.47.654 1.47 1.47 0 .635-.41 1.196-.97 1.406v4.283h-1.032v-4.285c-.56-.21-.965-.77-.965-1.406 0-.817.683-1.47 1.498-1.47zM35.34 70.497c.72 1.593 1.443 3.194 2.16 4.787h64.873l2.158-4.787c-1.45-.003-2.9 0-4.344 0-.708.992-1.415 1.988-2.124 2.97-1.62.01-3.25 0-4.87 0-.7-.977-1.393-1.963-2.096-2.934-1.26-.01-2.53 0-3.78 0-.73.97-1.46 1.957-2.186 2.933h-4.79c-.71-.97-1.44-1.962-2.15-2.933-1.256-.01-2.506-.01-3.75 0-.705.96-1.393 1.933-2.096 2.905-.797.004-1.607.024-2.408.028-.8-.004-1.606-.024-2.407-.028-.7-.972-1.393-1.944-2.09-2.905-1.25-.01-2.5-.01-3.75 0-.72.97-1.443 1.962-2.16 2.933h-4.78c-.727-.976-1.46-1.962-2.187-2.933-1.255 0-2.52-.01-3.785 0-.704.97-1.398 1.957-2.09 2.933-1.62 0-3.257.01-4.88 0-.706-.98-1.415-1.977-2.122-2.97-1.445 0-2.895-.002-4.347 0zm34.596 5.568c-10.717 0-21.43 0-32.188.03l.065 25.78-3.936 15.313c8.37-5.24 21.44-8.594 36.123-8.594 14.38 0 27.207 3.227 35.596 8.28-1.28-5.077-2.37-9.638-3.5-15l.027-25.78c-10.755-.03-21.464-.03-32.187-.03zm9.126 4.496c3.238 0 5.548 1.12 7.217 4.064l-3.937 2.564C81.47 85.626 80.518 85 79.063 85c-1.49 0-2.436.953-2.436 2.188 0 1.528.942 2.148 3.124 3.096l1.28.526c4.327 1.856 6.755 3.75 6.755 8.004 0 4.58-3.604 7.095-8.438 7.095-4.732 0-7.76-2.248-9.254-5.194l4.127-2.407c1.088 1.78 2.524 3.095 5.028 3.095 2.11 0 3.437-1.078 3.437-2.53 0-1.747-1.357-2.358-3.687-3.38l-1.278-.525c-3.673-1.566-6.13-3.544-6.13-7.69 0-3.818 2.926-6.72 7.472-6.72zm-16.846.286h5.1v17.372c0 5.274-3.088 7.692-7.6 7.692-4.07 0-6.42-2.116-7.62-4.66l4.125-2.5c.797 1.416 1.535 2.592 3.283 2.592 1.67 0 2.714-.64 2.714-3.188v-17.31zM70 109.686c-14.516 0-27.46 3.303-35.845 8.44C44.155 125.585 56.562 130 70 130c13.438 0 25.845-4.414 35.845-11.875-8.384-5.14-21.323-8.438-35.845-8.438z"/></svg>
