<svg xmlns="http://www.w3.org/2000/svg" width="700" height="700" viewBox="0 0 700 700"><g fill="#000" fill-rule="evenodd"><path d="M350 0C176.372 0 32.353 126.457 4.822 292.277h325.485l-86.597-149.48 43.743-25.34 193.176 333.45h204.535C694.775 418.948 700 385.09 700 350 700 156.7 543.3 0 350 0M350 700c139.042 0 259.142-81.082 315.612-198.54H34.388C90.858 618.92 210.958 700 350 700"/><path d="M367.25 356.048l-53.83 94.86h108.786l-54.955-94.86M316.627 342.83H.18C.134 345.223 0 347.595 0 350c0 35.09 5.225 68.948 14.835 100.908h240.458l61.334-108.078"/></g></svg>