<svg xmlns="http://www.w3.org/2000/svg" viewBox="0 0 425.333 283.465"><g fill="#F0451D"><path d="M146.672 150.352h-2v-11.524c0-.91.055-2.023.168-3.344h-.05c-.192.778-.36 1.332-.517 1.668l-5.867 13.2h-.98l-5.86-13.106c-.168-.383-.34-.97-.515-1.762h-.046c.062.688.098 1.813.098 3.368v11.5h-1.942v-17.176h2.656l5.274 11.976c.406.918.668 1.606.79 2.063h.07c.343-.942.62-1.645.827-2.11l5.38-11.93h2.515zm0 0M152.52 150.352h-1.965v-12.266h1.965zm-.958-15.38c-.35 0-.652-.12-.898-.36-.25-.24-.37-.542-.37-.91 0-.366.12-.67.37-.917.246-.242.547-.363.9-.363.358 0 .663.12.913.363.253.246.378.55.378.918 0 .352-.125.65-.378.9-.25.245-.555.37-.915.37M164.488 149.79c-.94.565-2.058.85-3.35.85-1.75 0-3.16-.57-4.236-1.706-1.074-1.14-1.613-2.614-1.613-4.426 0-2.024.58-3.645 1.737-4.87 1.157-1.228 2.703-1.84 4.637-1.84 1.078 0 2.027.202 2.848.6v2.012c-.91-.64-1.883-.957-2.918-.957-1.254 0-2.285.45-3.086 1.348-.805.9-1.207 2.08-1.207 3.54 0 1.437.38 2.57 1.134 3.402.754.828 1.77 1.246 3.035 1.246 1.07 0 2.077-.355 3.018-1.07zm0 0M173.488 140.074c-.343-.262-.84-.394-1.484-.394-.836 0-1.54.394-2.102 1.187-.562.79-.843 1.867-.843 3.23v6.255h-1.966v-12.266h1.965v2.527h.045c.278-.863.708-1.535 1.282-2.02.574-.48 1.218-.722 1.925-.722.516 0 .907.056 1.176.17zm0 0M180.2 139.453c-1.262 0-2.26.43-2.993 1.285-.734.86-1.102 2.043-1.102 3.55 0 1.458.372 2.603 1.114 3.44.74.838 1.733 1.26 2.98 1.26 1.27 0 2.245-.414 2.93-1.234.683-.824 1.022-1.992 1.022-3.512 0-1.53-.34-2.715-1.023-3.543-.685-.833-1.66-1.247-2.93-1.247m-.145 11.188c-1.813 0-3.258-.574-4.34-1.718-1.082-1.15-1.625-2.668-1.625-4.56 0-2.06.562-3.667 1.69-4.827 1.126-1.156 2.646-1.738 4.564-1.738 1.828 0 3.254.566 4.285 1.69 1.022 1.126 1.538 2.69 1.538 4.685 0 1.957-.555 3.523-1.66 4.7-1.11 1.18-2.59 1.77-4.453 1.77M188.195 149.91v-2.11c1.067.79 2.246 1.188 3.532 1.188 1.726 0 2.585-.578 2.585-1.726 0-.328-.07-.606-.222-.832-.145-.23-.344-.43-.594-.606-.254-.176-.55-.332-.89-.472-.34-.14-.704-.286-1.094-.438-.543-.215-1.02-.434-1.434-.652-.41-.22-.754-.47-1.027-.742-.277-.278-.484-.59-.624-.942-.137-.35-.21-.762-.21-1.234 0-.574.132-1.086.397-1.528.262-.44.614-.812 1.055-1.113.437-.3.937-.523 1.504-.676.562-.152 1.14-.23 1.742-.23 1.06 0 2.012.187 2.848.555v1.984c-.9-.59-1.938-.883-3.114-.883-.367 0-.7.04-.992.125-.297.082-.55.2-.76.352-.212.152-.376.336-.494.547-.113.21-.172.445-.172.7 0 .32.06.585.172.803.118.215.286.407.512.575.223.168.492.32.813.453.32.137.683.285 1.09.445.542.207 1.03.422 1.46.64.434.22.8.466 1.106.743.3.273.535.594.7.953.163.358.245.784.245 1.28 0 .606-.137 1.133-.402 1.582-.266.446-.625.817-1.074 1.114-.446.297-.96.515-1.543.656-.583.144-1.197.22-1.833.22-1.262 0-2.356-.247-3.282-.732M204.246 139.453c-1.262 0-2.258.43-2.992 1.285-.734.86-1.102 2.043-1.102 3.55 0 1.458.37 2.603 1.114 3.44.742.838 1.738 1.26 2.98 1.26 1.27 0 2.246-.414 2.93-1.234.683-.824 1.023-1.992 1.023-3.512 0-1.53-.34-2.715-1.024-3.543-.684-.833-1.66-1.247-2.93-1.247m-.144 11.188c-1.813 0-3.258-.574-4.34-1.718-1.082-1.15-1.62-2.668-1.62-4.56 0-2.06.557-3.667 1.686-4.827 1.125-1.156 2.65-1.738 4.563-1.738 1.83 0 3.258.566 4.286 1.69 1.023 1.126 1.54 2.69 1.54 4.685 0 1.957-.556 3.523-1.66 4.7-1.11 1.18-2.59 1.77-4.454 1.77M218.602 133.918c-.383-.215-.817-.324-1.305-.324-1.375 0-2.06.867-2.06 2.6v1.892h2.872v1.676h-2.872v10.59h-1.957v-10.59h-2.093v-1.676h2.094v-1.988c0-1.286.376-2.3 1.118-3.047.743-.75 1.668-1.12 2.778-1.12.597 0 1.074.07 1.426.215zm0 0M225.984 150.23c-.464.258-1.074.387-1.832.387-2.148 0-3.222-1.2-3.222-3.594v-7.26h-2.11v-1.677h2.11v-2.996l1.965-.633v3.63h3.09v1.675h-3.09v6.914c0 .82.136 1.406.417 1.758.278.35.743.527 1.39.527.497 0 .923-.132 1.282-.405zm0 0M246.543 149.633c-1.266.672-2.848 1.008-4.742 1.008-2.44 0-4.398-.788-5.866-2.36-1.47-1.573-2.204-3.64-2.204-6.194 0-2.746.825-4.965 2.477-6.66 1.652-1.692 3.75-2.54 6.29-2.54 1.628 0 2.98.24 4.046.708v2.144c-1.227-.687-2.586-1.03-4.07-1.03-1.973 0-3.575.66-4.797 1.976-1.227 1.32-1.84 3.078-1.84 5.285 0 2.09.574 3.757 1.72 5 1.143 1.24 2.647 1.862 4.51 1.862 1.723 0 3.215-.387 4.477-1.152zm0 0M254.68 139.453c-1.262 0-2.258.43-2.993 1.285-.734.86-1.1 2.043-1.1 3.55 0 1.458.37 2.603 1.112 3.44.74.838 1.738 1.26 2.98 1.26 1.273 0 2.246-.414 2.93-1.234.683-.824 1.027-1.992 1.027-3.512 0-1.53-.344-2.715-1.028-3.543-.684-.833-1.657-1.247-2.93-1.247m-.14 11.188c-1.813 0-3.263-.574-4.345-1.718-1.082-1.15-1.62-2.668-1.62-4.56 0-2.06.562-3.667 1.687-4.827 1.125-1.156 2.648-1.738 4.566-1.738 1.828 0 3.254.566 4.28 1.69 1.025 1.126 1.54 2.69 1.54 4.685 0 1.957-.554 3.523-1.66 4.7-1.105 1.18-2.59 1.77-4.45 1.77M280.836 150.352h-1.97v-7.043c0-1.357-.206-2.34-.624-2.947-.422-.61-1.125-.91-2.113-.91-.84 0-1.556.383-2.142 1.15-.586.764-.88 1.682-.88 2.752v6.997h-1.963v-7.282c0-2.414-.93-3.617-2.793-3.617-.86 0-1.575.36-2.13 1.082-.562.723-.84 1.664-.84 2.82v6.997h-1.964v-12.266h1.965v1.94h.047c.87-1.483 2.14-2.23 3.808-2.23.84 0 1.57.235 2.196.704.62.465 1.046 1.078 1.28 1.836.907-1.69 2.266-2.54 4.07-2.54 2.7 0 4.052 1.67 4.052 4.997zm0 0M301.598 150.352h-1.965v-7.043c0-1.357-.21-2.34-.633-2.947-.418-.61-1.12-.91-2.11-.91-.84 0-1.554.383-2.14 1.15-.586.764-.88 1.682-.88 2.752v6.997h-1.964v-7.282c0-2.414-.93-3.617-2.79-3.617-.866 0-1.573.36-2.132 1.082-.562.723-.84 1.664-.84 2.82v6.997h-1.964v-12.266h1.965v1.94h.046c.873-1.483 2.142-2.23 3.81-2.23.84 0 1.57.235 2.195.704.62.465 1.047 1.078 1.282 1.836.91-1.69 2.265-2.54 4.07-2.54 2.7 0 4.05 1.67 4.05 4.997zm0 0M314.86 150.352h-1.965v-1.942h-.047c-.813 1.485-2.078 2.23-3.786 2.23-2.92 0-4.386-1.742-4.386-5.222v-7.332h1.957v7.02c0 2.585.988 3.882 2.97 3.882.956 0 1.745-.355 2.366-1.062.616-.707.925-1.63.925-2.774v-7.066h1.964zm0 0M328.64 150.352h-1.964v-6.997c0-2.6-.953-3.902-2.852-3.902-.984 0-1.797.367-2.437 1.106-.645.737-.965 1.67-.965 2.795v6.997h-1.965v-12.266h1.965v2.035h.047c.925-1.546 2.268-2.323 4.022-2.323 1.344 0 2.37.433 3.082 1.3.71.868 1.067 2.118 1.067 3.755zm0 0M333.938 150.352h-1.965v-12.266h1.964zm-.958-15.38c-.355 0-.652-.12-.902-.36-.246-.24-.37-.542-.37-.91 0-.366.124-.67.37-.917.25-.242.547-.363.902-.363.36 0 .665.12.915.363.25.246.375.55.375.918 0 .352-.125.65-.375.9-.25.245-.555.37-.915.37M343.234 150.23c-.464.258-1.074.387-1.832.387-2.148 0-3.222-1.2-3.222-3.594v-7.26h-2.106v-1.677h2.106v-2.996l1.965-.633v3.63h3.09v1.675h-3.09v6.914c0 .82.14 1.406.418 1.758.28.35.742.527 1.39.527.496 0 .922-.132 1.28-.405zm0 0M355.254 138.086l-5.645 14.23c-1.005 2.54-2.42 3.81-4.24 3.81-.51 0-.936-.052-1.28-.157v-1.763c.422.145.808.22 1.16.22.988 0 1.734-.595 2.23-1.775l.98-2.324-4.788-12.242h2.18l3.316 9.437c.04.122.125.434.25.938h.074c.04-.19.117-.495.238-.91l3.49-9.464zm0 0M90.34 122.594l-15.215 3.148v12.934H90.34zm-1.55 1.902v12.633H76.675V127zm0 0M112.258 138.676H92.445v-19.813l19.813-3.836zm0 0M90.34 161.79l-20.258-3.26v-17.827H90.34zm0 0M116.05 140.703H92.446v23.602l23.606 4.132zm-1.546 1.547v24.348l-20.508-3.59V142.25zm0 0"/></g></svg>
