<svg xmlns="http://www.w3.org/2000/svg" width="840" height="430"><defs><clipPath id="c"><path d="M0 560h960V0H0v560z"/></clipPath><linearGradient id="b" x1=".213" x2=".841" y1=".193" y2=".855"><stop offset="0" stop-color="#fdeb5f"/><stop offset=".99" stop-color="#fdbb29"/><stop offset="1" stop-color="#fdbb29"/></linearGradient><linearGradient id="a" x1=".167" x2=".723" y1=".13" y2=".729"><stop offset="0" stop-color="#3a82be"/><stop offset=".99" stop-color="#386a94"/><stop offset="1" stop-color="#386a94"/></linearGradient></defs><path fill="url(#a)" d="M164.43 15.137c-39.316 7.15-46.436 21.444-46.436 50.038v35.72h92.9v10.726H82.25c-28.59 0-53.592 17.856-60.738 50.026-10.737 35.716-10.737 57.15 0 92.893 7.145 28.586 21.444 50.016 50.02 50.016H103.7v-42.862c0-32.163 28.587-60.76 60.73-60.76h96.466c25.023 0 46.463-21.418 46.463-46.438v-89.32c0-25.017-21.44-46.46-46.464-50.038-17.855-1.784-34.825-2.678-50.904-2.678-16.08 0-31.267.894-45.562 2.68"/><path fill="url(#b)" d="M318.066 111.62v42.875c0 32.137-28.59 60.74-57.17 60.74H164.43c-25.02 0-46.436 21.44-46.436 46.456v89.324c0 25.02 21.416 42.875 46.437 50.02 28.59 7.136 57.176 10.708 96.466 0 21.45-7.146 46.463-21.443 46.463-50.022v-35.744h-96.464v-10.716H353.8c28.584 0 39.318-17.857 50.02-50.016 7.162-28.59 7.162-57.175 0-92.892-7.137-28.583-21.437-50.025-50.023-50.025h-35.733.002z"/><g clip-path="url(#c)" transform="matrix(1.25 0 0 -1.25 0 700)"><path fill="#fff" fill-rule="evenodd" d="M111.528 513.576c0 8.58 5.72 14.296 14.306 14.296 8.565 0 14.284-5.717 14.284-14.296 0-8.564-5.72-14.287-14.284-14.287-8.587 0-14.306 5.72-14.306 14.285m85.776-240.113c0 8.584 5.702 14.302 14.272 14.302 8.577 0 14.3-5.718 14.3-14.302 0-8.567-5.723-14.29-14.3-14.29-8.57 0-14.272 5.723-14.272 14.29"/><path fill="#646665" d="M514.924 423.602c-4.132 4.667-9.103 8.35-14.947 11.104-5.827 2.742-12.388 4.12-19.72 4.12-8.935 0-17.364-1.283-25.23-3.812-7.92-2.525-15.4-6.214-22.516-11.038l.36 106.255-31.487-10.704V274.918h31.486v121.41c5.97 4.523 12.087 8.444 18.39 11.793 6.303 3.317 12.916 4.995 19.792 4.995 4.108 0 7.736-1.02 10.83-3.043 3.108-2.02 5.662-4.647 7.75-7.852 2.05-3.212 3.614-6.92 4.647-11.074 1.026-4.167 1.555-8.384 1.555-12.677V274.92h32.148v111.653c0 7.164-1.166 13.958-3.456 20.404-2.266 6.424-5.5 11.982-9.6 16.628m106.016 16.83c-8.313-1.328-16.248-3.4-23.77-6.258-14.608-5.48-26.91-14.164-36.948-26.056v-133.2h31.47v126.4c3.9 3.346 8.398 6.126 13.538 8.393 5.113 2.265 11.33 3.404 18.64 3.404 1.58.228 3.7.115 6.313-.364 2.63-.477 5.886-1.07 9.787-1.78 1.81 4.503 3.737 8.864 5.8 13.03 2.056 4.164 4.294 8.983 6.84 14.458-12.786 2.634-23.335 3.28-31.67 1.978"/></g></svg>