<svg width="840" height="430" xmlns="http://www.w3.org/2000/svg" xmlns:svg="http://www.w3.org/2000/svg">
 <defs>
  <clipPath id="a">
   <path d="m177.558,79.37l297.27702,0l0,77.17699l-297.27702,0l0,-77.17699z" id="svg_3"/>
  </clipPath>
  <clipPath id="e">
   <path d="m0,560l960,0l0,-560l-960,0l0,560z" id="svg_4"/>
  </clipPath>
  <linearGradient id="svg_1" x2="0.8408" x1="0.21318" y1="0.19348" y2="0.85522">
   <stop offset="0" stop-color="#fdeb5f"/>
   <stop offset="0.99" stop-color="#fdbb29"/>
   <stop offset="1" stop-color="#fdbb29"/>
  </linearGradient>
  <linearGradient id="svg_2" x2="0.72257" x1="0.16704" y1="0.12982" y2="0.72923">
   <stop offset="0" stop-color="#3a82be"/>
   <stop offset="0.99" stop-color="#386a94"/>
   <stop offset="1" stop-color="#386a94"/>
  </linearGradient>
 </defs>
 <g>
  <title>Layer 1</title>
  <path fill="url(#svg_2)" d="m164.43124,15.1375c-39.31747,7.15 -46.43747,21.44376 -46.43747,50.03751l0,35.72125l92.89999,0l0,10.72502l-128.64377,0c-28.59,0 -53.59248,17.855 -60.7375,50.02498c-10.73749,35.71623 -10.73749,57.14998 0,92.8925c7.145,28.58746 21.44376,50.01749 50.02,50.01749l32.16748,0l0,-42.86249c0,-32.16251 28.58749,-60.76001 60.73126,-60.76001l96.46497,0c25.02255,0 46.46255,-21.41751 46.46255,-46.4375l0,-89.32124c0,-25.01625 -21.44,-46.45874 -46.46255,-50.03751c-17.85498,-1.78374 -34.82498,-2.6775 -50.90375,-2.6775c-16.08002,0 -31.26749,0.89375 -45.5625,2.67876" id="svg_5"/>
  <path fill="url(#svg_1)" d="m318.06625,111.62001l0,42.87498c0,32.13751 -28.59125,60.74127 -57.17001,60.74127l-96.465,0c-25.02124,0 -46.4375,21.4375 -46.4375,46.45499l0,89.32251c0,25.01874 21.41626,42.875 46.4375,50.02124c28.58749,7.13498 57.17499,10.70749 96.465,0c21.45001,-7.14749 46.46249,-21.44376 46.46249,-50.02252l0,-35.74496l-96.46249,0l0,-10.71503l142.90247,0c28.58502,0 39.31879,-17.85748 50.0213,-50.01624c7.16248,-28.59 7.16248,-57.17502 0,-92.89253c-7.13751,-28.58249 -21.4375,-50.02498 -50.02252,-50.02498l-35.73373,0l0.00253,0.00127l-0.00003,0z" id="svg_6"/>
  <g clip-path="url(#e)" transform="matrix(1.25,0,0,-1.25,0,700) " id="svg_7">
   <path fill="#fff" fill-rule="evenodd" d="m111.528,513.57599c0,8.58002 5.72,14.29602 14.30602,14.29602c8.565,0 14.28398,-5.71698 14.28398,-14.29602c0,-8.564 -5.72,-14.28699 -14.28398,-14.28699c-8.58702,0 -14.30602,5.72198 -14.30602,14.28601m85.776,-240.11301c0,8.58398 5.702,14.30197 14.272,14.30197c8.577,0 14.29999,-5.71799 14.29999,-14.30197c0,-8.56702 -5.72299,-14.29001 -14.29999,-14.29001c-8.57001,0 -14.272,5.72299 -14.272,14.29001" id="svg_8"/>
   <path fill="#646665" d="m514.92401,423.60199c-4.13202,4.66699 -9.10303,8.35001 -14.94699,11.104c-5.827,2.742 -12.38803,4.12 -19.72,4.12c-8.935,0 -17.36401,-1.28299 -25.22995,-3.81201c-7.92007,-2.52499 -15.40009,-6.21399 -22.51611,-11.03799l0.35806,106.25504l-31.48602,-10.70502l0,-244.608l31.48602,0l0,121.41c5.96997,4.52298 12.08804,8.444 18.39001,11.793c6.30396,3.31598 12.91702,4.99399 19.793,4.99399c4.108,0 7.73599,-1.01999 10.82999,-3.043c3.108,-2.01999 5.66202,-4.647 7.75,-7.85199c2.05002,-3.21201 3.61401,-6.92001 4.64697,-11.07401c1.02707,-4.16699 1.55603,-8.384 1.55603,-12.677l0,-103.54999l32.14801,0l0,111.65396c0,7.164 -1.16602,13.95801 -3.45599,20.40402c-2.26605,6.42398 -5.5,11.98199 -9.60004,16.62799m106.01599,16.82999c-8.31299,-1.328 -16.24799,-3.39999 -23.77002,-6.258c-14.60797,-5.48001 -26.90997,-14.164 -36.948,-26.056l0,-133.20099l31.47003,0l0,126.39999c3.89996,3.34601 8.39801,6.12601 13.53796,8.39301c5.11304,2.26501 11.33002,3.40399 18.64001,3.40399c1.58002,0.228 3.70001,0.11502 6.31299,-0.36398c2.63,-0.47702 5.88605,-1.07001 9.78705,-1.78c1.81,4.50299 3.737,8.86398 5.79999,13.03c2.05597,4.164 4.29401,8.983 6.83997,14.45798c-12.78601,2.63303 -23.33496,3.28 -31.66998,1.97702" id="svg_9"/>
  </g>
 </g>
</svg>
