<svg xmlns="http://www.w3.org/2000/svg" width="309" height="279"><path fill="#ED1C24" d="M294.813 146.978l-132.27 132.274-132.27-132.274 66.132-66.13h132.273"/><g fill="#FFF" fill-opacity=".1" stroke="#FFF" stroke-opacity=".5" stroke-width="2" stroke-miterlimit="10"><path d="M162.7 279.356L96.458 80.86 36 74.733l-36 150 162.7 54.622z"/><path d="M309.167 146.978L237.5 56.904 73.835 62.57l-45.96 79.852 2.398 4.392 278.894.164z"/><path d="M305.5 133.902l-76.822-53.055-65.98 198.51 97.802-58.79 45-86.665z"/><path d="M309.167 142.902l-83.815-90.324L94 67.566l2.458 13.293 143.146 146.89 69.563-84.848z"/><path d="M72.166 67.566l153.336 7.168 3.176 6.113L72.863 234.93 7.333 138.4l64.833-70.834z"/></g><text x="50.757" y="61.002"><tspan x="50.757" y="61.002" fill="#ED1C24" font-size="67.832" font-family="'TyponineSans-Bld'">Rub</tspan> <tspan x="171.226" y="61.002" fill="#ED1C24" font-size="67.832" font-family="'TyponineSans-Bld'">y</tspan> <tspan x="206.837" y="61.002" fill="#FF666C" font-size="67.832" font-family="'TyponineSans-Bld'">zg</tspan></text></svg>