<svg xmlns="http://www.w3.org/2000/svg" width="195" height="196" viewBox="0 0 195 196"><g fill="none" fill-rule="evenodd"><path fill="#D8272D" d="M194.452 98.01l-96.97 97.05L.51 98.01l48.482-48.524h96.97l48.488 48.523"/><path fill="#DC4136" d="M72.725 122.865l-23.28 22.997 46.47 46.553-23.19-69.55"/><path fill="#FFF" d="M47.884 146.38l49.194 49.276.517-.32-.694-.43.107-.322-48.163-48.202-.96-.002"/><path fill="#EC9176" d="M48.92 146.38l-.004.002h-.072l48.163 48.202.008-.028L48.92 146.38m24.968-24.664l-.582.573 23.902 71.686.387-1.16-23.707-71.1"/><path fill="#EE9B81" d="M73.306 122.29l-.58.575 23.188 69.55-46.47-46.553-.524.518 48.095 48.176.193-.58-23.902-71.687"/><path fill="#FFF" d="M146.545 49.027l48.37 48.594.054-.13-48.425-48.463m-.58-.275l.52.217v-.004l-.52-.214"/><path fill="#DC4136" d="M121.58 125.238l-22.31 67.186 44.402-44.442-22.09-22.744"/><path fill="#FFF" d="M144.19 148.5L98.176 194.56l.117.346-.697.43.52.322 47.106-47.148-1.03-.007m50.78-50.823v1.037-1.037"/><path fill="#EC9176" d="M120.43 124.054l-22.835 68.76.387 1.162 23.024-69.33-.576-.592"/><path fill="#FFF" d="M97.595 195.136l.52-.517-.52.516m.58-.578l-.58.578.095-.286-.142.143.047.143-.095-.095-.02.02-.473-.476-.106.323.695.428.697-.43-.117-.347"/><path fill="#F5C5AF" d="M97.015 194.556l-.008.028.474.476.02-.02-.485-.484m.58-1.74l-.387 1.16.34 1.017.142-.143.292-.874-.387-1.16"/><path fill="#FFF" d="M97.548 194.993l-.048.048.095.096-.047-.143"/><path fill="#F7CBB5" d="M97.208 193.976l-.193.58.485.485.048-.047-.34-1.017"/><path fill="#FFF" d="M144.09 148.412l-45.963 46 .048.146L144.19 148.5h-.014l-.086-.088"/><path fill="#EE9B81" d="M121.006 124.645l-23.024 69.33.145.438 45.963-46-.418-.43-44.403 44.44 22.31-67.185-.574-.593"/><path fill="#FFF" d="M98.127 194.413l-.437.437-.095.286.58-.578-.048-.145"/><path fill="#F7CBB5" d="M97.982 193.976l-.292.874.437-.437-.145-.437"/><path fill="#DC4136" d="M97.83 98.682l23.122 23.802L128.85 98.7l-31.02-.018"/><path fill="#DF5643" d="M144.306 52.155l-45.614 45.06 30.644.02 14.97-45.08"/><path fill="#EE9B81" d="M97.95 97.948l-.424.418.305.316 31.02.02.243-.735-31.143-.02"/><path fill="#EFA58B" d="M98.692 97.214l-.742.734 31.143.02.243-.734-30.644-.02"/><path fill="#DF5643" d="M130.393 98.7l-8.29 24.968 22.605 23.277L192.87 98.74l-62.477-.04"/><path fill="#E26750" d="M146.285 50.848l-15.403 46.388 61.617.037-46.215-46.425"/><path fill="#EFA58B" d="M130.638 97.967l-.245.734 62.478.04.546-.545-.186-.19-62.592-.038"/><path fill="#F1AD94" d="M130.882 97.236l-.244.73 62.592.04-.73-.733-61.618-.037"/><path fill="#EE9B81" d="M128.85 98.7l-7.898 23.784.575.593L129.62 98.7h-.77"/><path fill="#EFA58B" d="M145.457 51.02l-1.15 1.135-14.97 45.08h.77l15.35-46.214"/><path fill="#F7CAB5" d="M129.093 97.967l-.244.734h.77l.246-.733h-.773"/><path fill="#F8D0BB" d="M129.336 97.234l-.243.733h.773l.242-.733h-.772"/><path fill="#EFA58B" d="M129.62 98.7l-8.093 24.377.575.59 8.29-24.966h-.77"/><path fill="#F1AD94" d="M145.96 50.52l-.503.5-15.35 46.214.775.002 15.403-46.388-.324-.327"/><path fill="#F8D0BB" d="M129.866 97.967l-.245.734h.773l.245-.733h-.772"/><path fill="#F9D4C0" d="M130.108 97.234l-.242.733h.772l.244-.73-.774-.003"/><path fill="#EFA58B" d="M192.87 98.74l-48.162 48.205L192.87 98.74"/><path fill="#FFF" d="M194.915 97.62l.056.057-.055-.056m-48.43-48.654v.003l.06.057-.06-.058"/><path fill="#EC9176" d="M97.005 98.883l-.524.515 23.95 24.656.26-.786-23.685-24.385"/><path fill="#FFF" d="M145.965 48.752l.128.31.393-.093-.002-.004-.52-.214M194.97 98.714l-49.75 49.794 49.75-49.794"/><path fill="#EE9B81" d="M121.843 124.454l-.262.784 22.092 22.744.52-.52-22.35-23.008"/><path fill="#FFF" d="M194.915 97.62l-.465 1.122-.543-.002-49.205 49.25-.51.51 1.03.008 49.747-49.794v-1.037l-.055-.056m-48.43-48.65l.06.057-.06-.058"/><path fill="#FFF" d="M194.452 98.01v-.735.734m-47.966-49.04l-.393.092.383.935 47.976 48.012-.095.092.095.093-.545.545.543.002.465-1.12-48.37-48.595-.06-.06"/><path fill="#FCDFCF" d="M194.264 98.01l.093.092.095-.093h-.188"/><path fill="#FDE2D4" d="M146.476 49.997l.002.002 47.786 48.01h.188l-47.976-48.013"/><path fill="#F5C5AF" d="M120.69 123.268l-.26.786.576.59.26-.783-.576-.592"/><path fill="#F7CBB5" d="M121.265 123.86l-.26.785.576.593.263-.784-.578-.593"/><path fill="#FFF" d="M144.61 147.893l-.52.52.086.088h.015l.512-.51-.093-.097"/><path fill="#F7CBB5" d="M144.19 147.462l-.518.52.418.43.52-.52-.42-.43"/><path fill="#EE9B81" d="M97.206 98.682l-.2.2 23.684 24.386.262-.784-23.12-23.802h-.626"/><path fill="#F7CBB5" d="M97.526 98.366l-.32.316h.625l-.304-.316"/><path fill="#EFA58B" d="M122.102 123.668l-.26.786 22.35 23.008.516-.517-22.606-23.277"/><path fill="#FFF" d="M193.907 98.74l-49.205 49.25 49.205-49.25"/><path fill="#F7CBB5" d="M120.952 122.484l-.262.784.575.593.262-.783-.575-.593"/><path fill="#FFF" d="M193.72 98.74l-49.11 49.153.092.097 49.205-49.25h-.188"/><path fill="#F8D0BB" d="M192.87 98.74l-48.162 48.205-.517.517.42.43 49.11-49.152h-.85"/><path fill="#F9D4C0" d="M145.963 50.52h-.002l.325.328L192.5 97.273h.18L145.963 50.52"/><path fill="#FFF" d="M194.357 98.102l-.638.638h.187l.545-.545-.095-.093"/><path fill="#FDE6D8" d="M193.23 98.006l.186.19-.545.544h.85l.637-.638-.093-.093-1.034-.004"/><path fill="#FEE9DC" d="M146.478 50l.002.008-.517.513 46.717 46.753h-.18l.73.733 1.034.003L146.478 50"/><path fill="#F8D0BB" d="M121.527 123.077l-.262.784.578.594.26-.786-.576-.59"/><path fill="#DC4136" d="M66.2 98.662l7.17 21.504L95.12 98.68l-28.92-.018"/><path fill="#DF5643" d="M2.283 98.623l46.122 46.202 23.803-23.512-7.554-22.653-62.37-.037"/><path fill="#EE9B81" d="M65.43 98.662l7.36 22.077.58-.574-7.17-21.504h-.77"/><path fill="#EFA58B" d="M64.654 98.66l7.554 22.653.58-.574-7.36-22.078-.774-.002m-62.37-.037l46.12 46.202-46.12-46.202"/><path fill="#DF5643" d="M50.746 52.31l14.966 44.885 28.647.017L50.745 52.31"/><path fill="#E26750" d="M48.713 50.852L2.285 97.156l61.88.04L48.713 50.85"/><path fill="#EFA58B" d="M49.57 51.1l15.368 46.095h.774L50.746 52.31 49.57 51.1"/><path fill="#F1AD94" d="M49.026 50.54l-.313.312 15.452 46.343h.773L49.568 51.1l-.542-.56"/><path fill="#EE9B81" d="M65.956 97.928l.245.734 28.92.018.34-.334-.387-.4-29.117-.018"/><path fill="#EFA58B" d="M1.55 97.89l.733.733 62.37.037-.243-.732-62.86-.04"/><path fill="#F7CAB5" d="M65.182 97.928l.247.734h.77l-.244-.734h-.774"/><path fill="#F8D0BB" d="M64.41 97.928l.244.732.775.002-.248-.734h-.772M1.55 97.89l.733.733-.733-.733"/><path fill="#EFA58B" d="M65.712 97.195l.244.733 29.117.018-.714-.734-28.648-.017"/><path fill="#F1AD94" d="M2.285 97.156l-.735.734 62.86.038-.245-.733-61.88-.04m46.428-46.303L22.607 76.886l26.106-26.034"/><path fill="#F8D0BB" d="M64.938 97.195l.244.733h.774l-.244-.733h-.774"/><path fill="#F9D4C0" d="M64.165 97.195l.245.733h.772l-.244-.733h-.773M49.025 50.54l-.312.312.313-.312"/><path fill="#E26750" d="M144.178 50.22l-70.5.006-22.908.003 45.636 46.984h.198l47.574-46.994"/><path fill="#F1AD94" d="M96.406 97.214l.097.1.102-.1h-.2M73.678 50.226l-22.908.003 22.908-.004"/><path fill="#EFA58B" d="M50.21 50.707l.536 1.602L94.36 97.21h1.022L50.21 50.707"/><path fill="#F8D0BB" d="M49.746 50.23h-.408l-.046.042.277.827 1.176 1.21-.537-1.603-.464-.478"/><path fill="#F9D4C0" d="M49.292 50.272l-.266.268.543.56-.278-.828"/><path fill="#F7CAB5" d="M95.073 97.946l.387.4.403-.398-.79-.002"/><path fill="#FDE6D8" d="M49.746 50.23h-.408l-.046.042.046-.043h.408"/><path fill="#FEE9DC" d="M49.292 50.272l-.266.268.266-.268"/><path fill="#F8D0BB" d="M94.36 97.212l.713.734.79.002.12-.12-.6-.616h-1.024"/><path fill="#F1AD94" d="M50.77 50.23h-.72l.16.477L95.38 97.212l1.023.002L50.77 50.23"/><path fill="#F9D4C0" d="M50.05 50.23h-.304l.463.477-.16-.478M50.77 50.23h-.72.72"/><path fill="#FEE9DC" d="M50.05 50.23h-.304.305"/><path fill="#F9D4C0" d="M95.382 97.212l.6.617.52-.516-.096-.1-1.024-.002"/><path fill="#FFF" d="M-.006 98.407l47.89 47.973-47.89-47.973m145.97-49.655l-96.93.01-.518.213L-.006 97.368v1.04-1.04l48.522-48.393.52-.214 96.93-.008"/><path fill="#EC9176" d="M95.97 98.87l-22.34 22.07.258.776L96.48 99.398l-.51-.528"/><path fill="#EE9B81" d="M72.467 122.09l-23.542 23.255.52.517 23.28-22.997-.258-.775"/><path fill="#FFF" d="M-.006 97.368v1.04l47.89 47.972.96.002-47.718-47.76H.51l-.516-1.254"/><path fill="#F5C5AF" d="M73.63 120.94l-.583.574.26.775.58-.574-.258-.775M1.125 98.62l47.718 47.762h.072l.004-.002-.517-.52H48.4L1.246 98.62h-.12"/><path fill="#F7CBB5" d="M48.925 145.345l-.524.515.52.52.524-.518-.52-.517m24.123-23.83l-.58.575.258.775.58-.576-.258-.776"/><path fill="#FFF" d="M49.035 48.76l-.52.215-48.52 48.393 48.52-48.393.39.093.13-.307"/><path fill="#FFF" d="M48.516 48.975L-.006 97.368.51 98.62h.616l-.613-.61.06-.062-.06-.06 34.583-34.49 13.437-13.45.372-.88-.39-.093"/><path fill="#FCDFCF" d="M.572 97.948l-.06.06.614.613h.12L.57 97.95m47.96-48L35.097 63.4l13.418-13.384-.007-.006.026-.06"/><path fill="#EFA58B" d="M144.817 50.62L97.65 97.214h1.042l45.614-45.06.51-1.534"/><path fill="#F7CBB5" d="M97.12 97.948l.406.418.424-.418h-.83"/><path fill="#F8D0BB" d="M97.65 97.214l-.637.626.106.108h.83l.742-.734H97.65M145.662 50.22h-.44l-.405.4-.51 1.535 1.15-1.134.25-.755-.045-.045"/><path fill="#FDE6D8" d="M145.662 50.22h-.44.44"/><path fill="#F9D4C0" d="M145.708 50.265l-.25.756.503-.5-.252-.255"/><path fill="#F5C5AF" d="M96.163 98.68l-.192.19.51.528.525-.515-.197-.2-.645-.003"/><path fill="#FFF" d="M145.965 48.752l-96.93.01-.13.306.824.195.073.223h95.39l.078-.232.823-.192-.128-.31"/><path fill="#FCDFCF" d="M145.193 49.486h-95.39l.004.01 95.386-.01"/><path fill="#FFF" d="M48.905 49.068l-.372.88.46-.462h.81l-.074-.223-.825-.195"/><path fill="#FFF0E7" d="M49.803 49.486h-.81l-.46.463-.026.058.007.006.52-.52h.773l-.004-.008"/><path fill="#FCDFCF" d="M96.492 98.355l-.33.325.646.002-.316-.327"/><path fill="#FFF" d="M146.093 49.062l-.822.192-.077.232h.772l.51.51-.382-.934"/><path fill="#FFF0E7" d="M145.193 49.486h.772"/><path fill="#FFF1E9" d="M145.965 49.486l.513.513-.002-.003-.51-.51"/><path fill="#F7CBB5" d="M96.808 98.682l.197.2.2-.2h-.397"/><path fill="#FDE2D4" d="M96.905 97.948l-.413.407.316.327h.398l.32-.316-.407-.418h-.215"/><path fill="#FDE5D7" d="M97.013 97.84l-.108.108h.214l-.107-.108M145.662 50.22l.046.045-.046-.045"/><path fill="#FFF3EC" d="M145.965 49.486l-.742.734h.44l.045.045.257-.78"/><path fill="#FEE9DC" d="M145.708 50.265l.253.256h.003l-.255-.255"/><path fill="#FFF4ED" d="M145.965 49.486l-.257.78.255.255.517-.512-.002-.01-.513-.512"/><path fill="#EE9B81" d="M95.12 98.68l-21.75 21.486.26.775 22.34-22.07-.185-.19h-.664"/><path fill="#EFA58B" d="M72.208 121.313l-23.803 23.512.52.52 23.542-23.255-.26-.777"/><path fill="#F7CBB5" d="M73.37 120.166l-.58.573.257.774.582-.573-.26-.774M1.246 98.62L48.4 145.86 1.246 98.62"/><path fill="#F8D0BB" d="M72.79 120.74l-.582.573.26.777.58-.576-.26-.775M1.246 98.62l47.158 47.24.522-.515-.52-.52L2.283 98.623l-1.038-.002"/><path fill="#F1AD94" d="M22.607 76.886L2.285 97.156l20.322-20.27"/><path fill="#F7CBB5" d="M95.46 98.346l-.34.334h.665l-.325-.334"/><path fill="#FDE2D4" d="M.572 97.948l.673.673-.673-.672"/><path fill="#FFF" d="M.513 97.887l.06.06.06-.06h-.12"/><path fill="#FDE6D8" d="M.632 97.887l-.06.06.673.674 1.038.003-.733-.733-.918-.003"/><path fill="#F9D4C0" d="M2.285 97.156l-.735.734v-.003l.735-.73M48.713 50.85L15.657 83.82l33.056-32.968"/><path fill="#FFF" d="M35.096 63.397L.513 97.887h.12l34.463-34.49"/><path fill="#FEE9DC" d="M48.514 50.014L35.096 63.397.632 97.887h.918l47.163-47.035.313-.312-.512-.526"/><path fill="#F1AD94" d="M144.95 50.22l-71.272.006 70.5-.006-47.573 46.994h1.044l47.167-46.594.134-.4"/><path fill="#F9D4C0" d="M96.605 97.214l-.102.1.51.526.636-.626h-1.046m48.347-46.994l-94.18.01 22.908-.004 71.273-.006M145.223 50.22h-.272l-.133.4.406-.4"/><path fill="#F7CBB5" d="M95.785 98.68l.186.19.193-.19h-.378"/><path fill="#FDE2D4" d="M95.863 97.948l-.403.398.325.334h.378l.33-.325-.397-.407h-.233"/><path fill="#FFF3EC" d="M49.035 49.495l-.52.52.52-.52.257.777.046-.043h.408l-.71-.735"/><path fill="#FFF4ED" d="M49.035 49.495l-.52.52.51.525.267-.268-.257-.777"/><path fill="#FDE6D8" d="M95.982 97.83l-.12.118h.234l-.114-.12M96.096 97.948l.396.407.413-.407h-.81"/><path fill="#FEE9DC" d="M145.193 49.486l-95.386.01.244.733h.72l94.18-.01.243-.734"/><path fill="#FFF4ED" d="M49.807 49.495h-.772l.71.734h.306l-.243-.735"/><path fill="#FEE9DC" d="M96.503 97.314l-.52.515.113.118h.81l.107-.108-.51-.526"/><path fill="#FFF4ED" d="M145.965 49.486h-.772l-.242.734h.273l.742-.734"/><path fill="#D8272D" d="M18.91 2.576h12.133c8.95 0 12.33 4.58 12.33 10.8 0 4.28-1.69 7.664-5.12 9.556l7.26 11.993h-9.448l-5.57-10.252h-3.58v10.252H18.91V2.575zm15.96 10.85c0-2.885-1.044-4.33-4.773-4.33h-3.18v9.158h3.33c2.783 0 4.624-1.245 4.624-4.828zM63.865 10.99h7.906v23.935H64.81l-.398-3.782c-2.436 3.135-5.42 4.28-8.5 4.28-4.28 0-8.01-1.792-8.01-8.51V10.99h7.91V24.87c0 3.383 1.29 3.98 2.783 3.98 1.74 0 3.88-1.49 5.272-3.134v-14.73M84.85 13.625c1.69-1.842 4.424-3.383 7.16-3.383 6.314 0 9.794 4.53 9.794 12.093 0 8.26-5.468 13.088-13.324 13.088-4.425 0-8.752-1.195-11.538-2.637V.836h7.91v12.79zm0 14.63c1.043.698 2.187.897 3.43.897 3.034 0 5.22-1.94 5.22-5.97 0-4.43-1.49-5.974-4.127-5.974-1.74 0-3.43 1.145-4.522 2.587v8.46zM116.476 45.873h-7.906l2.983-9.008-8.7-25.876h8.6l2.488 8.606 2.04 7.865 1.99-7.414 2.534-9.057h7.956l-11.984 34.883"/><path fill="#E26066" d="M130.9 30.197l7.657-9.406 4.425-5.223h-11.237V9.545h20.586v5.076l-6.813 8.312-5.07 5.97h12.182v6.023H130.9v-4.728M153.328 22.185c0-8.858 6.812-12.99 14.817-12.99 2.834 0 6.018.748 9.3 2.292l-2.737 6.468c-2.436-1.74-4.772-2.736-6.862-2.736-3.68 0-6.463 1.84-6.463 6.866 0 5.325 2.983 7.265 6.762 7.265.547 0 1.094-.05 1.69-.15v-7.413h7.46v11.047c-3.38 1.643-7.36 2.49-10.543 2.49-8.65 0-13.424-4.828-13.424-13.14"/></g></svg>