<svg xmlns="http://www.w3.org/2000/svg" width="500" height="180" viewBox="0 0 500 180"><g fill="none" fill-rule="evenodd"><path fill="#4F95DB" d="M83.942.023h145.034v82.04H83.942V.023z"/><path fill="#EC772A" d="M64.035 44.476h100.403v56.75H64.035v-56.75z"/><path fill="#9C6" d="M187.823 44.52h51.156v68.347h-51.157V44.52z"/><path fill="#FC6" d="M243.71 64.78h36.052v47.973H243.71V64.78z"/><path fill="#C36" d="M233.065 86.08h21.973v35.307h-21.973V86.08z"/><path fill="#936" d="M194.677 99.33h35.282v22.057h-35.283V99.33z"/><path fill="#333" d="M284.774 38.85h.233L293.09.023h11.075l-13.212 56.645h-10.53L270.046 19.28h-.234L259.438 56.67h-10.53L235.655.023h11.114l8.122 38.788.233.04L265.733.023h8.355l10.686 38.827zm26.862 17.818V.023h19.43c6.916 0 12.615 2.212 17.097 6.633 4.482 4.423 6.723 10.096 6.723 17.02v9.377c0 6.95-2.24 12.624-6.723 17.02-4.482 4.397-10.18 6.595-17.098 6.595h-19.43zm11.347-47.89v39.136h7.5c4.066 0 7.253-1.373 9.56-4.12 2.304-2.746 3.457-6.335 3.457-10.765v-9.445c0-4.38-1.153-7.942-3.458-10.688-2.306-2.747-5.493-4.12-9.56-4.12h-7.5zM337.412 121.384h-11.308V97.848h-23.082v23.536h-11.347V64.74h11.347v24.354h23.082V64.74h11.308v56.644zm21.317-22.642v22.642H347.38V64.74h21.334c6.45 0 11.496 1.472 15.136 4.416 3.64 2.944 5.46 7.048 5.46 12.313 0 2.93-.765 5.445-2.293 7.546-1.53 2.1-3.77 3.8-6.724 5.097 3.342.986 5.744 2.632 7.208 4.94 1.464 2.31 2.196 5.162 2.196 8.56v4.162c0 1.583.214 3.236.64 4.96.428 1.726 1.16 3.003 2.197 3.833v.816H380.84c-1.036-.83-1.71-2.217-2.02-4.162-.312-1.945-.467-3.787-.467-5.525v-4.007c0-2.826-.77-5.024-2.312-6.594-1.54-1.57-3.71-2.354-6.508-2.354H358.73zm0-8.753h9.792c3.186 0 5.563-.675 7.13-2.024 1.568-1.348 2.35-3.346 2.35-5.99 0-2.595-.782-4.657-2.35-6.187-1.567-1.53-3.88-2.297-6.936-2.297h-9.987V89.99zM.083 137.708H499.85v1H.082v-1zM41.738 173.41l1.045 3.793h.1l1.043-3.794 5.703-18.654h.993l5.67 18.653 1.027 3.793h.1l1.077-3.794 4.972-18.654h.977l-6.497 24.12h-1.01l-5.985-20.11-.796-2.403h-.1l-.763 2.402-6.034 20.11h-1.01l-6.515-24.12h.994l5.006 18.654zm39.602-6.66h-12.1v11.23h13.79v.896H68.346v-24.12H83.03v.894H69.24v10.205h12.1v.895zm6.832 12.126v-24.12h6.35c2.496 0 4.435.514 5.817 1.54 1.38 1.028 2.07 2.574 2.07 4.64 0 1.435-.37 2.644-1.11 3.627-.74.983-1.785 1.596-3.133 1.84 1.503.198 2.77.855 3.796 1.97 1.028 1.116 1.542 2.402 1.542 3.86 0 2.11-.683 3.744-2.047 4.904-1.365 1.16-3.17 1.74-5.412 1.74h-7.874zm.895-12.806h5.785c2.2 0 3.857-.427 4.973-1.283 1.116-.856 1.674-2.162 1.674-3.918 0-1.724-.59-3.024-1.766-3.903-1.177-.877-2.915-1.317-5.213-1.317h-5.453v10.42zm0 .895v11.016h6.98c2.032 0 3.634-.5 4.806-1.506 1.17-1.005 1.757-2.408 1.757-4.208 0-1.48-.56-2.733-1.683-3.76-1.122-1.028-2.693-1.54-4.716-1.54h-7.143zm28.24 11.91v-24.12h6.68c2.773 0 5.126.995 7.06 2.983 1.934 1.988 2.9 4.522 2.9 7.603v2.95c0 3.093-.966 5.63-2.9 7.612-1.934 1.983-4.287 2.974-7.06 2.974h-6.68zm.894-23.225v22.33h5.786c2.508 0 4.647-.915 6.415-2.75 1.77-1.832 2.653-4.145 2.653-6.94v-2.998c0-2.76-.884-5.058-2.652-6.892-1.767-1.833-3.906-2.75-6.414-2.75H118.2zm34.255 11.1h-12.1v11.23h13.79v.896H139.46v-24.12h14.686v.894h-13.79v10.205h12.1v.895zm21.308 6.344c0-1.512-.555-2.722-1.666-3.627-1.11-.906-3.036-1.734-5.776-2.485-2.75-.74-4.765-1.582-6.04-2.527-1.278-.944-1.916-2.32-1.916-4.133 0-1.8.752-3.236 2.255-4.307 1.5-1.07 3.42-1.607 5.75-1.607 2.354 0 4.277.657 5.77 1.97 1.49 1.316 2.214 3.006 2.17 5.07l-.033.1h-.762c0-1.8-.663-3.29-1.99-4.473-1.326-1.18-3.044-1.772-5.155-1.772-2.188 0-3.92.488-5.196 1.466-1.277.976-1.915 2.15-1.915 3.52s.527 2.506 1.582 3.41c1.055.907 2.965 1.713 5.727 2.42 2.674.707 4.693 1.57 6.058 2.593 1.364 1.02 2.047 2.47 2.047 4.348 0 1.912-.78 3.417-2.337 4.515-1.558 1.1-3.51 1.65-5.852 1.65-2.42 0-4.503-.567-6.25-1.7-1.745-1.13-2.59-2.912-2.535-5.342l.034-.1h.746c0 2.187.807 3.775 2.42 4.764 1.614.988 3.476 1.482 5.586 1.482 2.122 0 3.865-.487 5.23-1.458 1.365-.972 2.047-2.23 2.047-3.778zm5.992-18.338h.895v24.12h-.895v-24.12zm25.673 21.536c-.508.706-1.484 1.372-2.926 1.996-1.442.624-3.213.936-5.312.936-2.763 0-5.004-.983-6.722-2.95-1.718-1.965-2.577-4.52-2.577-7.67v-3.942c0-3.025.835-5.49 2.504-7.396 1.668-1.905 3.84-2.858 6.514-2.858 2.553 0 4.577.66 6.075 1.98 1.497 1.32 2.263 3.023 2.296 5.11l-.034.1h-.746c-.09-1.867-.777-3.382-2.064-4.548-1.287-1.165-3.13-1.747-5.528-1.747-2.442 0-4.407.87-5.893 2.61-1.486 1.738-2.23 3.977-2.23 6.716v3.975c0 2.872.77 5.21 2.305 7.016 1.536 1.807 3.57 2.71 6.1 2.71 1.78 0 3.334-.26 4.666-.78 1.33-.518 2.224-1.076 2.677-1.672v-7.024h-7.376v-.912h8.27v8.35zm23.693 2.584h-.894l-15.482-22.463-.1.033v22.43h-.91v-24.12h.91l15.482 22.413.1-.033v-22.38h.895v24.12zm20.09-12.126h-12.102v11.23h13.79v.896h-14.685v-24.12H250.9v.894h-13.792v10.205h12.1v.895zm7.63.81v11.332h-.894v-24.12h7.692c2.54 0 4.497.55 5.868 1.65 1.37 1.098 2.055 2.702 2.055 4.81 0 1.36-.433 2.594-1.3 3.704-.868 1.11-2.053 1.83-3.556 2.162 1.735.298 2.978.933 3.73 1.905.75.972 1.127 2.214 1.127 3.727V175c0 .75.092 1.424.274 2.02.183.597.484 1.083.904 1.458v.414h-.88c-.397-.452-.695-1.013-.894-1.68-.2-.67-.298-1.417-.298-2.246v-2.203c0-1.634-.56-2.91-1.683-3.827-1.12-.916-2.72-1.375-4.798-1.375h-7.344zm0-.893h6.632c2.464 0 4.28-.52 5.445-1.557 1.166-1.038 1.75-2.33 1.75-3.877 0-1.8-.59-3.178-1.767-4.133-1.176-.955-2.93-1.433-5.262-1.433h-6.797v11zm35.82 6.427c0-1.513-.556-2.722-1.667-3.627-1.11-.906-3.036-1.734-5.776-2.485-2.752-.74-4.766-1.583-6.042-2.527-1.277-.944-1.915-2.32-1.915-4.133 0-1.8.752-3.236 2.255-4.307 1.502-1.07 3.42-1.607 5.752-1.607 2.353 0 4.276.657 5.768 1.97 1.492 1.316 2.216 3.005 2.17 5.07l-.032.1h-.762c0-1.8-.662-3.29-1.988-4.473-1.326-1.18-3.045-1.772-5.155-1.772-2.19 0-3.92.488-5.197 1.466-1.276.976-1.915 2.15-1.915 3.52s.528 2.506 1.583 3.41c1.056.907 2.965 1.713 5.727 2.42 2.675.707 4.694 1.57 6.06 2.593 1.364 1.02 2.046 2.47 2.046 4.348 0 1.912-.778 3.417-2.336 4.515-1.558 1.1-3.51 1.65-5.852 1.65-2.42 0-4.503-.567-6.25-1.7-1.745-1.13-2.59-2.912-2.535-5.342l.033-.1h.746c0 2.187.807 3.775 2.42 4.764 1.614.988 3.476 1.482 5.586 1.482 2.122 0 3.865-.487 5.23-1.46 1.365-.97 2.047-2.23 2.047-3.776zm30.694 5.782h-.895v-11.513h-15.417v11.513h-.895v-24.12h.895v11.712h15.416v-11.712h.894v24.12zm6.918-11.315v11.332h-.895v-24.12h7.69c2.543 0 4.5.55 5.87 1.65 1.37 1.098 2.054 2.702 2.054 4.81 0 1.36-.432 2.594-1.3 3.704-.867 1.11-2.053 1.83-3.555 2.16 1.735.3 2.978.935 3.73 1.907.75.972 1.126 2.214 1.126 3.727V175c0 .75.093 1.424.275 2.02.182.597.483 1.083.903 1.458v.414h-.878c-.398-.452-.696-1.013-.895-1.68-.2-.67-.3-1.417-.3-2.246v-2.203c0-1.634-.56-2.91-1.68-3.827-1.123-.916-2.722-1.375-4.8-1.375h-7.343zm0-.893h6.63c2.464 0 4.28-.52 5.446-1.557 1.165-1.038 1.748-2.33 1.748-3.877 0-1.8-.588-3.178-1.765-4.133-1.176-.955-2.93-1.433-5.262-1.433h-6.796v11zm27.69 9.856l.43 1.31h.1l.432-1.31 8.105-21.767h.977l-9.017 24.12h-1.094l-9.017-24.12h.976l8.106 21.767zm25.013-4.853h-11.803l-2.685 7.206h-.978l9.016-24.12h1.094l9.034 24.12h-.978l-2.7-7.206zm-11.47-.895h11.138l-5.056-13.584-.464-1.357h-.1l-.447 1.358-5.072 13.585zm33.476-15.125h-8.784v23.226h-.895V155.65h-8.785v-.894h18.466v.894zm18.242 17.444c0-1.513-.555-2.722-1.665-3.628-1.11-.905-3.037-1.733-5.777-2.484-2.752-.74-4.766-1.583-6.042-2.527-1.277-.944-1.915-2.322-1.915-4.133 0-1.8.752-3.236 2.255-4.307 1.502-1.07 3.42-1.607 5.752-1.607 2.353 0 4.276.657 5.768 1.97 1.492 1.316 2.215 3.005 2.17 5.07l-.032.1h-.762c0-1.8-.663-3.29-1.99-4.473-1.325-1.18-3.044-1.772-5.154-1.772-2.19 0-3.92.488-5.197 1.466-1.276.976-1.915 2.15-1.915 3.52 0 1.368.528 2.506 1.583 3.41 1.057.907 2.966 1.713 5.73 2.42 2.673.707 4.692 1.57 6.057 2.593 1.365 1.02 2.047 2.47 2.047 4.348 0 1.912-.78 3.417-2.337 4.515-1.558 1.1-3.51 1.65-5.852 1.65-2.42 0-4.503-.567-6.25-1.7-1.745-1.13-2.59-2.912-2.535-5.342l.033-.1h.746c0 2.187.806 3.775 2.42 4.764 1.613.988 3.475 1.482 5.585 1.482 2.122 0 3.865-.487 5.23-1.46 1.365-.97 2.047-2.23 2.047-3.776zm9.92-5.997h-3.696v11.78h-.895v-24.12h.896v11.463h3.945l10.245-11.464h1.06l.034.083-10.593 11.943 11.355 11.993-.05.1h-1.044l-11.255-11.78zm29.108 4.573h-11.803l-2.685 7.206h-.978l9.018-24.12h1.094l9.034 24.12h-.978l-2.702-7.206zm-11.47-.895h11.138l-5.055-13.584-.465-1.357h-.1l-.447 1.358-5.07 13.585z"/></g></svg>