<svg xmlns="http://www.w3.org/2000/svg" viewBox="0 0 897.963 279.337"><defs><clipPath id="a"><path d="M1291.41 674.77c-65.8-30.3-135.55-45.77-207.6-45.77-193.165 0-370.466 113.55-451.15 288.94-114.847 248.72-5.555 544.22 243.203 658.75 65.813 30.16 135.527 45.69 207.307 45.69 193.42 0 370.47-113.58 451.42-288.94 114.49-248.68 5.29-544.26-243.18-658.67zm634.6 335.69l-97.84 36.06c7.75 71.31 5.31 144.09-8.27 216.33l94.37 43.42c59.27 27.15 84.88 97.25 57.71 156.09l-54.91 119.8c-27.47 59.2-97.17 85.16-156.13 57.6l-94.69-43.53c-46.26 57.49-99.66 106.55-158.91 146.93l36.14 97.83c22.52 60.8-8.98 128.63-69.75 151.1l-123.72 45.64c-58.93 22-129.23-10.4-151.18-69.37l-36.08-97.74c-71.28 7.71-144.13 4.94-216.266-8.35l-43.488 94.4c-27.19 58.95-97.195 84.79-156.12 57.67l-119.67-55.23c-58.944-27.16-84.878-97.19-57.69-156.05l43.457-94.52c-57.094-46.24-106.457-99.9-146.895-159.13l-97.754 36.12c-58.59 21.9-129.242-10.48-151.16-69.71l-45.672-123.7c-10.804-29.43-9.566-61.5 3.39-90.08 13.266-28.39 36.7-50.45 66.333-61.19l97.808-36.07c-7.7-71.25-5.285-143.7 7.993-216.33l-94.414-43.47c-58.903-27.05-84.813-97.11-57.645-156.04l55.164-119.838c27.2-58.782 97.216-84.68 156.15-57.55l94.406 43.518c46.297-57.422 99.945-106.45 159.164-146.88l-36.047-97.5c-10.82-29.6-9.578-61.64 3.414-90.42 13.242-28.38 36.664-50.22 66.324-61.008l123.325-45.703c29.684-10.76 61.743-9.58 90.125 3.44 28.727 13.18 50.625 36.62 61.426 66.02l35.744 98.07c71.57-8.09 144.09-5.3 216.63 7.95l43.49-94.34c26.81-58.93 97.16-84.802 155.76-57.65l120.04 55.2c58.94 27.14 84.84 97.07 57.73 156.03l-43.53 94.78c57.1 45.96 106.14 99.6 146.51 158.78l97.84-36.078c29.55-11.032 61.68-9.453 90.06 3.34 28.71 13.378 50.32 36.886 61.42 66.488l45.36 123.63c22.52 60.83-8.66 128.66-69.45 151.24z"/></clipPath><linearGradient id="b" x2="1" gradientTransform="scale(2062.24) rotate(127 .37 .28)" gradientUnits="userSpaceOnUse"><stop offset="0" stop-color="#2f9871"/><stop offset="1" stop-color="#387a68"/></linearGradient></defs><path fill="#3b3a3c" d="M294.615 76.41h94.565v13.775h-40.953v122.49h-13.776V90.185h-39.835V76.41"/><path fill="#3b3a3c" d="M424.17 157.2c8.192 0 11.73-2.978 11.73-9.12 0-19.546-3.724-21.223-23.83-21.223-21.032 0-29.596.19-29.596 30.344h41.697zm-12.284-44.116c23.27 0 37.788 2.233 37.788 34.996 0 14.333-7.63 22.713-25.503 22.713h-41.696c0 23.267 4.28 29.038 18.802 29.038 17.125 0 32.575.186 46.536-1.86v10.42c-15.077 4.285-31.086 5.215-46.536 5.215-25.13 0-32.577-12.096-32.577-50.817 0-44.122 12.656-49.704 43.186-49.704M459.906 137.47c0-15.264 6.516-24.574 25.69-24.574 9.682 0 38.905 2.048 48.585 2.98v10.61h-48.585c-11.913 0-11.913 4.656-11.913 10.984v8.564c0 10.236 5.028 10.607 11.913 10.607h29.414c16.192 0 24.197 10.054 24.197 24.02v9.12c0 20.287-12.285 23.825-24.198 23.825-9.125 0-43.935-2.792-51.008-3.538V199.83h51.007s10.424 1.116 10.424-10.05v-9.12c0-6.52-2.234-10.242-10.425-10.242h-29.415c-17.498 0-25.69-5.21-25.69-24.384v-8.564M541.996 116.99l18.43-3.35 3.35-27.55H574.2v27.55h28.852v13.777H574.2v49.887c0 16.195 4.282 19.92 10.614 21.408 0 0 15.26 3.912 16.565 3.912v9.866H585c-14.335 0-24.574-8.936-24.574-35.186v-49.887h-18.43V116.99M615.148 113.826h13.777v98.85h-13.777v-98.85zm-1.86-26.06c0-2.792 1.488-4.655 4.467-4.655h9.31c2.792 0 4.276 2.05 4.276 4.656V97.82c0 2.792-1.67 4.277-4.276 4.277h-9.31c-2.607 0-4.467-1.67-4.467-4.277V87.766M654.796 113.826l30.9 78.556 31.275-78.556h15.08l-39.65 98.85h-13.776l-38.907-98.85h15.08M759.6 200.016c14.89 0 41.32-9.494 41.32-9.494v-26.616l-41.32 2.975c-8.01.744-10.988 6.145-10.988 12.1v9.31c0 8.934 4.653 11.726 10.987 11.726zm-24.763-22.15c0-14.894 9.307-24.76 24.762-24.76 0 0 41.32.185 41.32 0 0 0 .188-12.287 0-12.474 0-11.353-5.955-15.262-15.262-15.262-13.403 0-29.6.93-47.657 2.234V117.55c13.218-3.724 29.786-5.398 48.215-5.584 15.45-.186 28.48 8.193 28.48 28.666v72.043H804.46l-3.54-11.914c-.37 0-24.384 13.03-41.32 13.03-13.592 0-24.762-8.75-24.762-24.57v-11.354M830.514 66.917h13.775V177.49c0 16.2 4.28 19.92 10.61 21.408 0 0 15.265 3.912 16.566 3.912v9.865h-16.382c-14.33 0-24.57-8.935-24.57-35.184V66.918"/><path fill="#4a3d53" d="M162.81 199.09c-8.225 3.79-16.943 5.723-25.948 5.723-24.147 0-46.31-14.192-56.393-36.117-14.36-31.09-.697-68.027 30.4-82.344 8.225-3.77 16.94-5.71 25.91-5.71 24.18 0 46.31 14.197 56.43 36.117 14.31 31.084.66 68.03-30.4 82.33zm79.325-41.958l-12.227-4.508c.967-8.913.663-18.012-1.035-27.042l11.797-5.427c7.408-3.394 10.608-12.156 7.214-19.51l-6.866-14.975c-3.433-7.4-12.145-10.645-19.514-7.2l-11.84 5.44c-5.78-7.186-12.455-13.318-19.86-18.368l4.517-12.228c2.815-7.6-1.122-16.08-8.72-18.888l-15.464-5.704c-7.366-2.748-16.152 1.3-18.897 8.672l-4.51 12.217c-8.91-.963-18.017-.618-27.034 1.045l-5.436-11.8c-3.398-7.37-12.15-10.6-19.516-7.21l-14.958 6.906c-7.367 3.396-10.61 12.147-7.21 19.505l5.43 11.816c-7.135 5.78-13.307 12.49-18.36 19.89l-12.22-4.513C40.103 82.51 31.27 86.56 28.53 93.96l-5.707 15.464c-1.35 3.678-1.197 7.686.424 11.26 1.657 3.548 4.586 6.305 8.29 7.648l12.227 4.51c-.964 8.904-.66 17.962.998 27.04l-11.8 5.434c-7.364 3.383-10.603 12.138-7.207 19.505l6.896 14.98c3.4 7.347 12.152 10.586 19.518 7.195l11.802-5.44c5.788 7.176 12.492 13.306 19.896 18.36l-4.507 12.188c-1.353 3.7-1.198 7.705.426 11.302 1.655 3.545 4.583 6.28 8.29 7.626l15.416 5.71c3.712 1.35 7.72 1.2 11.266-.425 3.59-1.65 6.328-4.578 7.678-8.255l4.468-12.258c8.946 1.012 18.01.663 27.08-.994l5.435 11.793c3.35 7.37 12.143 10.603 19.47 7.21l15.003-6.903c7.368-3.392 10.606-12.132 7.217-19.503l-5.44-11.85c7.138-5.743 13.266-12.448 18.313-19.845l12.23 4.506c3.694 1.38 7.71 1.185 11.257-.416 3.59-1.673 6.29-4.61 7.677-8.31l5.67-15.454c2.817-7.602-1.082-16.082-8.682-18.904"/><g clip-path="url(#a)" transform="matrix(.13 0 0 -.13 0 279.34)"><path fill="url(#b)" d="M1291.41 674.77c-65.8-30.3-135.55-45.77-207.6-45.77-193.165 0-370.466 113.55-451.15 288.94-114.847 248.72-5.555 544.22 243.203 658.75 65.813 30.16 135.527 45.69 207.307 45.69 193.42 0 370.47-113.58 451.42-288.94 114.49-248.68 5.29-544.26-243.18-658.67zm634.6 335.69l-97.84 36.06c7.75 71.31 5.31 144.09-8.27 216.33l94.37 43.42c59.27 27.15 84.88 97.25 57.71 156.09l-54.91 119.8c-27.47 59.2-97.17 85.16-156.13 57.6l-94.69-43.53c-46.26 57.49-99.66 106.55-158.91 146.93l36.14 97.83c22.52 60.8-8.98 128.63-69.75 151.1l-123.72 45.64c-58.93 22-129.23-10.4-151.18-69.37l-36.08-97.74c-71.28 7.71-144.13 4.94-216.266-8.35l-43.488 94.4c-27.19 58.95-97.195 84.79-156.12 57.67l-119.67-55.23c-58.944-27.16-84.878-97.19-57.69-156.05l43.457-94.52c-57.094-46.24-106.457-99.9-146.895-159.13l-97.754 36.12c-58.59 21.9-129.242-10.48-151.16-69.71l-45.672-123.7c-10.804-29.43-9.566-61.5 3.39-90.08 13.266-28.39 36.7-50.45 66.333-61.19l97.808-36.07c-7.7-71.25-5.285-143.7 7.993-216.33l-94.414-43.47c-58.903-27.05-84.813-97.11-57.645-156.04l55.164-119.838c27.2-58.782 97.216-84.68 156.15-57.55l94.406 43.518c46.297-57.422 99.945-106.45 159.164-146.88l-36.047-97.5c-10.82-29.6-9.578-61.64 3.414-90.42 13.242-28.38 36.664-50.22 66.324-61.008l123.325-45.703c29.684-10.76 61.743-9.58 90.125 3.44 28.727 13.18 50.625 36.62 61.426 66.02l35.744 98.07c71.57-8.09 144.09-5.3 216.63 7.95l43.49-94.34c26.81-58.93 97.16-84.802 155.76-57.65l120.04 55.2c58.94 27.14 84.84 97.07 57.73 156.03l-43.53 94.78c57.1 45.96 106.14 99.6 146.51 158.78l97.84-36.078c29.55-11.032 61.68-9.453 90.06 3.34 28.71 13.378 50.32 36.886 61.42 66.488l45.36 123.63c22.52 60.83-8.66 128.66-69.45 151.24"/></g><path fill="#ec1e27" d="M156.542 146.483c-2.608 0-4.718-2.11-4.718-4.716 0-2.606 2.11-4.716 4.718-4.716 2.61 0 4.717 2.11 4.717 4.717.002 2.606-2.11 4.716-4.718 4.716zm-6.414 12.593c-2.07 0-3.748-1.68-3.748-3.744 0-2.073 1.678-3.752 3.748-3.752 2.066 0 3.74 1.68 3.74 3.752 0 2.065-1.674 3.744-3.74 3.744zm3.74-30.87c0 2.067-1.674 3.745-3.74 3.745-2.07 0-3.748-1.677-3.748-3.743 0-2.072 1.678-3.746 3.748-3.746 2.066 0 3.74 1.675 3.74 3.747zm-22.714 3.745c-2.06 0-3.74-1.677-3.74-3.743 0-2.072 1.68-3.746 3.74-3.746 2.073 0 3.748 1.675 3.748 3.747 0 2.066-1.675 3.744-3.748 3.744zm0 27.126c-2.06 0-3.74-1.68-3.74-3.744 0-2.073 1.68-3.752 3.74-3.752 2.073 0 3.748 1.68 3.748 3.752 0 2.065-1.675 3.744-3.748 3.744zm-6.415-22.025c2.604 0 4.718 2.11 4.718 4.717 0 2.606-2.114 4.716-4.72 4.716-2.605 0-4.717-2.11-4.717-4.716 0-2.606 2.113-4.716 4.72-4.716zm44.59 1.285h-4.546c-.525-4.136-1.984-7.96-4.152-11.234l3.982-3.12c1.488-1.155 1.746-3.3.585-4.778-1.16-1.487-3.302-1.745-4.786-.586l-4.28 3.356c-1.842-1.6-3.9-2.927-6.14-3.906v-4.19c0-2.2-.786-4.19-2.053-5.79l3.96-4.752c.808-.968.676-2.403-.287-3.203-.962-.8-2.4-.67-3.198.297l-4.066 4.866c-1.133-.485-2.38-.763-3.7-.763-1.32 0-2.57.278-3.712.778l-4.07-4.88c-.8-.97-2.235-1.1-3.197-.297-.965.8-1.097 2.236-.29 3.204l3.975 4.767c-1.266 1.594-2.05 3.583-2.05 5.777v4.182c-2.245.985-4.32 2.31-6.167 3.924l-4.27-3.347c-1.482-1.157-3.626-.9-4.786.58-1.16 1.488-.9 3.628.585 4.79l3.974 3.11c-2.164 3.273-3.623 7.1-4.145 11.243h-4.543c-1.88 0-3.41 1.526-3.41 3.407 0 1.884 1.53 3.41 3.41 3.41h4.543c.522 4.137 1.973 7.96 4.138 11.23l-3.834 3c-1.314 1.03-1.844 2.87-1.065 4.35.638 1.208 1.824 1.846 3.03 1.846.735 0 1.478-.236 2.103-.724l4.256-3.333c3.672 3.19 8.233 5.303 13.24 5.794h4.553c5.006-.49 9.56-2.59 13.23-5.782l4.27 3.343c.622.486 1.36.727 2.1.727 1.204 0 2.395-.645 3.03-1.852.78-1.474.255-3.316-1.06-4.344l-3.843-3.01c2.168-3.278 3.625-7.11 4.144-11.263h4.54c1.89 0 3.41-1.528 3.41-3.406 0-1.887-1.52-3.415-3.41-3.415"/></svg>