<svg xmlns="http://www.w3.org/2000/svg" width="322" height="287"><path fill="#6F80B6" d="M121.22 1.128c1.85-.57 3.79-1.55 5.78-.93 11.44 3.032 22.93 5.88 34.34 9.008-.83 2.66-1.61 5.332-2.32 8.024 32.43 26.668 64.71 53.52 97.06 80.29-11.92 11.827-23.91 23.57-35.83 35.39-3.863 3.86-7.73 7.718-11.6 11.558-4.2.078-8.39.078-12.58.06.208-7.59.278-15.19-.023-22.78-5.91-.018-9.59 4.85-12.95 8.99-1.46-5.59-6.327-10.3-12.288-10.4-6.93-.81-13.43 4.43-15 11.06-2.91-4.758-7.11-10.23-13.36-9.65-.23 7.44-.13 14.88 0 22.31-5.313-.03-10.63-.06-15.94-.16-.09-.328-.27-1-.36-1.328 2.397-9.512 1.82-19.46 2.5-29.18-1.86-1.832-3.72-3.652-5.59-5.46.09-2.712.19-5.41.41-8.11 2.1 1.468 2.64 3.937 3.237 6.257 1.73-.08 3.454-.15 5.172-.39 1.14-4.458.85-9.11 1.38-13.65 4.52 1 9.03 2.05 13.49 3.27l1.637-2.352c.422 4.282.82 8.563 1.184 12.84 2.387-.047 4.778-.098 7.17-.148 1.62-13.32 2.77-26.7 3.59-40.078-2.9-2.884-4.42-6.634-4.15-10.73.47.006 1.41.006 1.88.006.17 1.71.34 3.42.52 5.132 1.99-.12 3.98-.242 5.98-.364.34-1.59.69-3.18 1.05-4.77.32.02.96.052 1.277.07.203 1.654.402 3.302.613 4.95 2.18-.007 4.36-.02 6.548-.02.172-1.648.364-3.288.543-4.937.4-.06 1.18-.202 1.573-.268.18 1.725.36 3.456.546 5.2 1.94-.033 3.882-.064 5.83-.084.56-1.97 1.123-3.938 1.7-5.91 1.46 5.84-3.2 10.792-2.327 16.57.777 11.71 2.168 23.36 2.968 35.062 2.04.097 4.08.187 6.14.277.52-7.462 1.11-14.91 1.43-22.38.26-4.73-1.82-9.12-2.58-13.72.543.048 1.62.138 2.16.18.35 1.7.703 3.392 1.06 5.1 1.42-.19 2.87-.31 4.28-.642 1.17-1.488 1.99-3.22 2.91-4.867.56 1.392 1.133 2.778 1.71 4.18 1.6.13 3.2.258 4.81.39.84-1.66 1.683-3.32 2.562-4.97.81 5.33-2.36 10.14-2.062 15.42.21 7.192.84 14.372 1.352 21.55l5.09.06c.19-1.47.39-2.942.6-4.4.61-.042 1.85-.13 2.47-.17-.148 2.27-.11 4.57-.64 6.79-1.13 2.19-3.2 3.69-4.9 5.41.028 8.82-.09 17.678.868 26.46.96-1.72 1.57-3.63 1.46-5.61-.007-6.04-.89-12.07-.46-18.1.3-3.618 4.62-5.33 5.05-8.92.32-2.722.134-5.472.063-8.198-1.838.007-3.66.027-5.48.04-.222 1.596-.42 3.198-.62 4.8-.48.058-1.43.167-1.9.23-.15-6.32-.21-12.64-.702-18.953-.686-6.01 3.333-11.31 2.71-17.368-2.05.02-4.09.027-6.12.046-.45 1.524-.886 3.043-1.315 4.563-.922-1.67-1.852-3.33-2.762-4.99-1.738.1-3.48.19-5.22.292-.268 1.547-.542 3.097-.8 4.648-1.53-3.16-3.94-5.69-7.652-5.97-1.11 6.7 2.66 12.95 1.71 19.62-.517 5.6-.73 11.23-.826 16.85-.698.46-1.4.93-2.09 1.39-1.62-11.26-1.792-22.66-2.82-33.98-.6-3.63 1.16-6.91 2.34-10.2 1.18-2.722.122-5.632-.36-8.358-1.62.02-3.22.047-4.82.066-.59 1.832-1.16 3.66-1.71 5.5-.488-1.578-.922-3.168-1.59-4.68-1.63-1.09-3.84-.707-5.69-1.097-.18 1.77-.34 3.54-.51 5.32h-2.37c-.2-1.67-.39-3.34-.578-5.01-2.153-.008-4.3-.032-6.442-.04-.16 1.72-.308 3.442-.45 5.16-.35-.05-1.05-.128-1.4-.17-.208-1.62-.41-3.24-.61-4.86-1.55-.122-3.09-.25-4.63-.372 1.61-7.027 2.88-14.13 4.29-21.2.808-3.898.73-7.91.32-11.84-2.05 2.282-3.418 5.052-4.102 8.032-4.277 15.37-8.968 30.63-13.418 45.96l-.36 1.16c-.75 2.35-1.49 4.7-2.25 7.04-7.75-6.19-15.382-12.55-22.75-19.19-6.9-6.23-14.03-12.212-21.24-18.07-8.982-7.61-17.69-15.572-26.93-22.88-.368-.31-1.118-.942-1.49-1.25 17.7-6.59 35.802-12.102 53.61-18.43"/><path fill="#FFF" d="M110.02 17.678c4.08-2.52 9.98.95 9.75 5.75.4 4.98-5.8 8.58-9.95 5.82-4.37-2.34-4.3-9.39.2-11.57"/><path fill="#5B6891" d="M67.61 19.558c.37.308 1.12.94 1.49 1.25.787 3.71 2.01 7.332 3.94 10.61 3.93 6.61 6.93 13.812 11.917 19.75-9.398 6.32-18.91 12.472-28.238 18.91 1.1-6.48 2.71-12.848 4.14-19.25 2.08-10.462 5.3-20.7 6.75-31.27"/><path fill="#303030" d="M109.957 20.358c2.782-1.58 6.653 1.008 6.012 4.2-.28 3.39-5.52 4.84-7.22 1.73-1.6-1.87-.62-4.63 1.207-5.93"/><path fill="#5B6891" d="M156.047 26.788c.684-2.98 2.05-5.75 4.102-8.03.41 3.93.487 7.94-.32 11.84-1.41 7.07-2.68 14.17-4.29 21.198 1.54.12 3.08.25 4.63.37.2 1.622.4 3.243.61 4.86.35.044 1.05.122 1.4.172.14-1.718.29-3.44.45-5.16 2.14.008 4.29.032 6.44.04.188 1.67.38 3.34.58 5.01h2.37c.17-1.78.33-3.55.51-5.32 1.85.39 4.06.01 5.69 1.098.667 1.512 1.1 3.102 1.59 4.68.55-1.84 1.12-3.668 1.71-5.5 1.6-.02 3.2-.047 4.82-.066.48 2.726 1.54 5.636.36 8.36-1.18 3.288-2.94 6.57-2.34 10.198 1.027 11.32 1.2 22.72 2.82 33.98.69-.46 1.39-.93 2.09-1.39.1-5.62.31-11.25.83-16.85.947-6.67-2.82-12.92-1.713-19.62 3.71.28 6.12 2.81 7.652 5.97.257-1.55.53-3.1.8-4.648 1.74-.102 3.48-.192 5.22-.293.91 1.66 1.84 3.32 2.76 4.99.43-1.52.868-3.038 1.317-4.562 2.03-.02 4.07-.027 6.12-.046.622 6.057-3.397 11.36-2.71 17.366.492 6.31.55 12.632.703 18.952.47-.063 1.42-.172 1.9-.23.2-1.602.398-3.204.62-4.8 1.82-.013 3.642-.033 5.48-.04.072 2.726.26 5.476-.06 8.2-.43 3.59-4.75 5.3-5.052 8.917-.43 6.03.453 12.06.46 18.1.11 1.98-.5 3.89-1.46 5.61-.957-8.782-.84-17.64-.867-26.46 1.7-1.72 3.77-3.22 4.9-5.41.53-2.22.493-4.52.64-6.79-.62.04-1.86.128-2.47.17-.21 1.458-.41 2.93-.6 4.4l-5.09-.06c-.51-7.178-1.14-14.358-1.35-21.55-.298-5.28 2.87-10.09 2.062-15.42-.878 1.65-1.722 3.31-2.562 4.97-1.61-.132-3.207-.26-4.808-.39-.578-1.402-1.15-2.788-1.71-4.18-.92 1.65-1.74 3.38-2.91 4.868-1.412.332-2.86.453-4.28.64-.358-1.706-.71-3.398-1.06-5.097-.54-.042-1.618-.132-2.16-.18.76 4.6 2.838 8.99 2.58 13.72-.32 7.47-.91 14.918-1.43 22.38-2.062-.09-4.1-.18-6.14-.278-.8-11.703-2.19-23.352-2.968-35.063-.872-5.778 3.79-10.73 2.328-16.57-.578 1.972-1.14 3.94-1.7 5.91-1.95.02-3.89.05-5.832.08-.187-1.74-.367-3.472-.546-5.198-.39.066-1.172.207-1.57.27-.18 1.648-.372 3.288-.544 4.937-2.187 0-4.367.01-6.547.018-.21-1.648-.41-3.296-.612-4.95-.315-.018-.956-.05-1.276-.07-.36 1.59-.71 3.18-1.05 4.77l-5.98.364c-.18-1.71-.348-3.422-.52-5.133-.47 0-1.41 0-1.88-.01-.268 4.1 1.25 7.85 4.15 10.732-.82 13.378-1.97 26.757-3.59 40.078-2.39.05-4.782.1-7.168.148-.364-4.276-.762-8.557-1.184-12.84l-1.637 2.353c-4.46-1.22-8.97-2.27-13.49-3.27.05-.242.14-.73.18-.968 1.06-.66 2.15-1.274 3.25-1.883.62-2.368 1.62-4.63 3.19-6.53-.082 2.88-.29 5.75-.51 8.62 1.25-.17 2.542-.22 3.73-.68-.052-3.118-.688-6.19-1.212-9.26-5.508.66-10.957 1.708-16.328 3.08-5.41 1.402-11.09 1.67-16.36 3.62 7.258 1.71 15.34-.87 22.13 2.77.18 1.66.11 3.35.058 5.02-.47-1.212-.95-2.42-1.437-3.622-8.16-.29-16.26-1.476-24.44-1.258-.45-1.652-.9-3.3-1.26-4.968 3.99-8.23 8.77-16.102 13.02-24.223 7.368 6.64 15 13 22.75 19.19.76-2.34 1.5-4.69 2.25-7.04 1.66.26 3.34.53 5.02.8 1.08-1.977 2.16-3.958 3.3-5.91-.16 3.3-.94 6.51-1.768 9.69-1 3.88.117 7.84.758 11.67.45-4.23-.418-8.85 1.71-12.73.05 8.6-.21 17.2.06 25.803l3.85-.153c.33-11.25 1.532-22.438 2.24-33.66.51-2.98-1.6-5.23-3.38-7.29-.88 4.62-.012 9.62-2.09 13.95 0-2.848-.02-5.712-.04-8.56-1.542.098-3.07.212-4.59.31-.428 1.3-.85 2.59-1.268 3.89-1.153.328-2.3.672-3.442 1.03 4.45-15.33 9.14-30.59 13.418-45.96"/><path fill="#4F5569" d="M73.04 31.418c-1.93-3.278-3.153-6.9-3.94-10.61 9.24 7.308 17.947 15.27 26.93 22.88-3.59 2.64-7.36 5.03-11.073 7.48-4.988-5.938-7.988-13.14-11.918-19.75"/><path fill="#6F80B6" d="M19.61 61.538c13.73-3.66 27.56-6.89 41.25-10.71-1.43 6.402-3.04 12.77-4.14 19.25-12.3-3.16-24.77-5.57-37.11-8.54m132.36 14.54c2.077-4.33 1.21-9.33 2.09-13.95 1.78 2.06 3.89 4.31 3.38 7.29-.71 11.222-1.91 22.41-2.24 33.66-1.29.05-2.58.1-3.85.152-.27-8.602-.01-17.203-.06-25.8.167-.34.507-1.013.68-1.353"/><path fill="#4F5569" d="M147.34 67.828c1.52-.098 3.047-.212 4.59-.31.02 2.848.04 5.712.04 8.56-.173.34-.513 1.01-.68 1.35-2.13 3.88-1.26 8.5-1.71 12.73-.64-3.83-1.76-7.792-.76-11.67.83-3.18 1.61-6.39 1.77-9.692-1.14 1.953-2.222 3.934-3.3 5.91-1.68-.27-3.36-.54-5.02-.797l.36-1.16c1.14-.36 2.29-.703 3.44-1.03.42-1.3.84-2.59 1.27-3.89m22.18 1.208l1.437.168c-.128 3.293.71 6.453 1.39 9.633-1.16 1.43-2.768.49-4.186.15 1.07-3.21 1.41-6.58 1.36-9.95m-43.96 15.378c5.37-1.372 10.82-2.42 16.327-3.08.524 3.07 1.16 6.142 1.21 9.26-1.186.46-2.48.51-3.73.68.223-2.87.43-5.74.512-8.62-1.57 1.9-2.57 4.162-3.19 6.53-1.1.608-2.19 1.22-3.25 1.882-.04.238-.13.726-.18.968-.53 4.54-.24 9.192-1.38 13.65-1.72.24-3.44.31-5.173.39-.597-2.32-1.136-4.79-3.238-6.258-.22 2.7-.32 5.398-.41 8.11 1.87 1.808 3.73 3.628 5.59 5.46-.68 9.72-.103 19.668-2.5 29.18-.15-.543-.45-1.614-.61-2.14 1-8.75 1.2-17.564 1.74-26.34-1.983-1.903-3.95-3.813-5.92-5.724 0-3.128-.01-6.27-.02-9.398 1.98.16 3.97.31 5.957.47.172 1.608.34 3.22.512 4.82.79-.01 2.36-.028 3.147-.04.14-2.8.34-5.59.43-8.39.05-1.67.12-3.36-.058-5.02-6.79-3.64-14.873-1.06-22.13-2.77 5.27-1.95 10.95-2.218 16.36-3.62m73.03 7.49c-.49-3.678.28-7.51 1.56-10.97.43 3.358.79 6.76 2.057 9.928-1.187.46-2.386.8-3.617 1.043"/><path fill="#6F80B6" d="M102.387 88.518c.613-.85 1.23-1.698 1.863-2.538.36 1.668.81 3.316 1.26 4.968 8.18-.218 16.28.97 24.44 1.258.49 1.203.97 2.41 1.438 3.62-.09 2.802-.29 5.59-.43 8.392-.79.012-2.36.03-3.148.04-.172-1.6-.34-3.212-.512-4.82-1.988-.16-3.976-.31-5.957-.47.01 3.13.02 6.27.02 9.398 1.97 1.91 3.94 3.82 5.92 5.723-.54 8.777-.74 17.59-1.74 26.34-3.01-6.11-5.717-12.35-8.34-18.64-5.05-11.04-9.94-22.15-14.81-33.27"/><path fill="#4F5569" d="M155.81 131.398c1.57-6.63 8.07-11.87 15-11.06 5.96.1 10.827 4.81 12.29 10.4.21 4.26.1 8.52.13 12.78 3.97.33 7.93.64 11.9.938-12.93-.277-25.86-.13-38.78-.297 0-4.26-.1-8.52-.54-12.76"/><path fill="#DEDEE2" d="M117.2 121.788c2.62 6.29 5.33 12.532 8.34 18.64.16.528.46 1.6.61 2.142.09.328.27 1 .36 1.328l.12.468c-7.88-2.457-15.81-4.84-23.48-7.93 3.98-1.34 8.05-2.39 12.07-3.628-4.7-1.262-9.55-1.7-14.35-2.31-6.7-1.042-13.4.47-20.073.982-11.328.898-22.636 2.84-34.027 2.04-7.02-.52-14.132.038-21.08-1.25 10.698-.572 21.41-1.013 32.12-1.243 4.98.17 8.102-4.95 13.04-4.94 13.65-.9 27.33-1.23 40.99-2 1.982-.21 4.78.25 5.36-2.3"/><path fill="#5B6891" d="M142.45 121.748c6.25-.58 10.45 4.892 13.36 9.65.44 4.242.54 8.5.54 12.76-4.643-.03-9.27-.06-13.9-.1-.13-7.43-.23-14.87 0-22.31m40.65 8.99c3.357-4.14 7.037-9.008 12.947-8.99.3 7.59.23 15.19.024 22.78l-.94-.072c-3.97-.297-7.93-.61-11.9-.937-.03-4.26.08-8.52-.132-12.78"/><path fill="#DEDEE2" d="M208.65 144.468c3.87-3.84 7.737-7.7 11.6-11.56 11.19 2.6 22.86 2.25 34.01 5.03-15.16 2.44-30.38 4.608-45.61 6.53"/><path fill="#303030" d="M278.17 149.058c4.5.04 9.01.02 13.51.04-.83 6.018-2 11.99-3.27 17.93 7.75.46 15.77-.982 23.278 1.56 6.82 2.458 10.26 9.95 10.4 16.81-.1 8.308-2.71 16.82-8.33 23.09-5.27 5.8-13.13 8.902-20.92 8.87-8.952-.02-17.9.02-26.85-.038 3.84-22.793 8.13-45.5 12.18-68.262M10.078 161.07c.7-4.012 1.493-8 2.26-12 19.66.046 39.31-.024 58.96.04-.848 4.077-1.5 8.198-2.317 12.288-15.702 14.59-31.273 29.308-46.99 43.87 12.92.18 25.85.04 38.78.08-.32 4.03-1.02 8.01-1.813 11.98-19.648.08-39.296-.032-58.957.062 1.01-4.203.94-8.813 2.822-12.71 15.54-14.61 31.367-28.942 46.937-43.532-13.22-.168-26.45-.02-39.68-.078m128.2 8.868c4.47-2.25 9.58-2.892 14.54-2.86 8.618.03 17.24 0 25.86.02-2.82 15.78-5.66 31.55-8.512 47.32-.91 5.37-2.57 10.902-6.33 15-4.08 4.312-10.23 5.93-16 5.948-9.108-.007-18.22-.02-27.33-.007.68-3.39 1.222-6.8 1.85-10.19 8.79-.14 17.622.32 26.4-.23 4.07-.25 6.69-3.84 7.42-7.56-7.17-.28-14.43.61-21.51-.79-6.95-1.44-11.56-8.21-12.3-14.98-1.35-12.33 4.65-25.85 15.91-31.67m-64.51-2.824c9.69-.058 19.37-.007 29.06-.04 4.86.04 10.27.95 13.71 4.712 2.71 2.81 3.47 6.96 3.18 10.73-1.5 11.65-4.39 23.08-5.87 34.73-12.027.24-24.07.02-36.1.118-4.4.09-9.6-.757-12.267-4.636-3.362-5.102-1.58-11.723.84-16.82 3.02-6.122 10.16-8.422 16.52-8.8 7.47-.193 14.938.006 22.418-.09.66-3.314.448-7.822-3.59-8.732-9.782-1.672-19.82-.52-29.7-.87.61-3.438 1.25-6.86 1.8-10.302m110.33-.038c8.563.07 17.12-.07 25.68.038 3.65.114 8.1 1.39 9.203 5.364 1.15 5.316-.91 10.636-1.632 15.88-4.368.03-8.74.03-13.11.006.85-3.636 1.53-7.36 1.18-11.097-3.122-.51-6.27-.66-9.41-.69-2.49 13.58-4.938 27.18-7.32 40.78-4.552-.01-9.09.007-13.642-.02 2.91-16.77 5.98-33.52 9.05-50.26m48.233 4.838c5.96-4.08 13.42-5.14 20.49-4.84 5.9.03 11.798-.008 17.7.03-.61 3.4-1.262 6.81-1.723 10.24-8.457.4-17.027-.6-25.398.91-4.25.882-6.15 5.07-7.25 8.82 10.16.28 20.34.062 30.51.12-.773 3.33 0 7.88-2.51 10.348-9.96.313-19.943-.02-29.9.152.12 2.39-.543 5.21 1.34 7.098 1.617 1.62 4.09 1.774 6.24 2.03 7.17.392 14.35.122 21.53.22-.723 3.422-1.24 6.883-1.84 10.32-7.58-.078-15.16.07-22.73-.046-5.38-.364-11.17-1.793-14.91-5.942-4.05-4.59-4.6-11.19-3.75-17.012 1.007-8.61 4.75-17.507 12.2-22.45"/><path fill="#FFF" d="M137.29 190.608c1.14-5.76 5.38-11.16 11.347-12.3 4.78-.61 9.62-.47 14.442-.56-1.59 9.77-3.59 19.458-5.13 29.24-6.04-.15-12.68.8-18.14-2.36-4.53-3.09-3.74-9.398-2.52-14.02m149.36-12.59c5.43-.448 11.23-.66 16.43 1.27 4.307 1.84 5.05 7.18 4.377 11.29-.707 5.77-2.808 12.64-8.886 14.75-5.55 1.7-11.5 1.48-17.23 1.17 2.078-9.44 3.31-19.042 5.31-28.48m-203.603 19.36c6.73-.78 13.55-.23 20.32-.35-.718 3.37-1.34 6.75-1.917 10.15-.652.06-1.95.188-2.6.25-6.86-.858-14.188 1.18-20.72-1.53-.27-3.54.9-7.8 4.918-8.52"/><path fill="#6F80B6" d="M63.42 240.058c2.65.012 5.3.02 7.96.04-.68 3.28-1.31 6.56-1.95 9.85 5.06.258 10.6-.902 15.23 1.7 2.42 1.25 3.29 4.148 2.688 6.7-1.028 6.25-2.1 12.5-3.2 18.74-2.8-.01-5.602-.018-8.39-.042 1.19-6.68 2.64-13.316 3.58-20.04-3.58-1.21-7.37-1.058-11.09-.968-1.4 7.008-2.862 14.008-4.23 21.02-2.66.012-5.32.02-7.972.03 2.512-12.34 4.75-24.722 7.37-37.03"/><path fill="#9A9A9B" d="M243.16 241.296c2.15.012 4.297.012 6.458.024-.47 3.117-.99 6.25-1.458 9.378 2.36.04 4.726.09 7.097.14-.348 1.56-.688 3.118-1.028 4.69-2.345.05-4.685.112-7.013.178-.63 4.563-2.64 9.192-1.63 13.813 1.822.92 3.93.73 5.91.98-.25 1.59-.48 3.19-.71 4.78-4.19-.15-10.75 1.38-12.44-3.84-.6-5.31 1.53-10.5 2.198-15.733-1.547-.027-3.097-.058-4.636-.078.25-1.65.506-3.29.776-4.93 1.51.02 3.018.05 4.542.07.68-3.153 1.308-6.313 1.93-9.473"/><path fill="#6F80B6" d="M30.07 249.98c5.887.066 11.79-.172 17.68.066 3.68.203 7.797 1.87 9.22 5.55 2.85 8.462-2.14 18.75-10.923 21.083-4.437.81-8.988.27-13.476.42-.652 3.26-1.222 6.53-1.683 9.82-2.707.037-5.418.05-8.117.06 2.4-12.34 4.82-24.683 7.302-37m62.667.058c5.67-.05 11.33-.172 17-.03 3.89.03 8.39 1.59 10.01 5.448 3.2 8.614-2.33 19.352-11.4 21.34-4.27.582-8.6.203-12.893.28-.628 3.333-1.308 6.642-2.058 9.943-2.55-.03-5.09-.05-7.63-.08 1.91-12.37 4.92-24.55 6.97-36.9"/><path fill="#9A9A9B" d="M148.957 250.738c9.332.082 18.66-.13 27.993.07 2.77-.02 6.462 1.38 6.598 4.6.37 6.72-1.86 13.24-2.79 19.85-2.218.03-4.436.05-6.647.08.78-6.16 2.98-12.3 2.5-18.518-2.287-.942-4.81-.73-7.22-.852-1.157 6.43-2.388 12.84-3.477 19.29-2.3.03-4.602.062-6.89.09 1.147-6.43 2.327-12.85 3.41-19.29-2.602.012-5.2.02-7.802.03-1.07 6.44-2.28 12.86-3.55 19.27-2.22-.03-4.43-.062-6.64-.08 1.7-8.138 2.91-16.38 4.52-24.54m46.2.332c4.72-.653 9.5-.274 14.25-.25-.402 1.636-.78 3.29-1.16 4.937-4.01.03-8.062-.34-12.03.28-2.31.22-3.1 2.578-4.1 4.282 5.14.147 10.29.07 15.44.096-.33 1.722-.66 3.448-.98 5.18-5.3.12-10.61-.16-15.88.4.53 1.28 1.187 2.49 1.98 3.63 4.2 1 8.6.43 12.88.512-.173 1.687-.34 3.38-.513 5.066-5.558-.066-11.488 1.032-16.718-1.308-4.2-2.06-4.66-7.352-3.71-11.4.837-5.44 4.95-10.48 10.54-11.428m26.02-.04c4.6-.572 9.27-.2 13.9-.298l-.9 5.02c-4.08.027-8.2-.333-12.25.32-2.2.27-2.94 2.628-3.973 4.238 5.192.16 10.39.07 15.59.13-.457 1.76-.898 3.518-1.328 5.3-5.05-.098-10.1-.098-15.14-.09.35 1.35.19 3.09 1.49 4 4.24.98 8.66.398 12.977.492-.27 1.7-.527 3.406-.797 5.11-5.64-.204-11.83 1.148-17.018-1.622-4.21-2.45-4.102-8-3.024-12.14 1.102-5.11 5.192-9.63 10.473-10.46m36.67-.28h6.64c-.92 5.91-2.52 11.75-2.783 17.74 2.41 2.26 6.14.968 9.133 1.28 1.18-6.34 2.27-12.698 3.44-19.03 2.16 0 4.33.01 6.5.03-1.072 8.23-2.94 16.33-4.232 24.52-5.277-.058-10.59.352-15.84-.23-2.5-.25-5.45-1.71-5.636-4.512-.403-6.707 1.808-13.207 2.777-19.797m25.28-.002c5.22.09 10.46-.24 15.667.15 3.532.28 6.633 3.058 7.364 6.51 1.297 6.63-2.07 14.322-8.53 16.87-3.97 1.362-8.25.99-12.37 1.14-.5 2.85-.97 5.698-1.39 8.57-2.28.03-4.56.05-6.823.082 2.05-11.102 3.973-22.23 6.082-33.32"/><path fill="#FFF" d="M289.02 256.028c3.32-.08 8.13-1.1 10.1 2.38.65 3.572-.12 7.94-3.17 10.24-2.91 1.7-6.44 1.242-9.66 1.398 1.03-4.648 1.36-9.45 2.73-14.02m-252.223.032c4.403.04 9.723-.942 12.793 3.05-.44 3.42-.518 7.43-3.358 9.872-3.344 2.7-7.953 1.988-11.934 2.097.82-5.008 1.64-10.02 2.5-15.02m60.273 14.99c.84-5 1.75-9.977 2.56-14.977 4.1.29 10.46-1.46 12.44 3.398.36 3.5-.613 7.56-3.46 9.852-3.38 2.296-7.68 1.66-11.54 1.726"/><path fill="#9A9A9B" d="M126.797 256.948c1.922-.01 3.832-.03 5.762-.03-.32 1.948-.65 3.91-.97 5.878-1.91-.04-3.82-.066-5.72-.098.31-1.92.61-3.84.927-5.75m9.172 5.8l1.2-5.928c1.84.046 3.69.097 5.537.16-.328 1.93-.66 3.86-.976 5.797l-5.76-.03m-11.32 7.323c1.42-1.43 3.807-.563 5.62-.93-.36 2.058-.71 4.117-1.05 6.18h-5.72c.34-1.762.59-3.543 1.15-5.25m8.987 5.198l1.5-6.24c1.78.19 3.582.4 5.37.612-.37 1.898-.737 3.79-1.096 5.687l-5.773-.06"/></svg>