<svg width="322" height="287" xmlns="http://www.w3.org/2000/svg" xmlns:svg="http://www.w3.org/2000/svg">
 <g>
  <title>Layer 1</title>
  <path id="svg_2" d="m121.21902,1.1284c1.85199,-0.57 3.79001,-1.55 5.78,-0.93c11.44,3.032 22.92999,5.88 34.34,9.008c-0.82999,2.66 -1.608,5.332 -2.32001,8.024c32.43002,26.668 64.71201,53.52 97.06003,80.29c-11.91803,11.827 -23.91003,23.56999 -35.83002,35.39c-3.862,3.86 -7.73001,7.718 -11.60001,11.558c-4.19998,0.078 -8.38998,0.078 -12.578,0.06c0.207,-7.59 0.27701,-15.19 -0.02399,-22.78c-5.91,-0.01801 -9.59,4.85001 -12.95001,8.99001c-1.45999,-5.59001 -6.327,-10.3 -12.28799,-10.40001c-6.92999,-0.81 -13.42999,4.43001 -15,11.06c-2.91,-4.758 -7.10999,-10.23 -13.35999,-9.64999c-0.23001,7.44 -0.12802,14.88 0,22.31c-5.31201,-0.03 -10.62802,-0.06 -15.94,-0.16c-0.09003,-0.32799 -0.27002,-1 -0.36002,-1.32799c2.39801,-9.51201 1.82001,-19.46001 2.5,-29.18001c-1.85999,-1.832 -3.72,-3.652 -5.59,-5.46c0.09,-2.712 0.19,-5.41 0.41,-8.11c2.10199,1.468 2.63998,3.937 3.23801,6.257c1.72998,-0.08 3.45398,-0.15 5.172,-0.39c1.13998,-4.458 0.85199,-9.11 1.38,-13.65c4.51999,1 9.03,2.05 13.48999,3.27l1.638,-2.352c0.422,4.282 0.82001,8.563 1.18399,12.84c2.38602,-0.047 4.77701,-0.09801 7.168,-0.148c1.62,-13.32 2.77002,-26.7 3.59,-40.078c-2.89999,-2.883 -4.418,-6.633 -4.14999,-10.73c0.47,0.007 1.41,0.007 1.88,0.007c0.172,1.71 0.34,3.42 0.51999,5.132c1.992,-0.12 3.98001,-0.24201 5.98001,-0.364c0.34,-1.59001 0.69,-3.18 1.04999,-4.77c0.32001,0.02 0.96201,0.052 1.27802,0.07c0.203,1.654 0.40201,3.302 0.61301,4.95c2.17999,-0.007 4.35999,-0.02 6.548,-0.02c0.172,-1.64801 0.36398,-3.28801 0.543,-4.937c0.39999,-0.06001 1.17999,-0.202 1.57199,-0.26801c0.17999,1.72601 0.35999,3.457 0.54599,5.2c1.94202,-0.03201 3.883,-0.063 5.832,-0.083c0.56,-1.97001 1.12201,-3.938 1.70001,-5.91c1.45999,5.84 -3.20001,10.792 -2.328,16.57c0.77701,11.71 2.168,23.36 2.96799,35.062c2.04001,0.097 4.078,0.187 6.14001,0.277c0.51999,-7.46201 1.10999,-14.91 1.42999,-22.38c0.258,-4.73 -1.82001,-9.12 -2.57999,-13.72c0.54199,0.048 1.62,0.138 2.15997,0.18c0.35001,1.7 0.70203,3.39201 1.06003,5.10001c1.41998,-0.19 2.86798,-0.31001 4.28,-0.64201c1.16998,-1.488 1.98999,-3.21999 2.90997,-4.867c0.56003,1.392 1.13202,2.778 1.71002,4.18c1.60001,0.13 3.19998,0.258 4.80798,0.39c0.84,-1.66 1.68402,-3.32 2.56302,-4.97c0.81,5.33 -2.36002,10.14 -2.06201,15.42c0.20999,7.192 0.84,14.372 1.35199,21.55l5.09003,0.06c0.18997,-1.47 0.38998,-2.94199 0.59998,-4.39999c0.61002,-0.042 1.85001,-0.13 2.47,-0.17001c-0.14798,2.27 -0.10999,4.57 -0.63998,6.79c-1.13,2.19 -3.20001,3.69 -4.89999,5.41c0.02798,8.81999 -0.09003,17.67799 0.86798,26.45999c0.95999,-1.72 1.57001,-3.62999 1.45999,-5.61c-0.00699,-6.03999 -0.88998,-12.06999 -0.45999,-18.09999c0.30002,-3.618 4.62,-5.33 5.05002,-8.92001c0.31998,-2.722 0.134,-5.472 0.06299,-8.198c-1.83801,0.007 -3.66,0.027 -5.48001,0.04c-0.22198,1.596 -0.41998,3.198 -0.62,4.8c-0.47998,0.058 -1.42999,0.167 -1.89999,0.23c-0.14999,-6.32 -0.20999,-12.64 -0.702,-18.953c-0.68701,-6.01 3.332,-11.31001 2.70999,-17.368c-2.04999,0.02 -4.09,0.027 -6.12,0.046c-0.45001,1.524 -0.88699,3.04301 -1.31601,4.563c-0.922,-1.67 -1.85199,-3.33 -2.76199,-4.99c-1.73801,0.1 -3.48001,0.18999 -5.22,0.292c-0.26801,1.547 -0.54199,3.097 -0.79999,4.64799c-1.53,-3.16 -3.94,-5.68999 -7.65201,-5.96999c-1.11002,6.7 2.66,12.95 1.70999,19.62c-0.51801,5.6 -0.72998,11.23 -0.827,16.85c-0.698,0.46 -1.39999,0.93 -2.09,1.39c-1.62,-11.25999 -1.79199,-22.66 -2.82001,-33.98c-0.60001,-3.63 1.16,-6.91001 2.34,-10.2c1.18002,-2.72199 0.12201,-5.632 -0.35999,-8.35799c-1.62,0.02 -3.22,0.047 -4.82001,0.06599c-0.59,1.832 -1.16,3.66 -1.70999,5.5c-0.48801,-1.578 -0.922,-3.168 -1.59,-4.67999c-1.63,-1.09 -3.84,-0.707 -5.69,-1.097c-0.17999,1.76999 -0.34,3.53999 -0.51001,5.32l-2.37,0c-0.20001,-1.67001 -0.39001,-3.34 -0.578,-5.01c-2.15298,-0.008 -4.29999,-0.032 -6.44199,-0.04c-0.16,1.72 -0.30801,3.442 -0.45001,5.16c-0.35001,-0.05 -1.04999,-0.128 -1.39999,-0.17c-0.20801,-1.61999 -0.41,-3.24 -0.61002,-4.86c-1.54999,-0.12199 -3.09,-0.25 -4.63,-0.372c1.61002,-7.027 2.88,-14.13 4.29001,-21.2c0.80801,-3.898 0.73001,-7.91 0.32001,-11.84c-2.04999,2.282 -3.418,5.052 -4.10199,8.032c-4.27701,15.37 -8.96802,30.63 -13.418,45.96l-0.36002,1.16c-0.75,2.35 -1.48999,4.7 -2.25,7.03999c-7.75,-6.18999 -15.38199,-12.55 -22.75,-19.18999c-6.89999,-6.23 -14.03,-12.212 -21.23999,-18.07c-8.98199,-7.61 -17.69,-15.572 -26.92999,-22.88c-0.36801,-0.31 -1.11801,-0.942 -1.49002,-1.25c17.70001,-6.59 35.802,-12.102 53.61002,-18.43" fill="#6F80B6"/>
  <path id="svg_3" d="m110.01901,17.6784c4.07999,-2.52 9.98001,0.95 9.75,5.75c0.39999,4.98 -5.79999,8.58 -9.948,5.82c-4.37,-2.34 -4.30002,-9.39 0.19998,-11.57" fill="#FFF"/>
  <path id="svg_4" d="m67.60901,19.5584c0.37201,0.308 1.12201,0.94 1.48999,1.25c0.78802,3.71 2.01001,7.332 3.94,10.61c3.93002,6.61 6.93002,13.812 11.918,19.75c-9.39798,6.32 -18.91,12.472 -28.23798,18.91c1.10199,-6.48 2.70999,-12.848 4.13998,-19.25c2.08002,-10.462 5.302,-20.7 6.75,-31.27" fill="#5B6891"/>
  <path id="svg_5" d="m109.95703,20.3584c2.78201,-1.58 6.65298,1.008 6.01199,4.2c-0.28,3.39 -5.51999,4.84 -7.22,1.73c-1.60001,-1.87 -0.62,-4.63 1.20801,-5.93" fill="#303030"/>
  <path id="svg_6" d="m156.04703,26.7884c0.68399,-2.98 2.05002,-5.75 4.10199,-8.03c0.41,3.93 0.48801,7.94 -0.31998,11.84c-1.41,7.07 -2.68002,14.17 -4.29001,21.198c1.54001,0.12 3.07999,0.25 4.63,0.37c0.19998,1.622 0.40201,3.243 0.60999,4.86c0.35001,0.044 1.05002,0.12201 1.39999,0.17201c0.14203,-1.71801 0.29001,-3.44 0.45001,-5.16c2.14001,0.008 4.29001,0.032 6.44202,0.04c0.18698,1.67 0.37997,3.33999 0.57797,5.01l2.37003,0c0.16998,-1.78001 0.32999,-3.55 0.50998,-5.32c1.85001,0.39 4.06,0.00999 5.69,1.098c0.668,1.512 1.10202,3.102 1.59,4.68c0.55002,-1.84 1.12,-3.668 1.71002,-5.5c1.59998,-0.02001 3.19998,-0.047 4.81998,-0.066c0.48203,2.726 1.54001,5.636 0.36002,8.36c-1.17999,3.28801 -2.94,6.57 -2.34,10.198c1.02798,11.32 1.19998,22.72 2.81998,33.98c0.69,-0.46001 1.39203,-0.93 2.09003,-1.39c0.09998,-5.62 0.31,-11.25 0.82999,-16.85001c0.948,-6.67 -2.82001,-12.92 -1.71201,-19.62c3.71002,0.28 6.12,2.81 7.65201,5.97c0.258,-1.55 0.53201,-3.10001 0.79999,-4.648c1.74002,-0.102 3.48203,-0.192 5.22,-0.293c0.91,1.66 1.84,3.32 2.76202,4.99c0.42999,-1.52 0.86697,-3.038 1.31598,-4.562c2.03,-0.02 4.07001,-0.027 6.12,-0.04601c0.62201,6.058 -3.397,11.36 -2.70999,17.367c0.492,6.31 0.55002,12.632 0.703,18.952c0.47,-0.063 1.42001,-0.172 1.89999,-0.23c0.20001,-1.60201 0.39801,-3.204 0.62,-4.8c1.82001,-0.013 3.642,-0.033 5.48001,-0.04c0.07199,2.726 0.26001,5.476 -0.06,8.2c-0.42999,3.59 -4.75,5.3 -5.052,8.91699c-0.42999,6.03 0.453,12.06 0.45999,18.10001c0.11002,1.98 -0.5,3.89 -1.45999,5.61c-0.957,-8.782 -0.84,-17.64 -0.867,-26.46001c1.70001,-1.72 3.77002,-3.21999 4.89999,-5.41c0.53,-2.22 0.492,-4.52 0.64001,-6.79c-0.62,0.04 -1.86002,0.128 -2.47,0.17c-0.20999,1.458 -0.41,2.93 -0.60001,4.4l-5.09,-0.06c-0.51199,-7.178 -1.14001,-14.358 -1.35199,-21.55c-0.297,-5.28 2.87,-10.09 2.06299,-15.42c-0.87799,1.65 -1.72198,3.31 -2.56201,4.97c-1.60999,-0.132 -3.207,-0.26 -4.80798,-0.39c-0.578,-1.402 -1.14999,-2.788 -1.70999,-4.18c-0.92001,1.65 -1.74002,3.38 -2.91,4.868c-1.41202,0.332 -2.86002,0.453 -4.28,0.64c-0.358,-1.70599 -0.71002,-3.39799 -1.06,-5.097c-0.54001,-0.042 -1.61801,-0.132 -2.16,-0.17999c0.75998,4.6 2.83798,8.99 2.57999,13.71999c-0.32001,7.47 -0.91,14.918 -1.42999,22.38c-2.06201,-0.09 -4.10001,-0.18 -6.14001,-0.278c-0.79999,-11.703 -2.19,-23.35201 -2.96799,-35.063c-0.87201,-5.778 3.79001,-10.73 2.328,-16.57c-0.578,1.972 -1.14001,3.94 -1.70001,5.91c-1.94998,0.02 -3.88998,0.05 -5.832,0.07999c-0.18698,-1.74 -0.367,-3.472 -0.54599,-5.198c-0.39001,0.066 -1.172,0.207 -1.57001,0.27c-0.17999,1.64799 -0.37198,3.28799 -0.54401,4.937c-2.18698,0 -4.36697,0.01 -6.547,0.018c-0.20999,-1.64799 -0.41,-3.296 -0.612,-4.95c-0.31598,-0.01799 -0.957,-0.05 -1.27698,-0.07c-0.36002,1.59 -0.71002,3.18 -1.05002,4.77l-5.97998,0.36401c-0.18002,-1.71001 -0.34802,-3.422 -0.52002,-5.133c-0.47,0 -1.41,0 -1.88,-0.01c-0.26797,4.1 1.25,7.85 4.15002,10.732c-0.82001,13.378 -1.97,26.757 -3.59003,40.078c-2.38998,0.05 -4.78198,0.1 -7.168,0.14799c-0.36398,-4.277 -0.76199,-8.558 -1.18399,-12.84l-1.63699,2.352c-4.45999,-1.22 -8.97,-2.27 -13.48999,-3.27c0.04999,-0.242 0.13998,-0.73 0.17999,-0.968c1.06,-0.66 2.14999,-1.274 3.25,-1.883c0.62,-2.368 1.62,-4.63 3.19,-6.53c-0.082,2.88 -0.29001,5.75 -0.51001,8.62c1.25,-0.17 2.54199,-0.22 3.73001,-0.68c-0.052,-3.118 -0.68802,-6.19 -1.21201,-9.26c-5.508,0.66 -10.957,1.708 -16.328,3.08c-5.41,1.402 -11.09,1.67 -16.36002,3.62c7.25803,1.71 15.34003,-0.87 22.13,2.77c0.18002,1.66 0.11002,3.35 0.05801,5.02c-0.47,-1.212 -0.95001,-2.42 -1.43701,-3.62199c-8.16,-0.29 -16.25998,-1.47601 -24.44,-1.258c-0.44998,-1.652 -0.89999,-3.3 -1.25998,-4.968c3.98999,-8.23 8.76999,-16.102 13.01999,-24.223c7.36801,6.64 15,13 22.75,19.19001c0.76001,-2.34 1.5,-4.69 2.25,-7.04c1.66,0.26 3.34,0.53 5.01999,0.798c1.08002,-1.97601 2.16,-3.957 3.30002,-5.91c-0.16,3.3 -0.94,6.512 -1.76801,9.692c-1,3.878 0.117,7.84 0.758,11.67c0.45001,-4.23 -0.418,-8.85 1.70999,-12.73c0.05002,8.6 -0.20999,17.2 0.06,25.80199l3.85001,-0.153c0.33002,-11.25 1.53201,-22.438 2.24002,-33.66c0.50998,-2.98 -1.60001,-5.23 -3.38,-7.29c-0.88,4.62 -0.01202,9.62 -2.09,13.95c0,-2.848 -0.02002,-5.712 -0.04001,-8.56c-1.54199,0.098 -3.07001,0.212 -4.59,0.31c-0.42801,1.3 -0.85001,2.59 -1.26801,3.89c-1.15302,0.328 -2.29999,0.672 -3.44202,1.03001c4.45001,-15.33001 9.14001,-30.59 13.418,-45.96" fill="#5B6891"/>
  <path id="svg_7" d="m73.03903,31.4184c-1.92999,-3.278 -3.15201,-6.9 -3.94,-10.61c9.23999,7.308 17.948,15.27 26.92999,22.88c-3.59,2.64 -7.35999,5.03 -11.07199,7.48c-4.98801,-5.938 -7.98801,-13.14 -11.918,-19.75" fill="#4F5569"/>
  <path id="svg_8" d="m19.60901,61.5384c13.73001,-3.66 27.56,-6.89 41.25,-10.71c-1.42999,6.402 -3.03799,12.77 -4.13998,19.25c-12.30002,-3.16 -24.77002,-5.57 -37.11002,-8.54m132.36002,14.54c2.078,-4.33 1.20999,-9.33 2.09,-13.95c1.78,2.06 3.89001,4.31 3.38,7.28999c-0.70801,11.222 -1.91,22.41 -2.23999,33.66c-1.28802,0.05 -2.58002,0.1 -3.85001,0.152c-0.27002,-8.602 -0.01001,-17.203 -0.06,-25.8c0.168,-0.34 0.508,-1.013 0.67999,-1.353" fill="#6F80B6"/>
  <path id="svg_9" d="m147.33902,67.8284c1.51999,-0.098 3.048,-0.212 4.59,-0.31c0.02002,2.848 0.04001,5.712 0.04001,8.56c-0.172,0.34 -0.51199,1.01 -0.67999,1.35c-2.12802,3.88 -1.26001,8.5 -1.71002,12.73c-0.63998,-3.83 -1.758,-7.792 -0.758,-11.67001c0.828,-3.18 1.61002,-6.39 1.77002,-9.69199c-1.14001,1.953 -2.22302,3.934 -3.302,5.91c-1.68002,-0.27 -3.36002,-0.54 -5.02002,-0.797l0.36002,-1.16c1.13998,-0.358 2.28998,-0.702 3.44199,-1.03c0.418,-1.3 0.84,-2.59 1.27002,-3.89m22.17798,1.209l1.43799,0.168c-0.12799,3.293 0.71002,6.453 1.39001,9.633c-1.16,1.43 -2.76801,0.49 -4.186,0.15c1.07001,-3.21001 1.41,-6.58 1.35999,-9.95m-43.96198,15.379c5.37,-1.37199 10.82001,-2.42 16.328,-3.07999c0.52399,3.07 1.16,6.142 1.20999,9.25999c-1.186,0.46 -2.47998,0.51 -3.72998,0.68c0.22299,-2.87 0.42999,-5.74 0.51199,-8.62c-1.57001,1.89999 -2.57001,4.16199 -3.19,6.53c-1.10001,0.608 -2.19,1.22 -3.25,1.882c-0.04001,0.238 -0.13,0.72601 -0.17999,0.968c-0.52802,4.54 -0.24002,9.192 -1.38,13.65c-1.71802,0.24 -3.44,0.31 -5.172,0.39c-0.59702,-2.32 -1.13602,-4.79 -3.23801,-6.258c-0.22,2.7 -0.32001,5.398 -0.41,8.11c1.87,1.808 3.73001,3.628 5.59,5.46c-0.67999,9.72 -0.10199,19.668 -2.5,29.18001c-0.14999,-0.543 -0.44998,-1.614 -0.60999,-2.14c1,-8.75 1.19998,-17.56401 1.73999,-26.34001c-1.98199,-1.903 -3.95001,-3.813 -5.92001,-5.72399c0,-3.12801 -0.00998,-6.27 -0.01999,-9.398c1.98199,0.16 3.97,0.31 5.95801,0.47c0.172,1.608 0.34,3.22 0.51199,4.82c0.79001,-0.01 2.35999,-0.028 3.14801,-0.04c0.13998,-2.8 0.34,-5.59 0.42999,-8.39c0.04999,-1.67 0.12,-3.36 -0.05801,-5.02c-6.78998,-3.64 -14.87198,-1.06 -22.12997,-2.77c5.26999,-1.95 10.94998,-2.218 16.35999,-3.62m73.03,7.49001c-0.48999,-3.678 0.28,-7.51 1.56,-10.97c0.42999,3.358 0.79001,6.76 2.05801,9.928c-1.18701,0.46 -2.38602,0.8 -3.617,1.043" fill="#4F5569"/>
  <path id="svg_10" d="m102.38702,88.5184c0.61301,-0.85001 1.23001,-1.69801 1.86301,-2.538c0.35999,1.668 0.81,3.316 1.25998,4.968c8.18002,-0.218 16.28,0.96999 24.44,1.258c0.49002,1.203 0.97,2.41 1.43802,3.62c-0.09,2.802 -0.29001,5.59 -0.43002,8.392c-0.78998,0.012 -2.35999,0.03 -3.14798,0.04c-0.172,-1.6 -0.34,-3.212 -0.51199,-4.82c-1.98801,-0.16 -3.97601,-0.31 -5.957,-0.47c0.00998,3.13 0.01999,6.27 0.01999,9.398c1.97,1.91 3.93799,3.82 5.91998,5.723c-0.53998,8.778 -0.73999,17.59 -1.73999,26.34c-3.01001,-6.108 -5.71799,-12.35001 -8.34,-18.64c-5.04999,-11.03999 -9.94,-22.148 -14.81201,-33.27" fill="#6F80B6"/>
  <path id="svg_11" d="m155.80902,131.39839c1.57001,-6.63 8.07001,-11.87 15,-11.06c5.95999,0.09999 10.828,4.81 12.29001,10.39999c0.20999,4.25999 0.10001,8.52 0.13199,12.78c3.97,0.33 7.92999,0.64 11.89801,0.938c-12.92999,-0.27701 -25.86002,-0.13 -38.78,-0.297c0,-4.26001 -0.10001,-8.51801 -0.54001,-12.76001" fill="#4F5569"/>
  <path id="svg_12" d="m117.19904,121.78841c2.62201,6.29001 5.32999,12.532 8.34,18.64c0.16,0.528 0.45999,1.60001 0.60999,2.142c0.09003,0.328 0.27002,1 0.36002,1.328l0.12,0.468c-7.88,-2.457 -15.80798,-4.84 -23.47998,-7.92999c3.97998,-1.34001 8.04999,-2.39001 12.06998,-3.62801c-4.69998,-1.26201 -9.54999,-1.7 -14.35001,-2.31c-6.69998,-1.04201 -13.39999,0.47 -20.07199,0.98199c-11.328,0.89799 -22.63599,2.84 -34.02701,2.04001c-7.01999,-0.52 -14.13199,0.03799 -21.07999,-1.25c10.698,-0.57201 21.41,-1.013 32.12,-1.24301c4.98001,0.17 8.10199,-4.95 13.04001,-4.94c13.64999,-0.89999 27.32999,-1.23 40.98999,-2c1.98199,-0.20999 4.78,0.25 5.36002,-2.29999" fill="#DEDEE2"/>
  <path id="svg_13" d="m142.44904,121.7484c6.25,-0.58 10.44998,4.892 13.35999,9.64999c0.44,4.242 0.54001,8.5 0.54001,12.76001c-4.642,-0.03 -9.26999,-0.06 -13.89999,-0.10001c-0.12799,-7.42999 -0.23001,-14.87 0,-22.31m40.64999,8.99001c3.358,-4.14 7.03799,-9.00801 12.948,-8.99001c0.30002,7.59 0.23001,15.19 0.02402,22.78001l-0.94202,-0.07201c-3.96799,-0.297 -7.92999,-0.61 -11.89801,-0.937c-0.03,-4.26001 0.078,-8.52 -0.133,-12.78" fill="#5B6891"/>
  <path id="svg_14" d="m208.64902,144.4684c3.87,-3.84 7.73801,-7.7 11.60001,-11.56c11.19,2.59999 22.85999,2.25 34.01001,5.03c-15.16003,2.44 -30.38,4.608 -45.61002,6.53" fill="#DEDEE2"/>
  <path id="svg_15" d="m278.16901,149.0584c4.5,0.04001 9.01001,0.02 13.51001,0.04001c-0.83002,6.01799 -2,11.98999 -3.26801,17.92999c7.75,0.46001 15.77002,-0.98199 23.27698,1.56c6.82001,2.45801 10.26001,9.95001 10.40002,16.81c-0.09998,8.30801 -2.71002,16.82001 -8.33002,23.09001c-5.26996,5.8 -13.13,8.90199 -20.91998,8.87c-8.95203,-0.02 -17.90002,0.02 -26.84998,-0.03799c3.83997,-22.793 8.12994,-45.5 12.17999,-68.26201m-268.08902,12.01201c0.70001,-4.01201 1.492,-8 2.26001,-12c19.66,0.04601 39.31,-0.024 58.95798,0.04001c-0.84698,4.077 -1.5,8.19798 -2.31598,12.28799c-15.703,14.59 -31.27402,29.308 -46.992,43.87c12.922,0.17999 25.85001,0.03999 38.78,0.08c-0.32001,4.03 -1.01999,8.00999 -1.81201,11.98c-19.64798,0.08 -39.29599,-0.032 -58.957,0.062c1.01001,-4.203 0.94,-8.813 2.82202,-12.70999c15.53998,-14.61 31.367,-28.942 46.93698,-43.53201c-13.22,-0.168 -26.44998,-0.01999 -39.67999,-0.07799m128.20001,8.868c4.47,-2.25 9.57999,-2.892 14.54199,-2.86c8.617,0.03 17.23801,0 25.86002,0.02c-2.82001,15.78 -5.66,31.54999 -8.513,47.31999c-0.91,5.37001 -2.57001,10.90201 -6.33002,15c-4.07999,4.312 -10.22998,5.93001 -16,5.948c-9.108,-0.00699 -18.22,-0.01999 -27.32999,-0.00699c0.67999,-3.39 1.22198,-6.8 1.85001,-10.19c8.78998,-0.14 17.62198,0.31999 26.39999,-0.23001c4.07001,-0.25 6.69,-3.84 7.41998,-7.56c-7.16998,-0.28 -14.42999,0.61 -21.50998,-0.78999c-6.95001,-1.44 -11.56,-8.21001 -12.30002,-14.98c-1.34998,-12.33 4.65002,-25.85001 15.91,-31.67001m-64.509,-2.823c9.68799,-0.058 19.36801,-0.007 29.06,-0.04001c4.86002,0.04001 10.26999,0.95001 13.70999,4.71201c2.71002,2.81 3.47,6.95999 3.18002,10.73c-1.5,11.65001 -4.39001,23.08 -5.87003,34.73c-12.02798,0.24001 -24.06998,0.02 -36.09998,0.11801c-4.40002,0.09 -9.60001,-0.757 -12.26801,-4.636c-3.36301,-5.10201 -1.582,-11.72301 0.84,-16.82001c3.01999,-6.12199 10.16,-8.422 16.51999,-8.8c7.46802,-0.19299 14.93701,0.00601 22.41702,-0.09c0.65997,-3.314 0.448,-7.82199 -3.59003,-8.73199c-9.78198,-1.672 -19.81998,-0.52 -29.69998,-0.87c0.60999,-3.438 1.25,-6.86 1.79999,-10.302m110.33102,-0.03799c8.56201,0.06999 17.12,-0.07001 25.67999,0.03799c3.64999,0.114 8.10001,1.39 9.202,5.364c1.14801,5.31601 -0.90997,10.636 -1.633,15.88c-4.36798,0.03 -8.73999,0.03 -13.10999,0.006c0.85001,-3.636 1.53,-7.36 1.17999,-11.097c-3.12201,-0.50999 -6.26999,-0.65999 -9.41,-0.69c-2.48999,13.58 -4.93799,27.18001 -7.32001,40.78001c-4.552,-0.01001 -9.09,0.008 -13.642,-0.02c2.91,-16.76801 5.98001,-33.51801 9.05002,-50.26001m48.233,4.839c5.96002,-4.08 13.41998,-5.14 20.492,-4.84c5.89801,0.03 11.797,-0.008 17.70001,0.03c-0.61005,3.39999 -1.263,6.81 -1.724,10.24001c-8.45703,0.39999 -17.02704,-0.60001 -25.39801,0.90999c-4.25,0.882 -6.15002,5.07001 -7.25,8.82001c10.15997,0.28 20.33997,0.062 30.51196,0.12c-0.77399,3.33 0,7.88 -2.51196,10.34801c-9.96002,0.313 -19.94202,-0.02 -29.90002,0.15199c0.12,2.39 -0.54199,5.21001 1.34003,7.09801c1.61798,1.62 4.08997,1.774 6.23999,2.03c7.16998,0.392 14.34998,0.12199 21.53003,0.22c-0.72205,3.422 -1.24005,6.883 -1.84003,10.31999c-7.58002,-0.07799 -15.15997,0.07001 -22.72998,-0.04599c-5.37805,-0.364 -11.17004,-1.793 -14.91003,-5.942c-4.04999,-4.59 -4.59998,-11.19 -3.75,-17.01201c1.008,-8.61 4.75,-17.50699 12.20001,-22.45" fill="#303030"/>
  <path id="svg_16" d="m137.28903,190.6084c1.13998,-5.75999 5.38,-11.16 11.34799,-12.3c4.78,-0.61 9.62,-0.47 14.44202,-0.56c-1.59,9.77 -3.59,19.45801 -5.13,29.24001c-6.03799,-0.15001 -12.67999,0.8 -18.14001,-2.36c-4.53,-3.09 -3.73798,-9.39801 -2.51999,-14.02m149.36002,-12.59c5.42999,-0.448 11.22998,-0.66 16.42999,1.27c4.30798,1.84 5.04999,7.17999 4.37799,11.28999c-0.70697,5.77 -2.80798,12.64 -8.88599,14.75c-5.54999,1.7 -11.5,1.48 -17.22998,1.17c2.07697,-9.44 3.30798,-19.04199 5.30798,-28.48m-203.60202,19.36c6.73001,-0.78 13.55002,-0.23001 20.32001,-0.35001c-0.71802,3.37 -1.34,6.75 -1.91699,10.15001c-0.65201,0.06 -1.95001,0.18799 -2.60001,0.25c-6.86002,-0.858 -14.18802,1.17999 -20.72,-1.53001c-0.27002,-3.53999 0.89999,-7.79999 4.918,-8.51999" fill="#FFF"/>
  <path id="svg_17" d="m63.41901,240.0584c2.65201,0.01199 5.30002,0.01999 7.95999,0.04001c-0.67999,3.28 -1.30798,6.56 -1.94998,9.85001c5.06,0.258 10.60001,-0.90201 15.23199,1.69998c2.418,1.25 3.29001,4.14801 2.68701,6.7c-1.02802,6.25 -2.10001,12.5 -3.20001,18.73999c-2.79999,-0.01001 -5.60199,-0.01801 -8.38998,-0.04199c1.18997,-6.67999 2.63998,-13.31601 3.57999,-20.04001c-3.57999,-1.20998 -7.37,-1.05797 -11.09,-0.96799c-1.39999,7.008 -2.862,14.008 -4.23001,21.01999c-2.66,0.01199 -5.32001,0.01999 -7.97202,0.03c2.51202,-12.34 4.75,-24.72197 7.37003,-37.02998" fill="#6F80B6"/>
  <path id="svg_18" d="m243.16101,241.2964c2.14801,0.01199 4.29602,0.01199 6.45697,0.02399c-0.46997,3.117 -0.98999,6.25 -1.45795,9.37802c2.35999,0.03998 4.72595,0.09 7.09698,0.13998c-0.34802,1.56 -0.68799,3.11801 -1.02802,4.69c-2.34399,0.04999 -4.68402,0.112 -7.01196,0.17801c-0.63,4.56297 -2.64001,9.19197 -1.63,13.81297c1.82196,0.92001 3.92999,0.73001 5.90997,0.98001c-0.25,1.59 -0.47998,3.19 -0.71002,4.78c-4.19,-0.14999 -10.75,1.38 -12.44,-3.84c-0.59998,-5.31 1.53003,-10.5 2.198,-15.73198c-1.547,-0.02701 -3.09698,-0.05801 -4.63599,-0.078c0.25,-1.64801 0.50702,-3.29001 0.77704,-4.93002c1.50995,0.02002 3.01801,0.05002 4.54199,0.07001c0.67999,-3.15201 1.30798,-6.31198 1.92999,-9.47198" fill="#9A9A9B"/>
  <path id="svg_19" d="m30.07101,249.98039c5.88599,0.06601 11.79001,-0.172 17.67999,0.06601c3.67999,0.20297 7.79599,1.87 9.21802,5.54999c2.85199,8.46199 -2.14001,18.74998 -10.92203,21.08299c-4.43698,0.81 -8.98798,0.26999 -13.47598,0.41998c-0.65302,3.26001 -1.22299,6.53 -1.68399,9.82001c-2.707,0.03799 -5.418,0.04999 -8.117,0.06201c2.39999,-12.34 4.81998,-24.68402 7.302,-36.99998m62.66699,0.05701c5.672,-0.04999 11.332,-0.172 17,-0.03c3.88998,0.03 8.38998,1.59 10.01001,5.448c3.19998,8.614 -2.33002,19.35197 -11.40002,21.33998c-4.26999,0.582 -8.59998,0.203 -12.892,0.28c-0.62799,3.33301 -1.30798,6.642 -2.05798,9.94299c-2.55002,-0.03 -5.09,-0.04999 -7.63,-0.07999c1.91,-12.36801 4.92001,-24.548 6.97,-36.89998" fill="#6F80B6"/>
  <path id="svg_20" d="m148.95703,250.73839c9.332,0.082 18.66,-0.13 27.99301,0.07001c2.76999,-0.02002 6.46198,1.38 6.59799,4.60001c0.37,6.71999 -1.86002,13.23997 -2.79001,19.84996c-2.21799,0.03 -4.436,0.05002 -6.647,0.08002c0.77802,-6.16 2.98001,-12.30002 2.5,-18.51801c-2.28799,-0.94197 -4.81198,-0.73001 -7.22198,-0.85197c-1.15601,6.42998 -2.38699,12.83998 -3.47601,19.28996c-2.29999,0.03 -4.60199,0.06201 -6.88998,0.09003c1.147,-6.43002 2.327,-12.85001 3.41,-19.29001c-2.60202,0.01199 -5.20001,0.01999 -7.802,0.03c-1.07001,6.44 -2.28,12.85999 -3.55002,19.26999c-2.22,-0.03 -4.42999,-0.06198 -6.63998,-0.07999c1.698,-8.138 2.91,-16.38 4.51801,-24.53999m46.20197,0.332c4.71799,-0.65298 9.5,-0.27399 14.25,-0.25c-0.40298,1.63599 -0.78201,3.29001 -1.16,4.93701c-4.01199,0.03 -8.06299,-0.34 -12.03198,0.27998c-2.30801,0.22 -3.10001,2.578 -4.10001,4.28198c5.13998,0.14801 10.29199,0.07001 15.44,0.09702c-0.328,1.72198 -0.66,3.448 -0.98001,5.17999c-5.29999,0.12 -10.60999,-0.16 -15.88,0.39999c0.53201,1.28 1.18802,2.48999 1.98001,3.63c4.19998,1 8.60001,0.42999 12.88,0.51199c-0.172,1.68701 -0.34,3.38 -0.51202,5.06601c-5.55798,-0.06601 -11.48798,1.03198 -16.71799,-1.30801c-4.20001,-2.06 -4.66,-7.35199 -3.70999,-11.39999c0.83798,-5.44 4.952,-10.47997 10.54199,-11.42799m26.01801,-0.03998c4.59998,-0.57199 9.27002,-0.20001 13.90002,-0.298l-0.90002,5.02002c-4.08002,0.02698 -8.198,-0.33301 -12.25,0.31996c-2.198,0.27002 -2.94,2.62802 -3.97202,4.23801c5.19199,0.16 10.38998,0.07001 15.59,0.13c-0.45697,1.76001 -0.89801,3.51801 -1.328,5.29999c-5.04999,-0.09799 -10.09998,-0.09799 -15.13998,-0.09c0.35001,1.35001 0.19,3.09 1.492,4c4.23801,0.98001 8.66,0.39801 12.97598,0.492c-0.26996,1.70001 -0.52698,3.40601 -0.797,5.11002c-5.64001,-0.20401 -11.82999,1.14798 -17.01797,-1.62201c-4.21002,-2.45001 -4.10202,-8 -3.02402,-12.14001c1.10199,-5.10999 5.19202,-9.62996 10.47302,-10.45998m36.66797,-0.28l6.64001,0c-0.91803,5.90999 -2.52002,11.74998 -2.78198,17.73997c2.40997,2.26001 6.13995,0.96802 9.133,1.28c1.17999,-6.34 2.26996,-12.698 3.44,-19.02998c2.15997,0 4.32996,0.01001 6.5,0.03c-1.07202,8.23 -2.94,16.33 -4.23206,24.52c-5.27698,-0.05801 -10.58997,0.35199 -15.83997,-0.23001c-2.5,-0.25 -5.45001,-1.70999 -5.63599,-4.51199c-0.40302,-6.707 1.80798,-13.207 2.77698,-19.79698m25.28003,-0.00101c5.22003,0.09 10.46002,-0.23999 15.66803,0.14999c3.53198,0.28 6.633,3.05801 7.36395,6.50999c1.29602,6.63 -2.07001,14.32199 -8.53198,16.87c-3.96802,1.362 -8.25,0.98999 -12.37,1.14001c-0.5,2.84998 -0.97003,5.698 -1.39001,8.56998c-2.27997,0.03 -4.56,0.05002 -6.82196,0.082c2.04999,-11.10199 3.97296,-22.22998 6.08197,-33.31996" fill="#9A9A9B"/>
  <path id="svg_21" d="m289.01904,256.02838c3.32001,-0.07997 8.13,-1.09999 10.09998,2.38c0.65002,3.57199 -0.12,7.94 -3.16998,10.23999c-2.90997,1.70001 -6.44,1.242 -9.65997,1.39801c1.03198,-4.64801 1.35999,-9.45001 2.72998,-14.01999m-252.22202,0.03198c4.40302,0.04001 9.72299,-0.94197 12.793,3.05002c-0.44,3.41998 -0.51801,7.42999 -3.358,9.87198c-3.34399,2.70001 -7.953,1.98801 -11.93399,2.09702c0.82001,-5.008 1.63998,-10.02002 2.5,-15.02002m60.27298,14.98901c0.84,-5 1.75,-9.97601 2.55798,-14.97601c4.10202,0.29001 10.46002,-1.45998 12.44202,3.39801c0.35999,3.5 -0.61401,7.56 -3.45999,9.85199c-3.38,2.29602 -7.68002,1.66 -11.54001,1.72601" fill="#FFF"/>
  <path id="svg_22" d="m126.79703,256.94839c1.922,-0.01001 3.832,-0.03 5.76199,-0.03c-0.31998,1.948 -0.64798,3.91 -0.97,5.87799c-1.91,-0.03998 -3.81998,-0.06598 -5.72,-0.09799c0.31,-1.92001 0.612,-3.84 0.92801,-5.75m9.172,5.79999l1.19998,-5.92801c1.84003,0.04602 3.69,0.09702 5.53802,0.16c-0.328,1.92999 -0.66,3.86002 -0.97601,5.797l-5.76199,-0.03m-11.32001,7.323c1.422,-1.42999 3.80801,-0.56299 5.62,-0.92999c-0.358,2.05798 -0.70999,4.117 -1.04999,6.17999l-5.72,0c0.34,-1.76199 0.59,-3.543 1.14999,-5.25m8.98801,5.198l1.5,-6.23999c1.78,0.19 3.582,0.39999 5.37,0.612c-0.37,1.89798 -0.737,3.78998 -1.09601,5.68698l-5.77399,-0.06" fill="#9A9A9B"/>
 </g>
</svg>
