<svg xmlns="http://www.w3.org/2000/svg" viewBox="0 0 285.2586 74.8443"><defs><clipPath id="b"><path d="M3.851562 18.71875c0-8.492188 6.882813-15.375 15.371094-15.375h37.289063c8.488281 0 15.371093 6.882812 15.371093 15.371094v52.648437H19.222656c-8.488281 0-15.371094-6.882812-15.371094-15.382812V18.695312zm0 0"/></clipPath></defs><path fill="#231F20" fill-rule="evenodd" d="M87.1875 56.460938h4.847656v14.796874h1.832032V56.460938h4.847656v-1.671876H87.1875m19.03125 8.519532h4.703125v-1.671875h-4.703125v-5.175781h8.117188v-1.671876h-9.953126v16.46875H114.6875v-1.671874h-8.46875m25.667969-.796876l-1.273438-1.109374c-1.058593 1.367187-2.28125 2.167968-4.066406 2.167968-2.777344 0-4.871094-2.824218-4.871094-6.847656 0-4 2.023438-6.792969 4.847657-6.792969 1.78125 0 2.765624.632813 3.824218 2.070313l1.457032-1.105469c-1.292969-1.78125-2.984376-2.628906-5.246094-2.628906-3.980469 0-6.730469 3.625-6.730469 8.511719 0 4.832031 2.632813 8.46875 6.65625 8.46875 2.398437 0 4.179687-1.105469 5.382813-2.722657zm15.808593-6.964843h-8.1875v-7.035157h-1.835937v16.46875h1.835937v-7.765624h8.1875v7.765624h1.835938v-16.46875h-1.828125m20.371094 16.46875v-16.46875H166.3125v13.550782c-.207031-.425782-.824219-1.507813-1.175781-2.070313l-7.128907-11.480469h-1.792968v16.46875h1.765625V57.917969c.214843.425781.824219 1.507812 1.175781 2.070312l7.199219 11.269531zM187.726562 63c0-4.964844-2.722656-8.46875-6.820312-8.46875-4.089844 0-6.851562 3.550781-6.851562 8.515625 0 4.964844 2.707031 8.46875 6.804687 8.46875 4.089844 0 6.867187-3.550781 6.867187-8.515625zm-1.835937.042969c0 4.144531-2.109375 6.804687-4.957031 6.804687-2.871094 0-5.03125-2.707031-5.03125-6.847656s2.097656-6.792969 4.9375-6.792969c2.871094 0 5.058594 2.703125 5.058594 6.847657zm9.644531-8.253907h-1.839844v16.46875h9.980469v-1.671874h-8.132812M222.546875 63c0-4.964844-2.722656-8.46875-6.820313-8.46875-4.089843 0-6.839843 3.550781-6.839843 8.515625 0 4.964844 2.707031 8.46875 6.804687 8.46875 4.089844 0 6.867188-3.550781 6.867188-8.515625zm-1.828125.042969c0 4.144531-2.117188 6.804687-4.957031 6.804687-2.867188 0-5.03125-2.707031-5.03125-6.847656s2.097656-6.792969 4.941406-6.792969c2.875 0 5.058594 2.703125 5.058594 6.847657zm19.859375 1.648437v-1.601562h-4.757813v1.695312h2.96875v.144532c0 3.222656-1.503906 4.917968-4.257812 4.917968-2.75 0-4.867188-2.824218-4.867188-6.847656 0-4 2.023438-6.792969 4.847657-6.792969 1.789062 0 2.777343.632813 3.835937 2.070313l1.457032-1.105469c-1.296876-1.78125-2.988282-2.628906-5.246094-2.628906-3.980469 0-6.730469 3.625-6.730469 8.511719 0 4.832031 2.632813 8.46875 6.660156 8.46875 3.472657 0 6.085938-2.28125 6.085938-6.824219zm5.925781-9.902344h1.835938v16.46875h-1.835938zm10.464844 8.519532h4.707031v-1.671875h-4.707031v-5.175781h8.117188v-1.671876h-9.953126v16.46875H265.4375v-1.671874h-8.46875m24.4375-2.65625c0-2.449219-1.128906-3.671876-4.777344-4.988282-3.292968-1.175781-3.90625-1.945312-3.90625-3.3125 0-1.292968.941406-2.421875 3.203125-2.421875 1.644531 0 2.75.542969 3.953125 1.527344l1.175782-1.429687c-1.390626-1.101563-2.800782-1.761719-5.011719-1.761719-3.085938 0-5.152344 1.582031-5.152344 4.214843 0 2.378907 1.199219 3.527344 4.75 4.804688 3.011719 1.085938 3.929687 1.953125 3.929687 3.480469 0 1.746093-1.367187 2.824219-3.558593 2.824219-1.691407 0-3.128907-.769532-4.375-1.972657l-1.222657 1.367188c1.292969 1.320312 3.292969 2.285156 5.535157 2.285156 3.4375 0 5.457031-2 5.457031-4.585937zM102.757812 47.730469l-6.253906-16.46875h-3.203125l-6.304687 16.46875h3.527344l1.292968-3.671875h6.023438l1.296875 3.671875zm-6.046874-6.800781h-3.761719l1.058593-2.984376c.335938-.964843.660157-1.953124.824219-2.566406.167969.617188.496094 1.601563.828125 2.570313l1.058594 2.984375zm26.871093 6.800781v-16.46875h-3.246093l-3.3125 7.457031c-.421876.941406-.890626 2.140625-1.105469 2.753906-.207031-.585937-.703125-1.832031-1.128907-2.753906l-3.433593-7.457031h-3.183594v16.46875h3.222656v-6.046875c0-.886719-.042969-2.984375-.042969-3.617188.230469.617188.726563 1.792969 1.148438 2.730469l3.339844 7.320313 3.34375-7.308594c.425781-.941406.921875-2.117188 1.15625-2.722656 0 .632812-.042969 2.730468-.042969 3.625v6.054687h3.292969zm19.460938-11.246094c0-3.503906-2.5625-5.222656-5.667969-5.222656h-7.199219v16.46875h3.292969v-5.835938h3.625c3.414062 0 5.953125-1.597656 5.953125-5.410156zm-3.382813.070313c0 1.441406-.824218 2.144531-2.355468 2.144531h-3.835938v-4.234375h3.789062c1.457032 0 2.398438.660156 2.398438 2.101562zm18.910156 1.015624h-6.75v-6.308593h-3.292968v16.476562h3.292968v-6.914062h6.753907v6.921875h3.296875V31.273438h-3.292969m10.113281 0h3.292969v16.472656h-3.292969zm23.449219 16.472656V31.273438h-3.246094v6.964843c0 .921875.042969 2.984375.042969 3.601563-.214844-.425782-.75-1.25-1.15625-1.855469l-5.835938-8.703125h-3.148437v16.476562h3.246094v-7.25c0-.917968-.042969-2.984374-.042969-3.597656.214844.421875.75 1.246094 1.15625 1.859375l6.042969 8.988281h2.9375zm6.8125-16.464844h3.292969v16.476562h-3.292969zm22.582031 3.394531c-1.03125-2.136719-2.914062-3.648437-6.015625-3.648437-4.308593 0-7.320312 3.484375-7.320312 8.496094 0 5.199218 2.894531 8.492187 7.203125 8.492187 2.984375 0 4.964844-1.390625 6.09375-3.71875l-2.777344-1.644531c-.867188 1.457031-1.742188 2.089844-3.222656 2.089844-2.46875 0-3.902344-2.261719-3.902344-5.222657 0-3.058593 1.410156-5.226562 3.882812-5.226562 1.480469 0 2.421876.664062 3.011719 1.792969l3.058594-1.410157zm19.8125-3.386719h-3.746094l-2.332031 3.902344c-.609375 1.035156-1.484375 2.609375-1.785156 3.222656-.304687-.613281-1.203125-2.234374-1.789063-3.230468l-2.328124-3.902344h-3.789063l6.234375 10.023438V47.75h3.292969v-6.519531l6.234375-9.949219zm0 0"/><path fill="#127DC2" d="M3.921875 18.835938c0-8.488282 6.882813-15.371094 15.371094-15.371094h37.296875c8.488281 0 15.371094 6.882812 15.371094 15.371094v52.667968H19.292969c-8.488281 0-15.371094-6.886718-15.371094-15.382812V18.832031zm0 0"/><g clip-path="url(#b)"><path fill="#A5CD39" fill-rule="evenodd" d="M1.691406 52.484375s.125-26.261719 66.546875-44.199219c-30.066406 13.992188-65.746093 47.820313 5.429688 63.09375 1.222656-10.140625.800781-21.457031.800781-21.457031s-20.921875-.640625-19.542969-10.78125C56.304688 29 75.046875 21.84375 75.046875 21.84375L77.613281-.910156l-94.183593-3.785156-.960938 57.988281 19.222656-.804688zm0 0"/></g></svg>
