<svg xmlns="http://www.w3.org/2000/svg" viewBox="0 0 298.9687 98.5824"><path fill="#3D64AC" d="M20.78125 57.57422l23.54297-23.54688 4.85156 4.85157-23.54688 23.543zM67.25 41.0547L28.1289 1.9336l-7.91406 7.91015L34.8828 24.51172 3.23438 56.16406l39.1172 39.1211 7.91405-7.91407-14.67187-14.6758zm26.96484-27.75782v11.98437h13.01954v6.92188H94.21483v26.96484c0 6.20312 1.75782 9.71484 6.82032 9.71484 2.47656 0 3.92578-.207 5.26953-.621l.41405 6.9258c-1.7578.6172-4.54688 1.2383-8.0586 1.2383-4.23828 0-7.64843-1.4492-9.8164-3.8242-2.48047-2.789-3.51172-7.2304-3.51172-13.1211V32.2032h-7.75v-6.9219h7.75v-9.2969zm22.35938 37.08984c0 10.95703 6.19922 19.21875 15.08203 19.21875 8.6797 0 15.1914-8.16406 15.1914-19.42578 0-8.4727-4.23827-19.1133-14.98437-19.1133-10.64062 0-15.28906 9.9218-15.28906 19.3203m39.5703-.5157c0 18.4922-12.91796 26.5547-24.89843 26.5547-13.4336 0-23.9727-9.9219-23.9727-25.7266 0-16.6328 11.0586-26.4532 24.7968-26.4532 14.3633 0 24.0742 10.4375 24.0742 25.625m13.5117 5.0625c0 1.3476.1055 2.5859.418 3.7187 1.6523 6.3047 7.125 10.6406 13.6367 10.6406 9.6093 0 15.1836-7.8516 15.1836-19.3203 0-9.9141-5.2657-18.4922-14.875-18.4922-6.1993 0-12.0899 4.3398-13.7422 11.1562-.3086 1.1406-.6211 2.4843-.6211 3.6172zm-8.9882-13.3281c0-6.4063-.2032-11.5703-.4102-16.3242h8.0547l.5195 8.5742h.207c3.6172-6.0938 9.6094-9.6055 17.7695-9.6055 12.1914 0 21.2851 10.2265 21.2851 25.3086 0 17.9804-11.0547 26.8671-22.8321 26.8671-6.6133 0-12.4024-2.8946-15.3985-7.8516h-.20708v27.168h-8.9883zm64.7812-28.3086v11.9844h13.0156v6.9219h-13.0156v26.9649c0 6.2031 1.7578 9.7148 6.8203 9.7148 2.4766 0 3.9219-.207 5.2695-.6211l.414 6.9257c-1.7617.6172-4.5508 1.2383-8.0625 1.2383-4.2344 0-7.6445-1.4492-9.8125-3.8242-2.4844-2.7891-3.5117-7.2305-3.5117-13.1211V32.2031h-7.7539v-6.92185h7.7539v-9.29688zm45.625 36.4726c-9.918-.211-21.1797 1.5468-21.1797 11.2617 0 5.9883 3.9219 8.6758 8.4726 8.6758 6.6093 0 10.8515-4.1328 12.2929-8.3672.3086-1.0313.414-2.0664.414-2.8906zm8.7812 13.5312c0 4.3438.2071 8.5782.7227 11.9883h-8.1641l-.7187-6.3047h-.3125c-2.7891 3.9258-8.1602 7.4414-15.293 7.4414-10.125 0-15.289-7.1328-15.289-14.3632 0-12.0899 10.7461-18.6993 30.0664-18.5977v-1.0312c0-4.0313-1.1367-11.5742-11.3672-11.4688-4.75 0-9.6055 1.34376-13.1211 3.71876l-2.0625-6.0938c4.1289-2.5859 10.2266-4.3398 16.5273-4.3398 15.2929 0 19.0117 10.4336 19.0117 20.35154zm6.7383-61.371h9.0899V75.285h-9.0899zm0 0"/></svg>
