<svg width="51" height="50" viewBox="0 0 51 50" xmlns="http://www.w3.org/2000/svg"><path d="M25.81 0C11.994 0 .794 11.477.794 25.633c0 11.324 7.167 20.934 17.108 24.322 1.25.238 1.654-.555 1.654-1.233V43.95c-6.96 1.552-8.408-3.023-8.408-3.023-1.136-2.964-2.777-3.753-2.777-3.753-2.27-1.59.18-1.558.18-1.558 2.51.182 3.837 2.643 3.837 2.643 2.23 3.91 5.85 2.78 7.28 2.13.224-1.66.87-2.79 1.588-3.43-5.56-.65-11.4-2.85-11.4-12.67 0-2.8.978-5.09 2.578-6.88-.26-.65-1.115-3.257.24-6.787 0 0 2.1-.69 6.88 2.627 2-.566 4.14-.852 6.265-.862 2.13.01 4.27.296 6.27.863 4.776-3.314 6.87-2.626 6.87-2.626 1.364 3.53.506 6.136.248 6.783 1.604 1.792 2.575 4.08 2.575 6.88 0 9.843-5.85 12.01-11.42 12.645.896.797 1.717 2.36 1.717 4.75v7.034c0 .68.4 1.48 1.67 1.23 9.934-3.397 17.09-13 17.09-24.32C50.827 11.474 39.627 0 25.81 0z" fill="#fff" fill-rule="evenodd"/></svg>