<svg width="51" height="50" viewBox="0 0 51 50" xmlns="http://www.w3.org/2000/svg"><path d="M25.603 0C11.787 0 .587 11.193.587 25s11.2 25 25.016 25C39.42 50 50.62 38.807 50.62 25S39.42 0 25.602 0zM18.93 37.086h-5.494V19.353h5.493v17.733zM16.156 17.03c-1.794 0-3.248-1.464-3.248-3.272 0-1.807 1.453-3.272 3.247-3.272 1.793 0 3.247 1.465 3.247 3.272 0 1.808-1.454 3.273-3.247 3.273zM39.51 37.086h-5.465v-9.308c0-2.553-.97-3.978-2.99-3.978-2.2 0-3.347 1.484-3.347 3.978v9.308h-5.27V19.353h5.27v2.388s1.583-2.927 5.346-2.927 6.456 2.296 6.456 7.046v11.227z" fill="#F16C5B" fill-rule="evenodd"/></svg>