<?xml version="1.0" encoding="UTF-8" standalone="no"?>
<svg width="51px" height="50px" viewBox="0 0 51 50" version="1.1" xmlns="http://www.w3.org/2000/svg" xmlns:xlink="http://www.w3.org/1999/xlink" xmlns:sketch="http://www.bohemiancoding.com/sketch/ns">
    <!-- Generator: Sketch 3.2.2 (9983) - http://www.bohemiancoding.com/sketch -->
    <title>github-icon</title>
    <desc>Created with Sketch.</desc>
    <defs></defs>
    <g id="Welcome" stroke="none" stroke-width="1" fill="none" fill-rule="evenodd" sketch:type="MSPage">
        <g id="Desktop-HD" sketch:type="MSArtboardGroup" transform="translate(-591.000000, -2454.000000)" fill="#F16C5B">
            <g id="Group" sketch:type="MSLayerGroup" transform="translate(523.000000, 2454.000000)">
                <path d="M93.8095238,0 C79.9944472,0 68.7936508,11.4770192 68.7936508,25.6325114 C68.7936508,36.9572287 75.961427,46.5673052 85.9024435,49.9550273 C87.1523871,50.1928124 87.5555556,49.4001954 87.5555556,48.7221782 L87.5555556,43.9495539 C80.5971355,45.5015651 79.1475506,40.9270328 79.1475506,40.9270328 C78.0116357,37.9628693 76.3709102,37.1743585 76.3709102,37.1743585 C74.1009018,35.5848939 76.5418924,35.6161258 76.5418924,35.6161258 C79.0541661,35.7976687 80.3773358,38.2590119 80.3773358,38.2590119 C82.6084845,42.1764311 86.2281356,41.0438723 87.6573192,40.3888745 C87.8812476,38.7324668 88.528503,37.6020233 89.2452199,36.9615838 C83.6873244,36.3149228 77.8486682,34.1162506 77.8486682,24.2933994 C77.8486682,21.4939807 78.8258659,19.20771 80.4261532,17.4138075 C80.1655509,16.7671465 79.3103967,14.1597228 80.6664756,10.6301509 C80.6664756,10.6301509 82.7674446,9.94180598 87.5472979,13.2584788 C89.5443175,12.6910795 91.6841461,12.405389 93.8095238,12.3949369 C95.9349015,12.405389 98.0784947,12.6912039 100.075636,13.2584788 C104.851724,9.94180598 106.948443,10.6301509 106.948443,10.6301509 C108.310594,14.1595984 107.453375,16.7670221 107.194837,17.4138075 C108.799132,19.20771 109.770137,21.4939807 109.770137,24.2933994 C109.770137,34.1391456 103.917272,36.3064616 98.3473546,36.9406796 C99.2429471,37.7355363 100.063613,39.2977508 100.063613,41.6882935 L100.063613,48.7221782 C100.063613,49.4043016 100.464475,50.2032645 101.732877,49.9530365 C111.667578,46.5592173 118.825397,36.9552379 118.825397,25.6326359 C118.825397,11.4771436 107.624358,0 93.8095238,0 L93.8095238,0 Z" id="github-icon" sketch:type="MSShapeGroup"></path>
            </g>
        </g>
    </g>
</svg>