<svg width="51" height="50" viewBox="0 0 51 50" xmlns="http://www.w3.org/2000/svg"><g fill="none" fill-rule="evenodd"><g fill="#F16C5B"><g><path d="M25.81 0C11.994 0 .794 11.477.794 25.633c0 11.324 7.167 20.934 17.108 24.322 1.25.238 1.654-.555 1.654-1.233V43.95c-6.96 1.552-8.408-3.023-8.408-3.023-1.136-2.964-2.777-3.753-2.777-3.753-2.27-1.59.172-1.558.172-1.558 2.512.182 3.835 2.643 3.835 2.643 2.23 3.916 5.85 2.784 7.28 2.13.224-1.658.872-2.788 1.588-3.428-5.558-.647-11.396-2.846-11.396-12.67 0-2.798.976-5.084 2.576-6.878-.26-.647-1.116-3.254.24-6.784 0 0 2.1-.688 6.88 2.628 1.998-.567 4.138-.853 6.264-.863 2.125.01 4.268.296 6.266.863 4.776-3.316 6.872-2.628 6.872-2.628 1.363 3.53.505 6.137.247 6.784 1.604 1.794 2.575 4.08 2.575 6.88 0 9.845-5.853 12.012-11.423 12.647.896.796 1.717 2.358 1.717 4.748v7.034c0 .682.4 1.48 1.67 1.23 9.934-3.393 17.09-12.997 17.09-24.32C50.825 11.478 39.625 0 25.81 0z"/></g></g></g></svg>