<svg width="50" height="50" viewBox="0 0 50 50" xmlns="http://www.w3.org/2000/svg"><path d="M27.057 34.06c0 2.458-1.995 4.377-6.126 4.377-3.23 0-5.563-2.045-5.563-4.502 0-2.408 2.738-4.485 5.97-4.45 3.585 0 5.72 2.233 5.72 4.576zM50 25c0 13.807-11.193 25-25 25S0 38.807 0 25 11.193 0 25 0s25 11.193 25 25zm-20.16 8.775c0-2.268-.846-3.75-3.41-5.67-2.598-1.896-3.233-2.967-.753-4.885 1.398-1.08 2.378-2.522 2.378-4.3 0-1.94-.792-3.697-2.283-4.55h2.112l1.8-1.888h-8.048c-5.023 0-7.486 3.01-7.486 6.323 0 3.384 2.322 6.05 6.856 6.05-.703 1.42-.42 2.73.73 3.667-7.744 0-9.4 3.398-9.4 6.015 0 3.392 3.897 5.408 8.572 5.408 6.392 0 8.933-3.387 8.933-6.17zm10.495-17.21h-3.712v-3.712h-1.856v3.713h-3.713v1.856h3.713v3.712h1.856v-3.712h3.712v-1.856zM24.822 19.04c-.374-2.846-2.23-5.183-4.397-5.25-2.17-.063-3.624 2.117-3.25 4.965.375 2.848 2.436 4.838 4.605 4.903 2.168.065 3.416-1.768 3.042-4.616z" fill="#fff" fill-rule="evenodd"/></svg>