<?xml version="1.0" encoding="UTF-8" standalone="no"?>
<svg width="51px" height="50px" viewBox="0 0 51 50" version="1.1" xmlns="http://www.w3.org/2000/svg" xmlns:xlink="http://www.w3.org/1999/xlink" xmlns:sketch="http://www.bohemiancoding.com/sketch/ns">
    <!-- Generator: Sketch 3.2.2 (9983) - http://www.bohemiancoding.com/sketch -->
    <title>linkedin-circle-icon</title>
    <desc>Created with Sketch.</desc>
    <defs></defs>
    <g id="Welcome" stroke="none" stroke-width="1" fill="none" fill-rule="evenodd" sketch:type="MSPage">
        <g id="Desktop-HD" sketch:type="MSArtboardGroup" transform="translate(-660.000000, -2454.000000)" fill="#F16C5B">
            <g id="Group" sketch:type="MSLayerGroup" transform="translate(523.000000, 2454.000000)">
                <path d="M162.603175,0 C148.787248,0 137.587302,11.1928398 137.587302,25 C137.587302,38.8071602 148.787248,50 162.603175,50 C176.419101,50 187.619048,38.8071602 187.619048,25 C187.619048,11.1928398 176.419101,0 162.603175,0 L162.603175,0 Z M155.928915,37.0864078 L150.436474,37.0864078 L150.436474,19.353034 L155.928915,19.353034 L155.928915,37.0864078 L155.928915,37.0864078 Z M153.156525,17.0307039 C151.36279,17.0307039 149.908591,15.5656553 149.908591,13.7584951 C149.908591,11.951335 151.36279,10.4862864 153.156525,10.4862864 C154.950139,10.4862864 156.404338,11.951335 156.404338,13.7584951 C156.404338,15.5656553 154.950139,17.0307039 153.156525,17.0307039 L153.156525,17.0307039 Z M176.512,37.0864078 L171.046153,37.0864078 L171.046153,27.7777913 C171.046153,25.2247573 170.075756,23.7995146 168.055663,23.7995146 C165.857303,23.7995146 164.708637,25.2838592 164.708637,27.7777913 L164.708637,37.0864078 L159.440731,37.0864078 L159.440731,19.353034 L164.708637,19.353034 L164.708637,21.7412621 C164.708637,21.7412621 166.293016,18.8120146 170.055719,18.8120146 C173.818543,18.8120146 176.511879,21.1078883 176.511879,25.8578883 C176.512,30.6078883 176.512,37.0864078 176.512,37.0864078 L176.512,37.0864078 Z" id="linkedin-circle-icon" sketch:type="MSShapeGroup"></path>
            </g>
        </g>
    </g>
</svg>