<?xml version="1.0" encoding="UTF-8" standalone="no"?>
<svg width="51px" height="50px" viewBox="0 0 51 50" version="1.1" xmlns="http://www.w3.org/2000/svg" xmlns:xlink="http://www.w3.org/1999/xlink" xmlns:sketch="http://www.bohemiancoding.com/sketch/ns">
    <!-- Generator: Sketch 3.2.2 (9983) - http://www.bohemiancoding.com/sketch -->
    <title>rss-circle-icon</title>
    <desc>Created with Sketch.</desc>
    <defs></defs>
    <g id="Welcome" stroke="none" stroke-width="1" fill="none" fill-rule="evenodd" sketch:type="MSPage">
        <g id="Desktop-HD" sketch:type="MSArtboardGroup" transform="translate(-866.000000, -2454.000000)" fill="#F16C5B">
            <g id="Group" sketch:type="MSLayerGroup" transform="translate(523.000000, 2454.000000)">
                <path d="M368.984127,0 C355.1682,0 343.968254,11.1928398 343.968254,25 C343.968254,38.8071602 355.1682,50 368.984127,50 C382.800054,50 394,38.8071602 394,25 C394,11.1928398 382.800054,0 368.984127,0 L368.984127,0 Z M360.872548,37.207767 C358.8833,37.207767 357.270748,35.5963592 357.270748,33.6082524 C357.270748,31.620267 358.8833,30.0089806 360.872548,30.0089806 C362.861796,30.0089806 364.474227,31.620267 364.474227,33.6082524 C364.474227,35.5962379 362.861796,37.207767 360.872548,37.207767 L360.872548,37.207767 Z M369.479951,37.207767 C369.411097,30.5100728 363.972573,25.0753641 357.270748,25.006432 L357.270748,19.6740291 C366.930275,19.7429612 374.746643,27.5543689 374.81574,37.2078883 L369.479951,37.2078883 L369.479951,37.207767 Z M378.518453,37.207767 C378.502302,31.5334951 376.284512,26.201335 372.267642,22.1870146 C368.25891,18.1807039 362.936115,15.9652913 357.270748,15.9406553 L357.270748,10.6076456 C371.940979,10.6588592 383.821211,22.5427184 383.854728,37.2076456 L378.518453,37.2076456 L378.518453,37.207767 Z" id="rss-circle-icon" sketch:type="MSShapeGroup"></path>
            </g>
        </g>
    </g>
</svg>