<?xml version="1.0" encoding="UTF-8" standalone="no"?>
<svg width="51px" height="50px" viewBox="0 0 51 50" version="1.1" xmlns="http://www.w3.org/2000/svg" xmlns:xlink="http://www.w3.org/1999/xlink" xmlns:sketch="http://www.bohemiancoding.com/sketch/ns">
    <!-- Generator: Sketch 3.2.2 (9983) - http://www.bohemiancoding.com/sketch -->
    <title>stackoverflow-circle-icon</title>
    <desc>Created with Sketch.</desc>
    <defs></defs>
    <g id="Welcome" stroke="none" stroke-width="1" fill="none" fill-rule="evenodd" sketch:type="MSPage">
        <g id="Desktop-HD" sketch:type="MSArtboardGroup" transform="translate(-729.000000, -2454.000000)" fill="#F16C5B">
            <g id="Group" sketch:type="MSLayerGroup" transform="translate(523.000000, 2454.000000)">
                <path d="M231.396825,0 C217.580899,0 206.380952,11.1928398 206.380952,25 C206.380952,38.8071602 217.580899,50 231.396825,50 C245.212752,50 256.412698,38.8071602 256.412698,25 C256.412698,11.1928398 245.212752,0 231.396825,0 L231.396825,0 Z M227.728478,16.9680825 L238.028946,23.0395631 L236.731278,25.2378641 L226.430203,19.1658981 L227.728478,16.9680825 L227.728478,16.9680825 Z M224.972846,22.8569175 L236.521315,25.9592233 L235.858637,28.4242718 L224.309561,25.3216019 L224.972846,22.8569175 L224.972846,22.8569175 Z M223.827581,28.193568 L235.735622,29.2900485 L235.501614,31.831068 L223.593209,30.735801 L223.827581,28.193568 L223.827581,28.193568 Z M235.446604,32.5627427 L235.448304,35.1158981 L223.489138,35.1213592 L223.488045,32.5690534 L235.446604,32.5627427 L235.446604,32.5627427 Z M239.511683,39.1567961 L219.750479,39.1567961 L219.750479,26.7194175 L221.793402,26.7194175 L221.793402,37.1541262 L237.479083,37.1541262 L237.479083,26.7194175 L239.511683,26.7194175 L239.511683,39.1567961 L239.511683,39.1567961 Z M238.444501,22.6893204 L231.706366,12.815534 L233.816929,11.3775485 L240.554578,21.2518204 L238.444501,22.6893204 L238.444501,22.6893204 Z M241.01215,21.0967233 L238.966556,9.32184466 L241.483323,8.88531553 L243.52916,20.6601942 L241.01215,21.0967233 L241.01215,21.0967233 Z" id="stackoverflow-circle-icon" sketch:type="MSShapeGroup"></path>
            </g>
        </g>
    </g>
</svg>