<svg width="51" height="50" viewBox="0 0 51 50" xmlns="http://www.w3.org/2000/svg"><g fill="none" fill-rule="evenodd"><g fill="#F16C5B"><g><path d="M25.016 0C11.2 0 0 11.193 0 25s11.2 25 25.016 25c13.816 0 25.016-11.193 25.016-25S38.832 0 25.016 0zm12.58 20.692c.367 8.156-5.72 17.25-16.49 17.25-3.277 0-6.327-.962-8.894-2.607 3.078.363 6.15-.49 8.59-2.4-2.54-.048-4.683-1.724-5.42-4.028.908.174 1.803.123 2.62-.1-2.79-.56-4.717-3.07-4.654-5.757.782.434 1.677.695 2.628.725-2.584-1.726-3.316-5.136-1.796-7.742 2.862 3.51 7.137 5.817 11.96 6.06-.847-3.628 1.906-7.12 5.65-7.12 1.67 0 3.178.703 4.236 1.83 1.322-.26 2.563-.743 3.685-1.407-.433 1.354-1.353 2.49-2.55 3.208 1.173-.14 2.29-.452 3.332-.913-.778 1.164-1.762 2.185-2.895 3.002z"/></g></g></g></svg>