<?xml version="1.0" encoding="UTF-8" standalone="no"?>
<svg width="51px" height="50px" viewBox="0 0 51 50" version="1.1" xmlns="http://www.w3.org/2000/svg" xmlns:xlink="http://www.w3.org/1999/xlink" xmlns:sketch="http://www.bohemiancoding.com/sketch/ns">
    <!-- Generator: Sketch 3.2.2 (9983) - http://www.bohemiancoding.com/sketch -->
    <title>twitter-4-icon</title>
    <desc>Created with Sketch.</desc>
    <defs></defs>
    <g id="Welcome" stroke="none" stroke-width="1" fill="none" fill-rule="evenodd" sketch:type="MSPage">
        <g id="Desktop-HD" sketch:type="MSArtboardGroup" transform="translate(-523.000000, -2454.000000)" fill="#F16C5B">
            <g id="Group" sketch:type="MSLayerGroup" transform="translate(523.000000, 2454.000000)">
                <path d="M25.015873,0 C11.1999464,0 0,11.1928398 0,25 C0,38.8071602 11.1999464,50 25.015873,50 C38.8317997,50 50.031746,38.8071602 50.031746,25 C50.031746,11.1928398 38.8317997,0 25.015873,0 L25.015873,0 Z M37.5965499,20.6924757 C37.9634088,28.8476942 31.877387,37.940534 21.1052606,37.940534 C17.8287884,37.940534 14.7789163,36.9804612 12.2115106,35.3354369 C15.2895559,35.6979369 18.3617722,34.8446602 20.8011842,32.9342233 C18.2623159,32.8873786 16.1193299,31.211165 15.3812403,28.9074029 C16.2903122,29.0811893 17.1846904,29.0303398 18.0012279,28.8083738 C15.211108,28.2480583 13.2847644,25.7359223 13.3476684,23.0495146 C14.129718,23.4839806 15.0247033,23.7447816 15.9757923,23.7748786 C13.3918712,22.0490291 12.6602176,18.639199 14.1803569,16.0334951 C17.0417599,19.5415049 21.3171669,21.85 26.1391586,22.0917476 C25.2928692,18.4648058 28.045951,14.971966 31.7910458,14.971966 C33.4598231,14.971966 34.9678188,15.6760922 36.0260145,16.803034 C37.3477269,16.5429612 38.5892914,16.0604369 39.7105126,15.3959951 C39.2773494,16.75 38.3572267,17.8864078 37.1593793,18.6038835 C38.3330609,18.4639563 39.4513675,18.1521845 40.4917121,17.6908981 C39.7139128,18.8537621 38.7302789,19.8751214 37.5965499,20.6924757 L37.5965499,20.6924757 Z" id="twitter-4-icon" sketch:type="MSShapeGroup"></path>
            </g>
        </g>
    </g>
</svg>