<?xml version="1.0" encoding="UTF-8" standalone="no"?>
<svg width="105px" height="104px" viewBox="0 0 105 104" version="1.1" xmlns="http://www.w3.org/2000/svg" xmlns:xlink="http://www.w3.org/1999/xlink" xmlns:sketch="http://www.bohemiancoding.com/sketch/ns">
    <!-- Generator: Sketch 3.2.2 (9983) - http://www.bohemiancoding.com/sketch -->
    <title>pixel left 4</title>
    <desc>Created with Sketch.</desc>
    <defs></defs>
    <g id="Welcome" stroke="none" stroke-width="1" fill="none" fill-rule="evenodd" sketch:type="MSPage">
        <g id="Talks_detail" sketch:type="MSArtboardGroup" transform="translate(-330.000000, -1910.000000)" fill="#F4F4F4">
            <g id="Group-2" sketch:type="MSLayerGroup" transform="translate(329.000000, 1669.000000)">
                <g id="speaker-photo" transform="translate(0.000000, 62.000000)" sketch:type="MSShapeGroup">
                    <g id="pixel-left-4" transform="translate(53.500000, 231.000000) rotate(-270.000000) translate(-53.500000, -231.000000) translate(1.000000, 178.000000)">
                        <rect id="Rectangle-12" x="89.5" y="90.5" width="15" height="15"></rect>
                        <rect id="Rectangle-12" x="89.5" y="75.5" width="15" height="15"></rect>
                        <rect id="Rectangle-12" x="74.5" y="90.5" width="15" height="15"></rect>
                        <rect id="Rectangle-12" x="59.5" y="75.5" width="15" height="15"></rect>
                        <rect id="Rectangle-12" x="44.5" y="60.5" width="15" height="15"></rect>
                        <rect id="Rectangle-12" x="29.5" y="75.5" width="15" height="15"></rect>
                        <rect id="Rectangle-12" x="14.5" y="90.5" width="15" height="15"></rect>
                        <rect id="Rectangle-12" x="29.5" y="90.5" width="15" height="15"></rect>
                        <rect id="Rectangle-12" x="89.5" y="15.5" width="15" height="15"></rect>
                        <rect id="Rectangle-12" x="89.5" y="0.5" width="15" height="15"></rect>
                        <rect id="Rectangle-12" x="89.5" y="30.5" width="15" height="15"></rect>
                        <rect id="Rectangle-12" x="0.5" y="90.5" width="15" height="15"></rect>
                        <rect id="Rectangle-12" x="44.5" y="75.5" width="15" height="15"></rect>
                        <rect id="Rectangle-12" x="74.5" y="60.5" width="15" height="15"></rect>
                        <rect id="Rectangle-12" x="89.5" y="60.5" width="15" height="15"></rect>
                        <rect id="Rectangle-12" x="89.5" y="45.5" width="15" height="15"></rect>
                        <rect id="Rectangle-12" x="44.5" y="90.5" width="15" height="15"></rect>
                    </g>
                </g>
            </g>
        </g>
    </g>
</svg>