<?xml version="1.0" encoding="UTF-8" standalone="no"?>
<svg width="104px" height="105px" viewBox="0 0 104 105" version="1.1" xmlns="http://www.w3.org/2000/svg" xmlns:xlink="http://www.w3.org/1999/xlink" xmlns:sketch="http://www.bohemiancoding.com/sketch/ns">
    <!-- Generator: Sketch 3.2.2 (9983) - http://www.bohemiancoding.com/sketch -->
    <title>pixel left 4pixels_left@2x</title>
    <desc>Created with Sketch.</desc>
    <defs></defs>
    <g id="Welcome" stroke="none" stroke-width="1" fill="none" fill-rule="evenodd" sketch:type="MSPage">
        <g id="Talks_detail" sketch:type="MSArtboardGroup" transform="translate(-506.000000, -1908.000000)" fill="#F4F4F4">
            <g id="Group-2" sketch:type="MSLayerGroup" transform="translate(329.000000, 1669.000000)">
                <g id="speaker-photo" transform="translate(0.000000, 62.000000)" sketch:type="MSShapeGroup">
                    <g id="pixel-left-4" transform="translate(177.000000, 177.000000)">
                        <rect id="Rectangle-12" x="89" y="90" width="15" height="15"></rect>
                        <rect id="Rectangle-12" x="89" y="75" width="15" height="15"></rect>
                        <rect id="Rectangle-12" x="75" y="90" width="15" height="15"></rect>
                        <rect id="Rectangle-12" x="60" y="90" width="15" height="15"></rect>
                        <rect id="Rectangle-12" x="75" y="75" width="15" height="15"></rect>
                        <rect id="Rectangle-12" x="60" y="75" width="15" height="15"></rect>
                        <rect id="Rectangle-12" x="45" y="60" width="15" height="15"></rect>
                        <rect id="Rectangle-12" x="30" y="75" width="15" height="15"></rect>
                        <rect id="Rectangle-12" x="15" y="90" width="15" height="15"></rect>
                        <rect id="Rectangle-12" x="30" y="90" width="15" height="15"></rect>
                        <rect id="Rectangle-12" x="60" y="45" width="15" height="15"></rect>
                        <rect id="Rectangle-12" x="89" y="15" width="15" height="15"></rect>
                        <rect id="Rectangle-12" x="89" y="0" width="15" height="15"></rect>
                        <rect id="Rectangle-12" x="89" y="30" width="15" height="15"></rect>
                        <rect id="Rectangle-12" x="74" y="30" width="15" height="15"></rect>
                        <rect id="Rectangle-12" x="0" y="90" width="15" height="15"></rect>
                        <rect id="Rectangle-12" x="30" y="45" width="15" height="15"></rect>
                        <rect id="Rectangle-12" x="45" y="75" width="15" height="15"></rect>
                        <rect id="Rectangle-12" x="75" y="60" width="15" height="15"></rect>
                        <rect id="Rectangle-12" x="89" y="60" width="15" height="15"></rect>
                        <rect id="Rectangle-12" x="89" y="45" width="15" height="15"></rect>
                        <rect id="Rectangle-12" x="45" y="90" width="15" height="15"></rect>
                    </g>
                </g>
            </g>
        </g>
    </g>
</svg>