<svg width="135" height="103" viewBox="0 0 135 103" xmlns="http://www.w3.org/2000/svg"><g fill="none" fill-rule="evenodd"><g fill="#352134"><g><g><path id="Rectangle-12" d="M30 88H45V103H30z" transform=""/><path id="Rectangle-12" d="M45 88H60V103H45z"/><path id="Rectangle-12" d="M60 88H75V103H60z"/><path id="Rectangle-12" d="M30 73H45V88H30z"/><path id="Rectangle-12" d="M60 73H75V88H60z"/><path id="Rectangle-12" d="M75 73H90V88H75z"/><path id="Rectangle-12" d="M90 58H105V73H90z"/><path id="Rectangle-12" d="M90 73H105V88H90z"/><path id="Rectangle-12" d="M105 88H120V103H105z"/><path id="Rectangle-12" d="M120 88H135V103H120z"/><path id="Rectangle-12" d="M90 88H105V103H90z"/><path id="Rectangle-12" d="M30 58H45V73H30z"/><path id="Rectangle-12" d="M45 58H60V73H45z"/><path id="Rectangle-12" d="M30 43H45V58H30z"/><path id="Rectangle-12" d="M30 28H45V43H30z"/><path id="Rectangle-12" d="M45 28H60V43H45z"/><path id="Rectangle-12" d="M45 43H60V58H45z"/><path id="Rectangle-12" d="M60 58H75V73H60z"/><path id="Rectangle-12" d="M75 43H90V58H75z"/><path id="Rectangle-12" d="M60 43H75V58H60z"/><path id="Rectangle-12" d="M30 15H45V30H30z"/><path id="Rectangle-12" d="M30 0H45V15H30z"/><path id="Rectangle-12" d="M15 15H30V30H15z"/><path d="M0 15H15V30H0z"/></g></g></g></g></svg>