<svg width="135" height="103" viewBox="0 0 135 103" xmlns="http://www.w3.org/2000/svg"><g fill="none" fill-rule="evenodd"><g fill="#352134"><g><g><path d="M30 88h15v15H30zM45 88h15v15H45zM60 88h15v15H60zM30 73h15v15H30zM60 73h15v15H60zM75 73h15v15H75zM90 58h15v15H90zM90 73h15v15H90zM105 88h15v15h-15zM120 88h15v15h-15zM90 88h15v15H90zM30 58h15v15H30zM45 58h15v15H45zM30 43h15v15H30zM30 28h15v15H30zM45 28h15v15H45zM45 43h15v15H45zM60 58h15v15H60zM75 43h15v15H75zM60 43h15v15H60zM30 15h15v15H30zM30 0h15v15H30zM15 15h15v15H15zM0 15h15v15H0z"/></g></g></g></g></svg>