<svg xmlns="http://www.w3.org/2000/svg" width="164" height="75"><g fill="none"><g fill="#F4F4F4" stroke="#F4F4F4"><g><path d="M119.5 60H105v15h14.5-.5V60h.5zm0-15H105v15h29V45h-14.5zM90 60h15v15H90V60zm-15 0h15v15H75V60zm15-15h15v15H90V45zm-15 0h15v15H75V45zM60 30h15v15H60V30zM45 45h15v15H45V45zM30 60h15v15H30V60zm15 0h15v15H45V60zm30-45h15v15H75V15zm15 0h15v15H90V15zm59 45h15v15h-15V60zM30 45h15v15H30V45zM0 60h15v15H0V60zm134-15h15v15h-15V45zM75 0h15v15H75V0zm59 60h15v15h-15V60zM15 60h15v15H15V60zm30-45h15v15H45V15zm15 30h15v15H60V45zm30-15h15v15H90V30zm15 0h15v15h-15V30zM60 60h15v15H60V60z"/></g></g></g></svg>