<svg xmlns="http://www.w3.org/2000/svg" width="150" height="103"><g fill="none"><g fill="#fff"><g><g><path d="M90 88h15v15H90zM90 74h15v15H90zM75 88h15v15H75zM60 88h15v15H60zM75 74h15v15H75zM60 74h15v15H60zM45 60h15v15H45zM30 74h15v15H30zM15 88h15v15H15zM30 88h15v15H30zM60 45h15v15H60zM105 15h15v15h-15zM120 0h15v15h-15zM90 15h15v15H90zM90 0h15v15H90zM90 30h15v15H90zM75 30h15v15H75zM120 15h15v15h-15zM135 15h15v15h-15zM0 88h15v15H0zM30 45h15v15H30zM45 74h15v15H45zM75 60h15v15H75zM90 60h15v15H90zM90 45h15v15H90zM45 88h15v15H45z"/></g></g></g></g></svg>
