<svg xmlns="http://www.w3.org/2000/svg" width="22" height="29" viewBox="0 0 22 29">
  <path fill="#FFDC00" fill-rule="evenodd" d="M46.5710678,14.0355339 L50.0710678,17.5355339 L46.5710678,21.0355339 L50.0710678,24.5355339 L46.5355339,28.0710678 L43,24.5355339 L46.5,21.0355339 L43,17.5355339 L46.5,14.0355339 L43.0355339,10.5710678 L39.5355339,7.07106781 L43.0710678,3.53553391 L46.5710678,7.03553391 L50.0710678,10.5355339 L46.5710678,14.0355339 Z M46.6066017,-9.09050613e-13 L50.1421356,3.53553391 L46.6066017,7.07106781 L43.0710678,3.53553391 L46.6066017,-9.09050613e-13 Z M50.1421356,3.53553391 L53.6776695,7.07106781 L50.1421356,10.6066017 L46.6066017,7.07106781 L50.1421356,3.53553391 Z M53.6776695,7.07106781 L57.2132034,10.6066017 L53.6776695,14.1421356 L50.1421356,10.6066017 L53.6776695,7.07106781 Z M39.5355339,7.07106781 L43.0710678,10.6066017 L39.5355339,14.1421356 L36,10.6066017 L39.5355339,7.07106781 Z" transform="translate(-36)"/>
</svg>
