<svg xmlns="http://www.w3.org/2000/svg"><symbol viewBox="0 0 51 50" id="Sprite-facebook"><path d="M25.19 0C11.375 0 .175 11.193.175 25s11.2 25 25.015 25c13.816 0 25.016-11.193 25.016-25S39.006 0 25.19 0zm7.404 14.708h-3.496c-1.234 0-1.49.505-1.49 1.78v3.084h4.986l-.48 5.412h-4.507v16.17h-6.46v-16.1h-3.36V19.57h3.36v-4.316c0-4.05 2.167-6.166 6.974-6.166h4.48v5.618z" fill="currentColor" fill-rule="evenodd"/></symbol><symbol viewBox="0 0 51 50" id="Sprite-github"><path d="M25.81 0C11.994 0 .794 11.477.794 25.633c0 11.324 7.167 20.934 17.108 24.322 1.25.238 1.654-.555 1.654-1.233V43.95c-6.96 1.552-8.408-3.023-8.408-3.023-1.136-2.964-2.777-3.753-2.777-3.753-2.27-1.59.18-1.558.18-1.558 2.51.182 3.837 2.643 3.837 2.643 2.23 3.91 5.85 2.78 7.28 2.13.224-1.66.87-2.79 1.588-3.43-5.56-.65-11.4-2.85-11.4-12.67 0-2.8.978-5.09 2.578-6.88-.26-.65-1.115-3.257.24-6.787 0 0 2.1-.69 6.88 2.627 2-.566 4.14-.852 6.265-.862 2.13.01 4.27.296 6.27.863 4.776-3.314 6.87-2.626 6.87-2.626 1.364 3.53.506 6.136.248 6.783 1.604 1.792 2.575 4.08 2.575 6.88 0 9.843-5.85 12.01-11.42 12.645.896.797 1.717 2.36 1.717 4.75v7.034c0 .68.4 1.48 1.67 1.23 9.934-3.397 17.09-13 17.09-24.32C50.827 11.474 39.627 0 25.81 0z" fill="currentColor" fill-rule="evenodd"/></symbol><symbol viewBox="0 0 50 50" id="Sprite-google-plus"><path d="M27.057 34.06c0 2.458-1.995 4.377-6.126 4.377-3.23 0-5.563-2.045-5.563-4.502 0-2.408 2.738-4.485 5.97-4.45 3.585 0 5.72 2.233 5.72 4.576zM50 25c0 13.807-11.193 25-25 25S0 38.807 0 25 11.193 0 25 0s25 11.193 25 25zm-20.16 8.775c0-2.268-.846-3.75-3.41-5.67-2.598-1.896-3.233-2.967-.753-4.885 1.398-1.08 2.378-2.522 2.378-4.3 0-1.94-.792-3.697-2.283-4.55h2.112l1.8-1.888h-8.048c-5.023 0-7.486 3.01-7.486 6.323 0 3.384 2.322 6.05 6.856 6.05-.703 1.42-.42 2.73.73 3.667-7.744 0-9.4 3.398-9.4 6.015 0 3.392 3.897 5.408 8.572 5.408 6.392 0 8.933-3.387 8.933-6.17zm10.495-17.21h-3.712v-3.712h-1.856v3.713h-3.713v1.856h3.713v3.712h1.856v-3.712h3.712v-1.856zM24.822 19.04c-.374-2.846-2.23-5.183-4.397-5.25-2.17-.063-3.624 2.117-3.25 4.965.375 2.848 2.436 4.838 4.605 4.903 2.168.065 3.416-1.768 3.042-4.616z" fill="currentColor" fill-rule="evenodd"/></symbol><symbol viewBox="0 0 51 50" id="Sprite-linkedin"><path d="M25.603 0C11.787 0 .587 11.193.587 25s11.2 25 25.016 25C39.42 50 50.62 38.807 50.62 25S39.42 0 25.602 0zM18.93 37.086h-5.494V19.353h5.493v17.733zM16.156 17.03c-1.794 0-3.248-1.464-3.248-3.272 0-1.807 1.453-3.272 3.247-3.272 1.793 0 3.247 1.465 3.247 3.272 0 1.808-1.454 3.273-3.247 3.273zM39.51 37.086h-5.465v-9.308c0-2.553-.97-3.978-2.99-3.978-2.2 0-3.347 1.484-3.347 3.978v9.308h-5.27V19.353h5.27v2.388s1.583-2.927 5.346-2.927 6.456 2.296 6.456 7.046v11.227z" fill="currentColor" fill-rule="evenodd"/></symbol><symbol viewBox="0 0 51 50" id="Sprite-twitter"><path d="M25.016 0C11.2 0 0 11.193 0 25s11.2 25 25.016 25c13.816 0 25.016-11.193 25.016-25S38.832 0 25.016 0zm12.58 20.692c.367 8.156-5.72 17.25-16.49 17.25-3.277 0-6.327-.962-8.894-2.607 3.078.363 6.15-.49 8.59-2.4-2.54-.048-4.683-1.724-5.42-4.028.908.174 1.803.123 2.62-.1-2.79-.56-4.717-3.07-4.654-5.757.782.434 1.677.695 2.628.725-2.584-1.726-3.316-5.136-1.796-7.742 2.862 3.51 7.137 5.817 11.96 6.06-.847-3.628 1.906-7.12 5.65-7.12 1.67 0 3.178.703 4.236 1.83 1.322-.26 2.563-.743 3.685-1.407-.43 1.354-1.35 2.49-2.55 3.208 1.18-.14 2.29-.452 3.34-.913-.78 1.17-1.76 2.19-2.894 3.01z" fill="currentColor" fill-rule="evenodd"/></symbol><symbol viewBox="0 0 512 512" id="Sprite-user"> <path d="M377 170.8c0 66.2-53.7 120-120 120s-120-53.8-120-120c0-66.3 53.8-120 120-120s120 53.7 120 120zm-21 125.6c-28 22-62.5 34.4-99 34.4-36.8 0-71.8-12.6-100-35-74 27-107 122-107 165.4h412c0-43-33.3-137.3-106-164.8z" fill="currentColor"/> </symbol></svg>