<svg xmlns="http://www.w3.org/2000/svg" width="500" height="500" viewBox="0 0 500 500">
  <g fill="none" fill-rule="evenodd">
    <polygon fill="#646464" points="0 500 500 500 500 0 0 0"/>
    <polygon fill="#222222" points="13.888 486.111 486.111 486.111 486.111 13.888 13.888 13.888"/>
    <polygon fill="#222222" points="166.667 97.222 166.667 69.444 69.444 69.444 69.444 166.666 69.444 236.111 82.748 236.111 96.637 236.111 111.111 236.111 111.111 222.222 125 222.222 125 208.333 125 194.444 138.889 194.444 138.889 180.555 166.082 152.778 194.444 152.778 194.444 97.222"/>
    <polygon fill="#646464" points="208.333 83.333 222.223 83.333 222.223 69.444 208.333 69.444"/>
    <polygon fill="#646464" points="194.444 69.444 208.333 69.444 208.333 55.555 194.444 55.555"/>
    <polygon fill="#646464" points="179.971 41.666 166.667 41.666 166.667 97.222 180.556 97.222 180.556 55.556 194.445 55.556 194.445 41.666"/>
    <polygon fill="#646464" points="55.556 55.556 166.667 55.556 166.667 41.667 41.667 41.667 41.667 111.112 41.667 263.889 54.971 263.889 97.223 263.889 97.223 250 55.556 250"/>
    <polygon fill="#646464" points="207.748 83.334 166.667 83.334 166.667 97.222 208.333 97.222 208.333 138.888 222.223 138.888 222.223 97.222 222.223 83.334"/>
    <polygon fill="#646464" points="208.333 250 152.192 250 125 250 125 263.889 152.192 263.889 207.748 263.889 222.223 263.889 222.223 250 222.223 166.667 208.333 166.667"/>
    <polygon fill="#222222" points="97.222 152.778 111.111 152.778 111.111 138.889 97.222 138.889"/>
    <polygon fill="#646464" points="180.556 180.556 180.556 194.445 166.667 194.445 166.667 208.334 152.778 208.334 152.778 222.223 138.889 222.223 138.889 236.112 179.971 236.112 194.445 236.112 194.445 194.445 194.445 180.556"/>
    <polygon fill="#646464" points="166.667 138.889 166.667 125 152.192 125 138.889 125 138.889 138.889 125 138.889 125 125 110.526 125 97.223 125 97.223 138.889 111.111 138.889 111.111 152.778 97.223 152.778 97.223 138.889 83.333 138.889 83.333 152.778 83.333 166.667 97.223 166.667 97.223 180.556 111.111 180.556 111.111 194.445 125 194.445 125 208.334 138.889 208.334 138.889 194.445 152.777 194.445 152.777 180.556 166.667 180.556 166.667 166.667 180.556 166.667 180.556 152.778 180.556 138.889"/>
    <g fill="#646464" transform="translate(39 278)">
      <path d="M2.6563 171.7734L16.6913 150.2034 16.6913 150.1334 4.1783 150.1334C3.9353 150.1334 3.7273 149.9254 3.7273 149.6154L3.7273 149.0624C3.7273 148.8194 3.9353 148.6134 4.1783 148.6134L18.4203 148.6134C18.6953 148.6134 18.8693 148.8194 18.8693 149.0624L18.8693 149.6154 4.8013 171.2544 4.8013 171.2904 17.6933 171.2904C17.9703 171.2904 18.1423 171.4964 18.1423 171.7384L18.1423 172.3614C18.1423 172.6024 17.9703 172.8104 17.6933 172.8104L3.1413 172.8104C2.8643 172.8104 2.6563 172.6364 2.6563 172.3954L2.6563 171.7734zM40.0938 164.79L34.1838 150.86 34.1148 150.86 28.0998 164.79 40.0938 164.79zM23.0178 172.395L33.6648 148.336C33.7348 148.197 33.9068 148.095 34.0788 148.095L34.1838 148.095C34.3558 148.095 34.5288 148.129 34.6328 148.336L45.1758 172.395C45.2448 172.602 45.2448 172.811 44.8648 172.811L43.9658 172.811C43.7228 172.811 43.5508 172.637 43.4818 172.5L40.6818 166.139 27.4778 166.139 24.7118 172.5C24.6428 172.637 24.4688 172.811 24.2278 172.811L23.2588 172.811C23.0178 172.811 22.9138 172.672 23.0178 172.395L23.0178 172.395zM62.46 148.2666C65.952 148.2666 68.578 149.4426 70.825 151.4826 70.999 151.6546 71.033 151.9316 70.86 152.1036 70.687 152.3116 70.481 152.5196 70.308 152.6916 70.1 152.9336 69.928 152.8996 69.72 152.6916 67.784 150.8946 65.26 149.7886 62.426 149.7886 56.411 149.7886 51.676 154.6976 51.676 160.6766 51.676 166.6576 56.411 171.5656 62.426 171.5656 66.644 171.5656 69.271 169.9406 69.615 169.6646L69.615 163.1646 63.705 163.1646C63.325 163.1646 63.256 163.0286 63.256 162.7156L63.256 162.0256C63.256 161.7476 63.325 161.6096 63.705 161.6096L70.791 161.6096C71.033 161.6096 71.24 161.8176 71.24 162.0256L71.24 170.0446C71.24 170.5636 71.033 170.7366 70.756 170.9436 70.134 171.3596 66.988 173.1556 62.46 173.1556 55.513 173.1556 49.947 167.6936 49.947 160.7456 49.947 153.8316 55.513 148.2666 62.46 148.2666M89.0771 162.0254C92.3951 162.0254 95.1961 159.4324 95.1961 156.0094 95.1961 152.7254 92.3951 150.2034 89.0441 150.2034L81.7851 150.2034 81.7851 162.0254 89.0771 162.0254zM80.1261 149.0624C80.1261 148.8194 80.2971 148.6134 80.5741 148.6134L89.1461 148.6134C93.3651 148.6134 96.8551 151.7934 96.8551 156.0094 96.8551 159.5024 94.4361 162.3014 91.1521 163.2344L96.1991 172.1874C96.3711 172.4644 96.3021 172.8104 95.9571 172.8104L94.8861 172.8104C94.6421 172.8104 94.5061 172.7064 94.4011 172.5004L89.3891 163.4424C88.9401 163.4774 88.5581 163.4774 88.1091 163.4774L81.7501 163.4774 81.7501 172.3614C81.7501 172.6024 81.5421 172.8104 81.1971 172.8104L80.5741 172.8104C80.3321 172.8104 80.1261 172.6024 80.1261 172.3614L80.1261 149.0624zM105.3594 149.0625C105.3594 148.8195 105.5674 148.6135 105.8084 148.6135L119.6704 148.6135C119.9134 148.6135 120.1194 148.8195 120.1194 149.0625L120.1194 149.6505C120.1194 149.8905 119.9134 150.0985 119.6704 150.0985L107.0184 150.0985 107.0184 159.6405 117.9764 159.6405C118.2184 159.6405 118.4264 159.8465 118.4264 160.0885L118.4264 160.6765C118.4264 160.9195 118.2184 161.1255 117.9764 161.1255L107.0184 161.1255 107.0184 171.3595 119.6704 171.3595C119.9134 171.3595 120.1194 171.5655 120.1194 171.8075L120.1194 172.3615C120.1194 172.6025 119.9134 172.8105 119.6704 172.8105L105.8084 172.8105C105.5674 172.8105 105.3594 172.6025 105.3594 172.3615L105.3594 149.0625zM136.8525 159.8135C140.1015 159.8135 142.0015 157.7725 142.0015 154.9385 142.0015 151.9315 139.9275 150.1335 136.6095 150.1335L130.4215 150.1335 130.4215 159.8135 136.8525 159.8135zM137.0585 171.3595C140.4125 171.3595 142.7625 169.2145 142.7625 166.2085 142.7625 163.1315 140.1355 161.2995 136.8525 161.2995L130.3865 161.2995 130.3865 171.3595 137.0585 171.3595zM128.7965 149.0625C128.7965 148.8195 129.0045 148.6135 129.2465 148.6135L136.6095 148.6135C140.8605 148.6135 143.7645 151.0665 143.7645 154.8695 143.7645 157.6015 142.1055 159.6055 139.9625 160.4685 142.4175 161.1255 144.5265 162.9235 144.5265 166.2425 144.5265 170.1145 141.4145 172.8105 136.9195 172.8105L129.2465 172.8105C129.0045 172.8105 128.7965 172.6025 128.7965 172.3615L128.7965 149.0625zM161.6367 171.2549C164.1947 168.3509 167.7897 163.9609 170.3477 160.9199 172.0757 158.9839 172.9757 157.2549 172.9757 155.8719 172.9757 154.1089 171.7657 152.1039 168.7227 152.1039 166.8227 152.1039 165.2657 153.4179 164.3327 154.4199 164.0577 154.6969 163.6757 154.6969 163.4007 154.4199L162.2247 153.2439C162.0167 153.0379 161.9477 152.6219 162.1907 152.3459 162.1907 152.3459 164.7827 148.9579 168.8967 148.9579 173.8397 148.9579 176.4657 152.1039 176.4657 155.7339 176.4657 158.3959 175.0147 160.2279 173.1477 162.4749 171.3167 164.6879 168.8967 167.5229 166.8577 169.8369L175.6717 169.8369C176.0167 169.8369 176.3267 170.1489 176.3267 170.4939L176.3267 172.1529C176.3267 172.4999 176.0167 172.8109 175.6717 172.8109L162.2937 172.8109C161.9137 172.8109 161.6367 172.4999 161.6367 172.1529L161.6367 171.2549zM197.0342 161.0566C197.0342 155.3886 195.2022 152.1376 191.9872 152.1376 188.7382 152.1376 186.9052 155.3886 186.9052 161.0566 186.9052 166.7956 188.7382 170.0096 191.9872 170.0096 195.2022 170.0096 197.0342 166.7956 197.0342 161.0566M183.4152 161.0566C183.4152 153.4876 186.5252 148.9576 191.9872 148.9576 197.4142 148.9576 200.5262 153.4876 200.5262 161.0566 200.5262 168.6276 197.4142 173.1556 191.9872 173.1556 186.5252 173.1556 183.4152 168.6276 183.4152 161.0566M210.6895 154.5928L207.9235 155.9068C207.6125 156.0438 207.2665 155.9748 207.1635 155.6648L206.7495 154.4538C206.6445 154.1788 206.7135 153.9018 206.8525 153.7628L211.7605 149.3038 213.4555 149.3038C213.7995 149.3038 214.0775 149.6148 214.0775 149.9598L214.0775 172.1538C214.0775 172.4998 213.7995 172.8108 213.4555 172.8108L211.3445 172.8108C210.9655 172.8108 210.6895 172.4998 210.6895 172.1538L210.6895 154.5928zM222.7207 171.7734L232.0537 152.3454 221.8207 152.3454C221.4757 152.3454 221.1627 152.0354 221.1627 151.6894L221.1627 149.9604C221.1627 149.6154 221.4757 149.3034 221.8207 149.3034L235.9597 149.3034C236.3047 149.3034 236.6157 149.6154 236.6157 149.9604L236.6157 150.2034 226.4527 171.8774C226.1417 172.5674 225.9697 172.8104 225.1047 172.8104L223.5147 172.8104C223.0657 172.8104 222.7207 172.5004 222.7207 172.1534L222.7207 171.7734zM243.4951 168.3506C244.8421 168.3506 245.9151 169.4216 245.9151 170.7716 245.9151 172.0836 244.8421 173.1556 243.4951 173.1556 242.1811 173.1556 241.1091 172.0836 241.1091 170.7716 241.1091 169.4216 242.1811 168.3506 243.4951 168.3506M.6309 3.8047C.2919 2.6157.9699 1.7667 2.1569 1.7667L9.9669 1.7667C10.6449 1.7667 11.3229 2.3617 11.4929 2.9557L20.3199 36.8167 20.6589 36.8167 34.1519 1.8527C34.3219 1.3437 34.7449.9187 35.5959.9187L37.1239.9187C37.9709.9187 38.3959 1.3437 38.5649 1.8527L52.1429 36.8167 52.4839 36.8167 61.1399 2.9557C61.3089 2.3617 61.9879 1.7667 62.6679 1.7667L70.4749 1.7667C71.6619 1.7667 72.3419 2.6157 72.0029 3.8047L55.9629 60.8337C55.7929 61.5117 55.1139 62.0217 54.4349 62.0217L53.0769 62.0217C52.3149 62.0217 51.8059 61.5977 51.6349 61.0887L36.4439 22.6447 36.0209 22.6447 20.9979 61.0887C20.7429 61.5977 20.4039 62.0217 19.5549 62.0217L18.1979 62.0217C17.5209 62.0217 16.8389 61.5117 16.6699 60.8337L.6309 3.8047zM87.0342 3.3799C87.0342 2.5309 87.7122 1.7669 88.6462 1.7669L123.1842 1.7669C124.1192 1.7669 124.7972 2.5309 124.7972 3.3799L124.7972 10.3389C124.7972 11.1879 124.1192 11.9509 123.1842 11.9509L98.0652 11.9509 98.0652 25.8689 119.0282 25.8689C119.8752 25.8689 120.6392 26.6329 120.6392 27.4819L120.6392 34.5259C120.6392 35.4579 119.8752 36.1379 119.0282 36.1379L98.0652 36.1379 98.0652 50.9899 123.1842 50.9899C124.1192 50.9899 124.7972 51.7529 124.7972 52.6009L124.7972 59.5609C124.7972 60.4089 124.1192 61.1729 123.1842 61.1729L88.6462 61.1729C87.7122 61.1729 87.0342 60.4089 87.0342 59.5609L87.0342 3.3799zM163.249 51.1592C167.492 51.1592 170.887 47.8492 170.887 43.4362 170.887 39.1932 166.645 36.0532 162.232 36.0532L152.982 36.0532 152.982 51.1592 163.249 51.1592zM162.061 26.7182C166.389 26.7182 169.36 23.3242 169.36 19.0802 169.36 14.8362 166.389 11.8662 162.061 11.8662L152.982 11.8662 152.982 26.7182 162.061 26.7182zM142.033 3.3802C142.033 2.5312 142.713 1.7662 143.645 1.7662L163.079 1.7662C173.18 1.7662 180.985 8.5562 180.985 17.4682 180.985 24.0022 175.639 29.0952 171.651 30.9622 176.148 32.4032 182.683 36.9862 182.683 44.7952 182.683 54.3002 174.535 61.1732 164.183 61.1732L143.645 61.1732C142.713 61.1732 142.033 60.4092 142.033 59.5602L142.033 3.3802zM32.2012 72.1563C40.7722 72.1563 46.9682 74.8723 52.7382 80.0493 53.5022 80.7283 53.5022 81.7463 52.8242 82.4263L47.6452 87.7723C47.0522 88.4503 46.2032 88.4503 45.5232 87.7723 41.9612 84.6323 37.2082 82.7643 32.4552 82.7643 21.5922 82.7643 13.5292 91.8453 13.5292 102.5383 13.5292 113.1463 21.6772 122.1413 32.5392 122.1413 37.6332 122.1413 41.9612 120.1903 45.5232 117.3043 46.2032 116.7113 47.1372 116.7973 47.6452 117.3043L52.9082 122.7353C53.5872 123.3313 53.4182 124.4343 52.8242 125.0283 47.0522 130.6283 39.7542 133.2603 32.2012 133.2603 15.2272 133.2603 1.5632 119.7653 1.5632 102.7933 1.5632 85.8193 15.2272 72.1563 32.2012 72.1563M99.6768 112.1279L91.1908 93.4579 90.9358 93.4579 82.6178 112.1279 99.6768 112.1279zM63.0148 130.2049L89.4068 73.0909C89.6618 72.5809 90.0868 72.1559 90.8498 72.1559L91.6988 72.1559C92.5468 72.1559 92.8868 72.5809 93.1418 73.0909L119.2808 130.2049C119.7888 131.3079 119.1098 132.4109 117.8378 132.4109L110.4528 132.4109C109.1818 132.4109 108.5878 131.9009 107.9938 130.7139L103.8338 121.5479 78.4598 121.5479 74.3028 130.7139C73.9618 131.5629 73.1988 132.4109 71.8398 132.4109L64.4578 132.4109C63.1838 132.4109 62.5048 131.3079 63.0148 130.2049L63.0148 130.2049zM138.2969 73.4297C138.3819 72.7497 138.8909 72.1567 139.8249 72.1567L141.1839 72.1567C141.8629 72.1567 142.3719 72.4947 142.6259 73.0047L161.2959 113.0627 161.5509 113.0627 180.2199 73.0047C180.4769 72.4947 180.8999 72.1567 181.6639 72.1567L183.0219 72.1567C183.9549 72.1567 184.4639 72.7497 184.5489 73.4297L194.5649 130.4587C194.8179 131.6467 194.1399 132.4107 193.0359 132.4107L185.3149 132.4107C184.5489 132.4107 183.8699 131.7317 183.7009 131.1377L178.6929 98.9747 178.4389 98.9747 163.5889 132.3257C163.4169 132.8357 162.9089 133.2597 162.1449 133.2597L160.6159 133.2597C159.8549 133.2597 159.4289 132.8357 159.1749 132.3257L144.1529 98.9747 143.8999 98.9747 138.9759 131.1377C138.8909 131.7317 138.2129 132.4107 137.4489 132.4107L129.8119 132.4107C128.7079 132.4107 128.0279 131.6467 128.1979 130.4587L138.2969 73.4297zM232.168 100.502C236.921 100.502 240.909 96.682 240.909 91.676 240.909 87.009 236.921 83.444 232.168 83.444L222.324 83.444 222.324 100.502 232.168 100.502zM211.291 74.617C211.291 73.769 211.971 73.005 212.902 73.005L232.846 73.005C243.284 73.005 251.855 81.492 251.855 91.76 251.855 102.283 243.284 110.856 232.931 110.856L222.324 110.856 222.324 130.799C222.324 131.647 221.559 132.411 220.711 132.411L212.902 132.411C211.971 132.411 211.291 131.647 211.291 130.799L211.291 74.617z"/>
    </g>
  </g>
</svg>
