<svg xmlns="http://www.w3.org/2000/svg" width="140" height="140" viewBox="0 0 140 140">
  <g fill="none" fill-rule="evenodd">
    <polygon fill="#E4E4E4" points="0 140 140 140 140 0 0 0"/>
    <polygon fill="#FFFFFF" points="3.889 136.111 136.111 136.111 136.111 3.889 3.889 3.889"/>
    <polygon fill="#676767" points="58.333 23.333 62.222 23.333 62.222 19.444 58.333 19.444"/>
    <polygon fill="#676767" points="54.444 19.444 58.333 19.444 58.333 15.555 54.444 15.555"/>
    <polygon fill="#676767" points="50.406 11.667 46.667 11.667 46.667 27.222 50.556 27.222 50.556 15.556 54.444 15.556 54.444 11.667"/>
    <polygon fill="#000000" points="15.556 15.556 46.667 15.556 46.667 11.667 11.667 11.667 11.667 31.111 11.667 73.889 15.406 73.889 27.222 73.889 27.222 70 15.556 70"/>
    <polygon fill="#000000" points="58.184 23.333 46.667 23.333 46.667 27.222 58.333 27.222 58.333 38.889 62.222 38.889 62.222 27.222 62.222 23.333"/>
    <polygon fill="#000000" points="58.333 70 42.628 70 35 70 35 73.889 42.628 73.889 58.184 73.889 62.222 73.889 62.222 70 62.222 46.667 58.333 46.667"/>
    <polygon fill="#E4E4E4" points="27.222 42.778 31.111 42.778 31.111 38.889 27.222 38.889"/>
    <polygon fill="#E4E4E4" points="50.556 50.556 50.556 54.445 46.667 54.445 46.667 58.333 42.778 58.333 42.778 62.222 38.889 62.222 38.889 66.111 50.406 66.111 54.445 66.111 54.445 54.445 54.445 50.556"/>
    <polygon fill="#E4E4E4" points="27.222 42.778 31.111 42.778 31.111 38.889 27.222 38.889"/>
    <polygon fill="#E4E4E4" points="46.667 27.222 46.667 19.444 19.444 19.444 19.444 46.667 19.444 66.111 23.184 66.111 27.073 66.111 31.111 66.111 31.111 62.222 35 62.222 35 58.333 35 54.444 31.111 54.444 31.111 50.555 27.222 50.555 27.222 46.667 23.333 46.667 23.333 42.778 23.333 38.889 27.222 38.889 27.222 35 30.961 35 35 35 35 38.889 38.889 38.889 38.889 35 42.628 35 46.667 35 46.667 38.889 50.556 38.889 50.556 42.778 54.444 42.778 54.444 27.222"/>
    <polygon fill="#EC1F24" points="46.667 38.889 46.667 35 42.628 35 38.889 35 38.889 38.889 35 38.889 35 35 30.961 35 27.222 35 27.222 38.889 31.111 38.889 31.111 42.778 27.222 42.778 27.222 38.889 23.333 38.889 23.333 42.778 23.333 46.667 27.222 46.667 27.222 50.556 31.111 50.556 31.111 54.445 35 54.445 35 58.333 38.889 58.333 38.889 54.445 42.778 54.445 42.778 50.556 46.667 50.556 46.667 46.667 50.556 46.667 50.556 42.778 50.556 38.889"/>
    <g transform="translate(10.92 77.84)">
      <path fill="#EC1F24" d="M.75782 48.096552L4.68734 42.056952 4.68734 42.037352 1.1837 42.037352C1.11594 42.037352 1.05798 41.979112 1.05798 41.892312L1.05798 41.737472C1.05798 41.669432 1.11594 41.611752 1.1837 41.611752L5.17146 41.611752C5.24902 41.611752 5.29746 41.669432 5.29746 41.737472L5.29746 41.892312 1.35814 47.951232 1.35814 47.961312 4.96818 47.961312C5.04574 47.961312 5.0939 48.018992 5.0939 48.086752L5.0939 48.261192C5.0939 48.328672 5.04574 48.386912 4.96818 48.386912L.89334 48.386912C.81606 48.386912.75782 48.338192.75782 48.270712L.75782 48.096552zM11.240208 46.1412L9.585128 42.2408 9.566088 42.2408 7.881888 46.1412 11.240208 46.1412zM6.458928 48.2706L9.440088 41.53408C9.459688 41.49516 9.507848 41.4666 9.556288 41.4666L9.585128 41.4666C9.633568 41.4666 9.682288 41.47612 9.711128 41.53408L12.663168 48.2706C12.682488 48.32856 12.682488 48.38708 12.576088 48.38708L12.324368 48.38708C12.256608 48.38708 12.208448 48.33836 12.188848 48.3L11.404848 46.51892 7.707448 46.51892 6.933248 48.3C6.913648 48.33836 6.865488 48.38708 6.797728 48.38708L6.526688 48.38708C6.458928 48.38708 6.430088 48.34816 6.458928 48.2706L6.458928 48.2706zM17.502996 41.514648C18.480476 41.514648 19.216036 41.843928 19.845196 42.415128 19.893636 42.463288 19.903436 42.540848 19.854716 42.589008 19.806556 42.647248 19.748596 42.705488 19.699876 42.753648 19.641916 42.821408 19.593476 42.811888 19.535236 42.753648 18.993436 42.250488 18.286996 41.940808 17.493196 41.940808 15.809276 41.940808 14.483196 43.315328 14.483196 44.989448 14.483196 46.664128 15.809276 48.038368 17.493196 48.038368 18.674236 48.038368 19.409796 47.583368 19.506396 47.506088L19.506396 45.686088 17.851316 45.686088C17.744916 45.686088 17.725596 45.648008 17.725596 45.560368L17.725596 45.367168C17.725596 45.289328 17.744916 45.250688 17.851316 45.250688L19.835676 45.250688C19.903436 45.250688 19.961396 45.308928 19.961396 45.367168L19.961396 47.612488C19.961396 47.757808 19.903436 47.806248 19.825876 47.864208 19.651716 47.980688 18.770836 48.483568 17.502996 48.483568 15.557556 48.483568 13.999076 46.954208 13.999076 45.008768 13.999076 43.072848 15.557556 41.514648 17.502996 41.514648M24.955812 45.367112C25.884852 45.367112 26.669132 44.641072 26.669132 43.682632 26.669132 42.763112 25.884852 42.056952 24.946292 42.056952L22.913772 42.056952 22.913772 45.367112 24.955812 45.367112zM22.448972 41.737472C22.448972 41.669432 22.497412 41.611752 22.574972 41.611752L24.975132 41.611752C26.156172 41.611752 27.133652 42.502152 27.133652 43.682632 27.133652 44.660672 26.456052 45.444392 25.536532 45.705632L26.949972 48.212472C26.998132 48.290032 26.978812 48.386912 26.881932 48.386912L26.581772 48.386912C26.514012 48.386912 26.475652 48.357792 26.446532 48.300112L25.042892 45.763872C24.917172 45.773672 24.810492 45.773672 24.684772 45.773672L22.903972 45.773672 22.903972 48.261192C22.903972 48.328672 22.846012 48.386912 22.749132 48.386912L22.574972 48.386912C22.506932 48.386912 22.448972 48.328672 22.448972 48.261192L22.448972 41.737472zM29.514856 41.7375C29.514856 41.66946 29.572816 41.61178 29.640576 41.61178L33.521936 41.61178C33.589696 41.61178 33.647656 41.66946 33.647656 41.7375L33.647656 41.90214C33.647656 41.96934 33.589696 42.02758 33.521936 42.02758L29.979376 42.02758 29.979376 44.69934 33.047616 44.69934C33.115096 44.69934 33.173336 44.75702 33.173336 44.82478L33.173336 44.98942C33.173336 45.05746 33.115096 45.11514 33.047616 45.11514L29.979376 45.11514 29.979376 47.98066 33.521936 47.98066C33.589696 47.98066 33.647656 48.03834 33.647656 48.1061L33.647656 48.26122C33.647656 48.3287 33.589696 48.38694 33.521936 48.38694L29.640576 48.38694C29.572816 48.38694 29.514856 48.3287 29.514856 48.26122L29.514856 41.7375zM38.332532 44.74778C39.242252 44.74778 39.774532 44.1763 39.774532 43.38278 39.774532 42.54082 39.193812 42.03738 38.264492 42.03738L36.532132 42.03738 36.532132 44.74778 38.332532 44.74778zM38.390492 47.98066C39.329612 47.98066 39.987612 47.38006 39.987612 46.53838 39.987612 45.67682 39.252052 45.16386 38.332532 45.16386L36.522612 45.16386 36.522612 47.98066 38.390492 47.98066zM36.077412 41.7375C36.077412 41.66946 36.135372 41.61178 36.203132 41.61178L38.264492 41.61178C39.455052 41.61178 40.268452 42.29862 40.268452 43.36346 40.268452 44.12842 39.803652 44.68954 39.203332 44.93118 39.890732 45.11514 40.481252 45.61858 40.481252 46.5479 40.481252 47.63206 39.609892 48.38694 38.351572 48.38694L36.203132 48.38694C36.135372 48.38694 36.077412 48.3287 36.077412 48.26122L36.077412 41.7375zM45.27222 47.951372C45.98846 47.138252 46.99506 45.909052 47.7113 45.057572 48.19542 44.515492 48.44714 44.031372 48.44714 43.644132 48.44714 43.150492 48.10834 42.589092 47.25658 42.589092 46.7243 42.589092 46.28862 42.957012 46.02738 43.237572 45.94982 43.315132 45.84342 43.315132 45.76586 43.237572L45.43686 42.908292C45.37862 42.850612 45.35958 42.734132 45.42706 42.656852 45.42706 42.656852 46.1531 41.708212 47.30474 41.708212 48.68906 41.708212 49.42462 42.589092 49.42462 43.605492 49.42462 44.350852 49.01806 44.863812 48.49558 45.492972 47.98262 46.112612 47.30474 46.906132 46.7341 47.554332L49.20202 47.554332C49.29862 47.554332 49.3857 47.641692 49.3857 47.738292L49.3857 48.202812C49.3857 48.299972 49.29862 48.387052 49.20202 48.387052L45.45618 48.387052C45.34978 48.387052 45.27222 48.299972 45.27222 48.202812L45.27222 47.951372zM55.18352 45.095848C55.18352 43.508808 54.67056 42.598528 53.77036 42.598528 52.86064 42.598528 52.34768 43.508808 52.34768 45.095848 52.34768 46.702768 52.86064 47.602688 53.77036 47.602688 54.67056 47.602688 55.18352 46.702768 55.18352 45.095848M51.3702 45.095848C51.3702 42.976528 52.241 41.708128 53.77036 41.708128 55.28992 41.708128 56.16128 42.976528 56.16128 45.095848 56.16128 47.215728 55.28992 48.483568 53.77036 48.483568 52.241 48.483568 51.3702 47.215728 51.3702 45.095848M59.007004 43.285984L58.232524 43.653904C58.145444 43.692264 58.048844 43.672944 58.019724 43.586144L57.903524 43.247064C57.874404 43.170064 57.893724 43.092504 57.932644 43.053584L59.306884 41.805064 59.781484 41.805064C59.877804 41.805064 59.955644 41.892144 59.955644 41.988744L59.955644 48.203064C59.955644 48.299944 59.877804 48.387024 59.781484 48.387024L59.190684 48.387024C59.084284 48.387024 59.007004 48.299944 59.007004 48.203064L59.007004 43.285984zM62.37546 48.096552L64.98898 42.656712 62.12374 42.656712C62.02714 42.656712 61.9395 42.569912 61.9395 42.473032L61.9395 41.988912C61.9395 41.892312 62.02714 41.804952 62.12374 41.804952L66.08266 41.804952C66.17926 41.804952 66.26634 41.892312 66.26634 41.988912L66.26634 42.056952 63.4207 48.125672C63.33362 48.318872 63.28546 48.386912 63.04326 48.386912L62.59806 48.386912C62.47234 48.386912 62.37546 48.300112 62.37546 48.202952L62.37546 48.096552zM68.192572 47.138168C68.569732 47.138168 68.870172 47.438048 68.870172 47.816048 68.870172 48.183408 68.569732 48.483568 68.192572 48.483568 67.824652 48.483568 67.524492 48.183408 67.524492 47.816048 67.524492 47.438048 67.824652 47.138168 68.192572 47.138168"/>
      <path fill="#000000" d="M.190736 1.065316C.095816.732396.285936.494676.618296.494676L2.804536.494676C2.994656.494676 3.184776.660996 3.232376.827596L5.703656 10.308676 5.798576 10.308676 9.576896.518756C9.624216.376236 9.743216.257236 9.980936.257236L10.408496.257236C10.646216.257236 10.764936.376236 10.812536.518756L14.614376 10.308676 14.709576 10.308676 17.133256.827596C17.180856.660996 17.370696.494676 17.561096.494676L19.747336.494676C20.079696.494676 20.269816.732396 20.174896 1.065316L15.683976 17.033436C15.636096 17.223276 15.445976 17.366076 15.255856 17.366076L14.875616 17.366076C14.661976 17.366076 14.519456 17.247356 14.471856 17.104836L10.218376 6.340516 10.099656 6.340516 5.893776 17.104836C5.822376 17.247356 5.727456 17.366076 5.489736 17.366076L5.109496 17.366076C4.919656 17.366076 4.729256 17.223276 4.681936 17.033436L.190736 1.065316zM24.38338.946372C24.38338.708652 24.5735.494732 24.83502.494732L34.50594.494732C34.76746.494732 34.95758.708652 34.95758.946372L34.95758 2.894892C34.95758 3.132612 34.76746 3.346252 34.50594 3.346252L27.47234 3.346252 27.47234 7.243292 33.34198 7.243292C33.57942 7.243292 33.79306 7.457212 33.79306 7.694932L33.79306 9.667252C33.79306 9.928212 33.57942 10.118612 33.34198 10.118612L27.47234 10.118612 27.47234 14.277172 34.50594 14.277172C34.76746 14.277172 34.95758 14.490812 34.95758 14.728252L34.95758 16.677052C34.95758 16.914492 34.76746 17.128412 34.50594 17.128412L24.83502 17.128412C24.5735 17.128412 24.38338 16.914492 24.38338 16.677052L24.38338.946372zM45.723944 14.324576C46.911984 14.324576 47.862584 13.397776 47.862584 12.162136 47.862584 10.974096 46.674544 10.094616 45.438904 10.094616L42.848904 10.094616 42.848904 14.324576 45.723944 14.324576zM45.391304 7.481096C46.603144 7.481096 47.434744 6.530776 47.434744 5.342456 47.434744 4.154136 46.603144 3.322536 45.391304 3.322536L42.848904 3.322536 42.848904 7.481096 45.391304 7.481096zM39.783464.946456C39.783464.708736 39.973584.494536 40.234824.494536L45.676624.494536C48.504064.494536 50.690304 2.395736 50.690304 4.891096 50.690304 6.720616 49.193144 8.146376 48.076504 8.669416 49.335664 9.072896 51.165464 10.356136 51.165464 12.542656 51.165464 15.204056 48.884304 17.128496 45.985464 17.128496L40.234824 17.128496C39.973584 17.128496 39.783464 16.914576 39.783464 16.676856L39.783464.946456zM9.03042 20.203764C11.4303 20.203764 13.1649 20.964244 14.78078 22.413804 14.99442 22.603924 14.99442 22.888964 14.80458 23.079364L13.35502 24.576244C13.1887 24.766084 12.95098 24.766084 12.76114 24.576244 11.76294 23.697044 10.4321 23.174004 9.10154 23.174004 6.06018 23.174004 3.80254 25.716684 3.80254 28.710724 3.80254 31.680964 6.0837 34.199564 9.12534 34.199564 10.5511 34.199564 11.76294 33.653284 12.76114 32.845204 12.95098 32.679164 13.2125 32.703244 13.35502 32.845204L14.82838 34.365884C15.0185 34.532764 14.9709 34.841604 14.80458 35.007924 13.1887 36.575924 11.14498 37.312884 9.03042 37.312884 4.27798 37.312884.45206 33.534284.45206 28.782124.45206 24.029404 4.27798 20.203764 9.03042 20.203764M27.923588 31.395812L25.547228 26.168212 25.476108 26.168212 23.147068 31.395812 27.923588 31.395812zM17.658228 36.457372L25.048268 20.465452C25.119388 20.322652 25.238388 20.203652 25.452308 20.203652L25.689748 20.203652C25.927468 20.203652 26.022388 20.322652 26.093788 20.465452L33.412708 36.457372C33.555228 36.766212 33.365108 37.075052 33.008668 37.075052L30.941148 37.075052C30.584988 37.075052 30.418668 36.932252 30.252068 36.599892L29.088108 34.033412 21.983108 34.033412 20.818588 36.599892C20.723668 36.837612 20.509748 37.075052 20.129508 37.075052L18.062268 37.075052C17.705828 37.075052 17.515708 36.766212 17.658228 36.457372L17.658228 36.457372zM38.737608 20.560316C38.761128 20.369916 38.903928 20.203876 39.165168 20.203876L39.545408 20.203876C39.735528 20.203876 39.878048 20.298516 39.949448 20.441316L45.177048 31.657556 45.248448 31.657556 50.476048 20.441316C50.547448 20.298516 50.666168 20.203876 50.880088 20.203876L51.260328 20.203876C51.521568 20.203876 51.664368 20.369916 51.687888 20.560316L54.491808 36.528436C54.563208 36.861076 54.373088 37.074996 54.064248 37.074996L51.901808 37.074996C51.687888 37.074996 51.497768 36.884876 51.450168 36.718556L50.048488 27.712916 49.977088 27.712916 45.818808 37.051196C45.770928 37.193996 45.628688 37.312716 45.414768 37.312716L44.986928 37.312716C44.773008 37.312716 44.654288 37.193996 44.582888 37.051196L40.377008 27.712916 40.305888 27.712916 38.927448 36.718556C38.903928 36.884876 38.713808 37.074996 38.499888 37.074996L36.361248 37.074996C36.052408 37.074996 35.862288 36.861076 35.909608 36.528436L38.737608 20.560316zM65.020984 28.14056C66.351824 28.14056 67.468744 27.07096 67.468744 25.66928 67.468744 24.36252 66.351824 23.36432 65.020984 23.36432L62.264664 23.36432 62.264664 28.14056 65.020984 28.14056zM59.175704 20.89276C59.175704 20.65532 59.365824 20.4414 59.626784 20.4414L65.211384 20.4414C68.133744 20.4414 70.533904 22.81776 70.533904 25.6928 70.533904 28.63924 68.133744 31.03968 65.234904 31.03968L62.264664 31.03968 62.264664 36.62372C62.264664 36.86116 62.050744 37.07508 61.813024 37.07508L59.626784 37.07508C59.365824 37.07508 59.175704 36.86116 59.175704 36.62372L59.175704 20.89276z"/>
    </g>
  </g>
</svg>
