<svg xmlns="http://www.w3.org/2000/svg" width="41" height="50" viewBox="0 0 41 50">
  <g fill="none" fill-rule="evenodd">
    <polygon fill="#FFFFFF" points="28.307 12.875 28.307 6.702 6.702 6.702 6.702 28.307 6.702 43.739 9.658 43.739 12.745 43.739 15.961 43.739 15.961 40.653 19.048 40.653 19.048 37.566 19.048 34.48 22.134 34.48 22.134 31.393 28.177 25.221 34.48 25.221 34.48 12.875"/>
    <polygon fill="#000000" points="37.566 9.788 40.653 9.788 40.653 6.702 37.566 6.702"/>
    <polygon fill="#000000" points="34.48 6.702 37.566 6.702 37.566 3.615 34.48 3.615"/>
    <polygon fill="#000000" points="31.263 .529 28.307 .529 28.307 12.875 31.393 12.875 31.393 3.616 34.48 3.616 34.48 .529"/>
    <polygon fill="#000000" points="3.616 3.616 28.307 3.616 28.307 .529 .529 .529 .529 15.961 .529 49.912 3.486 49.912 12.875 49.912 12.875 46.825 3.616 46.825"/>
    <polygon fill="#000000" points="37.436 9.788 28.307 9.788 28.307 12.875 37.566 12.875 37.566 22.134 40.653 22.134 40.653 12.875 40.653 9.788"/>
    <polygon fill="#000000" points="37.566 46.825 25.09 46.825 19.048 46.825 19.048 49.912 25.09 49.912 37.436 49.912 40.653 49.912 40.653 46.825 40.653 28.307 37.566 28.307"/>
    <polygon fill="#FFFFFF" points="12.875 25.221 15.961 25.221 15.961 22.134 12.875 22.134"/>
    <polygon fill="#000000" points="31.393 31.393 31.393 34.48 28.307 34.48 28.307 37.566 25.22 37.566 25.22 40.653 22.134 40.653 22.134 43.739 31.263 43.739 34.48 43.739 34.48 34.48 34.48 31.393"/>
    <polygon fill="#000000" points="28.307 22.134 28.307 19.048 25.09 19.048 22.134 19.048 22.134 22.134 19.048 22.134 19.048 19.048 15.831 19.048 12.875 19.048 12.875 22.134 15.961 22.134 15.961 25.22 12.875 25.22 12.875 22.134 9.788 22.134 9.788 25.22 9.788 28.307 12.875 28.307 12.875 31.393 15.961 31.393 15.961 34.48 19.048 34.48 19.048 37.566 22.134 37.566 22.134 34.48 25.22 34.48 25.22 31.393 28.307 31.393 28.307 28.307 31.393 28.307 31.393 25.22 31.393 22.134"/>
  </g>
</svg>
