<?xml version="1.0" encoding="UTF-8" standalone="no"?>
<svg
   xmlns:dc="http://purl.org/dc/elements/1.1/"
   xmlns:cc="http://creativecommons.org/ns#"
   xmlns:rdf="http://www.w3.org/1999/02/22-rdf-syntax-ns#"
   xmlns:svg="http://www.w3.org/2000/svg"
   xmlns="http://www.w3.org/2000/svg"
   xmlns:sodipodi="http://sodipodi.sourceforge.net/DTD/sodipodi-0.dtd"
   xmlns:inkscape="http://www.inkscape.org/namespaces/inkscape"
   width="72.12455"
   height="85.604721"
   viewBox="0 0 72.12455 85.604721"
   version="1.1"
   id="svg871"
   sodipodi:docname="heart.svg"
   inkscape:version="0.92.3 (2405546, 2018-03-11)">
  <metadata
     id="metadata877">
    <rdf:RDF>
      <cc:Work
         rdf:about="">
        <dc:format>image/svg+xml</dc:format>
        <dc:type
           rdf:resource="http://purl.org/dc/dcmitype/StillImage" />
        <dc:title></dc:title>
      </cc:Work>
    </rdf:RDF>
  </metadata>
  <defs
     id="defs875" />
  <sodipodi:namedview
     pagecolor="#ffffff"
     bordercolor="#666666"
     borderopacity="1"
     objecttolerance="10"
     gridtolerance="10"
     guidetolerance="10"
     inkscape:pageopacity="0"
     inkscape:pageshadow="2"
     inkscape:window-width="1920"
     inkscape:window-height="1137"
     id="namedview873"
     showgrid="false"
     fit-margin-top="0"
     fit-margin-left="0"
     fit-margin-right="0"
     fit-margin-bottom="0"
     inkscape:zoom="4.747717"
     inkscape:cx="-13.124138"
     inkscape:cy="29.157359"
     inkscape:window-x="-8"
     inkscape:window-y="-8"
     inkscape:window-maximized="1"
     inkscape:current-layer="g869" />
  <g
     id="g869"
     style="fill:none;fill-rule:evenodd"
     transform="translate(-0.59574468)">
    <path
       d="M 0.59574468,85.604719 H 72.720296 V 0 H 0.59574468 Z"
       id="path847"
       inkscape:connector-curvature="0"
       style="fill:#ffffff;stroke-width:0.56231815" />
    <path
       d="M 3.882,82.088043 H 69.428468 V 3.882 H 3.882 Z"
       id="path849"
       inkscape:connector-curvature="0"
       style="fill:#000000;stroke-width:0.54251659" />
    <path
       d="m 46.578,27.17 v -7.763 h -27.17 v 46.579 h 11.644 v -3.882 h 3.882 v -7.763 h 3.881 V 50.46 l 7.802,-7.763 h 7.725 V 27.17 Z"
       id="path851"
       inkscape:connector-curvature="0"
       style="fill:#000000" />
    <path
       d="m 58.223,23.29 h 3.882 v -3.882 h -3.882 z m -3.881,-3.882 h 3.881 v -3.882 h -3.881 z m -3.844,-7.764 h -3.92 V 27.17 H 50.46 V 15.526 h 3.881 v -3.882 z"
       id="path853"
       inkscape:connector-curvature="0"
       style="fill:#ffffff" />
    <path
       d="M 15.526,15.526 H 46.578 V 11.644 H 11.644 V 73.75 H 27.171 V 69.868 H 15.526 Z m 42.735,7.763 H 46.578 v 3.881 h 11.645 v 11.645 h 3.881 V 23.29 Z M 58.223,69.868 H 34.934 v 3.881 H 62.105 V 46.578 h -3.882 z"
       id="path855"
       inkscape:connector-curvature="0"
       style="fill:#ffffff" />
    <path
       d="m 27.17,42.697 h 3.882 v -3.882 h -3.881 z"
       id="path857"
       inkscape:connector-curvature="0"
       style="fill:#000000" />
    <path
       d="m 50.46,50.46 v 3.881 h -3.882 v 3.882 h -3.881 v 3.881 h -3.882 v 3.882 H 54.342 V 50.46 Z"
       id="path859"
       inkscape:connector-curvature="0"
       style="fill:#ffffff" />
    <path
       d="m 46.578,38.815 v -3.881 h -7.763 v 3.881 H 34.934 V 34.934 H 27.17 v 3.881 h 3.881 v 3.882 H 27.17 v -3.882 h -3.882 v 7.763 h 3.882 v 3.882 h 3.881 v 3.881 h 3.882 v 3.882 h 3.881 V 54.34 h 3.882 v -3.88 h 3.881 v -3.882 h 3.882 v -7.763 z"
       id="path861"
       inkscape:connector-curvature="0"
       style="fill:#01ff70" />
  </g>
</svg>
