<?xml version="1.0" encoding="UTF-8" standalone="no"?>
<svg
   xmlns:dc="http://purl.org/dc/elements/1.1/"
   xmlns:cc="http://creativecommons.org/ns#"
   xmlns:rdf="http://www.w3.org/1999/02/22-rdf-syntax-ns#"
   xmlns:svg="http://www.w3.org/2000/svg"
   xmlns="http://www.w3.org/2000/svg"
   xmlns:xlink="http://www.w3.org/1999/xlink"
   xmlns:sodipodi="http://sodipodi.sourceforge.net/DTD/sodipodi-0.dtd"
   xmlns:inkscape="http://www.inkscape.org/namespaces/inkscape"
   id="master-artboard"
   viewBox="0 0 1400 980"
   version="1.1"
   x="0px"
   y="0px"
   style="enable-background:new 0 0 336 235.2;"
   width="1400px"
   height="980px"
   inkscape:version="0.91 r13725"
   sodipodi:docname="hero2.svg">
  <metadata
     id="metadata3636">
    <rdf:RDF>
      <cc:Work
         rdf:about="">
        <dc:format>image/svg+xml</dc:format>
        <dc:type
           rdf:resource="http://purl.org/dc/dcmitype/StillImage" />
      </cc:Work>
    </rdf:RDF>
  </metadata>
  <sodipodi:namedview
     pagecolor="#ffffff"
     bordercolor="#666666"
     borderopacity="1"
     objecttolerance="10"
     gridtolerance="10"
     guidetolerance="10"
     inkscape:pageopacity="0"
     inkscape:pageshadow="2"
     inkscape:window-width="2495"
     inkscape:window-height="1416"
     id="namedview3634"
     showgrid="false"
     inkscape:zoom="0.66309299"
     inkscape:cx="335.68253"
     inkscape:cy="391.45886"
     inkscape:window-x="1985"
     inkscape:window-y="24"
     inkscape:window-maximized="1"
     inkscape:current-layer="master-artboard" />
  <defs
     id="defs3515">
    <path
       d="M 0 304.6709899902344 L 699.2050170898438 304.6709899902344 L 699.2050170898438 1.3519999980926514 L 0 1.3519999980926514 Z"
       id="a" />
  </defs>
  <path
     d="M 690.7839965820312 43.617000579833984 L 682.364013671875 43.617000579833984 L 682.364013671875 52.03799819946289 L 690.7839965820312 52.03799819946289 L 690.7839965820312 60.459999084472656 L 699.2030029296875 60.459999084472656 L 699.2030029296875 43.617000579833984 Z"
     fill="#7FDBFF"
     transform="matrix(2, 0, 0, 2, 1.1368683772161603e-13, 184.00003051757812)"
     id="path3518"
     style="fill:#000000" />
  <path
     d="M 446.4700012207031 43.617000579833984 L 438.04901123046875 43.617000579833984 L 429.6289978027344 43.617000579833984 L 429.6289978027344 52.03799819946289 L 429.6289978027344 60.459999084472656 L 429.6289978027344 68.88099670410156 L 438.04901123046875 68.88099670410156 L 438.04901123046875 60.459999084472656 L 438.04901123046875 52.03799819946289 L 446.4700012207031 52.03799819946289 L 454.8890075683594 52.03799819946289 L 454.8890075683594 43.617000579833984 Z"
     fill="#7FDBFF"
     transform="matrix(2, 0, 0, 2, 1.1368683772161603e-13, 184.00003051757812)"
     id="path3520"
     style="fill:#000000" />
  <path
     d="M 442.30499267578125 182.6750030517578 L 442.30499267578125 56.250999450683594 L 686.5709838867188 56.250999450683594 L 686.5709838867188 165.83200073242188 L 678.1519775390625 165.83200073242188 L 678.1519775390625 174.25399780273438 L 669.7329711914062 174.25399780273438 L 669.7329711914062 182.6750030517578 Z"
     fill="#000000"
     transform="matrix(2, 0, 0, 2, 1.1368683772161603e-13, 184.00003051757812)"
     id="path3522"
     style="fill:#ffffff" />
  <path
     fill="#7FDBFF"
     d="M690.783779,52.0380892 L438.094183,52.0380892 L438.094183,186.886921 L673.945138,186.886921 L673.945138,178.466115 L682.364459,178.466115 L682.364459,170.045308 L690.783779,170.045308 L690.783779,52.0380892 Z M682.36,60.4618684 L682.36,161.620042 L673.939193,161.620042 L673.939193,170.040849 L665.519873,170.040849 L665.519873,178.463142 L446.519448,178.463142 L446.519448,60.4618684 L682.36,60.4618684 Z"
     transform="matrix(2, 0, 0, 2, 1.1368683772161603e-13, 184.00003051757812)"
     id="path3524"
     style="fill:#000000" />
  <path
     fill="#7FDBFF"
     d="M476.072972,95.5767516 L477.850467,95.5767516 C478.794204,95.5767516 479.251953,95.1457537 479.251953,94.283758 L479.251953,93.7041401 C479.251953,92.8421444 478.794204,92.4245223 477.850467,92.4245223 L476.072972,92.4245223 L476.072972,95.5767516 Z M474.56448,100.574841 L474.56448,91.1716561 L478.080828,91.1716561 C479.858323,91.1716561 480.842187,92.2491507 480.842187,94.00138 C480.842187,95.7521231 479.858323,96.8296178 478.080828,96.8296178 L476.072972,96.8296178 L476.072972,100.574841 L474.56448,100.574841 Z"
     transform="matrix(2, 0, 0, 2, 1.1368683772161603e-13, 184.26803588867188)"
     id="path3526"
     style="fill:#000000" />
  <path
     d="M 482.5299987792969 99.38899993896484 L 484.8340148925781 99.38899993896484 L 484.8340148925781 91.79100036621094 L 482.5299987792969 91.79100036621094 L 482.5299987792969 90.60700225830078 L 486.302001953125 90.60700225830078 L 486.302001953125 99.38899993896484 L 488.6059875488281 99.38899993896484 L 488.6059875488281 100.57499694824219 L 482.5299987792969 100.57499694824219 Z"
     fill="#7FDBFF"
     transform="matrix(2, 0, 0, 2, 1.1368683772161603e-13, 184.26803588867188)"
     id="path3528"
     style="fill:#000000" />
  <path
     fill="#7FDBFF"
     d="M494.792696,98.4998089 L494.792696,97.4891932 L493.486327,97.4891932 C492.408832,97.4891932 491.89758,97.8265605 491.89758,98.4463057 L491.89758,98.7153079 C491.89758,99.3350531 492.382081,99.6590446 493.162335,99.6590446 C494.106072,99.6590446 494.792696,99.1864331 494.792696,98.4998089 Z M496.23431,100.574544 C495.399066,100.574544 494.981444,100.103418 494.901189,99.4019321 L494.832824,99.4019321 C494.563822,100.237176 493.835584,100.736539 492.7462,100.736539 C491.331338,100.736539 490.415839,99.9414225 490.415839,98.6350531 C490.415839,97.2885563 491.398217,96.5603185 493.459575,96.5603185 L494.792696,96.5603185 L494.792696,96.0223142 C494.792696,95.0919533 494.29482,94.6074522 493.29758,94.6074522 C492.408832,94.6074522 491.884204,94.9849469 491.506709,95.5630786 L490.629851,94.8497028 C491.022208,94.0947134 491.964459,93.4615924 493.432824,93.4615924 C495.183567,93.4615924 496.261062,94.3384501 496.261062,95.9271975 L496.261062,99.4167941 L497.136433,99.4167941 L497.136433,100.574544 L496.23431,100.574544 Z"
     transform="matrix(2, 0, 0, 2, 1.1368683772161603e-13, 184.26803588867188)"
     id="path3530"
     style="fill:#000000" />
  <path
     d="M 498.73199462890625 100.57499694824219 L 498.73199462890625 99.28199768066406 L 502.96099853515625 94.80999755859375 L 498.8800048828125 94.80999755859375 L 498.8800048828125 93.6240005493164 L 504.60400390625 93.6240005493164 L 504.60400390625 94.91699981689453 L 500.3739929199219 99.38899993896484 L 504.739013671875 99.38899993896484 L 504.739013671875 100.57499694824219 Z"
     fill="#7FDBFF"
     transform="matrix(2, 0, 0, 2, 1.1368683772161603e-13, 184.26803588867188)"
     id="path3532"
     style="fill:#000000" />
  <path
     fill="#7FDBFF"
     d="M510.966709,98.4998089 L510.966709,97.4891932 L509.66034,97.4891932 C508.582845,97.4891932 508.071592,97.8265605 508.071592,98.4463057 L508.071592,98.7153079 C508.071592,99.3350531 508.556093,99.6590446 509.336348,99.6590446 C510.280085,99.6590446 510.966709,99.1864331 510.966709,98.4998089 Z M512.408323,100.574544 C511.573079,100.574544 511.155456,100.103418 511.075202,99.4019321 L511.006837,99.4019321 C510.737834,100.237176 510.009597,100.736539 508.920212,100.736539 C507.50535,100.736539 506.589851,99.9414225 506.589851,98.6350531 C506.589851,97.2885563 507.572229,96.5603185 509.633588,96.5603185 L510.966709,96.5603185 L510.966709,96.0223142 C510.966709,95.0919533 510.468832,94.6074522 509.471592,94.6074522 C508.582845,94.6074522 508.058217,94.9849469 507.680722,95.5630786 L506.803864,94.8497028 C507.196221,94.0947134 508.138471,93.4615924 509.606837,93.4615924 C511.35758,93.4615924 512.435074,94.3384501 512.435074,95.9271975 L512.435074,99.4167941 L513.310446,99.4167941 L513.310446,100.574544 L512.408323,100.574544 Z"
     transform="matrix(2, 0, 0, 2, 1.1368683772161603e-13, 184.26803588867188)"
     id="path3534"
     style="fill:#000000" />
  <path
     d="M 523.1129760742188 100.57499694824219 L 523.1129760742188 91.1709976196289 L 529 91.1709976196289 L 529 92.43800354003906 L 524.6229858398438 92.43800354003906 L 524.6229858398438 95.1719970703125 L 528.8400268554688 95.1719970703125 L 528.8400268554688 96.43800354003906 L 524.6229858398438 96.43800354003906 L 524.6229858398438 99.30799865722656 L 529 99.30799865722656 L 529 100.57499694824219 Z"
     fill="#7FDBFF"
     transform="matrix(2, 0, 0, 2, 1.1368683772161603e-13, 184.26803588867188)"
     id="path3536"
     style="fill:#000000" />
  <g
     id="g3638"
     style="fill:#000000">
    <path
       id="path3538"
       transform="matrix(2, 0, 0, 2, 1.1368683772161603e-13, 184.26803588867188)"
       fill="#7FDBFF"
       d="M 533.1810302734375 100.57499694824219 L 530.68798828125 93.6240005493164 L 532.2109985351562 93.6240005493164 L 533.1669921875 96.55999755859375 L 534.0700073242188 99.3479995727539 L 534.1500244140625 99.3479995727539 L 535.0540161132812 96.55999755859375 L 536.010009765625 93.6240005493164 L 537.47802734375 93.6240005493164 L 534.9860229492188 100.57499694824219 Z"
       style="fill:#000000" />
  </g>
  <path
     fill="#7FDBFF"
     d="M540.419321 96.4258174L540.419321 96.519448 543.908917 96.519448 543.908917 96.38569C543.908917 95.2948195 543.235669 94.5799575 542.210191 94.5799575 541.159448 94.5799575 540.419321 95.3483227 540.419321 96.4258174M538.93758 97.1124416C538.93758 94.8771975 540.230573 93.4623355 542.210191 93.4623355 544.164544 93.4623355 545.404034 94.8638217 545.404034 96.9103185L545.404034 97.4631847 540.419321 97.4631847 540.419321 97.6920594C540.419321 98.7829299 541.146072 99.5512951 542.345435 99.5512951 543.235669 99.5512951 543.880679 99.133673 544.27155 98.4871762L545.187049 99.2956688C544.71741 100.102675 543.745435 100.735796 542.317197 100.735796 540.190446 100.735796 538.93758 99.3224204 538.93758 97.1124416M547.348132 100.574544L547.348132 93.6235881 548.815011 93.6235881 548.815011 94.8095754 548.883376 94.8095754C549.17913 94.0813376 549.745372 93.4615924 550.891231 93.4615924 552.291231 93.4615924 553.234968 94.4187049 553.234968 96.102569L553.234968 100.574544 551.766603 100.574544 551.766603 96.3180679C551.766603 95.2138217 551.26724 94.6609554 550.324989 94.6609554 549.57 94.6609554 548.815011 95.0518259 548.815011 95.8603185L548.815011 100.574544 547.348132 100.574544zM558.761699 100.574544C557.550446 100.574544 556.984204 99.8477919 556.984204 98.8104246L556.984204 94.8095754 554.841104 94.8095754 554.841104 93.6235881 556.364459 93.6235881C556.875711 93.6235881 557.077834 93.4482166 557.077834 92.9102123L557.077834 91.1713588 558.452569 91.1713588 558.452569 93.6235881 561.416051 93.6235881 561.416051 94.8095754 558.452569 94.8095754 558.452569 99.3885563 561.416051 99.3885563 561.416051 100.574544 558.761699 100.574544zM571.257962 95.8735456C571.257962 92.7614437 572.403822 91.0107006 574.787686 91.0107006 576.606794 91.0107006 577.440552 92.0614437 577.87155 93.3410616L576.511677 93.798811C576.229299 92.9368153 575.838429 92.2635669 574.77431 92.2635669 573.441189 92.2635669 572.861571 93.3544374 572.861571 95.0784289L572.861571 96.6686624C572.861571 98.3926539 573.441189 99.4835244 574.77431 99.4835244 575.838429 99.4835244 576.229299 98.810276 576.511677 97.9482803L577.87155 98.4060297C577.440552 99.6856476 576.606794 100.736391 574.787686 100.736391 572.403822 100.736391 571.257962 98.9856476 571.257962 95.8735456M580.854352 96.4258174L580.854352 96.519448 584.343949 96.519448 584.343949 96.38569C584.343949 95.2948195 583.670701 94.5799575 582.645223 94.5799575 581.59448 94.5799575 580.854352 95.3483227 580.854352 96.4258174M579.372611 97.1124416C579.372611 94.8771975 580.665605 93.4623355 582.645223 93.4623355 584.599575 93.4623355 585.839066 94.8638217 585.839066 96.9103185L585.839066 97.4631847 580.854352 97.4631847 580.854352 97.6920594C580.854352 98.7829299 581.581104 99.5512951 582.780467 99.5512951 583.670701 99.5512951 584.315711 99.133673 584.706582 98.4871762L585.622081 99.2956688C585.152442 100.102675 584.180467 100.735796 582.752229 100.735796 580.625478 100.735796 579.372611 99.3224204 579.372611 97.1124416M587.783163 100.574544L587.783163 93.6235881 589.250042 93.6235881 589.250042 94.8095754 589.318408 94.8095754C589.614161 94.0813376 590.180403 93.4615924 591.326263 93.4615924 592.726263 93.4615924 593.67 94.4187049 593.67 96.102569L593.67 100.574544 592.201635 100.574544 592.201635 96.3180679C592.201635 95.2138217 591.702272 94.6609554 590.760021 94.6609554 590.005032 94.6609554 589.250042 95.0518259 589.250042 95.8603185L589.250042 100.574544 587.783163 100.574544zM599.19673 100.574544C597.985478 100.574544 597.419236 99.8477919 597.419236 98.8104246L597.419236 94.8095754 595.276136 94.8095754 595.276136 93.6235881 596.79949 93.6235881C597.310743 93.6235881 597.512866 93.4482166 597.512866 92.9102123L597.512866 91.1713588 598.887601 91.1713588 598.887601 93.6235881 601.851083 93.6235881 601.851083 94.8095754 598.887601 94.8095754 598.887601 99.3885563 601.851083 99.3885563 601.851083 100.574544 599.19673 100.574544zM608.01242 98.4998089L608.01242 97.4891932 606.706051 97.4891932C605.628556 97.4891932 605.117304 97.8265605 605.117304 98.4463057L605.117304 98.7153079C605.117304 99.3350531 605.601805 99.6590446 606.382059 99.6590446 607.325796 99.6590446 608.01242 99.1864331 608.01242 98.4998089zM609.454034 100.574544C608.61879 100.574544 608.201168 100.103418 608.120913 99.4019321L608.052548 99.4019321C607.785032 100.237176 607.055308 100.736539 605.965924 100.736539 604.551062 100.736539 603.635563 99.9414225 603.635563 98.6350531 603.635563 97.2885563 604.617941 96.5603185 606.679299 96.5603185L608.01242 96.5603185 608.01242 96.0223142C608.01242 95.0919533 607.514544 94.6074522 606.517304 94.6074522 605.628556 94.6074522 605.103928 94.9849469 604.726433 95.5630786L603.849575 94.8497028C604.241932 94.0947134 605.184183 93.4615924 606.652548 93.4615924 608.403291 93.4615924 609.480786 94.3384501 609.480786 95.9271975L609.480786 99.4167941 610.356157 99.4167941 610.356157 100.574544 609.454034 100.574544zM611.936879 99.3887049L613.782739 99.3887049 613.782739 94.8082378 611.936879 94.8082378 611.936879 93.6237367 615.251104 93.6237367 615.251104 95.1054777 615.331359 95.1054777C615.615223 94.3385987 616.275096 93.6237367 617.474459 93.6237367L618.458323 93.6237367 618.458323 95.0237367 617.001847 95.0237367C615.925839 95.0237367 615.251104 95.4695966 615.251104 96.1829724L615.251104 99.3887049 617.770212 99.3887049 617.770212 100.574692 611.936879 100.574692 611.936879 99.3887049zM473.958259 121.066263L474.927261 120.137389C475.642123 120.986008 476.43724 121.388769 477.447856 121.388769 478.633843 121.388769 479.292229 120.824013 479.292229 119.826773 479.292229 119.01828 478.876093 118.600658 477.743609 118.411911L476.719618 118.249915C474.940637 117.954161 474.307516 116.890042 474.307516 115.637176 474.307516 113.873057 475.547006 112.917431 477.541486 112.917431 479.023227 112.917431 480.07397 113.428684 480.720467 114.277304L479.77673 115.219554C479.265478 114.586433 478.577367 114.168811 477.541486 114.168811 476.43724 114.168811 475.83087 114.654798 475.83087 115.570297 475.83087 116.337176 476.235117 116.768174 477.394352 116.956921L478.38862 117.133779C480.087346 117.442909 480.814098 118.411911 480.814098 119.746518 480.814098 121.483885 479.602845 122.643121 477.394352 122.643121 475.763992 122.643121 474.671635 122.008514 473.958259 121.066263"
     transform="matrix(2, 0, 0, 2, 1.1368683772161603e-13, 184.26803588867188)"
     id="path3540"
     style="fill:#000000" />
  <path
     d="M 482.5299987792969 121.2959976196289 L 484.8340148925781 121.2959976196289 L 484.8340148925781 113.697998046875 L 482.5299987792969 113.697998046875 L 482.5299987792969 112.51200103759766 L 486.302001953125 112.51200103759766 L 486.302001953125 121.2959976196289 L 488.6059875488281 121.2959976196289 L 488.6059875488281 122.4800033569336 L 482.5299987792969 122.4800033569336 Z"
     fill="#7FDBFF"
     transform="matrix(2, 0, 0, 2, 1.1368683772161603e-13, 184.26803588867188)"
     id="path3542"
     style="fill:#000000" />
  <path
     fill="#7FDBFF"
     d="M494.792696,120.405945 L494.792696,119.395329 L493.486327,119.395329 C492.408832,119.395329 491.89758,119.732696 491.89758,120.352442 L491.89758,120.621444 C491.89758,121.241189 492.382081,121.56518 493.162335,121.56518 C494.106072,121.56518 494.792696,121.092569 494.792696,120.405945 Z M496.23431,122.480679 C495.399066,122.480679 494.981444,122.009554 494.901189,121.308068 L494.832824,121.308068 C494.563822,122.143312 493.835584,122.642675 492.7462,122.642675 C491.331338,122.642675 490.415839,121.847558 490.415839,120.541189 C490.415839,119.194692 491.398217,118.466454 493.459575,118.466454 L494.792696,118.466454 L494.792696,117.92845 C494.792696,116.998089 494.29482,116.513588 493.29758,116.513588 C492.408832,116.513588 491.884204,116.891083 491.506709,117.469214 L490.629851,116.755839 C491.022208,116.000849 491.964459,115.367728 493.432824,115.367728 C495.183567,115.367728 496.261062,116.244586 496.261062,117.833333 L496.261062,121.32293 L497.136433,121.32293 L497.136433,122.480679 L496.23431,122.480679 Z"
     transform="matrix(2, 0, 0, 2, 1.1368683772161603e-13, 184.26803588867188)"
     id="path3544"
     style="fill:#000000" />
  <path
     d="M 500.8330078125 122.48100280761719 L 498.3399963378906 115.52999877929688 L 499.8630065917969 115.52999877929688 L 500.8179931640625 118.46600341796875 L 501.72198486328125 121.25499725341797 L 501.802001953125 121.25499725341797 L 502.70599365234375 118.46600341796875 L 503.6619873046875 115.52999877929688 L 505.1300048828125 115.52999877929688 L 502.63800048828125 122.48100280761719 Z"
     fill="#7FDBFF"
     transform="matrix(2, 0, 0, 2, 1.1368683772161603e-13, 184.26803588867188)"
     id="path3546"
     style="fill:#000000" />
  <path
     fill="#7FDBFF"
     d="M511.586454 119.530722L511.586454 118.479979C511.586454 117.186985 510.886454 116.527113 509.822335 116.527113 508.758217 116.527113 508.058217 117.186985 508.058217 118.479979L508.058217 119.530722C508.058217 120.823715 508.758217 121.483588 509.822335 121.483588 510.886454 121.483588 511.586454 120.823715 511.586454 119.530722M506.521486 119.004607C506.521486 116.782739 507.775839 115.367877 509.822335 115.367877 511.868832 115.367877 513.121699 116.782739 513.121699 119.004607 513.121699 121.227962 511.868832 122.642824 509.822335 122.642824 507.775839 122.642824 506.521486 121.227962 506.521486 119.004607M515.000106 122.480679L515.000106 115.529724 516.466985 115.529724 516.466985 116.715711 516.53535 116.715711C516.831104 115.987473 517.397346 115.367728 518.543206 115.367728 519.943206 115.367728 520.886943 116.324841 520.886943 118.008705L520.886943 122.480679 519.418577 122.480679 519.418577 118.224204C519.418577 117.119958 518.919214 116.567091 517.976964 116.567091 517.221975 116.567091 516.466985 116.957962 516.466985 117.766454L516.466985 122.480679 515.000106 122.480679zM522.75034 121.308662L523.650977 120.50017C524.258832 121.160042 525.000446 121.524161 526.036327 121.524161 526.980064 121.524161 527.625074 121.215032 527.625074 120.526921 527.625074 119.935414 527.155435 119.773418 526.560955 119.693163L525.456709 119.516306C524.365839 119.355796 523.14121 118.964926 523.14121 117.536688 523.14121 116.123312 524.325711 115.368323 526.104692 115.368323 527.397686 115.368323 528.326561 115.772569 528.959682 116.459193L528.137813 117.321189C527.773694 116.903567 527.140573 116.485945 526.049703 116.485945 525.094076 116.485945 524.581338 116.809936 524.581338 117.416306 524.581338 118.007813 525.067325 118.169809 525.645456 118.250064L526.749703 118.426921C527.855435 118.587431 529.068174 118.964926 529.068174 120.393163 529.068174 121.793163 527.908938 122.641783 526.009575 122.641783 524.514459 122.641783 523.408726 122.117155 522.75034 121.308662"
     transform="matrix(2, 0, 0, 2, 1.1368683772161603e-13, 184.26803588867188)"
     id="path3548"
     style="fill:#000000" />
  <path
     d="M 531.22802734375 112.51300048828125 L 532.6950073242188 112.51300048828125 L 532.6950073242188 118.53299713134766 L 532.7630004882812 118.53299713134766 L 533.85498046875 117.41600036621094 L 535.8070068359375 115.52999877929688 L 537.5460205078125 115.52999877929688 L 534.72900390625 118.26399993896484 L 537.85498046875 122.48100280761719 L 536.0889892578125 122.48100280761719 L 533.6669921875 119.0999984741211 L 532.6950073242188 120.00299835205078 L 532.6950073242188 122.48100280761719 L 531.22802734375 122.48100280761719 Z"
     fill="#7FDBFF"
     transform="matrix(2, 0, 0, 2, 1.1368683772161603e-13, 184.26803588867188)"
     id="path3550"
     style="fill:#000000" />
  <path
     fill="#7FDBFF"
     d="M543.314735 120.405945L543.314735 119.395329 542.008365 119.395329C540.93087 119.395329 540.419618 119.732696 540.419618 120.352442L540.419618 120.621444C540.419618 121.241189 540.904119 121.56518 541.684374 121.56518 542.62811 121.56518 543.314735 121.092569 543.314735 120.405945zM544.756348 122.480679C543.921104 122.480679 543.503482 122.009554 543.423227 121.308068L543.354862 121.308068C543.08586 122.143312 542.357622 122.642675 541.268238 122.642675 539.853376 122.642675 538.937877 121.847558 538.937877 120.541189 538.937877 119.194692 539.920255 118.466454 541.981614 118.466454L543.314735 118.466454 543.314735 117.92845C543.314735 116.998089 542.816858 116.513588 541.819618 116.513588 540.93087 116.513588 540.406242 116.891083 540.028747 117.469214L539.15189 116.755839C539.544246 116.000849 540.486497 115.367728 541.954862 115.367728 543.705605 115.367728 544.7831 116.244586 544.7831 117.833333L544.7831 121.32293 545.658471 121.32293 545.658471 122.480679 544.756348 122.480679zM559.488896 120.405945L559.488896 119.395329 558.182527 119.395329C557.105032 119.395329 556.593779 119.732696 556.593779 120.352442L556.593779 120.621444C556.593779 121.241189 557.07828 121.56518 557.858535 121.56518 558.802272 121.56518 559.488896 121.092569 559.488896 120.405945zM560.93051 122.480679C560.095265 122.480679 559.677643 122.009554 559.597389 121.308068L559.529023 121.308068C559.260021 122.143312 558.531783 122.642675 557.442399 122.642675 556.027537 122.642675 555.112038 121.847558 555.112038 120.541189 555.112038 119.194692 556.094416 118.466454 558.155775 118.466454L559.488896 118.466454 559.488896 117.92845C559.488896 116.998089 558.991019 116.513588 557.993779 116.513588 557.105032 116.513588 556.580403 116.891083 556.202909 117.469214L555.326051 116.755839C555.718408 116.000849 556.660658 115.367728 558.129023 115.367728 559.879766 115.367728 560.957261 116.244586 560.957261 117.833333L560.957261 121.32293 561.832633 121.32293 561.832633 122.480679 560.93051 122.480679z"
     transform="matrix(2, 0, 0, 2, 1.1368683772161603e-13, 184.26803588867188)"
     id="path3552"
     style="fill:#000000" />
  <path
     d="M 565.5289916992188 122.48100280761719 L 563.0360107421875 115.52999877929688 L 564.5590209960938 115.52999877929688 L 565.5150146484375 118.46600341796875 L 566.4180297851562 121.25499725341797 L 566.4979858398438 121.25499725341797 L 567.4019775390625 118.46600341796875 L 568.3579711914062 115.52999877929688 L 569.8259887695312 115.52999877929688 L 567.333984375 122.48100280761719 Z"
     fill="#7FDBFF"
     transform="matrix(2, 0, 0, 2, 1.1368683772161603e-13, 184.26803588867188)"
     id="path3554"
     style="fill:#000000" />
  <path
     fill="#7FDBFF"
     d="M572.767346 118.331953L572.767346 118.425584 576.256943 118.425584 576.256943 118.291826C576.256943 117.199469 575.583694 116.486093 574.558217 116.486093 573.507473 116.486093 572.767346 117.254459 572.767346 118.331953M571.285605 119.018577C571.285605 116.783333 572.578599 115.368471 574.558217 115.368471 576.512569 115.368471 577.752059 116.768471 577.752059 118.816454L577.752059 119.369321 572.767346 119.369321 572.767346 119.598195C572.767346 120.689066 573.494098 121.457431 574.693461 121.457431 575.583694 121.457431 576.228705 121.039809 576.619575 120.393312L577.535074 121.201805C577.065435 122.008811 576.093461 122.641932 574.665223 122.641932 572.538471 122.641932 571.285605 121.228556 571.285605 119.018577M579.696157 122.480679L579.696157 115.529724 581.163036 115.529724 581.163036 116.715711 581.231401 116.715711C581.527155 115.987473 582.093397 115.367728 583.239257 115.367728 584.639257 115.367728 585.582994 116.324841 585.582994 118.008705L585.582994 122.480679 584.114628 122.480679 584.114628 118.224204C584.114628 117.119958 583.615265 116.567091 582.673015 116.567091 581.918025 116.567091 581.163036 116.957962 581.163036 117.766454L581.163036 122.480679 579.696157 122.480679zM590.112633 113.469108L590.112633 113.18673C590.112633 112.74087 590.383121 112.391614 591.109873 112.391614 591.851486 112.391614 592.120488 112.74087 592.120488 113.18673L592.120488 113.469108C592.120488 113.913482 591.851486 114.264225 591.123248 114.264225 590.383121 114.264225 590.112633 113.913482 590.112633 113.469108zM588.011146 121.295435L590.383121 121.295435 590.383121 116.714968 588.011146 116.714968 588.011146 115.530467 591.851486 115.530467 591.851486 121.295435 594.073355 121.295435 594.073355 122.479936 588.011146 122.479936 588.011146 121.295435zM598.860106 113.469108L598.860106 113.18673C598.860106 112.74087 599.130594 112.391614 599.857346 112.391614 600.597473 112.391614 600.867962 112.74087 600.867962 113.18673L600.867962 113.469108C600.867962 113.913482 600.597473 114.264225 599.870722 114.264225 599.130594 114.264225 598.860106 113.913482 598.860106 113.469108zM596.05862 123.989915L599.130594 123.989915 599.130594 116.714968 595.978365 116.714968 595.978365 115.530467 600.597473 115.530467 600.597473 123.410297C600.597473 124.447665 600.017856 125.174416 598.806603 125.174416L596.05862 125.174416 596.05862 123.989915zM608.01242 120.405945L608.01242 119.395329 606.706051 119.395329C605.628556 119.395329 605.117304 119.732696 605.117304 120.352442L605.117304 120.621444C605.117304 121.241189 605.601805 121.56518 606.382059 121.56518 607.325796 121.56518 608.01242 121.092569 608.01242 120.405945zM609.454034 122.480679C608.61879 122.480679 608.201168 122.009554 608.120913 121.308068L608.052548 121.308068C607.785032 122.143312 607.055308 122.642675 605.965924 122.642675 604.551062 122.642675 603.635563 121.847558 603.635563 120.541189 603.635563 119.194692 604.617941 118.466454 606.679299 118.466454L608.01242 118.466454 608.01242 117.92845C608.01242 116.998089 607.514544 116.513588 606.517304 116.513588 605.628556 116.513588 605.103928 116.891083 604.726433 117.469214L603.849575 116.755839C604.241932 116.000849 605.184183 115.367728 606.652548 115.367728 608.403291 115.367728 609.480786 116.244586 609.480786 117.833333L609.480786 121.32293 610.356157 121.32293 610.356157 122.480679 609.454034 122.480679zM624.85983 119.651996L624.85983 119.516752C624.85983 118.385754 624.201444 117.739257 623.055584 117.739257 621.9231 117.739257 621.263227 118.385754 621.263227 119.516752L621.263227 119.651996C621.263227 120.782994 621.9231 121.42949 623.055584 121.42949 624.201444 121.42949 624.85983 120.782994 624.85983 119.651996M619.714607 118.978747C619.714607 116.257516 621.558981 114.102527 623.135839 113.078535L625.15707 113.078535C622.987219 114.613779 621.747728 115.85327 621.278089 117.887877L621.37172 117.914628C621.775966 117.173015 622.409087 116.539894 623.606964 116.539894 625.223949 116.539894 626.409936 117.670892 626.409936 119.463248 626.409936 121.33586 625.088705 122.642229 623.06896 122.642229 620.967473 122.642229 619.714607 121.228854 619.714607 118.978747"
     transform="matrix(2, 0, 0, 2, 1.1368683772161603e-13, 184.26803588867188)"
     id="path3556"
     style="fill:#000000" />
  <path
     d="M 480.8680114746094 144.38699340820312 L 474.0790100097656 144.38699340820312 L 474.0790100097656 143.0540008544922 L 479.02398681640625 136.25 L 474.26800537109375 136.25 L 474.26800537109375 134.98399353027344 L 480.67999267578125 134.98399353027344 L 480.67999267578125 136.3179931640625 L 475.7359924316406 143.12100219726562 L 480.8680114746094 143.12100219726562 Z"
     fill="#7FDBFF"
     transform="matrix(2, 0, 0, 2, 1.1368683772161603e-13, 184.26803588867188)"
     id="path3558"
     style="fill:#000000" />
  <path
     fill="#7FDBFF"
     d="M486.70569 142.312229L486.70569 141.301614 485.399321 141.301614C484.321826 141.301614 483.810573 141.638981 483.810573 142.258726L483.810573 142.527728C483.810573 143.147473 484.295074 143.471465 485.075329 143.471465 486.019066 143.471465 486.70569 142.998854 486.70569 142.312229zM488.147304 144.386964C487.312059 144.386964 486.894437 143.915839 486.814183 143.214352L486.745817 143.214352C486.476815 144.049597 485.748577 144.54896 484.659193 144.54896 483.244331 144.54896 482.328832 143.753843 482.328832 142.447473 482.328832 141.100977 483.31121 140.372739 485.372569 140.372739L486.70569 140.372739 486.70569 139.834735C486.70569 138.904374 486.207813 138.419873 485.210573 138.419873 484.321826 138.419873 483.797197 138.797367 483.419703 139.375499L482.542845 138.662123C482.935202 137.907134 483.877452 137.274013 485.345817 137.274013 487.096561 137.274013 488.174055 138.15087 488.174055 139.739618L488.174055 143.229214 489.049427 143.229214 489.049427 144.386964 488.147304 144.386964zM494.981444 139.887643L494.981444 139.523524C494.981444 138.783397 494.53707 138.284034 493.593333 138.284034 492.652569 138.284034 492.206709 138.783397 492.206709 139.523524L492.206709 139.887643C492.206709 140.629257 492.652569 141.127134 493.593333 141.127134 494.53707 141.127134 494.981444 140.629257 494.981444 139.887643M494.603949 144.46811L492.193333 144.46811C491.855966 144.62862 491.680594 144.885732 491.680594 145.248365 491.680594 145.77448 492.086327 146.205478 493.108832 146.205478L494.201189 146.205478C495.305435 146.205478 495.911805 145.86811 495.911805 145.234989 495.911805 144.763864 495.587813 144.46811 494.603949 144.46811M493.634947 147.242845C491.236221 147.242845 490.402463 146.609724 490.402463 145.572357 490.402463 144.817367 490.846837 144.427983 491.613715 144.224374L491.613715 144.090616C491.14259 143.915244 490.846837 143.604628 490.846837 143.08 490.846837 142.393376 491.371465 142.084246 492.099703 141.907389L492.099703 141.84051C491.264459 141.449639 490.765096 140.709512 490.765096 139.712272 490.765096 138.230531 491.884204 137.274904 493.593333 137.274904 494.079321 137.274904 494.523694 137.355159 494.901189 137.503779L494.901189 137.274904C494.901189 136.735414 495.210318 136.331168 495.830064 136.331168L497.096306 136.331168 497.096306 137.490403 495.480807 137.490403 495.480807 137.812909C496.08569 138.230531 496.423057 138.877028 496.423057 139.712272 496.423057 141.194013 495.305435 142.137749 493.593333 142.137749 493.284204 142.137749 493.001826 142.110998 492.731338 142.056008 492.410318 142.137749 492.004586 142.353248 492.004586 142.730743 492.004586 143.161741 492.475711 143.215244 493.083567 143.215244L494.644076 143.215244C496.516688 143.215244 497.285053 143.996985 497.285053 145.141359 497.285053 146.569597 496.08569 147.242845 493.634947 147.242845M498.717155 143.201125L500.563015 143.201125 500.563015 138.620658 498.717155 138.620658 498.717155 137.436157 502.03138 137.436157 502.03138 138.917898 502.111635 138.917898C502.395499 138.151019 503.055372 137.436157 504.254735 137.436157L505.237113 137.436157 505.237113 138.836157 503.782123 138.836157C502.706115 138.836157 502.03138 139.282017 502.03138 139.995393L502.03138 143.201125 504.550488 143.201125 504.550488 144.387113 498.717155 144.387113 498.717155 143.201125zM508.071295 140.238089L508.071295 140.33172 511.560892 140.33172 511.560892 140.197962C511.560892 139.107091 510.887643 138.392229 509.862166 138.392229 508.811423 138.392229 508.071295 139.160594 508.071295 140.238089M506.589554 140.924713C506.589554 138.689469 507.882548 137.274607 509.862166 137.274607 511.816518 137.274607 513.056008 138.676093 513.056008 140.72259L513.056008 141.275456 508.071295 141.275456 508.071295 141.504331C508.071295 142.595202 508.798047 143.363567 509.99741 143.363567 510.887643 143.363567 511.532654 142.945945 511.923524 142.299448L512.839023 143.107941C512.369384 143.914947 511.39741 144.548068 509.969172 144.548068 507.84242 144.548068 506.589554 143.134692 506.589554 140.924713M519.714183 141.476837L519.714183 140.345839C519.714183 139.214841 519.081062 138.473227 517.976815 138.473227 517.128195 138.473227 516.401444 138.904225 516.401444 139.752845L516.401444 142.06983C516.401444 142.91845 517.128195 143.349448 517.976815 143.349448 519.081062 143.349448 519.714183 142.609321 519.714183 141.476837zM514.931592 134.418875L516.401444 134.418875 516.401444 138.621847 516.481699 138.621847C516.885945 137.786603 517.559193 137.273864 518.581699 137.273864 520.212059 137.273864 521.262803 138.52673 521.262803 140.912081 521.262803 143.295945 520.212059 144.548811 518.581699 144.548811 517.559193 144.548811 516.885945 144.036072 516.481699 143.200828L516.401444 143.200828 516.401444 144.386815 514.931592 144.386815 514.931592 134.418875z"
     transform="matrix(2, 0, 0, 2, 1.1368683772161603e-13, 184.26803588867188)"
     id="path3560"
     style="fill:#000000" />
  <path
     d="M 525.2420043945312 142.33900451660156 L 527.3289794921875 142.33900451660156 L 525.6589965820312 146.33999633789062 L 524.5139770507812 146.33999633789062 Z"
     fill="#7FDBFF"
     transform="matrix(2, 0, 0, 2, 1.1368683772161603e-13, 184.26803588867188)"
     id="path3562"
     style="fill:#000000" />
  <path
     fill="#7FDBFF"
     d="M538.909936 139.685966C538.909936 136.573864 540.055796 134.823121 542.43966 134.823121 544.258769 134.823121 545.092527 135.873864 545.523524 137.153482L544.163652 137.611231C543.881274 136.749236 543.490403 136.075987 542.426285 136.075987 541.093163 136.075987 540.513546 137.166858 540.513546 138.890849L540.513546 140.481083C540.513546 142.205074 541.093163 143.295945 542.426285 143.295945 543.490403 143.295945 543.881274 142.622696 544.163652 141.760701L545.523524 142.21845C545.092527 143.498068 544.258769 144.548811 542.43966 144.548811 540.055796 144.548811 538.909936 142.798068 538.909936 139.685966M547.239342 143.201125L549.085202 143.201125 549.085202 138.620658 547.239342 138.620658 547.239342 137.436157 550.553567 137.436157 550.553567 138.917898 550.633822 138.917898C550.917686 138.151019 551.577558 137.436157 552.776921 137.436157L553.759299 137.436157 553.759299 138.836157 552.30431 138.836157C551.228301 138.836157 550.553567 139.282017 550.553567 139.995393L550.553567 143.201125 553.072675 143.201125 553.072675 144.387113 547.239342 144.387113 547.239342 143.201125zM560.108493 141.437006L560.108493 140.386263C560.108493 139.09327 559.408493 138.433397 558.344374 138.433397 557.280255 138.433397 556.580255 139.09327 556.580255 140.386263L556.580255 141.437006C556.580255 142.73 557.280255 143.389873 558.344374 143.389873 559.408493 143.389873 560.108493 142.73 560.108493 141.437006M555.043524 140.910892C555.043524 138.689023 556.297877 137.274161 558.344374 137.274161 560.39087 137.274161 561.643737 138.689023 561.643737 140.910892 561.643737 143.134246 560.39087 144.549108 558.344374 144.549108 556.297877 144.549108 555.043524 143.134246 555.043524 140.910892M567.575902 142.312229L567.575902 141.301614 566.269533 141.301614C565.192038 141.301614 564.680786 141.638981 564.680786 142.258726L564.680786 142.527728C564.680786 143.147473 565.165287 143.471465 565.945541 143.471465 566.889278 143.471465 567.575902 142.998854 567.575902 142.312229zM569.017516 144.386964C568.182272 144.386964 567.76465 143.915839 567.684395 143.214352L567.61603 143.214352C567.347028 144.049597 566.61879 144.54896 565.529406 144.54896 564.114544 144.54896 563.199045 143.753843 563.199045 142.447473 563.199045 141.100977 564.181423 140.372739 566.242781 140.372739L567.575902 140.372739 567.575902 139.834735C567.575902 138.904374 567.078025 138.419873 566.080786 138.419873 565.192038 138.419873 564.66741 138.797367 564.289915 139.375499L563.413057 138.662123C563.805414 137.907134 564.747665 137.274013 566.21603 137.274013 567.966773 137.274013 569.044268 138.15087 569.044268 139.739618L569.044268 143.229214 569.919639 143.229214 569.919639 144.386964 569.017516 144.386964zM574.935711 144.386815C573.724459 144.386815 573.158217 143.660064 573.158217 142.622696L573.158217 138.621847 571.015117 138.621847 571.015117 137.43586 572.538471 137.43586C573.049724 137.43586 573.251847 137.260488 573.251847 136.722484L573.251847 134.983631 574.626582 134.983631 574.626582 137.43586 577.590064 137.43586 577.590064 138.621847 574.626582 138.621847 574.626582 143.200828 577.590064 143.200828 577.590064 144.386815 574.935711 144.386815zM582.025626 135.375393L582.025626 135.093015C582.025626 134.647155 582.296115 134.297898 583.022866 134.297898 583.76448 134.297898 584.033482 134.647155 584.033482 135.093015L584.033482 135.375393C584.033482 135.819766 583.76448 136.17051 583.036242 136.17051 582.296115 136.17051 582.025626 135.819766 582.025626 135.375393zM579.92414 143.20172L582.296115 143.20172 582.296115 138.621253 579.92414 138.621253 579.92414 137.436752 583.76448 137.436752 583.76448 143.20172 585.986348 143.20172 585.986348 144.386221 579.92414 144.386221 579.92414 143.20172zM591.836921 142.312229L591.836921 141.301614 590.530552 141.301614C589.453057 141.301614 588.941805 141.638981 588.941805 142.258726L588.941805 142.527728C588.941805 143.147473 589.426306 143.471465 590.206561 143.471465 591.150297 143.471465 591.836921 142.998854 591.836921 142.312229zM593.278535 144.386964C592.443291 144.386964 592.025669 143.915839 591.945414 143.214352L591.877049 143.214352C591.608047 144.049597 590.879809 144.54896 589.790425 144.54896 588.375563 144.54896 587.460064 143.753843 587.460064 142.447473 587.460064 141.100977 588.442442 140.372739 590.5038 140.372739L591.836921 140.372739 591.836921 139.834735C591.836921 138.904374 591.339045 138.419873 590.341805 138.419873 589.453057 138.419873 588.928429 138.797367 588.550934 139.375499L587.674076 138.662123C588.066433 137.907134 589.008684 137.274013 590.477049 137.274013 592.227792 137.274013 593.305287 138.15087 593.305287 139.739618L593.305287 143.229214 594.180658 143.229214 594.180658 144.386964 593.278535 144.386964z"
     transform="matrix(2, 0, 0, 2, 1.1368683772161603e-13, 184.26803588867188)"
     id="path3564"
     style="fill:#000000" />
  <mask
     id="b"
     fill="white">
    <use
       xlink:href="#a"
       id="use3567" />
  </mask>
  <path
     d="M 0 228.83599853515625 L 8.418999671936035 228.83599853515625 L 8.418999671936035 220.41400146484375 L 0 220.41400146484375 Z"
     fill="#FFDC00"
     mask="url(#b)"
     transform="matrix(2, 0, 0, 2, 1.1368683772161603e-13, 184.26803588867188)"
     id="path3569"
     style="fill:#000000" />
  <path
     d="M 0 9.77299976348877 L 0 18.194000244140625 L 8.418999671936035 18.194000244140625 L 8.418999671936035 9.77299976348877 L 8.418999671936035 1.3510000705718994 L 0 1.3510000705718994 Z"
     fill="#FFDC00"
     mask="url(#b)"
     transform="matrix(2, 0, 0, 2, 1.1368683772161603e-13, 184.26803588867188)"
     id="path3571"
     style="fill:#000000" />
  <path
     d="M 8.428000450134277 9.77299976348877 L 16.849000930786133 9.77299976348877 L 16.849000930786133 1.3510000705718994 L 8.428000450134277 1.3510000705718994 Z"
     fill="#FFDC00"
     mask="url(#b)"
     transform="matrix(2, 0, 0, 2, 1.1368683772161603e-13, 184.26803588867188)"
     id="path3573"
     style="fill:#000000" />
  <path
     d="M 21.055999755859375 216.2010040283203 L 21.055999755859375 207.7760009765625 L 12.640000343322754 207.7760009765625 L 12.640000343322754 30.871000289916992 L 21.048999786376953 30.871000289916992 L 21.048999786376953 22.459999084472656 L 29.469999313354492 22.459999084472656 L 29.469999313354492 14.038000106811523 L 383.3219909667969 14.038000106811523 L 383.3219909667969 22.459999084472656 L 391.7430114746094 22.459999084472656 L 391.7430114746094 216.2010040283203 Z"
     fill="#000000"
     mask="url(#b)"
     transform="matrix(2, 0, 0, 2, 1.1368683772161603e-13, 184.26803588867188)"
     id="path3575"
     style="fill:#ffffff" />
  <path
     fill="#FFDC00"
     d="M387.535308,9.82556263 L25.256327,9.82556263 L25.256327,18.2478556 L16.8370064,18.2478556 L16.8370064,26.658259 L8.42808917,26.658259 L8.42808917,211.988832 L16.8444374,211.988832 L16.8444374,220.409639 L16.8444374,220.414098 L395.954628,220.414098 L395.954628,18.2478556 L387.535308,18.2478556 L387.535308,9.82556263 Z M379.110042,18.250828 L379.110042,26.6716348 L387.529363,26.6716348 L387.529363,211.988832 L25.2682166,211.988832 L25.2682166,203.563567 L16.8533546,203.563567 L16.8533546,35.0835244 L25.2622718,35.0835244 L25.2622718,26.6716348 L33.6815924,26.6716348 L33.6815924,18.250828 L379.110042,18.250828 Z"
     mask="url(#b)"
     transform="matrix(2, 0, 0, 2, 1.1368683772161603e-13, 184.26803588867188)"
     id="path3577"
     style="fill:#000000" />
  <path
     d="M 429.6319885253906 153 L 429.6319885253906 144.5850067138672 L 421.21099853515625 144.5850067138672 L 421.21099853515625 136.1719970703125 L 412.7950134277344 136.1719970703125 L 412.7950134277344 127.7509994506836 L 404.3739929199219 127.7509994506836 L 404.3739929199219 119.3290023803711 L 395.9549865722656 119.3290023803711 L 395.9549865722656 127.7509994506836 L 395.9549865722656 136.1719970703125 L 395.9549865722656 144.5850067138672 L 395.9549865722656 144.59300231933594 L 395.9549865722656 153 L 395.9549865722656 153.00599670410156 L 395.9549865722656 161.42100524902344 L 404.3739929199219 161.42100524902344 L 412.7919921875 161.42100524902344 L 412.7950134277344 161.42100524902344 L 421.21099853515625 161.42100524902344 L 429.6289978027344 161.42100524902344 L 429.6319885253906 161.42100524902344 L 438.04901123046875 161.42100524902344 L 438.04901123046875 153 Z"
     fill="#FFDC00"
     mask="url(#b)"
     transform="matrix(2, 0, 0, 2, 1.1368683772161603e-13, 184.26803588867188)"
     id="path3579"
     style="fill:#000000" />
  <path
     d="M 54.81800079345703 53.96900177001953 L 54.81800079345703 70.2959976196289 L 51.79399871826172 70.2959976196289 L 51.79399871826172 53.96900177001953 L 45.87699890136719 53.96900177001953 L 45.87699890136719 51.42900085449219 L 60.733001708984375 51.42900085449219 L 60.733001708984375 53.96900177001953 Z"
     fill="#FFDC00"
     mask="url(#b)"
     transform="matrix(2, 0, 0, 2, 1.1368683772161603e-13, 184.26803588867188)"
     id="path3581"
     style="fill:#000000" />
  <path
     fill="#FFDC00"
     d="M66.0067304 61.9703609L66.0067304 62.1591083 73.0022718 62.1591083 73.0022718 61.88862C73.0022718 59.699448 71.6513163 58.2667516 69.5988747 58.2667516 67.4914437 58.2667516 66.0067304 59.8079406 66.0067304 61.9703609M63.0358174 63.3495541C63.0358174 58.8612314 65.6277495 56.0240764 69.5988747 56.0240764 73.5150106 56.0240764 75.9999363 58.8344798 75.9999363 62.9438217L75.9999363 64.0510403 66.0067304 64.0510403 66.0067304 64.510276C66.0067304 66.7009342 67.4646921 68.2421231 69.8693631 68.2421231 71.6513163 68.2421231 72.9472824 67.4039066 73.7305096 66.1064544L75.5689384 67.7278981C74.6222293 69.3493418 72.6767941 70.6200425 69.8158599 70.6200425 65.5460085 70.6200425 63.0358174 67.7828875 63.0358174 63.3495541M79.6249257 63.3222081C79.6249257 58.8621231 82.1098514 56.023482 86.2162208 56.023482 89.0786412 56.023482 90.7803397 57.3744374 91.6453079 59.3213588L89.3491295 60.5653079C88.8631423 59.2663694 87.8361783 58.4563907 86.2162208 58.4563907 84.0002972 58.4563907 82.7043312 59.9425902 82.7043312 62.16L82.7043312 64.4844161C82.7043312 66.6735881 83.9735456 68.1865393 86.269724 68.1865393 87.9981741 68.1865393 89.0518896 67.3215711 89.6998726 65.9706157L91.8593206 67.2948195C90.969087 69.241741 89.158896 70.6209342 86.2429724 70.6209342 82.0830998 70.6209342 79.6249257 67.782293 79.6249257 63.3222081M96.1065817 50.2925478L99.0507431 50.2925478 99.0507431 58.7267304 99.1859873 58.7267304C99.7804671 57.2672824 100.914437 56.0233333 103.210616 56.0233333 106.019533 56.0233333 107.909979 57.942017 107.909979 61.3216348L107.909979 70.2953079 104.965817 70.2953079 104.965817 61.7541189C104.965817 59.5367091 103.967091 58.4294904 102.076645 58.4294904 100.563694 58.4294904 99.0507431 59.2127176 99.0507431 60.8341614L99.0507431 70.2953079 96.1065817 70.2953079 96.1065817 50.2925478zM112.318344 70.296051L112.318344 56.3480679 115.262505 56.3480679 115.262505 58.7259873 115.397749 58.7259873C115.992229 57.2665393 117.1262 56.0225902 119.422378 56.0225902 122.231295 56.0225902 124.121741 57.9427601 124.121741 61.3208917L124.121741 70.296051 121.17758 70.296051 121.17758 61.7533758C121.17758 59.5374522 120.178854 58.4287473 118.288408 58.4287473 116.775456 58.4287473 115.262505 59.2134607 115.262505 60.8349045L115.262505 70.296051 112.318344 70.296051zM137.903121 64.3759236L137.903121 62.2684926C137.903121 59.6721019 136.500149 58.3478981 134.365966 58.3478981 132.231783 58.3478981 130.827325 59.6721019 130.827325 62.2684926L130.827325 64.3759236C130.827325 66.970828 132.231783 68.296518 134.365966 68.296518 136.500149 68.296518 137.903121 66.970828 137.903121 64.3759236M127.747919 63.3222081C127.747919 58.8621231 130.259597 56.023482 134.365966 56.023482 138.470849 56.023482 140.982527 58.8621231 140.982527 63.3222081 140.982527 67.782293 138.470849 70.6209342 134.365966 70.6209342 130.259597 70.6209342 127.747919 67.782293 127.747919 63.3222081"
     mask="url(#b)"
     transform="matrix(2, 0, 0, 2, 1.1368683772161603e-13, 184.26803588867188)"
     id="path3583"
     style="fill:#000000" />
  <path
     d="M 144.49899291992188 67.91699981689453 L 149.11900329589844 67.91699981689453 L 149.11900329589844 52.672000885009766 L 144.49899291992188 52.672000885009766 L 144.49899291992188 50.29199981689453 L 152.06300354003906 50.29199981689453 L 152.06300354003906 67.91699981689453 L 156.67999267578125 67.91699981689453 L 156.67999267578125 70.2969970703125 L 144.49899291992188 70.2969970703125 Z"
     fill="#FFDC00"
     mask="url(#b)"
     transform="matrix(2, 0, 0, 2, 1.1368683772161603e-13, 184.26803588867188)"
     id="path3585"
     style="fill:#000000" />
  <path
     fill="#FFDC00"
     d="M170.326645 64.3759236L170.326645 62.2684926C170.326645 59.6721019 168.923673 58.3478981 166.78949 58.3478981 164.655308 58.3478981 163.250849 59.6721019 163.250849 62.2684926L163.250849 64.3759236C163.250849 66.970828 164.655308 68.296518 166.78949 68.296518 168.923673 68.296518 170.326645 66.970828 170.326645 64.3759236M160.171444 63.3222081C160.171444 58.8621231 162.683121 56.023482 166.78949 56.023482 170.894374 56.023482 173.406051 58.8621231 173.406051 63.3222081 173.406051 67.782293 170.894374 70.6209342 166.78949 70.6209342 162.683121 70.6209342 160.171444 67.782293 160.171444 63.3222081M185.674777 61.2670913L185.674777 60.5373673C185.674777 59.0511677 184.783057 58.0509554 182.892611 58.0509554 181.000679 58.0509554 180.110446 59.0511677 180.110446 60.5373673L180.110446 61.2670913C180.110446 62.7532909 181.000679 63.7549894 182.892611 63.7549894 184.783057 63.7549894 185.674777 62.7532909 185.674777 61.2670913M184.918301 70.4592357L180.083694 70.4592357C179.40896 70.781741 179.058217 71.295966 179.058217 72.02569 179.058217 73.0808917 179.868195 73.9458599 181.920637 73.9458599L184.108323 73.9458599C186.324246 73.9458599 187.538471 73.2696391 187.538471 71.9989384 187.538471 71.0522293 186.889002 70.4592357 184.918301 70.4592357M182.974352 76.0265393C178.165011 76.0265393 176.49155 74.7558386 176.49155 72.6751592 176.49155 71.1607219 177.38327 70.3774947 178.922972 69.9717622L178.922972 69.7012739C177.976263 69.3490446 177.38327 68.7292994 177.38327 67.6740977 177.38327 66.2949045 178.436985 65.673673 179.893461 65.3229299L179.893461 65.1876858C178.22 64.4029724 177.221274 62.9167728 177.221274 60.9163482 177.221274 57.9424628 179.462463 56.0237792 182.892611 56.0237792 183.864586 56.0237792 184.756306 56.1857749 185.512781 56.4830149L185.512781 56.0237792C185.512781 54.9418259 186.134013 54.1303609 187.376476 54.1303609L189.916391 54.1303609 189.916391 56.4562633 186.673503 56.4562633 186.673503 57.1042463C187.889214 57.9424628 188.563949 59.2399151 188.563949 60.9163482 188.563949 63.8902335 186.324246 65.7821656 182.892611 65.7821656 182.27138 65.7821656 181.703652 65.7271762 181.164161 65.6201699 180.514692 65.7821656 179.704713 66.2146497 179.704713 66.9711253 179.704713 67.8360934 180.651423 67.944586 181.865648 67.944586L185.000042 67.944586C188.752696 67.944586 190.292399 69.5125265 190.292399 71.8101911 190.292399 74.6740977 187.889214 76.0265393 182.974352 76.0265393M203.291444 56.3477707L206.262357 56.3477707 199.509066 72.9991507C198.780828 74.7840764 197.780616 75.7025478 195.566178 75.7025478L193.216497 75.7025478 193.216497 73.3231423 196.511401 73.3231423 197.780616 70.1070064 192.164268 56.3477707 195.242187 56.3477707 197.456624 62.1870488 199.185074 66.9711253 199.348556 66.9711253 201.077006 62.1870488 203.291444 56.3477707zM235.173694 64.3759236L235.173694 62.2684926C235.173694 59.6721019 233.770722 58.3478981 231.636539 58.3478981 229.502357 58.3478981 228.097898 59.6721019 228.097898 62.2684926L228.097898 64.3759236C228.097898 66.970828 229.502357 68.296518 231.636539 68.296518 233.770722 68.296518 235.173694 66.970828 235.173694 64.3759236M225.018493 63.3222081C225.018493 58.8621231 227.53017 56.023482 231.636539 56.023482 235.741423 56.023482 238.2531 58.8621231 238.2531 63.3222081 238.2531 67.782293 235.741423 70.6209342 231.636539 70.6209342 227.53017 70.6209342 225.018493 67.782293 225.018493 63.3222081M241.799172 67.9172399L245.498323 67.9172399 245.498323 58.7265817 241.799172 58.7265817 241.799172 56.3471762 248.442484 56.3471762 248.442484 59.3210616 248.60448 59.3210616C249.172208 57.7798726 250.496412 56.3471762 252.899597 56.3471762L254.870297 56.3471762 254.870297 59.1590658 251.954374 59.1590658C249.793439 59.1590658 248.442484 60.0507856 248.442484 61.483482L248.442484 67.9172399 253.49259 67.9172399 253.49259 70.2966454 241.799172 70.2966454 241.799172 67.9172399zM262.899193 52.2119745L262.899193 51.6442463C262.899193 50.7525265 263.438684 50.0495541 264.898132 50.0495541 266.382845 50.0495541 266.923822 50.7525265 266.923822 51.6442463L266.923822 52.2119745C266.923822 53.1036943 266.382845 53.8066667 264.924883 53.8066667 263.438684 53.8066667 262.899193 53.1036943 262.899193 52.2119745zM258.685817 67.9166454L263.438684 67.9166454 263.438684 58.7259873 258.685817 58.7259873 258.685817 56.3480679 266.382845 56.3480679 266.382845 67.9166454 270.839958 67.9166454 270.839958 70.296051 258.685817 70.296051 258.685817 67.9166454zM276.761125 61.9703609L276.761125 62.1591083 283.756667 62.1591083 283.756667 61.88862C283.756667 59.699448 282.405711 58.2667516 280.35327 58.2667516 278.245839 58.2667516 276.761125 59.8079406 276.761125 61.9703609M273.790212 63.3495541C273.790212 58.8612314 276.382144 56.0240764 280.35327 56.0240764 284.269406 56.0240764 286.754331 58.8344798 286.754331 62.9438217L286.754331 64.0510403 276.761125 64.0510403 276.761125 64.510276C276.761125 66.7009342 278.219087 68.2421231 280.623758 68.2421231 282.405711 68.2421231 283.701677 67.4039066 284.484904 66.1064544L286.323333 67.7278981C285.376624 69.3493418 283.431189 70.6200425 280.570255 70.6200425 276.300403 70.6200425 273.790212 67.7828875 273.790212 63.3495541M290.649214 70.296051L290.649214 56.3480679 293.593376 56.3480679 293.593376 58.7259873 293.72862 58.7259873C294.3231 57.2665393 295.45707 56.0225902 297.753248 56.0225902 300.562166 56.0225902 302.452611 57.9427601 302.452611 61.3208917L302.452611 70.296051 299.50845 70.296051 299.50845 61.7533758C299.50845 59.5374522 298.509724 58.4287473 296.619278 58.4287473 295.106327 58.4287473 293.593376 59.2134607 293.593376 60.8349045L293.593376 70.296051 290.649214 70.296051zM313.532972 70.296051C311.10155 70.296051 309.969066 68.836603 309.969066 66.7544374L309.969066 58.7259873 305.673949 58.7259873 305.673949 56.3480679 308.725117 56.3480679C309.752081 56.3480679 310.157813 55.9958386 310.157813 54.9153715L310.157813 51.4287473 312.911741 51.4287473 312.911741 56.3480679 318.853567 56.3480679 318.853567 58.7259873 312.911741 58.7259873 312.911741 67.9166454 318.853567 67.9166454 318.853567 70.296051 313.532972 70.296051zM325.396412 61.9703609L325.396412 62.1591083 332.391953 62.1591083 332.391953 61.88862C332.391953 59.699448 331.040998 58.2667516 328.988556 58.2667516 326.881125 58.2667516 325.396412 59.8079406 325.396412 61.9703609M322.425499 63.3495541C322.425499 58.8612314 325.017431 56.0240764 328.988556 56.0240764 332.904692 56.0240764 335.389618 58.8344798 335.389618 62.9438217L335.389618 64.0510403 325.396412 64.0510403 325.396412 64.510276C325.396412 66.7009342 326.854374 68.2421231 329.259045 68.2421231 331.040998 68.2421231 332.336964 67.4039066 333.120191 66.1064544L334.95862 67.7278981C334.011911 69.3493418 332.066476 70.6200425 329.205541 70.6200425 324.93569 70.6200425 322.425499 67.7828875 322.425499 63.3495541M348.143737 65.6466242L348.143737 60.9977919C348.143737 59.2946072 346.685775 58.4296391 344.984076 58.4296391 342.769639 58.4296391 341.498938 59.9158386 341.498938 62.1867516L341.498938 64.4576645C341.498938 66.7285775 342.769639 68.2147771 344.984076 68.2147771 346.685775 68.2147771 348.143737 67.3498089 348.143737 65.6466242zM348.143737 67.9175372L347.983227 67.9175372C347.171762 69.5939703 345.822293 70.6209342 343.769851 70.6209342 340.500212 70.6209342 338.392781 68.1062845 338.392781 63.3222081 338.392781 58.5366454 340.500212 56.023482 343.769851 56.023482 345.822293 56.023482 347.171762 57.0504459 347.983227 58.726879L348.143737 58.726879 348.143737 50.2926964 351.087898 50.2926964 351.087898 70.2954565 348.143737 70.2954565 348.143737 67.9175372zM47.2014013 99.1216348C47.2014013 94.6615499 49.686327 91.8229087 53.7926964 91.8229087 56.6551168 91.8229087 58.3568153 93.1738641 59.2217834 95.1207856L56.9256051 96.3647346C56.4396178 95.0657962 55.4126539 94.2558174 53.7926964 94.2558174 51.5767728 94.2558174 50.2808068 95.742017 50.2808068 97.9594268L50.2808068 100.283843C50.2808068 102.473015 51.5500212 103.985966 53.8461996 103.985966 55.5746497 103.985966 56.6283652 103.120998 57.2763482 101.770042L59.4357962 103.094246C58.5455626 105.041168 56.7353715 106.420361 53.819448 106.420361 49.6595754 106.420361 47.2014013 103.58172 47.2014013 99.1216348M73.0560722 100.17535L73.0560722 98.0679193C73.0560722 95.4715287 71.6516136 94.1473248 69.517431 94.1473248 67.3847346 94.1473248 65.9787898 95.4715287 65.9787898 98.0679193L65.9787898 100.17535C65.9787898 102.770255 67.3847346 104.095945 69.517431 104.095945 71.6516136 104.095945 73.0560722 102.770255 73.0560722 100.17535M62.9008705 99.1216348C62.9008705 94.6615499 65.4110616 91.8229087 69.517431 91.8229087 73.6238004 91.8229087 76.1339915 94.6615499 76.1339915 99.1216348 76.1339915 103.58172 73.6238004 106.420361 69.517431 106.420361 65.4110616 106.420361 62.9008705 103.58172 62.9008705 99.1216348M79.8948195 106.095478L79.8948195 92.1474947 82.8389809 92.1474947 82.8389809 94.525414 82.9742251 94.525414C83.5687049 93.065966 84.7026752 91.822017 86.9988535 91.822017 89.8077707 91.822017 91.6982166 93.7421868 91.6982166 97.1203185L91.6982166 106.095478 88.7540552 106.095478 88.7540552 97.5528025C88.7540552 95.336879 87.7553291 94.2281741 85.8648832 94.2281741 84.3519321 94.2281741 82.8389809 95.0128875 82.8389809 96.6343312L82.8389809 106.095478 79.8948195 106.095478zM95.9454777 103.716667L100.401104 103.716667 100.401104 94.5260085 95.6749894 94.5260085 95.6749894 92.146603 100.401104 92.146603 100.401104 89.6334395C100.401104 87.5512739 101.536561 86.0918259 103.966497 86.0918259L108.667346 86.0918259 108.667346 88.4712314 103.345265 88.4712314 103.345265 92.146603 108.667346 92.146603 108.667346 94.5260085 103.345265 94.5260085 103.345265 103.716667 108.046115 103.716667 108.046115 106.096072 95.9454777 106.096072 95.9454777 103.716667zM114.642017 97.7696391L114.642017 97.9583864 121.637558 97.9583864 121.637558 97.6878981C121.637558 95.4987261 120.286603 94.0660297 118.234161 94.0660297 116.12673 94.0660297 114.642017 95.6072187 114.642017 97.7696391M111.671104 99.1488323C111.671104 94.6605096 114.263036 91.8233546 118.234161 91.8233546 122.150297 91.8233546 124.635223 94.633758 124.635223 98.7430998L124.635223 99.8503185 114.642017 99.8503185 114.642017 100.309554C114.642017 102.500212 116.099979 104.041401 118.50465 104.041401 120.286603 104.041401 121.582569 103.203185 122.365796 101.905732L124.204225 103.527176C123.257516 105.14862 121.312081 106.419321 118.451146 106.419321 114.181295 106.419321 111.671104 103.582166 111.671104 99.1488323M128.31535 103.716667L132.015987 103.716667 132.015987 94.5260085 128.31535 94.5260085 128.31535 92.146603 134.960149 92.146603 134.960149 95.1204883 135.122144 95.1204883C135.688386 93.5792994 137.01259 92.146603 139.417261 92.146603L141.387962 92.146603 141.387962 94.9584926 138.470552 94.9584926C136.309618 94.9584926 134.960149 95.8502123 134.960149 97.2829087L134.960149 103.716667 140.010255 103.716667 140.010255 106.096072 128.31535 106.096072 128.31535 103.716667zM147.065541 97.7696391L147.065541 97.9583864 154.061083 97.9583864 154.061083 97.6878981C154.061083 95.4987261 152.711614 94.0660297 150.657686 94.0660297 148.551741 94.0660297 147.065541 95.6072187 147.065541 97.7696391M144.094628 99.1488323C144.094628 94.6605096 146.688047 91.8233546 150.657686 91.8233546 154.575308 91.8233546 157.060234 94.633758 157.060234 98.7430998L157.060234 99.8503185 147.065541 99.8503185 147.065541 100.309554C147.065541 102.500212 148.523503 104.041401 150.928174 104.041401 152.711614 104.041401 154.00758 103.203185 154.790807 101.905732L156.627749 103.527176C155.682527 105.14862 153.737091 106.419321 150.874671 106.419321 146.606306 106.419321 144.094628 103.582166 144.094628 99.1488323M160.955117 106.095478L160.955117 92.1474947 163.897792 92.1474947 163.897792 94.525414 164.033036 94.525414C164.629002 93.065966 165.761486 91.822017 168.057665 91.822017 170.868068 91.822017 172.757028 93.7421868 172.757028 97.1203185L172.757028 106.095478 169.814352 106.095478 169.814352 97.5528025C169.814352 95.336879 168.81414 94.2281741 166.92518 94.2281741 165.410743 94.2281741 163.897792 95.0128875 163.897792 96.6343312L163.897792 106.095478 160.955117 106.095478zM176.896985 99.1216348C176.896985 94.6615499 179.381911 91.8229087 183.48828 91.8229087 186.349214 91.8229087 188.052399 93.1738641 188.915881 95.1207856L186.619703 96.3647346C186.133715 95.0657962 185.106752 94.2558174 183.48828 94.2558174 181.272357 94.2558174 179.974904 95.742017 179.974904 97.9594268L179.974904 100.283843C179.974904 102.473015 181.245605 103.985966 183.541783 103.985966 185.270234 103.985966 186.323949 103.120998 186.970446 101.770042L189.13138 103.094246C188.241146 105.041168 186.430955 106.420361 183.513546 106.420361 179.353673 106.420361 176.896985 103.58172 176.896985 99.1216348M195.700828 97.7696391L195.700828 97.9583864 202.696369 97.9583864 202.696369 97.6878981C202.696369 95.4987261 201.3469 94.0660297 199.292972 94.0660297 197.187028 94.0660297 195.700828 95.6072187 195.700828 97.7696391M192.729915 99.1488323C192.729915 94.6605096 195.323333 91.8233546 199.292972 91.8233546 203.210594 91.8233546 205.69552 94.633758 205.69552 98.7430998L205.69552 99.8503185 195.700828 99.8503185 195.700828 100.309554C195.700828 102.500212 197.15879 104.041401 199.563461 104.041401 201.3469 104.041401 202.642866 103.203185 203.426093 101.905732L205.263036 103.527176C204.317813 105.14862 202.372378 106.419321 199.509958 106.419321 195.241592 106.419321 192.729915 103.582166 192.729915 99.1488323M225.639575 103.716667L230.096688 103.716667 230.096688 94.5260085 225.369087 94.5260085 225.369087 92.146603 230.096688 92.146603 230.096688 89.6334395C230.096688 87.5512739 231.230658 86.0918259 233.660594 86.0918259L238.361444 86.0918259 238.361444 88.4712314 233.039363 88.4712314 233.039363 92.146603 238.361444 92.146603 238.361444 94.5260085 233.039363 94.5260085 233.039363 103.716667 237.740212 103.716667 237.740212 106.096072 225.639575 106.096072 225.639575 103.716667zM251.386943 100.17535L251.386943 98.0679193C251.386943 95.4715287 249.982484 94.1473248 247.848301 94.1473248 245.715605 94.1473248 244.30966 95.4715287 244.30966 98.0679193L244.30966 100.17535C244.30966 102.770255 245.715605 104.095945 247.848301 104.095945 249.982484 104.095945 251.386943 102.770255 251.386943 100.17535M241.231741 99.1216348C241.231741 94.6615499 243.741932 91.8229087 247.848301 91.8229087 251.954671 91.8229087 254.464862 94.6615499 254.464862 99.1216348 254.464862 103.58172 251.954671 106.420361 247.848301 106.420361 243.741932 106.420361 241.231741 103.58172 241.231741 99.1216348M258.010934 103.716667L261.710085 103.716667 261.710085 94.5260085 258.010934 94.5260085 258.010934 92.146603 264.654246 92.146603 264.654246 95.1204883 264.816242 95.1204883C265.38397 93.5792994 266.708174 92.146603 269.111359 92.146603L271.082059 92.146603 271.082059 94.9584926 268.166136 94.9584926C266.005202 94.9584926 264.654246 95.8502123 264.654246 97.2829087L264.654246 103.716667 269.704352 103.716667 269.704352 106.096072 258.010934 106.096072 258.010934 103.716667zM56.3303822 137.245478L56.3303822 132.596645C56.3303822 130.893461 54.8724204 130.028493 53.1707219 130.028493 50.9562845 130.028493 49.6855839 131.514692 49.6855839 133.785605L49.6855839 136.056518C49.6855839 138.327431 50.9562845 139.813631 53.1707219 139.813631 54.8724204 139.813631 56.3303822 138.948662 56.3303822 137.245478zM56.3303822 139.516391L56.1698726 139.516391C55.3584076 141.192824 54.0089384 142.219788 51.9564968 142.219788 48.6868577 142.219788 46.5794268 139.705138 46.5794268 134.921062 46.5794268 130.135499 48.6868577 127.622335 51.9564968 127.622335 54.0089384 127.622335 55.3584076 128.649299 56.1698726 130.325732L56.3303822 130.325732 56.3303822 121.89155 59.2745435 121.89155 59.2745435 141.89431 56.3303822 141.89431 56.3303822 139.516391zM66.0067304 133.569066L66.0067304 133.757813 73.0022718 133.757813 73.0022718 133.487325C73.0022718 131.298153 71.6513163 129.865456 69.5988747 129.865456 67.4914437 129.865456 66.0067304 131.406645 66.0067304 133.569066M63.0358174 134.948259C63.0358174 130.459936 65.6277495 127.622781 69.5988747 127.622781 73.5150106 127.622781 75.9999363 130.433185 75.9999363 134.542527L75.9999363 135.649745 66.0067304 135.649745 66.0067304 136.108981C66.0067304 138.299639 67.4646921 139.840828 69.8693631 139.840828 71.6513163 139.840828 72.9472824 139.002611 73.7305096 137.705159L75.5689384 139.326603C74.6222293 140.948047 72.6767941 142.218747 69.8158599 142.218747 65.5460085 142.218747 63.0358174 139.381592 63.0358174 134.948259"
     mask="url(#b)"
     transform="matrix(2, 0, 0, 2, 1.1368683772161603e-13, 184.26803588867188)"
     id="path3587"
     style="fill:#000000" />
  <path
     d="M 83.91899871826172 141.89500427246094 L 78.9229965209961 127.9469985961914 L 81.9739990234375 127.9469985961914 L 83.89299774169922 133.83999633789062 L 85.70099639892578 139.43499755859375 L 85.86499786376953 139.43499755859375 L 87.67400360107422 133.83999633789062 L 89.59100341796875 127.9469985961914 L 92.53600311279297 127.9469985961914 L 87.54000091552734 141.89500427246094 Z"
     fill="#FFDC00"
     mask="url(#b)"
     transform="matrix(2, 0, 0, 2, 1.1368683772161603e-13, 184.26803588867188)"
     id="path3589"
     style="fill:#000000" />
  <path
     fill="#FFDC00"
     d="M98.4302548,133.569066 L98.4302548,133.757813 L105.425796,133.757813 L105.425796,133.487325 C105.425796,131.298153 104.074841,129.865456 102.022399,129.865456 C99.9149682,129.865456 98.4302548,131.406645 98.4302548,133.569066 M95.4593418,134.948259 C95.4593418,130.459936 98.0512739,127.622781 102.022399,127.622781 C105.938535,127.622781 108.423461,130.433185 108.423461,134.542527 L108.423461,135.649745 L98.4302548,135.649745 L98.4302548,136.108981 C98.4302548,138.299639 99.8882166,139.840828 102.292887,139.840828 C104.074841,139.840828 105.370807,139.002611 106.154034,137.705159 L107.992463,139.326603 C107.045754,140.948047 105.100318,142.218747 102.239384,142.218747 C97.9695329,142.218747 95.4593418,139.381592 95.4593418,134.948259"
     mask="url(#b)"
     transform="matrix(2, 0, 0, 2, 1.1368683772161603e-13, 184.26803588867188)"
     id="path3591"
     style="fill:#000000" />
  <path
     d="M 112.07599639892578 139.51600646972656 L 116.69400024414062 139.51600646972656 L 116.69400024414062 124.27100372314453 L 112.07599639892578 124.27100372314453 L 112.07599639892578 121.89099884033203 L 119.63899993896484 121.89099884033203 L 119.63899993896484 139.51600646972656 L 124.25700378417969 139.51600646972656 L 124.25700378417969 141.89500427246094 L 112.07599639892578 141.89500427246094 Z"
     fill="#FFDC00"
     mask="url(#b)"
     transform="matrix(2, 0, 0, 2, 1.1368683772161603e-13, 184.26803588867188)"
     id="path3593"
     style="fill:#000000" />
  <path
     fill="#FFDC00"
     d="M137.903121 135.974777L137.903121 133.867346C137.903121 131.270955 136.500149 129.946752 134.365966 129.946752 132.231783 129.946752 130.827325 131.270955 130.827325 133.867346L130.827325 135.974777C130.827325 138.569682 132.231783 139.895372 134.365966 139.895372 136.500149 139.895372 137.903121 138.569682 137.903121 135.974777M127.747919 134.921062C127.747919 130.460977 130.259597 127.622335 134.365966 127.622335 138.470849 127.622335 140.982527 130.460977 140.982527 134.921062 140.982527 139.381146 138.470849 142.219788 134.365966 142.219788 130.259597 142.219788 127.747919 139.381146 127.747919 134.921062M154.196178 136.056072L154.196178 133.785159C154.196178 131.514246 152.926964 130.028047 150.712527 130.028047 149.010828 130.028047 147.55138 130.893015 147.55138 132.5962L147.55138 137.245032C147.55138 138.948217 149.010828 139.813185 150.712527 139.813185 152.926964 139.813185 154.196178 138.326985 154.196178 136.056072zM144.608705 127.945881L147.55138 127.945881 147.55138 130.325287 147.714862 130.325287C148.524841 128.65034 149.875796 127.62189 151.928238 127.62189 155.196391 127.62189 157.302335 130.136539 157.302335 134.920616 157.302335 139.706178 155.196391 142.219342 151.928238 142.219342 149.875796 142.219342 148.524841 141.192378 147.714862 139.515945L147.55138 139.515945 147.55138 147.300658 144.608705 147.300658 144.608705 127.945881zM163.277304 133.569066L163.277304 133.757813 170.272845 133.757813 170.272845 133.487325C170.272845 131.298153 168.923376 129.865456 166.869448 129.865456 164.763503 129.865456 163.277304 131.406645 163.277304 133.569066M160.306391 134.948259C160.306391 130.459936 162.899809 127.622781 166.869448 127.622781 170.78707 127.622781 173.271996 130.433185 173.271996 134.542527L173.271996 135.649745 163.277304 135.649745 163.277304 136.108981C163.277304 138.299639 164.735265 139.840828 167.139936 139.840828 168.923376 139.840828 170.219342 139.002611 171.002569 137.705159L172.839512 139.326603C171.894289 140.948047 169.948854 142.218747 167.086433 142.218747 162.818068 142.218747 160.306391 139.381592 160.306391 134.948259M176.950637 139.516093L180.651274 139.516093 180.651274 130.325435 176.950637 130.325435 176.950637 127.94603 183.595435 127.94603 183.595435 130.919915 183.757431 130.919915C184.323673 129.378726 185.647877 127.94603 188.052548 127.94603L190.023248 127.94603 190.023248 130.757919 187.105839 130.757919C184.944904 130.757919 183.595435 131.649639 183.595435 133.082335L183.595435 139.516093 188.645541 139.516093 188.645541 141.895499 176.950637 141.895499 176.950637 139.516093zM192.703758 139.542994L194.513949 137.92155C195.728174 139.245754 197.212887 139.975478 199.293567 139.975478 201.184013 139.975478 202.479979 139.354246 202.479979 137.975053 202.479979 136.786093 201.534756 136.462102 200.347282 136.29862L198.131359 135.947877C195.945159 135.623885 193.485499 134.839172 193.485499 131.973779 193.485499 129.136624 195.863418 127.622187 199.427325 127.622187 202.022229 127.622187 203.884437 128.433652 205.155138 129.811359L203.506943 131.541295C202.777219 130.703079 201.508004 129.866348 199.320318 129.866348 197.403121 129.866348 196.377643 130.514331 196.377643 131.731529 196.377643 132.920488 197.349618 133.24448 198.51034 133.407962L200.724777 133.758705C202.940701 134.082696 205.369151 134.839172 205.369151 137.704565 205.369151 140.516454 203.047707 142.219639 199.238577 142.219639 196.242399 142.219639 194.027962 141.164437 192.703758 139.542994M232.905159 138.299788L228.720021 133.13673C227.36758 134.110191 226.936582 135.299151 226.936582 136.623355L226.936582 136.867091C226.936582 138.704034 228.179045 139.814225 230.042739 139.814225 231.25845 139.814225 232.312166 139.326752 232.905159 138.299788M224.074161 136.893843C224.074161 134.839915 224.992633 132.866242 227.449321 131.542038 226.37034 130.136093 225.692633 128.865393 225.692633 127.352442 225.692633 124.620807 227.908556 122.702123 230.744225 122.702123 233.255902 122.702123 234.959087 124.243312 235.498577 125.784501L233.309406 126.919958C232.878408 125.811253 231.959936 125.026539 230.690722 125.026539 229.313015 125.026539 228.394544 125.973248 228.394544 127.297452L228.394544 127.487686C228.394544 128.568153 228.93552 129.379618 230.448471 131.298301L232.500913 133.839703 234.201125 136.082378 234.336369 136.082378C234.580106 134.758174 234.633609 132.866242 234.661847 131.351805L238.900488 131.351805 238.900488 133.650955 236.929788 133.650955C236.714289 135.137155 236.497304 136.326115 235.90431 137.839066L239.279469 141.894904 236.011316 141.894904 233.74189 139.191507 233.579894 139.191507C233.175648 141.029936 231.609193 142.218896 229.286263 142.218896 225.964607 142.218896 224.074161 139.814225 224.074161 136.893843M56.3303822 173.045648L56.3303822 168.395329C56.3303822 166.693631 54.8724204 165.828662 53.1707219 165.828662 50.9562845 165.828662 49.6855839 167.314862 49.6855839 169.585775L49.6855839 171.855202C49.6855839 174.126115 50.9562845 175.6138 53.1707219 175.6138 54.8724204 175.6138 56.3303822 174.748832 56.3303822 173.045648zM56.3303822 175.315074L56.1698726 175.315074C55.3584076 176.991507 54.0089384 178.018471 51.9564968 178.018471 48.6868577 178.018471 46.5794268 175.503822 46.5794268 170.721231 46.5794268 165.935669 48.6868577 163.421019 51.9564968 163.421019 54.0089384 163.421019 55.3584076 164.449469 56.1698726 166.125902L56.3303822 166.125902 56.3303822 157.690234 59.2745435 157.690234 59.2745435 177.69448 56.3303822 177.69448 56.3303822 175.315074zM66.0067304 169.367749L66.0067304 169.557983 73.0022718 169.557983 73.0022718 169.287495C73.0022718 167.098323 71.6513163 165.665626 69.5988747 165.665626 67.4914437 165.665626 66.0067304 167.205329 66.0067304 169.367749M63.0358174 170.746943C63.0358174 166.260106 65.6277495 163.421465 69.5988747 163.421465 73.5150106 163.421465 75.9999363 166.233355 75.9999363 170.34121L75.9999363 171.449915 66.0067304 171.449915 66.0067304 171.909151C66.0067304 174.099809 67.4646921 175.640998 69.8693631 175.640998 71.6513163 175.640998 72.9472824 174.801295 73.7305096 173.503843L75.5689384 175.126773C74.6222293 176.748217 72.6767941 178.017431 69.8158599 178.017431 65.5460085 178.017431 63.0358174 175.180276 63.0358174 170.746943M79.2199363 175.343163L81.0301274 173.720234C82.2443524 175.045924 83.730552 175.775648 85.8112314 175.775648 87.7016773 175.775648 88.9976433 175.15293 88.9976433 173.773737 88.9976433 172.586263 88.0509342 172.260786 86.8649469 172.09879L84.6490234 171.748047C82.4613376 171.422569 80.0031635 170.639342 80.0031635 167.773949 80.0031635 164.935308 82.3795966 163.422357 85.9449894 163.422357 88.5384076 163.422357 90.4006157 164.232335 91.6713163 165.611529L90.0246072 167.341465C89.293397 166.503248 88.0256688 165.665032 85.8364968 165.665032 83.9192994 165.665032 82.8938217 166.314501 82.8938217 167.530212 82.8938217 168.720658 83.8657962 169.04465 85.026518 169.206645L87.2409554 169.557389C89.456879 169.88138 91.8868153 170.639342 91.8868153 173.504735 91.8868153 176.315138 89.5653715 178.018323 85.756242 178.018323 82.7585775 178.018323 80.5441401 176.964607 79.2199363 175.343163M100.779936 159.610255L100.779936 159.042527C100.779936 158.150807 101.319427 157.447834 102.778875 157.447834 104.263588 157.447834 104.804565 158.150807 104.804565 159.042527L104.804565 159.610255C104.804565 160.503461 104.263588 161.204947 102.805626 161.204947 101.319427 161.204947 100.779936 160.503461 100.779936 159.610255zM96.5665605 175.314926L101.319427 175.314926 101.319427 166.125754 96.5665605 166.125754 96.5665605 163.744862 104.263588 163.744862 104.263588 175.314926 108.720701 175.314926 108.720701 177.694331 96.5665605 177.694331 96.5665605 175.314926zM120.826242 168.665372L120.826242 167.935648C120.826242 166.449448 119.934522 165.449236 118.045563 165.449236 116.153631 165.449236 115.263397 166.449448 115.263397 167.935648L115.263397 168.665372C115.263397 170.153057 116.153631 171.15327 118.045563 171.15327 119.934522 171.15327 120.826242 170.153057 120.826242 168.665372M120.069766 177.857516L115.235159 177.857516C114.560425 178.180021 114.209682 178.694246 114.209682 179.42397 114.209682 180.477686 115.01966 181.342654 117.073588 181.342654L119.259788 181.342654C121.475711 181.342654 122.689936 180.667919 122.689936 179.397219 122.689936 178.45051 122.041953 177.857516 120.069766 177.857516M118.125817 183.426306C113.317962 183.426306 111.643015 182.154119 111.643015 180.073439 111.643015 178.559002 112.534735 177.775775 114.074437 177.370042L114.074437 177.099554C113.129214 176.747325 112.534735 176.12758 112.534735 175.072378 112.534735 173.693185 113.58845 173.071953 115.046412 172.72121L115.046412 172.585966C113.371465 171.801253 112.374225 170.313567 112.374225 168.314628 112.374225 165.340743 114.613928 163.422059 118.045563 163.422059 119.017537 163.422059 119.909257 163.584055 120.665732 163.881295L120.665732 163.422059C120.665732 162.340106 121.286964 161.528641 122.529427 161.528641L125.067856 161.528641 125.067856 163.854544 121.826454 163.854544 121.826454 164.502527C123.040679 165.340743 123.7169 166.638195 123.7169 168.314628 123.7169 171.288514 121.475711 173.180446 118.045563 173.180446 117.424331 173.180446 116.856603 173.125456 116.317113 173.01845 115.667643 173.180446 114.857665 173.61293 114.857665 174.369406 114.857665 175.234374 115.802887 175.342866 117.017113 175.342866L120.151507 175.342866C123.905648 175.342866 125.44535 176.910807 125.44535 179.208471 125.44535 182.072378 123.040679 183.426306 118.125817 183.426306M128.531592 177.694331L128.531592 163.744862 131.474268 163.744862 131.474268 166.125754 131.609512 166.125754C132.205478 164.66482 133.337962 163.42087 135.63414 163.42087 138.444544 163.42087 140.333503 165.339554 140.333503 168.720658L140.333503 177.694331 137.390828 177.694331 137.390828 169.153142C137.390828 166.935732 136.390616 165.828514 134.501656 165.828514 132.987219 165.828514 131.474268 166.611741 131.474268 168.233185L131.474268 177.694331 128.531592 177.694331zM147.065541 169.367749L147.065541 169.557983 154.061083 169.557983 154.061083 169.287495C154.061083 167.098323 152.711614 165.665626 150.657686 165.665626 148.551741 165.665626 147.065541 167.205329 147.065541 169.367749M144.094628 170.746943C144.094628 166.260106 146.688047 163.421465 150.657686 163.421465 154.575308 163.421465 157.060234 166.233355 157.060234 170.34121L157.060234 171.449915 147.065541 171.449915 147.065541 171.909151C147.065541 174.099809 148.523503 175.640998 150.928174 175.640998 152.711614 175.640998 154.00758 174.801295 154.790807 173.503843L156.627749 175.126773C155.682527 176.748217 153.737091 178.017431 150.874671 178.017431 146.606306 178.017431 144.094628 175.180276 144.094628 170.746943M160.738875 175.31552L164.439512 175.31552 164.439512 166.124862 160.738875 166.124862 160.738875 163.745456 167.383673 163.745456 167.383673 166.719342 167.545669 166.719342C168.111911 165.179639 169.436115 163.745456 171.840786 163.745456L173.811486 163.745456 173.811486 166.557346 170.894076 166.557346C168.733142 166.557346 167.383673 167.449066 167.383673 168.881762L167.383673 175.31552 172.433779 175.31552 172.433779 177.694926 160.738875 177.694926 160.738875 175.31552zM176.491996 175.343163L178.302187 173.720234C179.516412 175.045924 181.001125 175.775648 183.081805 175.775648 184.972251 175.775648 186.268217 175.15293 186.268217 173.773737 186.268217 172.586263 185.322994 172.260786 184.13552 172.09879L181.919597 171.748047C179.733397 171.422569 177.273737 170.639342 177.273737 167.773949 177.273737 164.935308 179.651656 163.422357 183.215563 163.422357 185.810467 163.422357 187.672675 164.232335 188.943376 165.611529L187.29518 167.341465C186.565456 166.503248 185.296242 165.665032 183.108556 165.665032 181.191359 165.665032 180.165881 166.314501 180.165881 167.530212 180.165881 168.720658 181.137856 169.04465 182.298577 169.206645L184.513015 169.557389C186.728938 169.88138 189.157389 170.639342 189.157389 173.504735 189.157389 176.315138 186.835945 178.018323 183.026815 178.018323 180.030637 178.018323 177.8162 176.964607 176.491996 175.343163"
     mask="url(#b)"
     transform="matrix(2, 0, 0, 2, 1.1368683772161603e-13, 184.26803588867188)"
     id="path3595"
     style="fill:#000000" />
  <path
     d="M 606.5250244140625 186.75399780273438 L 598.10498046875 186.75399780273438 L 598.10498046875 195.17599487304688 L 598.10498046875 203.5970001220703 L 606.5250244140625 203.5970001220703 L 606.5250244140625 195.17599487304688 L 614.9459838867188 195.17599487304688 L 614.9459838867188 186.75399780273438 Z"
     fill="#F012BE"
     mask="url(#b)"
     transform="matrix(2, 0, 0, 2, 1.1368683772161603e-13, 184.26803588867188)"
     id="path3597"
     style="fill:#000000" />
  <path
     d="M 286.4129943847656 296.25 L 277.9930114746094 296.25 L 269.572998046875 296.25 L 269.572998046875 304.6709899902344 L 277.9930114746094 304.6709899902344 L 286.4129943847656 304.6709899902344 L 294.8330078125 304.6709899902344 L 294.8330078125 296.25 Z"
     fill="#F012BE"
     mask="url(#b)"
     transform="matrix(2, 0, 0, 2, 1.1368683772161603e-13, 184.26803588867188)"
     id="path3599"
     style="fill:#000000" />
  <path
     d="M 269.572998046875 279.4070129394531 L 269.572998046875 270.9859924316406 L 261.15301513671875 270.9859924316406 L 261.15301513671875 279.4070129394531 L 261.15301513671875 287.8290100097656 L 261.15301513671875 296.25 L 269.572998046875 296.25 L 269.572998046875 287.8290100097656 Z"
     fill="#F012BE"
     mask="url(#b)"
     transform="matrix(2, 0, 0, 2, 1.1368683772161603e-13, 184.26803588867188)"
     id="path3601"
     style="fill:#000000" />
  <path
     d="M 261.15301513671875 220.41400146484375 L 252.73399353027344 220.41400146484375 L 252.73399353027344 228.83599853515625 L 261.15301513671875 228.83599853515625 L 261.15301513671875 237.2570037841797 L 269.5719909667969 237.2570037841797 L 269.5719909667969 228.83599853515625 L 269.5719909667969 220.41400146484375 Z"
     fill="#F012BE"
     mask="url(#b)"
     transform="matrix(2, 0, 0, 2, 1.1368683772161603e-13, 184.26803588867188)"
     id="path3603"
     style="fill:#000000" />
  <path
     d="M 273.78399658203125 292.0379943847656 L 273.78399658203125 190.9239959716797 L 282.2139892578125 190.9239959716797 L 282.2139892578125 182.5070037841797 L 299.05999755859375 182.5070037841797 L 299.05999755859375 165.63400268554688 L 593.8939819335938 165.63400268554688 L 593.8939819335938 292.0379943847656 Z"
     fill="#000000"
     mask="url(#b)"
     transform="matrix(2, 0, 0, 2, 1.1368683772161603e-13, 184.26803588867188)"
     id="path3605"
     style="fill:#ffffff" />
  <path
     fill="#F012BE"
     d="M598.105414,161.420892 L294.847877,161.420892 L294.847877,178.295202 L278.001805,178.295202 L278.001805,186.713036 L269.572081,186.713036 L269.572081,296.250403 L598.105414,296.250403 L598.105414,161.420892 Z M589.680149,169.846157 L589.680149,287.825138 L277.997346,287.825138 L277.997346,195.138301 L278.001805,195.138301 L286.42707,195.138301 L286.42707,186.718981 L294.847877,186.718981 L303.273142,186.718981 L303.273142,178.295202 L303.273142,169.846157 L589.680149,169.846157 Z"
     mask="url(#b)"
     transform="matrix(2, 0, 0, 2, 1.1368683772161603e-13, 184.26803588867188)"
     id="path3607"
     style="fill:#000000" />
  <g
     id="g3662">
    <path
       style="fill:#000000"
       id="path3609"
       transform="matrix(2, 0, 0, 2, 1.1368683772161603e-13, 184.26803588867188)"
       mask="url(#b)"
       d="M391.83414 214.547473L391.83414 211.591423C391.83414 208.357452 390.899321 206.310955 388.374268 206.310955 385.847728 206.310955 384.912909 208.357452 384.912909 211.591423L384.912909 214.572739C384.912909 217.805223 385.847728 219.85172 388.374268 219.85172 390.899321 219.85172 391.83414 217.805223 391.83414 214.547473M381.906327 213.082081C381.906327 207.323057 383.902293 203.96276 388.374268 203.96276 392.846242 203.96276 394.840722 207.323057 394.840722 213.082081 394.840722 218.84259 392.846242 222.201401 388.374268 222.201401 383.902293 222.201401 381.906327 218.84259 381.906327 213.082081M397.821146 215.380488C397.821146 211.211699 400.144076 208.560318 403.984416 208.560318 406.662548 208.560318 408.255754 209.823588 409.06276 211.64121L406.915202 212.804904C406.460425 211.590679 405.50034 210.832718 403.984416 210.832718 401.91414 210.832718 400.699915 212.222314 400.699915 214.295563L400.699915 216.4669C400.699915 218.513397 401.887389 219.928259 404.036433 219.928259 405.653418 219.928259 406.638769 219.119766 407.243652 217.856497L409.264883 219.094501C408.431125 220.913609 406.738344 222.202144 404.009682 222.202144 400.120297 222.202144 397.821146 219.549278 397.821146 215.380488M419.469724 221.898514C417.197325 221.898514 416.136178 220.534183 416.136178 218.588747L416.136178 211.086412 412.118981 211.086412 412.118981 208.863057 414.97397 208.863057C415.932569 208.863057 416.31155 208.534607 416.31155 207.523992L416.31155 204.264756 418.88862 204.264756 418.88862 208.863057 424.447006 208.863057 424.447006 211.086412 418.88862 211.086412 418.88862 219.675159 424.447006 219.675159 424.447006 221.898514 419.469724 221.898514zM437.153121 216.365987L437.153121 214.395287C437.153121 211.969809 435.839321 210.731805 433.843355 210.731805 431.848875 210.731805 430.535074 211.969809 430.535074 214.395287L430.535074 216.365987C430.535074 218.791465 431.848875 220.029469 433.843355 220.029469 435.839321 220.029469 437.153121 218.791465 437.153121 216.365987M427.653333 215.380637C427.653333 211.211847 430.003015 208.560467 433.843355 208.560467 437.683694 208.560467 440.03189 211.211847 440.03189 215.380637 440.03189 219.549427 437.683694 222.202293 433.843355 222.202293 430.003015 222.202293 427.653333 219.549427 427.653333 215.380637M452.38518 216.441486L452.38518 214.319193C452.38518 212.198386 451.197707 210.80879 449.127431 210.80879 447.534225 210.80879 446.169894 211.617282 446.169894 213.207516L446.169894 217.553163C446.169894 219.144883 447.534225 219.953376 449.127431 219.953376 451.197707 219.953376 452.38518 218.563779 452.38518 216.441486zM443.417452 203.203907L446.169894 203.203907 446.169894 211.085223 446.322972 211.085223C447.080934 209.520255 448.342718 208.56017 450.262887 208.56017 453.32 208.56017 455.290701 210.908365 455.290701 215.38034 455.290701 219.852314 453.32 222.201996 450.262887 222.201996 448.342718 222.201996 447.080934 221.240425 446.322972 219.675456L446.169894 219.675456 446.169894 221.898811 443.417452 221.898811 443.417452 203.203907zM460.872866 214.117813L460.872866 214.294671 467.415117 214.294671 467.415117 214.042017C467.415117 211.99552 466.153333 210.656454 464.233163 210.656454 462.262463 210.656454 460.872866 212.096582 460.872866 214.117813M458.093673 215.406348C458.093673 211.212293 460.519151 208.560913 464.233163 208.560913 467.896645 208.560913 470.219575 211.187028 470.219575 215.027367L470.219575 216.063248 460.872866 216.063248 460.872866 216.49276C460.872866 218.539257 462.237197 219.977898 464.485817 219.977898 466.153333 219.977898 467.364586 219.196157 468.097282 217.983418L469.816815 219.497856C468.932527 221.015265 467.111932 222.201253 464.4338 222.201253 460.443355 222.201253 458.093673 219.548386 458.093673 215.406348M473.654926 219.675159L477.116285 219.675159 477.116285 211.086412 473.654926 211.086412 473.654926 208.863057 479.870212 208.863057 479.870212 211.642251 480.020318 211.642251C480.552378 210.202123 481.790382 208.863057 484.037516 208.863057L485.88189 208.863057 485.88189 211.490658 483.154713 211.490658C481.131996 211.490658 479.870212 212.324416 479.870212 213.663482L479.870212 219.675159 484.593355 219.675159 484.593355 221.898514 473.654926 221.898514 473.654926 219.675159z"
       fill="#F012BE" />
  </g>
  <path
     fill="#F012BE"
     d="M3333.936263 252.216837L321.75983 252.216837 321.75983 249.514926 327.518854 244.487113C329.312696 242.895393 330.373843 241.479045 330.373843 239.888811L330.373843 239.610892C330.373843 237.766518 329.312696 236.730637 327.417792 236.730637 325.473843 236.730637 324.488493 237.892845 324.006964 239.50983L321.530955 238.575011C322.239873 236.351656 324.032229 234.28138 327.619915 234.28138 331.283397 234.28138 333.353673 236.452718 333.353673 239.459299 333.353673 242.263758 331.55983 244.183928 329.085308 246.230425L324.815456 249.816624 333.936263 249.816624 333.936263 252.216837"
     mask="url(#b)"
     transform="matrix(2, 0, 0, 2, 212, 184.26803588867188)"
     id="path3613"
     style="fill:#000000" />
  <path
     fill="#F012BE"
     d="M558.432208,240.141465 L558.432208,239.888811 C558.432208,237.766518 557.194204,236.553779 555.070425,236.553779 C552.924352,236.553779 551.686348,237.766518 551.686348,239.888811 L551.686348,240.141465 C551.686348,242.263758 552.924352,243.475011 555.070425,243.475011 C557.194204,243.475011 558.432208,242.263758 558.432208,240.141465 M554.920318,252.216837 L551.13051,252.216837 C555.198238,249.336582 557.522654,247.012166 558.405456,243.198577 L558.228599,243.146561 C557.472123,244.536157 556.28465,245.725117 554.03603,245.725117 C551.004183,245.725117 548.780828,243.601338 548.780828,240.24104 C548.780828,236.730637 551.256837,234.28138 555.046645,234.28138 C558.986561,234.28138 561.336242,236.93276 561.336242,241.152081 C561.336242,246.254204 557.876369,250.296667 554.920318,252.216837"
     mask="url(#b)"
     transform="matrix(2, 0, 0, 2, 1.1368683772161603e-13, 184.26803588867188)"
     id="path3627"
     style="fill:#000000" />
  <mask
     id="mask-1"
     fill="white">
    <use
       xlink:href="#a"
       id="use3630" />
  </mask>
  <g
     id="g3665">
    <path
       style="fill:#000000"
       id="path3611"
       transform="matrix(2, 0, 0, 2, 1.1368683772161603e-13, 184.26803588867188)"
       mask="url(#b)"
       fill="#F012BE"
       d="M 307.0570068359375 252.2169952392578 L 307.0570068359375 249.86700439453125 L 311.88299560546875 249.86700439453125 L 311.88299560546875 237.11000061035156 L 307.1830139160156 239.78799438476562 L 306.09698486328125 237.6909942626953 L 311.6789855957031 234.58299255371094 L 314.71099853515625 234.58299255371094 L 314.71099853515625 249.86700439453125 L 319.0830078125 249.86700439453125 L 319.0830078125 252.2169952392578 Z" />
    <path
       style="fill:#000000"
       id="path3615"
       transform="matrix(2, 0, 0, 2, 1.1368683772161603e-13, 184.26803588867188)"
       mask="url(#b)"
       d="M343.686624 252.216837C341.412739 252.216837 340.351592 250.852505 340.351592 248.90707L340.351592 241.404735 336.334395 241.404735 336.334395 239.18138 339.189384 239.18138C340.149469 239.18138 340.52845 238.85293 340.52845 237.842314L340.52845 234.583079 343.104034 234.583079 343.104034 239.18138 348.663907 239.18138 348.663907 241.404735 343.104034 241.404735 343.104034 249.993482 348.663907 249.993482 348.663907 252.216837 343.686624 252.216837zM352.602335 233.521783L355.357749 233.521783 355.357749 241.404586 355.48259 241.404586C356.039915 240.040255 357.099575 238.878047 359.247134 238.878047 361.873248 238.878047 363.643312 240.67189 363.643312 243.830064L363.643312 252.216688 360.889384 252.216688 360.889384 244.23431C360.889384 242.161062 359.954565 241.126667 358.185987 241.126667 356.771125 241.126667 355.357749 241.857877 355.357749 243.375287L355.357749 252.216688 352.602335 252.216688 352.602335 233.521783zM389.561295 248.856985L385.645159 244.031295C384.38189 244.940849 383.977643 246.052527 383.977643 247.290531L383.977643 247.517919C383.977643 249.235966 385.139851 250.271847 386.883163 250.271847 388.020106 250.271847 389.005456 249.81707 389.561295 248.856985M381.299512 247.543185C381.299512 245.623015 382.160021 243.778641 384.457686 242.540637 383.44707 241.226837 382.815435 240.039363 382.815435 238.624501 382.815435 236.072696 384.887197 234.28034 387.540064 234.28034 389.889745 234.28034 391.481465 235.720467 391.986773 237.160594L389.940276 238.221741C389.534544 237.184374 388.67552 236.451677 387.488047 236.451677 386.200998 236.451677 385.341975 237.337452 385.341975 238.575456L385.341975 238.750828C385.341975 239.76293 385.847282 240.520892 387.262144 242.314735L389.182314 244.688195 390.772548 246.785223 390.898875 246.785223C391.127749 245.547219 391.17828 243.778641 391.202059 242.365265L395.168726 242.365265 395.168726 244.511338 393.324352 244.511338C393.122229 245.900934 392.921592 247.012611 392.365754 248.427473L395.523928 252.217282 392.465329 252.217282 390.343036 249.690743 390.19293 249.690743C389.813949 251.40879 388.348556 252.520467 386.175732 252.520467 383.068089 252.520467 381.299512 250.271847 381.299512 247.543185"
       fill="#F012BE" />
    <path
       style="fill:#000000"
       id="path3617"
       transform="matrix(2, 0, 0, 2, 1.1368683772161603e-13, 184.26803588867188)"
       mask="url(#b)"
       fill="#F012BE"
       d="M 413.1549987792969 252.2169952392578 L 413.1549987792969 249.86700439453125 L 417.97900390625 249.86700439453125 L 417.97900390625 237.11000061035156 L 413.281005859375 239.78799438476562 L 412.19500732421875 237.6909942626953 L 417.7770080566406 234.58299255371094 L 420.8070068359375 234.58299255371094 L 420.8070068359375 249.86700439453125 L 425.17999267578125 249.86700439453125 L 425.17999267578125 252.2169952392578 Z" />
    <path
       style="fill:#000000"
       id="path3619"
       transform="matrix(2, 0, 0, 2, 1.1368683772161603e-13, 184.26803588867188)"
       mask="url(#b)"
       d="M449.782845 252.216837C447.510446 252.216837 446.449299 250.852505 446.449299 248.90707L446.449299 241.404735 442.432102 241.404735 442.432102 239.18138 445.287091 239.18138C446.247176 239.18138 446.626157 238.85293 446.626157 237.842314L446.626157 234.583079 449.201741 234.583079 449.201741 239.18138 454.761614 239.18138 454.761614 241.404735 449.201741 241.404735 449.201741 249.993482 454.761614 249.993482 454.761614 252.216837 449.782845 252.216837zM458.700042 233.521783L461.45397 233.521783 461.45397 241.404586 461.578811 241.404586C462.136136 240.040255 463.195796 238.878047 465.344841 238.878047 467.970955 238.878047 469.741019 240.67189 469.741019 243.830064L469.741019 252.216688 466.985605 252.216688 466.985605 244.23431C466.985605 242.161062 466.050786 241.126667 464.283694 241.126667 462.868832 241.126667 461.45397 241.857877 461.45397 243.375287L461.45397 252.216688 458.700042 252.216688 458.700042 233.521783z"
       fill="#F012BE" />
    <path
       style="fill:#000000"
       id="path3621"
       transform="matrix(2, 0, 0, 2, 1.1368683772161603e-13, 184.26803588867188)"
       mask="url(#b)"
       fill="#F012BE"
       d="M 477.89898681640625 248.3769989013672 L 481.81500244140625 248.3769989013672 L 478.6820068359375 255.8800048828125 L 476.53399658203125 255.8800048828125 Z" />
    <path
       style="fill:#000000"
       id="path3623"
       transform="matrix(2, 0, 0, 2, 1.1368683772161603e-13, 184.26803588867188)"
       mask="url(#b)"
       d="M515.815732 252.216837L503.640786 252.216837 503.640786 249.514926 509.399809 244.487113C511.193652 242.895393 512.254798 241.479045 512.254798 239.888811L512.254798 239.610892C512.254798 237.766518 511.193652 236.730637 509.298747 236.730637 507.353312 236.730637 506.367962 237.892845 505.887919 239.50983L503.411911 238.575011C504.119342 236.351656 505.913185 234.28138 509.50087 234.28138 513.164352 234.28138 515.234628 236.452718 515.234628 239.459299 515.234628 242.263758 513.440786 244.183928 510.964777 246.230425L506.696412 249.816624 515.815732 249.816624 515.815732 252.216837zM523.217749 243.678471L523.217749 243.122633C523.217749 242.440467 523.62051 241.909894 524.784204 241.909894 525.946412 241.909894 526.349172 242.440467 526.349172 243.122633L526.349172 243.678471C526.349172 244.360637 525.946412 244.889724 524.784204 244.889724 523.62051 244.889724 523.217749 244.360637 523.217749 243.678471M528.345138 244.916476L528.345138 241.884628C528.345138 238.650658 527.359788 236.604161 524.784204 236.604161 522.205648 236.604161 521.221783 238.650658 521.221783 241.884628L521.221783 244.916476C521.221783 248.150446 522.205648 250.196943 524.784204 250.196943 527.359788 250.196943 528.345138 248.150446 528.345138 244.916476M518.316263 243.400552C518.316263 237.641529 520.312229 234.281231 524.784204 234.281231 529.254692 234.281231 531.250658 237.641529 531.250658 243.400552 531.250658 249.159575 529.254692 252.519873 524.784204 252.519873 520.312229 252.519873 518.316263 249.159575 518.316263 243.400552"
       fill="#F012BE" />
    <path
       style="fill:#000000"
       id="path3625"
       transform="matrix(2, 0, 0, 2, 1.1368683772161603e-13, 184.26803588867188)"
       mask="url(#b)"
       fill="#F012BE"
       d="M 534.4080200195312 252.2169952392578 L 534.4080200195312 249.86700439453125 L 539.2329711914062 249.86700439453125 L 539.2329711914062 237.11000061035156 L 534.5339965820312 239.78799438476562 L 533.447998046875 237.6909942626953 L 539.030029296875 234.58299255371094 L 542.06201171875 234.58299255371094 L 542.06201171875 249.86700439453125 L 546.4329833984375 249.86700439453125 L 546.4329833984375 252.2169952392578 Z" />
    <path
       style="fill:#000000"
       id="path3632"
       transform="matrix(2, 0, 0, 2, 30.1355037689209, 184.15420532226562)"
       mask="url(#b)"
       fill="#F012BE"
       d="M 307.0570068359375 252.2169952392578 L 307.0570068359375 249.86700439453125 L 311.88299560546875 249.86700439453125 L 311.88299560546875 237.11000061035156 L 307.1830139160156 239.78799438476562 L 306.09698486328125 237.6909942626953 L 311.6789855957031 234.58299255371094 L 314.71099853515625 234.58299255371094 L 314.71099853515625 249.86700439453125 L 319.0830078125 249.86700439453125 L 319.0830078125 252.2169952392578 Z" />
  </g>
</svg>
