<?xml version="1.0" encoding="UTF-8" standalone="no"?>
<svg
   xmlns:dc="http://purl.org/dc/elements/1.1/"
   xmlns:cc="http://creativecommons.org/ns#"
   xmlns:rdf="http://www.w3.org/1999/02/22-rdf-syntax-ns#"
   xmlns:svg="http://www.w3.org/2000/svg"
   xmlns="http://www.w3.org/2000/svg"
   xmlns:sodipodi="http://sodipodi.sourceforge.net/DTD/sodipodi-0.dtd"
   xmlns:inkscape="http://www.inkscape.org/namespaces/inkscape"
   viewBox="0 0 324 324"
   id="svg5059"
   version="1.1"
   inkscape:version="0.91 r13725"
   sodipodi:docname="logo_frontpage.svg">
  <metadata
     id="metadata5131">
    <rdf:RDF>
      <cc:Work
         rdf:about="">
        <dc:format>image/svg+xml</dc:format>
        <dc:type
           rdf:resource="http://purl.org/dc/dcmitype/StillImage" />
        <dc:title>Asset 3</dc:title>
      </cc:Work>
    </rdf:RDF>
  </metadata>
  <sodipodi:namedview
     pagecolor="#ffffff"
     bordercolor="#666666"
     borderopacity="1"
     objecttolerance="10"
     gridtolerance="10"
     guidetolerance="10"
     inkscape:pageopacity="0"
     inkscape:pageshadow="2"
     inkscape:window-width="2495"
     inkscape:window-height="1416"
     id="namedview5129"
     showgrid="false"
     inkscape:zoom="2.0602123"
     inkscape:cx="25.649158"
     inkscape:cy="253.16125"
     inkscape:window-x="1985"
     inkscape:window-y="24"
     inkscape:window-maximized="1"
     inkscape:current-layer="svg5059" />
  <defs
     id="defs5061">
    <style
       id="style5063">.cls-1{fill:#e5e5e5;}.cls-2{fill:#fff;}.cls-3{fill:#676767;}.cls-4{fill:#010101;}.cls-5{fill:#ed2224;}.cls-6{fill:#231f20;}</style>
  </defs>
  <title
     id="title5065">Asset 3</title>
  <rect
     class="cls-1"
     width="324"
     height="324"
     id="rect5069"
     x="0"
     y="0"
     style="fill:#000000" />
  <rect
     class="cls-2"
     x="9"
     y="9"
     width="306"
     height="306"
     id="rect5071"
     style="fill:#ffffff" />
  <polygon
     class="cls-1"
     points="45,153 53.65,153 62.65,153 72,153 72,144 81,144 81,135 81,126 90,126 90,117 107.65,99 126,99 126,63 108,63 108,63 108,45 45,45 45,108 "
     id="polygon5073"
     style="fill:#e5e5e5" />
  <rect
     class="cls-3"
     x="135"
     y="45"
     width="9"
     height="9"
     id="rect5075"
     style="fill:#676767" />
  <rect
     class="cls-3"
     x="126"
     y="36"
     width="9"
     height="9"
     id="rect5077"
     style="fill:#676767" />
  <polygon
     class="cls-3"
     points="117,36 126,36 126,27 116.65,27 116.65,27 108,27 108,63 117,63 "
     id="polygon5079"
     style="fill:#676767" />
  <polygon
     class="cls-4"
     points="27,72 27,171 35.65,171 63,171 63,162 36,162 36,36 36,36 108,36 108,27 27,27 "
     id="polygon5081"
     style="fill:#010101" />
  <polygon
     class="cls-4"
     points="135,90 144,90 144,63 144,54 134.65,54 134.65,54 108,54 108,63 135,63 "
     id="polygon5083"
     style="fill:#010101" />
  <polygon
     class="cls-4"
     points="98.65,171 134.65,171 144,171 144,162 144,108 135,108 135,162 135,162 98.65,162 81,162 81,171 "
     id="polygon5085"
     style="fill:#010101" />
  <rect
     class="cls-1"
     x="63"
     y="90"
     width="9"
     height="9"
     id="rect5087"
     style="fill:#e5e5e5" />
  <polygon
     class="cls-1"
     points="99,135 99,144 90,144 90,153 116.65,153 126,153 126,126 126,117 117,117 117,117 117,126 108,126 108,135 "
     id="polygon5089"
     style="fill:#e5e5e5" />
  <polygon
     class="cls-5"
     points="90,90 81,90 81,81 71.65,81 63,81 63,90 72,90 72,99 63,99 63,90 54,90 54,99 54,108 63,108 63,117 72,117 72,126 81,126 81,135 90,135 90,126 99,126 99,117 108,117 108,108 117,108 117,99 117,90 108,90 108,90 108,81 98.65,81 90,81 "
     id="polygon5091"
     style="fill:#00c200;fill-opacity:1" />
  <path
     class="cls-5"
     d="m 27,291.45 9.09,-14 0,-0.05 -8.09,0"
     id="path5093"
     inkscape:connector-curvature="0"
     style="fill:#000000" />
  <path
     class="cls-5"
     d="m 40.22,291.86 6.9,-15.59 a 0.31,0.31 0 0 1 0.27,-0.16 l 0.07,0 a 0.28,0.28 0 0 1 0.29,0.16 l 6.83,15.59 c 0,0.13 0,0.26 -0.2,0.26 l -0.59,0"
     id="path5095"
     inkscape:connector-curvature="0"
     style="fill:#000000" />
  <path
     class="cls-5"
     d="m 65.78,276.22 a 7.67,7.67 0 0 1 5.42,2.08 0.3,0.3 0 0 1 0,0.41"
     id="path5097"
     inkscape:connector-curvature="0"
     style="fill:#000000" />
  <path
     class="cls-5"
     d="m 77.23,276.74 a 0.28,0.28 0 0 1 0.29,-0.29 l 5.55,0 a 4.8,4.8 0 0 1 1.3,9.47 l 3.27,5.8 c 0.11,0.18 0.07,0.4 -0.16,0.4 l -0.69,0"
     id="path5099"
     inkscape:connector-curvature="0"
     style="fill:#000000" />
  <path
     class="cls-5"
     d="m 93.58,276.74 a 0.29,0.29 0 0 1 0.29,-0.29 l 9,0 a 0.29,0.29 0 0 1 0.29,0.29 l 0,0.38"
     id="path5101"
     inkscape:connector-curvature="0"
     style="fill:#000000" />
  <path
     class="cls-5"
     d="m 108.77,276.74 a 0.29,0.29 0 0 1 0.29,-0.29 l 4.77,0 c 2.75,0 4.63,1.59 4.63,4.05"
     id="path5103"
     inkscape:connector-curvature="0"
     style="fill:#000000" />
  <path
     class="cls-5"
     d="m 130,291.12 c 1.66,-1.88 4,-4.73 5.65,-6.7 a 5.48,5.48 0 0 0 1.7,-3.27"
     id="path5105"
     inkscape:connector-curvature="0"
     style="fill:#000000" />
  <path
     class="cls-5"
     d="m 144.16,284.51 c 0,-4.91 2,-7.84 5.55,-7.84 3.55,0 5.54,2.93 5.54,7.84 0,4.91 -2,7.84 -5.54,7.84 -3.54,0 -5.55,-2.93 -5.55,-7.84 z m 8.82,0 c 0,-3.67 -1.18,-5.78 -3.27,-5.78 -2.09,0 -3.29,2.11 -3.29,5.78 0,3.67 1.19,5.8 3.29,5.8 2.1,0 3.29,-2.08 3.29,-5.8 z"
     id="path5107"
     inkscape:connector-curvature="0"
     style="fill:#000000" />
  <path
     class="cls-5"
     d="m 161.83,280.32 -1.79,0.85 c -0.2,0.09 -0.43,0.05 -0.49,-0.16 l -0.27,-0.78 a 0.43,0.43 0 0 1 0.06,-0.45 l 3.19,-2.89 1.09,0 a 0.42,0.42 0 0 1 0.41,0.43 l 0,14.38"
     id="path5109"
     inkscape:connector-curvature="0"
     style="fill:#000000" />
  <path
     class="cls-5"
     d="m 171.1,290.65 c 1,-0.34 4.62,-2.2 5.36,-4.93"
     id="path5111"
     inkscape:connector-curvature="0"
     style="fill:#00c200;fill-opacity:1" />
  <path
     class="cls-5"
     d="M 184.48,289.24"
     id="path5113"
     inkscape:connector-curvature="0"
     style="fill:#ed2224" />
  <path
     class="cls-6"
     d="m 25.71,182.61 a 1,1 0 0 1 1,-1.32 l 5.06,0 a 1.12,1.12 0 0 1 1,0.77 l 5.7,21.94 0.22,0 8.75,-22.66 a 0.88,0.88 0 0 1 0.93,-0.6 l 1,0 a 0.87,0.87 0 0 1 0.93,0.6 l 8.79,22.66 0.22,0 5.61,-21.94 a 1.12,1.12 0 0 1 1,-0.77 l 5.08,0 a 1,1 0 0 1 1,1.32 l -10.43,36.95"
     id="path5115"
     inkscape:connector-curvature="0"
     style="fill:#231f20" />
  <path
     class="cls-6"
     d="m 81.7,182.33 a 1,1 0 0 1 1,-1 l 22.38,0 a 1,1 0 0 1 1,1 l 0,4.51"
     id="path5117"
     inkscape:connector-curvature="0"
     style="fill:#231f20" />
  <path
     class="cls-6"
     d="m 117.34,182.33 a 1,1 0 0 1 1,-1 l 12.66,0 c 6.54,0 11.6,4.4 11.6,10.17 0,4.24 -3.46,7.54 -6.05,8.75 2.92,0.93 7.15,3.9 7.15,9 0,6.16 -5.28,10.61 -12,10.61 l -13.31,0"
     id="path5119"
     inkscape:connector-curvature="0"
     style="fill:#231f20" />
  <path
     class="cls-6"
     d="m 46.17,226.9 a 18.59,18.59 0 0 1 13.31,5.1 1,1 0 0 1 0.05,1.54 L 56.18,237"
     id="path5121"
     inkscape:connector-curvature="0"
     style="fill:#231f20" />
  <path
     class="cls-6"
     d="m 66.14,264.52 17.1,-37 a 1,1 0 0 1 0.94,-0.61 l 0.55,0 a 0.93,0.93 0 0 1 0.93,0.61 l 16.94,37"
     id="path5123"
     inkscape:connector-curvature="0"
     style="fill:#231f20" />
  <path
     class="cls-6"
     d="m 114.92,227.73 a 0.94,0.94 0 0 1 1,-0.83 l 0.88,0 a 1,1 0 0 1 0.94,0.55 l 12.1,26 0.16,0 12.1,-26 a 0.94,0.94 0 0 1 0.93,-0.55 l 0.88,0 a 0.92,0.92 0 0 1 1,0.83 l 6.49,37"
     id="path5125"
     inkscape:connector-curvature="0"
     style="fill:#231f20" />
  <path
     class="cls-6"
     d="m 162.22,228.5 a 1,1 0 0 1 1.05,-1.05 l 12.92,0 a 12.27,12.27 0 1 1 0.06,24.53 l -6.88,0 0,12.92"
     id="path5127"
     inkscape:connector-curvature="0"
     style="fill:#231f20" />
</svg>
