<svg xmlns="http://www.w3.org/2000/svg" viewBox="0 0 324 324"><defs><style>.cls-1{fill:#8a8a8a;}.cls-2{fill:#231f20;}</style></defs><title>Asset 1</title><g id="Layer_2" data-name="Layer 2"><g id="Layer_1-2" data-name="Layer 1"><rect class="cls-1" width="324" height="324"/><rect class="cls-2" x="9" y="9" width="306" height="306"/><polygon class="cls-2" points="108 63 108 45 45 45 45 108 45 153 54.09 153 63.09 153 72 153 72 144 81 144 81 135 81 126 90 126 90 117 108.09 99 126 99 126 63 108 63"/><rect class="cls-1" x="135" y="45" width="9" height="9"/><rect class="cls-1" x="126" y="36" width="9" height="9"/><polygon class="cls-1" points="117.09 27 108 27 108 63 117 63 117 36 126 36 126 27 117.09 27"/><polygon class="cls-1" points="36 36 108 36 108 27 27 27 27 72 27 171 36.09 171 63 171 63 162 36 162 36 36"/><polygon class="cls-1" points="135.09 54 108 54 108 63 135 63 135 90 144 90 144 63 144 54 135.09 54"/><polygon class="cls-1" points="135 162 99.09 162 81 162 81 171 99.09 171 135.09 171 144 171 144 162 144 108 135 108 135 162"/><rect class="cls-2" x="63" y="90" width="9" height="9"/><polygon class="cls-1" points="117 117 117 126 108 126 108 135 99 135 99 144 90 144 90 153 117.09 153 126 153 126 126 126 117 117 117"/><polygon class="cls-1" points="108 90 108 81 99.09 81 90 81 90 90 81 90 81 81 72.09 81 63 81 63 90 72 90 72 99 63 99 63 90 54 90 54 99 54 108 63 108 63 117 72 117 72 126 81 126 81 135 90 135 90 126 99 126 99 117 108 117 108 108 117 108 117 99 117 90 108 90"/><path class="cls-1" d="M27.46,291.45l9.09-14v-.05h-8.1a.31.31,0,0,1-.3-.34v-.35a.3.3,0,0,1,.3-.29h9.22a.29.29,0,0,1,.3.29v.35l-9.12,14v0h8.36a.28.28,0,0,1,.29.29v.4a.28.28,0,0,1-.29.29H27.77a.28.28,0,0,1-.31-.26Z"/><path class="cls-1" d="M40.65,291.86l6.9-15.59a.32.32,0,0,1,.27-.16h.07a.28.28,0,0,1,.29.16L55,291.86c.05.13.05.26-.2.26h-.58a.35.35,0,0,1-.31-.2L52.1,287.8H43.54l-1.79,4.12a.35.35,0,0,1-.31.2h-.63C40.65,292.12,40.59,292,40.65,291.86Zm11.07-4.93-3.83-9h0l-3.89,9Z"/><path class="cls-1" d="M66.21,276.22a7.64,7.64,0,0,1,5.42,2.08.29.29,0,0,1,0,.41l-.36.38c-.14.16-.25.13-.38,0a6.88,6.88,0,0,0-4.73-1.88,7.06,7.06,0,0,0,0,14.11,8.4,8.4,0,0,0,4.66-1.23v-4.22H67c-.25,0-.29-.08-.29-.29v-.44c0-.18,0-.27.29-.27h4.59a.29.29,0,0,1,.29.27v5.19a.63.63,0,0,1-.31.59,10.45,10.45,0,0,1-5.38,1.43,8.07,8.07,0,1,1,0-16.13Z"/><path class="cls-1" d="M77.66,276.74a.28.28,0,0,1,.29-.29h5.56a4.8,4.8,0,0,1,1.3,9.47l3.27,5.8c.11.18.06.4-.16.4h-.7a.31.31,0,0,1-.31-.2l-3.25-5.87a7.68,7.68,0,0,1-.83,0H78.71v5.75c0,.16-.13.29-.36.29H78a.29.29,0,0,1-.29-.29Zm5.8,8.4a3.92,3.92,0,0,0,4-3.9,3.87,3.87,0,0,0-4-3.76h-4.7v7.66Z"/><path class="cls-1" d="M94,276.74a.3.3,0,0,1,.29-.29h9a.3.3,0,0,1,.29.29v.38a.3.3,0,0,1-.29.29h-8.2v6.18h7.1a.3.3,0,0,1,.29.29v.38a.3.3,0,0,1-.29.29h-7.1v6.63h8.2a.31.31,0,0,1,.29.3v.35a.3.3,0,0,1-.29.29h-9a.3.3,0,0,1-.29-.29Z"/><path class="cls-1" d="M109.2,276.74a.29.29,0,0,1,.29-.29h4.77c2.76,0,4.64,1.59,4.64,4.05a3.85,3.85,0,0,1-2.47,3.63,3.69,3.69,0,0,1,3,3.74c0,2.51-2,4.25-4.93,4.25h-5a.29.29,0,0,1-.29-.29Zm5.35,14.44a3.39,3.39,0,0,0,3.7-3.33c0-2-1.7-3.18-3.83-3.18h-4.19v6.51Zm-.13-7.48a3.05,3.05,0,0,0,3.34-3.16c0-1.94-1.35-3.11-3.5-3.11h-4v6.27Z"/><path class="cls-1" d="M130.48,291.12c1.66-1.88,4-4.73,5.64-6.7a5.5,5.5,0,0,0,1.71-3.27,2.47,2.47,0,0,0-2.76-2.44,4.11,4.11,0,0,0-2.84,1.5.41.41,0,0,1-.61,0l-.76-.76a.45.45,0,0,1,0-.59,6,6,0,0,1,4.34-2.19c3.21,0,4.91,2,4.91,4.39,0,1.72-.94,2.91-2.15,4.37s-2.76,3.27-4.08,4.77h5.71a.44.44,0,0,1,.43.42v1.08a.44.44,0,0,1-.43.42h-8.66a.42.42,0,0,1-.43-.42Z"/><path class="cls-1" d="M144.59,284.51c0-4.91,2-7.84,5.56-7.84s5.53,2.93,5.53,7.84-2,7.84-5.53,7.84S144.59,289.42,144.59,284.51Zm8.83,0c0-3.67-1.19-5.78-3.27-5.78s-3.3,2.11-3.3,5.78,1.19,5.8,3.3,5.8S153.42,288.23,153.42,284.51Z"/><path class="cls-1" d="M162.27,280.32l-1.8.85A.33.33,0,0,1,160,281l-.27-.78a.43.43,0,0,1,.07-.45l3.18-2.89h1.1a.42.42,0,0,1,.4.43V291.7a.42.42,0,0,1-.4.42h-1.37a.42.42,0,0,1-.42-.42Z"/><path class="cls-1" d="M171.54,290.65c1-.34,4.61-2.2,5.35-4.93a6.67,6.67,0,0,1-3,.81,4.66,4.66,0,0,1-4.7-4.87,5.1,5.1,0,0,1,5-5.12c3.56,0,5.26,2.82,5.26,6.29,0,6.25-5.35,8.87-7.41,9.68a.41.41,0,0,1-.56-.27l-.38-.94C171,291,171.11,290.78,171.54,290.65Zm5.78-7.64c.2-1.88-.65-4.46-3.09-4.46a3.05,3.05,0,0,0-3,3.09,3,3,0,0,0,3,3.07A3.52,3.52,0,0,0,177.32,283Z"/><path class="cls-1" d="M184.91,289.24a1.56,1.56,0,1,1-1.54,1.56A1.56,1.56,0,0,1,184.91,289.24Z"/><path class="cls-1" d="M26.15,182.61a1,1,0,0,1,1-1.32H32.2a1.12,1.12,0,0,1,1,.77L38.91,204h.22l8.74-22.66a.88.88,0,0,1,.93-.6h1a.89.89,0,0,1,.94.6L59.53,204h.22l5.61-21.94a1.12,1.12,0,0,1,1-.77h5.06a1,1,0,0,1,1,1.32L62,219.56a1.06,1.06,0,0,1-1,.77h-.88a.93.93,0,0,1-.93-.6l-9.84-24.91h-.28l-9.73,24.91a.94.94,0,0,1-.94.6h-.88a1.06,1.06,0,0,1-1-.77Z"/><path class="cls-1" d="M82.14,182.33a1,1,0,0,1,1-1h22.38a1,1,0,0,1,1,1v4.51a1,1,0,0,1-1,1H89.29v9h13.58a1.07,1.07,0,0,1,1,1v4.57a1,1,0,0,1-1,1H89.29v9.63h16.27a1,1,0,0,1,1,1v4.51a1,1,0,0,1-1,1H83.18a1,1,0,0,1-1-1Z"/><path class="cls-1" d="M117.78,182.33a1,1,0,0,1,1-1h12.6c6.54,0,11.6,4.4,11.6,10.17,0,4.24-3.47,7.54-6.05,8.75,2.91.93,7.15,3.9,7.15,9,0,6.16-5.28,10.61-12,10.61H118.82a1,1,0,0,1-1-1Zm13,15.13a4.71,4.71,0,0,0,4.73-5,4.49,4.49,0,0,0-4.73-4.68h-5.88v9.63Zm.78,15.83a4.9,4.9,0,0,0,4.94-5c0-2.75-2.75-4.78-5.6-4.78h-6v9.78Z"/><path class="cls-1" d="M46.61,226.9A18.58,18.58,0,0,1,59.91,232a1,1,0,0,1,.06,1.54L56.61,237a.88.88,0,0,1-1.37,0,13,13,0,0,0-8.47-3.24c-7,0-12.26,5.88-12.26,12.81a12.45,12.45,0,0,0,12.32,12.7,13.2,13.2,0,0,0,8.41-3.13,1,1,0,0,1,1.37,0L60,259.68a1,1,0,0,1-.05,1.48,18.88,18.88,0,0,1-13.36,5.34,19.8,19.8,0,1,1,0-39.6Z"/><path class="cls-1" d="M66.57,264.52l17.11-37a1,1,0,0,1,.93-.61h.55a1,1,0,0,1,.94.61l16.93,37a1,1,0,0,1-.93,1.43H97.31a1.57,1.57,0,0,1-1.59-1.1L93,258.91H76.58l-2.69,5.94a1.66,1.66,0,0,1-1.6,1.1H67.51A1,1,0,0,1,66.57,264.52ZM90.33,252.8l-5.5-12.09h-.16L79.28,252.8Z"/><path class="cls-1" d="M115.36,227.73a.92.92,0,0,1,1-.83h.88a1,1,0,0,1,.93.55l12.1,26h.16l12.1-26a1,1,0,0,1,.94-.55h.88a.94.94,0,0,1,1,.83l6.49,37a1,1,0,0,1-1,1.27h-5a1.19,1.19,0,0,1-1-.83l-3.25-20.84h-.16l-9.63,21.61a.94.94,0,0,1-.93.61h-1a1,1,0,0,1-.94-.61l-9.73-21.61H119l-3.19,20.84a1.07,1.07,0,0,1-1,.83h-5a1,1,0,0,1-1-1.27Z"/><path class="cls-1" d="M162.66,228.5a1,1,0,0,1,1-1.05h12.92a12.27,12.27,0,1,1,.06,24.53h-6.87V264.9a1.09,1.09,0,0,1-1.05,1.05H163.7a1,1,0,0,1-1-1.05Zm13.52,16.77a5.68,5.68,0,0,0,5.67-5.72,5.49,5.49,0,0,0-5.67-5.33h-6.37v11.05Z"/></g></g></svg>