<?xml version="1.0" encoding="UTF-8"?>
<svg width="324px" height="324px" viewBox="0 0 324 324" version="1.1" xmlns="http://www.w3.org/2000/svg" xmlns:xlink="http://www.w3.org/1999/xlink">
    <!-- Generator: Sketch 53.2 (72643) - https://sketchapp.com -->
    <title>wczg_logo</title>
    <desc>Created with Sketch.</desc>
    <g id="Page-1" stroke="none" stroke-width="1" fill="none" fill-rule="evenodd">
        <g id="wczg_logo" fill-rule="nonzero">
            <rect id="Rectangle" fill="#000000" x="0" y="0" width="324" height="324"></rect>
            <rect id="Rectangle" fill="#FFFFFF" x="9" y="9" width="306" height="306"></rect>
            <polygon id="Path" fill="#E5E5E5" points="108 63 108 45 45 45 45 108 45 153 53.65 153 62.65 153 72 153 72 144 81 144 81 135 81 126 90 126 90 117 107.65 99 126 99 126 63"></polygon>
            <rect id="Rectangle" fill="#676767" x="135" y="45" width="9" height="9"></rect>
            <rect id="Rectangle" fill="#676767" x="126" y="36" width="9" height="9"></rect>
            <polygon id="Path" fill="#676767" points="116.65 27 108 27 108 63 117 63 117 36 126 36 126 27"></polygon>
            <polygon id="Path" fill="#010101" points="36 36 108 36 108 27 27 27 27 72 27 171 35.65 171 63 171 63 162 36 162"></polygon>
            <polygon id="Path" fill="#010101" points="134.65 54 108 54 108 63 135 63 135 90 144 90 144 63 144 54"></polygon>
            <polygon id="Path" fill="#010101" points="135 162 98.65 162 81 162 81 171 98.65 171 134.65 171 144 171 144 162 144 108 135 108"></polygon>
            <rect id="Rectangle" fill="#E5E5E5" x="63" y="90" width="9" height="9"></rect>
            <polygon id="Path" fill="#E5E5E5" points="117 117 117 126 108 126 108 135 99 135 99 144 90 144 90 153 116.65 153 126 153 126 126 126 117"></polygon>
            <polygon id="Path" fill="#FA4748" points="108 90 108 81 98.65 81 90 81 90 90 81 90 81 81 71.65 81 63 81 63 90 72 90 72 99 63 99 63 90 54 90 54 99 54 108 63 108 63 117 72 117 72 126 81 126 81 135 90 135 90 126 99 126 99 117 108 117 108 108 117 108 117 99 117 90"></polygon>
            <path d="M27,291.45 L36.09,277.45 L36.09,277.4 L28,277.4 C27.9147443,277.397922 27.834402,277.359658 27.7790592,277.294773 C27.7237163,277.229888 27.6986039,277.144516 27.71,277.06 L27.71,276.71 C27.71,276.549837 27.8398374,276.42 28,276.42 L37.23,276.42 C37.3077458,276.41717 37.3831642,276.446814 37.4381752,276.501825 C37.4931862,276.556836 37.52283,276.632254 37.52,276.71 L37.52,277.06 L28.41,291.06 L28.41,291.06 L36.76,291.06 C36.8377458,291.05717 36.9131642,291.086814 36.9681752,291.141825 C37.0231862,291.196836 37.05283,291.272254 37.05,291.35 L37.05,291.75 C37.05283,291.827746 37.0231862,291.903164 36.9681752,291.958175 C36.9131642,292.013186 36.8377458,292.04283 36.76,292.04 L27.34,292.04 C27.2640591,292.048349 27.1880043,292.025305 27.1294684,291.976211 C27.0709325,291.927116 27.0349994,291.856235 27.03,291.78 L27,291.45 Z" id="Path" fill="#000000"></path>
            <path d="M40.22,291.86 L47.12,276.27 C47.1743591,276.171683 47.2776567,276.110469 47.39,276.11 L47.46,276.11 C47.5812287,276.094313 47.6986224,276.159082 47.75,276.27 L54.58,291.86 C54.58,291.99 54.58,292.12 54.38,292.12 L53.79,292.12 C53.6584297,292.113277 53.5403584,292.037102 53.48,291.92 L51.67,287.8 L43.11,287.8 L41.32,291.92 C41.2563098,292.038661 41.1345709,292.114748 41,292.12 L40.38,292.12 C40.22,292.12 40.15,292 40.22,291.86 Z M51.29,286.93 L47.46,277.93 L47.41,277.93 L43.51,286.93 L51.29,286.93 Z" id="Shape" fill="#000000"></path>
            <path d="M65.78,276.22 C67.7894099,276.176412 69.735643,276.923306 71.2,278.3 C71.3079574,278.415347 71.3079574,278.594653 71.2,278.71 C71.0877368,278.843778 70.9675192,278.970675 70.84,279.09 C70.71,279.25 70.6,279.22 70.46,279.09 C69.185826,277.881461 67.4961555,277.208457 65.74,277.21 C61.946929,277.35283 58.9456596,280.469241 58.9456596,284.265 C58.9456596,288.060759 61.946929,291.17717 65.74,291.32 C67.3798673,291.371652 68.9992366,290.944222 70.4,290.09 L70.4,285.87 L66.58,285.87 C66.34,285.87 66.29,285.79 66.29,285.58 L66.29,285.14 C66.29,284.96 66.29,284.87 66.58,284.87 L71.18,284.87 C71.3326664,284.869637 71.4594717,284.987697 71.47,285.14 L71.47,290.33 C71.4856962,290.571846 71.3612711,290.801255 71.15,290.92 C69.5220662,291.873064 67.6663198,292.367239 65.78,292.35 C62.8309235,292.453861 60.0603087,290.9398 58.5549703,288.401731 C57.049632,285.863661 57.049632,282.706339 58.5549703,280.168269 C60.0603087,277.6302 62.8309235,276.116139 65.78,276.22 L65.78,276.22 Z" id="Path" fill="#000000"></path>
            <path d="M77.23,276.74 C77.22717,276.662254 77.2568138,276.586836 77.3118248,276.531825 C77.3668358,276.476814 77.4422542,276.44717 77.52,276.45 L83.07,276.45 C85.5465121,276.341564 87.6982438,278.136752 88.0353726,280.592605 C88.3725013,283.048458 86.7841213,285.357071 84.37,285.92 L87.64,291.72 C87.75,291.9 87.71,292.12 87.48,292.12 L86.79,292.12 C86.653043,292.132255 86.5252875,292.049832 86.48,291.92 L83.23,286.05 C82.9535356,286.064961 82.6764644,286.064961 82.4,286.05 L78.28,286.05 L78.28,291.8 C78.28,291.96 78.14,292.09 77.92,292.09 L77.52,292.09 C77.4430872,292.09 77.3693246,292.059447 77.314939,292.005061 C77.2605535,291.950675 77.23,291.876913 77.23,291.8 L77.23,276.74 Z M83.03,285.14 C84.0807688,285.164196 85.0970318,284.764333 85.8495818,284.030597 C86.6021318,283.29686 87.0275904,282.291045 87.03,281.24 C87.0039721,280.208996 86.5664396,279.231283 85.8149821,278.524913 C85.0635245,277.818543 84.0606422,277.442266 83.03,277.48 L78.3,277.48 L78.3,285.14 L83.03,285.14 Z" id="Shape" fill="#000000"></path>
            <path d="M93.58,276.74 C93.58,276.579837 93.7098374,276.45 93.87,276.45 L102.87,276.45 C103.030163,276.45 103.16,276.579837 103.16,276.74 L103.16,277.12 C103.154817,277.277966 103.027966,277.404817 102.87,277.41 L94.67,277.41 L94.67,283.59 L101.77,283.59 C101.930163,283.59 102.06,283.719837 102.06,283.88 L102.06,284.26 C102.06,284.420163 101.930163,284.55 101.77,284.55 L94.67,284.55 L94.67,291.18 L102.87,291.18 C103.031768,291.185395 103.16009,291.318143 103.16,291.48 L103.16,291.83 C103.16,291.906913 103.129447,291.980675 103.075061,292.035061 C103.020675,292.089447 102.946913,292.12 102.87,292.12 L93.87,292.12 C93.7930872,292.12 93.7193246,292.089447 93.664939,292.035061 C93.6105535,291.980675 93.58,291.906913 93.58,291.83 L93.58,276.74 Z" id="Path" fill="#000000"></path>
            <path d="M108.77,276.74 C108.77,276.579837 108.899837,276.45 109.06,276.45 L113.83,276.45 C116.58,276.45 118.46,278.04 118.46,280.5 C118.479411,282.105263 117.498176,283.553184 116,284.13 C117.784024,284.468678 119.056468,286.054991 119,287.87 C119,290.38 117,292.12 114.07,292.12 L109.07,292.12 C108.993087,292.12 108.919325,292.089447 108.864939,292.035061 C108.810553,291.980675 108.78,291.906913 108.78,291.83 L108.77,276.74 Z M114.12,291.18 C115.060173,291.266647 115.993733,290.956104 116.694669,290.323552 C117.395605,289.691 117.800017,288.794105 117.81,287.85 C117.81,285.85 116.11,284.67 113.98,284.67 L109.8,284.67 L109.8,291.18 L114.12,291.18 Z M114,283.7 C114.881338,283.802151 115.762689,283.508944 116.407188,282.899179 C117.051686,282.289414 117.39322,281.425641 117.34,280.54 C117.34,278.6 116,277.43 113.85,277.43 L109.85,277.43 L109.85,283.7 L114,283.7 Z" id="Shape" fill="#000000"></path>
            <path d="M130,291.12 C131.66,289.24 134,286.39 135.65,284.42 C136.577197,283.558956 137.177852,282.403577 137.35,281.15 C137.349187,280.447549 137.048115,279.778952 136.522675,279.312744 C135.997234,278.846535 135.297553,278.62719 134.6,278.71 C133.48681,278.805956 132.45934,279.346729 131.75,280.21 C131.674067,280.2961 131.5648,280.345425 131.45,280.345425 C131.3352,280.345425 131.225933,280.2961 131.15,280.21 L130.39,279.45 C130.243088,279.280769 130.243088,279.029231 130.39,278.86 C131.465211,277.547884 133.045608,276.752236 134.74,276.67 C137.94,276.67 139.64,278.67 139.64,281.06 C139.64,282.78 138.7,283.97 137.49,285.43 C136.28,286.89 134.74,288.7 133.42,290.2 L139.13,290.2 C139.357631,290.210132 139.539868,290.392369 139.55,290.62 L139.55,291.7 C139.539868,291.927631 139.357631,292.109868 139.13,292.12 L130.46,292.12 C130.346887,292.122694 130.237471,292.079636 130.156529,292.000577 C130.075588,291.921518 130.029968,291.813145 130.03,291.7 L130,291.12 Z" id="Path" fill="#000000"></path>
            <path d="M144.16,284.51 C144.16,279.6 146.16,276.67 149.71,276.67 C153.26,276.67 155.25,279.6 155.25,284.51 C155.25,289.42 153.25,292.35 149.71,292.35 C146.17,292.35 144.16,289.42 144.16,284.51 Z M152.98,284.51 C152.98,280.84 151.8,278.73 149.71,278.73 C147.62,278.73 146.42,280.84 146.42,284.51 C146.42,288.18 147.61,290.31 149.71,290.31 C151.81,290.31 153,288.23 153,284.51 L152.98,284.51 Z" id="Shape" fill="#000000"></path>
            <path d="M161.83,280.32 L160.04,281.17 C159.84,281.26 159.61,281.22 159.55,281.01 L159.28,280.23 C159.212735,280.080804 159.235995,279.90636 159.34,279.78 L162.53,276.89 L163.62,276.89 C163.731401,276.892621 163.837195,276.939405 163.914092,277.020052 C163.990988,277.1007 164.032684,277.2086 164.03,277.32 L164.03,291.7 C164.030065,291.92811 163.848045,292.114569 163.62,292.12 L162.26,292.12 C162.146887,292.122694 162.037471,292.079636 161.956529,292.000577 C161.875588,291.921518 161.829968,291.813145 161.83,291.7 L161.83,280.32 Z" id="Path" fill="#000000"></path>
            <path d="M171.1,290.65 C172.1,290.31 175.72,288.45 176.46,285.72 C175.537717,286.222424 174.509825,286.499955 173.46,286.53 C172.178175,286.545061 170.946754,286.031415 170.055568,285.109954 C169.164381,284.188494 168.692143,282.940607 168.75,281.66 C168.73854,278.874167 170.964679,276.594601 173.75,276.54 C177.31,276.54 179.02,279.36 179.02,282.83 C179.02,289.08 173.66,291.7 171.6,292.51 C171.49051,292.557747 171.365642,292.555373 171.258046,292.503496 C171.150451,292.45162 171.070829,292.355401 171.04,292.24 L170.66,291.3 C170.59,291 170.68,290.78 171.1,290.65 Z M176.88,283.01 C177.08,281.13 176.23,278.55 173.79,278.55 C172.111747,278.582829 170.773222,279.96151 170.79,281.64 C170.771148,282.447708 171.078877,283.228877 171.643542,283.806718 C172.208208,284.384559 172.982072,284.71022 173.79,284.71 C175.05315,284.739526 176.234158,284.085959 176.88,283 L176.88,283.01 Z" id="Shape" fill="#000000"></path>
            <path d="M184.48,289.24 C185.111855,289.23595 185.68375,289.613453 185.928362,290.196052 C186.172975,290.778652 186.041987,291.451269 185.596628,291.899502 C185.151268,292.347735 184.479507,292.483045 183.895347,292.242184 C183.311186,292.001323 182.930013,291.431868 182.93,290.8 C182.927337,290.387185 183.089463,289.990362 183.380434,289.697514 C183.671404,289.404667 184.067176,289.239991 184.48,289.24 Z" id="Path" fill="#000000"></path>
            <path d="M25.71,182.61 C25.6033606,182.295817 25.659496,181.949199 25.8598484,181.684734 C26.0602009,181.420268 26.3786799,181.272396 26.71,181.29 L31.77,181.29 C32.2299841,181.316542 32.626781,181.622075 32.77,182.06 L38.47,204 L38.69,204 L47.44,181.34 C47.5696956,180.945694 47.9572898,180.695633 48.37,180.74 L49.37,180.74 C49.7836516,180.691624 50.1735696,180.943184 50.3,181.34 L59.09,204 L59.31,204 L64.92,182.06 C65.063219,181.622075 65.4600159,181.316542 65.92,181.29 L71,181.29 C71.3313201,181.272396 71.6497991,181.420268 71.8501516,181.684734 C72.050504,181.949199 72.1066394,182.295817 72,182.61 L61.57,219.56 C61.4424408,220.008766 61.036463,220.321369 60.57,220.33 L59.7,220.33 C59.2882075,220.360875 58.9053742,220.116513 58.76,219.73 L48.92,194.82 L48.65,194.82 L38.91,219.73 C38.7684089,220.11495 38.3890896,220.359672 37.98,220.33 L37.1,220.33 C36.633537,220.321369 36.2275592,220.008766 36.1,219.56 L25.71,182.61 Z" id="Path" fill="#231F20"></path>
            <path d="M81.7,182.33 C81.7,181.777715 82.1477153,181.33 82.7,181.33 L105.08,181.33 C105.632285,181.33 106.08,181.777715 106.08,182.33 L106.08,186.84 C106.08,187.392285 105.632285,187.84 105.08,187.84 L88.85,187.84 L88.85,196.84 L102.43,196.84 C102.965574,196.878399 103.391601,197.304426 103.43,197.84 L103.43,202.41 C103.43,202.962285 102.982285,203.41 102.43,203.41 L88.85,203.41 L88.85,213.04 L105.13,213.04 C105.682285,213.04 106.13,213.487715 106.13,214.04 L106.13,218.55 C106.13,219.102285 105.682285,219.55 105.13,219.55 L82.75,219.55 C82.1977153,219.55 81.75,219.102285 81.75,218.55 L81.7,182.33 Z" id="Path" fill="#231F20"></path>
            <path d="M117.34,182.33 C117.34,181.777715 117.787715,181.33 118.34,181.33 L131,181.33 C137.54,181.33 142.6,185.73 142.6,191.5 C142.6,195.74 139.14,199.04 136.55,200.25 C139.47,201.18 143.7,204.15 143.7,209.25 C143.7,215.41 138.42,219.86 131.7,219.86 L118.39,219.86 C117.837715,219.86 117.39,219.412285 117.39,218.86 L117.34,182.33 Z M130.34,197.46 C131.643616,197.465058 132.891275,196.930734 133.787153,195.983717 C134.683031,195.0367 135.147344,193.761329 135.07,192.46 C135.122368,191.194652 134.639125,189.965809 133.738877,189.075077 C132.838629,188.184345 131.604721,187.714188 130.34,187.78 L124.46,187.78 L124.46,197.41 L130.34,197.46 Z M131.11,213.29 C132.435723,213.303806 133.71046,212.779812 134.643216,211.837634 C135.575973,210.895456 136.087129,209.615518 136.06,208.29 C136.06,205.54 133.31,203.51 130.45,203.51 L124.45,203.51 L124.45,213.29 L131.11,213.29 Z" id="Shape" fill="#231F20"></path>
            <path d="M46.17,226.9 C51.1080565,226.764041 55.8971685,228.599088 59.48,232 C59.7156065,232.182426 59.8575857,232.460419 59.8672552,232.758238 C59.8769247,233.056058 59.7532769,233.342675 59.53,233.54 L56.18,237 C56.0109839,237.20746 55.7575929,237.327861 55.49,237.327861 C55.2224071,237.327861 54.9690161,237.20746 54.8,237 C52.459694,234.940576 49.457261,233.790708 46.34,233.76 C39.34,233.76 34.07,239.64 34.07,246.57 C34.003093,249.892621 35.2673548,253.104087 37.5813218,255.489426 C39.8952889,257.874766 43.0668795,259.235973 46.39,259.27 C49.4734592,259.244177 52.4499425,258.136401 54.8,256.14 C55.1862983,255.771746 55.7937017,255.771746 56.18,256.14 L59.59,259.66 C59.7910692,259.857855 59.89922,260.13143 59.8877932,260.413289 C59.8763665,260.695148 59.7464253,260.959071 59.53,261.14 C55.9560413,264.613592 51.1535932,266.533134 46.17,266.48 C35.234762,266.48 26.37,257.615238 26.37,246.68 C26.37,235.744762 35.234762,226.88 46.17,226.88 L46.17,226.9 Z" id="Path" fill="#231F20"></path>
            <path d="M66.14,264.52 L83.24,227.52 C83.3992819,227.143718 83.7714683,226.902192 84.18,226.91 L84.73,226.91 C85.1408275,226.885143 85.5191328,227.133278 85.66,227.52 L102.6,264.52 C102.75074,264.835859 102.72538,265.20754 102.533135,265.499998 C102.34089,265.792456 102.009739,265.963127 101.66,265.95 L96.88,265.95 C96.1587145,265.989354 95.5015408,265.537547 95.28,264.85 L92.59,258.91 L76.15,258.91 L73.45,264.85 C73.2128304,265.521305 72.5718153,265.964774 71.86,265.95 L67.07,265.95 C66.7220198,265.959521 66.3941288,265.787393 66.204341,265.495568 C66.0145531,265.203744 65.9901823,264.834222 66.14,264.52 L66.14,264.52 Z M89.9,252.8 L84.4,240.71 L84.23,240.71 L78.84,252.8 L89.9,252.8 Z" id="Shape" fill="#231F20"></path>
            <path d="M114.92,227.73 C114.977608,227.230359 115.418297,226.864587 115.92,226.9 L116.8,226.9 C117.194441,226.881667 117.562736,227.097159 117.74,227.45 L129.84,253.45 L130,253.45 L142.1,227.45 C142.263143,227.089022 142.635078,226.86906 143.03,226.9 L143.91,226.9 C144.415153,226.85366 144.862496,227.224955 144.91,227.73 L151.4,264.73 C151.486523,265.037696 151.420745,265.368214 151.223009,265.619338 C151.025274,265.870463 150.719407,266.011934 150.4,266 L145.4,266 C144.931686,265.94584 144.539498,265.620324 144.4,265.17 L141.16,244.33 L140.99,244.33 L131.37,265.94 C131.226452,266.32459 130.84994,266.571549 130.44,266.55 L129.44,266.55 C129.031468,266.557808 128.659282,266.316282 128.5,265.94 L118.77,244.33 L118.6,244.33 L115.41,265.17 C115.30849,265.644494 114.895073,265.98763 114.41,266 L109.41,266 C109.090593,266.011934 108.784726,265.870463 108.586991,265.619338 C108.389255,265.368214 108.323477,265.037696 108.41,264.73 L114.92,227.73 Z" id="Path" fill="#231F20"></path>
            <path d="M162.22,228.5 C162.205474,228.217319 162.311427,227.941725 162.511576,227.741576 C162.711725,227.541427 162.987319,227.435474 163.27,227.45 L176.19,227.45 C180.65475,227.312039 184.841744,229.611325 187.121165,233.452844 C189.400586,237.294363 189.41227,242.071129 187.151669,245.923753 C184.891067,249.776377 180.715372,252.096118 176.25,251.98 L169.37,251.98 L169.37,264.9 C169.356091,265.455002 168.923664,265.90905 168.37,265.95 L163.31,265.95 C163.027319,265.964526 162.751725,265.858573 162.551576,265.658424 C162.351427,265.458275 162.245474,265.182681 162.26,264.9 L162.22,228.5 Z M175.75,245.27 C177.260747,245.267394 178.707985,244.661988 179.770599,243.58811 C180.833212,242.514232 181.423325,241.06069 181.41,239.55 C181.370856,238.091072 180.751367,236.708027 179.688869,235.707477 C178.626371,234.706926 177.208648,234.171537 175.75,234.22 L169.37,234.22 L169.37,245.27 L175.75,245.27 Z" id="Shape" fill="#231F20"></path>
        </g>
    </g>
</svg>